<svg width="312" height="133" viewBox="0 0 312 133" fill="none" xmlns="http://www.w3.org/2000/svg">
<g clip-path="url(#clip0_7_43)">
<rect width="312" height="133" rx="9" fill="#0C211C"/>
<circle cx="36" cy="21" r="47" fill="#EE8866"/>
<path d="M33.5032 40.7208V44.7808C33.5032 48.2208 30.3032 51.0008 26.3632 51.0008C22.4232 51.0008 19.2031 48.2208 19.2031 44.7808V40.7208C19.2031 44.1608 22.4032 46.6008 26.3632 46.6008C30.3032 46.6008 33.5032 44.1408 33.5032 40.7208Z" stroke="#0C211C" stroke-width="1.5" stroke-linecap="round" stroke-linejoin="round"/>
<path d="M33.5002 35.22C33.5002 36.22 33.2202 37.14 32.7402 37.94C31.5601 39.88 29.1401 41.1 26.3401 41.1C23.5401 41.1 21.1201 39.86 19.9401 37.94C19.4601 37.14 19.1802 36.22 19.1802 35.22C19.1802 33.5 19.9801 31.96 21.2601 30.84C22.5601 29.7 24.3401 29.02 26.3201 29.02C28.3001 29.02 30.0801 29.72 31.3801 30.84C32.7002 31.94 33.5002 33.5 33.5002 35.22Z" stroke="#0C211C" stroke-width="1.5" stroke-linecap="round" stroke-linejoin="round"/>
<path d="M33.5032 35.22V40.72C33.5032 44.16 30.3032 46.6 26.3632 46.6C22.4232 46.6 19.2031 44.14 19.2031 40.72V35.22C19.2031 31.78 22.4032 29 26.3632 29C28.3432 29 30.1232 29.7 31.4232 30.82C32.7032 31.94 33.5032 33.5 33.5032 35.22Z" stroke="#0C211C" stroke-width="1.5" stroke-linecap="round" stroke-linejoin="round"/>
<path d="M56 28.9398V33.06C56 34.16 55.12 35.0598 54 35.0998H50.0798C47.9198 35.0998 45.94 33.5198 45.76 31.3598C45.64 30.0998 46.1198 28.9198 46.9598 28.0998C47.6998 27.3398 48.72 26.8999 49.84 26.8999H54C55.12 26.9399 56 27.8398 56 28.9398Z" stroke="#0C211C" stroke-width="1.5" stroke-linecap="round" stroke-linejoin="round"/>
<path d="M16 28V24C16 18.56 19.28 14.76 24.38 14.12C24.9 14.04 25.44 14 26 14H44C44.52 14 45.02 14.02 45.5 14.1C50.66 14.7 54 18.52 54 24V26.9H49.84C48.72 26.9 47.7 27.34 46.96 28.1C46.12 28.92 45.64 30.1 45.76 31.36C45.94 33.52 47.92 35.1 50.08 35.1H54V38C54 44 50 48 44 48H39" stroke="#0C211C" stroke-width="1.5" stroke-linecap="round" stroke-linejoin="round"/>
<path d="M36.9231 29.2857L36 28.3626L42.3297 22.033H36.6593V20.7143H44.5714V28.6264H43.2527V22.9561L36.9231 29.2857Z" fill="#0C211C"/>
</g>
<defs>
<clipPath id="clip0_7_43">
<rect width="312" height="133" rx="9" fill="white"/>
</clipPath>
</defs>
</svg>
