<svg width="90" height="75" viewBox="0 0 90 75" fill="none" xmlns="http://www.w3.org/2000/svg">
<circle cx="36" cy="21" r="54" fill="#BCFFEE"/>
<path d="M22.5846 33.7034C22.8357 33.8968 23.1447 33.9997 23.4615 33.9956C23.6884 33.9956 23.9122 33.9428 24.1152 33.8414C24.3181 33.7399 24.4946 33.5926 24.6308 33.4112C25.5146 32.2342 26.66 31.2786 27.9766 30.6198C29.2931 29.9611 30.7448 29.6173 32.2171 29.6156C33.6893 29.6138 35.1419 29.9541 36.46 30.6096C37.7782 31.2652 38.9258 32.218 39.8125 33.3929L39.9221 33.5208H39.9404L40.0317 33.6121H40.0683L40.1231 33.6669H40.1413C40.1918 33.7096 40.2469 33.7464 40.3058 33.7764L40.3606 33.813L40.525 33.886H41.3471L41.475 33.8495H41.4933L41.6394 33.7947H41.676L41.7673 33.7399L41.8221 33.7034L41.8769 33.6669C41.8818 33.6669 41.8864 33.6649 41.8898 33.6615C41.8933 33.6581 41.8952 33.6535 41.8952 33.6486L41.95 33.5938C41.9824 33.5792 42.0084 33.5532 42.0231 33.5208H42.0596L42.151 33.4112H42.1692C43.0541 32.2317 44.2016 31.2745 45.5207 30.6151C46.8398 29.9558 48.2944 29.6125 49.7692 29.6125C51.2441 29.6125 52.6986 29.9558 54.0178 30.6151C55.3369 31.2745 56.4843 32.2317 57.3692 33.4112C57.6047 33.7172 57.9505 33.919 58.3328 33.9736C58.7151 34.0282 59.1036 33.9312 59.4154 33.7034C59.5689 33.5883 59.6983 33.4441 59.7961 33.279C59.8939 33.1139 59.9582 32.9311 59.9853 32.7412C60.0125 32.5513 60.0019 32.3578 59.9543 32.172C59.9066 31.9861 59.8229 31.8115 59.7077 31.658C58.4143 29.9223 56.6883 28.5559 54.7019 27.6949C55.7887 26.701 56.5497 25.402 56.885 23.9682C57.2204 22.5344 57.1144 21.0327 56.5811 19.6602C56.0478 18.2876 55.112 17.1082 53.8964 16.2766C52.6808 15.445 51.2422 15 49.7692 15C48.2962 15 46.8576 15.445 45.6421 16.2766C44.4265 17.1082 43.4907 18.2876 42.9573 19.6602C42.424 21.0327 42.3181 22.5344 42.6534 23.9682C42.9888 25.402 43.7497 26.701 44.8365 27.6949C43.4051 28.3172 42.1036 29.2031 41 30.3065C39.8964 29.2031 38.5949 28.3172 37.1635 27.6949C38.2503 26.701 39.0112 25.402 39.3466 23.9682C39.6819 22.5344 39.576 21.0327 39.0427 19.6602C38.5093 18.2876 37.5735 17.1082 36.358 16.2766C35.1424 15.445 33.7038 15 32.2308 15C30.7578 15 29.3192 15.445 28.1036 16.2766C26.888 17.1082 25.9522 18.2876 25.4189 19.6602C24.8856 21.0327 24.7796 22.5344 25.115 23.9682C25.4503 25.402 26.2113 26.701 27.2981 27.6949C25.3117 28.5559 23.5858 29.9223 22.2923 31.658C22.1772 31.8115 22.0934 31.9861 22.0457 32.172C21.9981 32.3578 21.9876 32.5513 22.0147 32.7412C22.0418 32.9311 22.1061 33.1139 22.2039 33.279C22.3017 33.4441 22.4311 33.5883 22.5846 33.7034ZM45.3846 22.3074C45.3846 21.4405 45.6418 20.5931 46.1236 19.8723C46.6053 19.1515 47.2901 18.5897 48.0913 18.258C48.8925 17.9263 49.7741 17.8395 50.6246 18.0086C51.4752 18.1777 52.2564 18.5952 52.8696 19.2081C53.4828 19.8211 53.9004 20.6021 54.0696 21.4523C54.2388 22.3026 54.1519 23.1839 53.8201 23.9848C53.4882 24.7857 52.9262 25.4702 52.2052 25.9518C51.4841 26.4334 50.6364 26.6905 49.7692 26.6905C48.6078 26.6857 47.4954 26.2224 46.6742 25.4014C45.8529 24.5805 45.3894 23.4684 45.3846 22.3074ZM27.8462 22.3074C27.8462 21.4405 28.1033 20.5931 28.5851 19.8723C29.0669 19.1515 29.7517 18.5897 30.5529 18.258C31.354 17.9263 32.2356 17.8395 33.0862 18.0086C33.9367 18.1777 34.718 18.5952 35.3312 19.2081C35.9444 19.8211 36.362 20.6021 36.5311 21.4523C36.7003 22.3026 36.6135 23.1839 36.2816 23.9848C35.9498 24.7857 35.3878 25.4702 34.6667 25.9518C33.9457 26.4334 33.098 26.6905 32.2308 26.6905C31.0694 26.6857 29.9569 26.2224 29.1357 25.4014C28.3145 24.5805 27.851 23.4684 27.8462 22.3074ZM54.7019 46.6882C55.7887 45.6943 56.5497 44.3953 56.885 42.9615C57.2204 41.5277 57.1144 40.026 56.5811 38.6535C56.0478 37.2809 55.112 36.1015 53.8964 35.2699C52.6808 34.4383 51.2422 33.9933 49.7692 33.9933C48.2962 33.9933 46.8576 34.4383 45.6421 35.2699C44.4265 36.1015 43.4907 37.2809 42.9573 38.6535C42.424 40.026 42.3181 41.5277 42.6534 42.9615C42.9888 44.3953 43.7497 45.6943 44.8365 46.6882C43.4051 47.3105 42.1036 48.1964 41 49.2998C39.8964 48.1964 38.5949 47.3105 37.1635 46.6882C38.2503 45.6943 39.0112 44.3953 39.3466 42.9615C39.6819 41.5277 39.576 40.026 39.0427 38.6535C38.5093 37.2809 37.5735 36.1015 36.358 35.2699C35.1424 34.4383 33.7038 33.9933 32.2308 33.9933C30.7578 33.9933 29.3192 34.4383 28.1036 35.2699C26.888 36.1015 25.9522 37.2809 25.4189 38.6535C24.8856 40.026 24.7796 41.5277 25.115 42.9615C25.4503 44.3953 26.2113 45.6943 27.2981 46.6882C25.3117 47.5492 23.5858 48.9156 22.2923 50.6512C22.0597 50.9612 21.9599 51.3509 22.0147 51.7345C22.0695 52.1181 22.2745 52.4642 22.5846 52.6967C22.8357 52.89 23.1447 52.993 23.4615 52.9889C23.6884 52.9889 23.9122 52.9361 24.1152 52.8346C24.3181 52.7332 24.4946 52.5859 24.6308 52.4045C25.5146 51.2274 26.66 50.2718 27.9766 49.6131C29.2931 48.9544 30.7448 48.6106 32.2171 48.6088C33.6893 48.6071 35.1419 48.9474 36.46 49.6029C37.7782 50.2585 38.9258 51.2113 39.8125 52.3862L39.9221 52.514H39.9404L40.0317 52.6054H40.0683L40.1231 52.6601H40.1413L40.3058 52.7697L40.3606 52.8063L40.525 52.8793H41.3471L41.475 52.8428H41.4933L41.6394 52.788H41.676L41.7673 52.7332L41.8221 52.6967L41.8769 52.6601H41.8952L41.95 52.6054C41.9824 52.5907 42.0084 52.5647 42.0231 52.5323H42.0596L42.151 52.4227H42.1692C43.0541 51.2433 44.2016 50.286 45.5207 49.6267C46.8398 48.9673 48.2944 48.6241 49.7692 48.6241C51.2441 48.6241 52.6986 48.9673 54.0178 49.6267C55.3369 50.286 56.4843 51.2433 57.3692 52.4227C57.6047 52.7287 57.9505 52.9305 58.3328 52.9851C58.7151 53.0397 59.1036 52.9428 59.4154 52.7149C59.5689 52.5998 59.6983 52.4556 59.7961 52.2905C59.8939 52.1254 59.9582 51.9427 59.9853 51.7527C60.0125 51.5628 60.0019 51.3694 59.9543 51.1835C59.9066 50.9977 59.8229 50.823 59.7077 50.6695C58.4166 48.9272 56.6904 47.5543 54.7019 46.6882ZM27.8462 41.3007C27.8462 40.4338 28.1033 39.5864 28.5851 38.8656C29.0669 38.1448 29.7517 37.583 30.5529 37.2513C31.354 36.9195 32.2356 36.8327 33.0862 37.0019C33.9367 37.171 34.718 37.5884 35.3312 38.2014C35.9444 38.8144 36.362 39.5954 36.5311 40.4456C36.7003 41.2958 36.6135 42.1771 36.2816 42.978C35.9498 43.7789 35.3878 44.4635 34.6667 44.9451C33.9457 45.4267 33.098 45.6838 32.2308 45.6838C31.0694 45.679 29.9569 45.2156 29.1357 44.3947C28.3145 43.5737 27.851 42.4617 27.8462 41.3007ZM45.3846 41.3007C45.3846 40.4338 45.6418 39.5864 46.1236 38.8656C46.6053 38.1448 47.2901 37.583 48.0913 37.2513C48.8925 36.9195 49.7741 36.8327 50.6246 37.0019C51.4752 37.171 52.2564 37.5884 52.8696 38.2014C53.4828 38.8144 53.9004 39.5954 54.0696 40.4456C54.2388 41.2958 54.1519 42.1771 53.8201 42.978C53.4882 43.7789 52.9262 44.4635 52.2052 44.9451C51.4841 45.4267 50.6364 45.6838 49.7692 45.6838C48.6078 45.679 47.4954 45.2156 46.6742 44.3947C45.8529 43.5737 45.3894 42.4617 45.3846 41.3007Z" fill="#0A221C"/>
</svg>
