<svg width="65" height="65" viewBox="0 0 65 65" fill="none" xmlns="http://www.w3.org/2000/svg">
<circle cx="32.5" cy="32.5" r="32.5" fill="#F5F5F5"/>
<g clip-path="url(#clip0_1_4102)">
<path d="M41.1797 32.2923C41.1797 33.2795 40.586 34.0797 39.8539 34.0797C39.1216 34.0797 38.6963 33.1606 38.6963 32.1734C38.6963 31.1863 39.1216 30.5047 39.8539 30.5047C40.586 30.5047 41.1797 31.3049 41.1797 32.2923V32.2923Z" fill="#E8916F"/>
<path d="M49.5166 32.2923C49.5166 33.2795 50.1104 34.0797 50.8424 34.0797C51.5747 34.0797 52 33.1606 52 32.1734C52 31.1863 51.5747 30.5047 50.8424 30.5047C50.1101 30.5047 49.5166 31.3049 49.5166 32.2923V32.2923Z" fill="#D98868"/>
<path d="M43.9961 37.8335H46.7001V42.1666H43.9961V37.8335Z" fill="#D98868"/>
<path d="M40.4807 33.9448V30.2904C40.4807 27.7554 42.5356 25.7005 45.0707 25.7005H45.6256C48.1603 25.7005 50.2153 27.7554 50.2153 30.2904V33.9448C50.2153 36.6309 48.0377 38.8085 45.3519 38.8085H45.3441C42.6583 38.8085 40.4807 36.6309 40.4807 33.9448V33.9448Z" fill="#EBAD88"/>
<path d="M45.622 25.7005H45.0741C44.8923 25.7005 44.7131 25.7124 44.5369 25.7329C46.8203 25.9997 48.5928 27.9424 48.5928 30.3012V33.9335C48.5928 36.3491 46.8388 38.3539 44.5369 38.7406C44.8007 38.785 45.0715 38.8085 45.3481 38.8085C48.0362 38.8085 50.2152 36.6257 50.2152 33.9335V30.3009C50.2152 27.7603 48.1588 25.7005 45.622 25.7005V25.7005Z" fill="#E8916F"/>
<path d="M51.6756 45.3679V45.9863C51.6756 46.1503 51.5426 46.2831 51.3788 46.2831H39.3176C39.1535 46.2831 39.0208 46.1503 39.0208 45.9863V45.3679C39.0208 42.7061 40.8925 40.5483 43.2014 40.5483H47.495C49.8039 40.5483 51.6756 42.7061 51.6756 45.3679Z" fill="#47D5E6"/>
<path d="M47.495 40.5483H45.2012C47.5101 40.5483 49.3818 42.7061 49.3818 45.3679V46.2831H51.3787C51.5425 46.2831 51.6756 46.1503 51.6756 45.9863V45.3679C51.6756 42.7061 49.8039 40.5483 47.495 40.5483Z" fill="#22C0D4"/>
<path d="M43.3213 40.5483H47.3746L45.3481 46.2831L43.3213 40.5483Z" fill="#DCDFE8"/>
<path d="M45.3482 46.2831L43.9143 40.2398C43.8838 40.1114 43.749 40.0374 43.6246 40.0806L42.4284 40.4955C42.3075 40.5361 42.2261 40.6495 42.2261 40.7767V42.8818C42.2261 42.9386 42.2478 42.9931 42.2867 43.0343L45.3482 46.2831Z" fill="#20B5C7"/>
<path d="M45.3481 46.2831L46.7821 40.2398C46.8125 40.1114 46.947 40.0374 47.0717 40.0806L48.2679 40.4955C48.3888 40.5361 48.47 40.6495 48.47 40.7767V42.8818C48.47 42.9386 48.4485 42.9931 48.4094 43.0343L45.3481 46.2831Z" fill="#20B5C7"/>
<path d="M40.4599 31.2738C40.4599 31.2738 40.8649 31.4376 41.2807 30.6563C41.7561 29.7631 43.0089 29.2641 44.5103 29.3186C46.2432 29.3813 47.0262 28.8174 47.4252 28.2074C47.4594 28.1549 47.5382 28.1648 47.5582 28.2239C48.0662 29.7367 48.7556 29.3644 49.2087 30.763C49.4772 31.5913 50.1808 31.2738 50.1808 31.2738C50.1808 31.2738 52.1175 30.1492 51.1196 28.3636C51.2909 24.7751 48.4813 24.5625 48.4813 24.5625C48.4813 24.5625 47.197 22.9291 43.6768 23.7789C38.5972 25.0047 39.4991 28.5796 39.4991 28.5796C39.4991 28.5796 38.6256 30.273 40.4599 31.2738Z" fill="#FFD659"/>
<path d="M51.1192 28.3636C51.2908 24.7753 48.481 24.5628 48.481 24.5628C48.481 24.5628 47.3668 23.148 44.3726 23.6383C45.0159 23.7682 45.4684 23.9981 45.761 24.1961C46.0703 24.4057 46.4069 24.5741 46.7606 24.6953C47.5727 24.9739 48.9469 25.8219 48.8254 28.3636C49.2203 29.0699 49.1553 29.672 48.9335 30.1429C49.0315 30.3041 49.1243 30.5026 49.2087 30.763C49.4771 31.5913 50.1808 31.2738 50.1808 31.2738C50.1808 31.2738 52.1174 30.1492 51.1192 28.3636V28.3636Z" fill="#FFBD54"/>
<path d="M19.3 37.8335H22.0041V42.1666H19.3V37.8335Z" fill="#D98868"/>
<path d="M15.7847 33.9448V30.2904C15.7847 27.7554 17.8396 25.7005 20.3743 25.7005H20.9292C23.4643 25.7005 25.5189 27.7554 25.5189 30.2904V33.9448C25.5189 36.6309 23.3416 38.8085 20.6556 38.8085H20.648C17.9619 38.8085 15.7847 36.6309 15.7847 33.9448V33.9448Z" fill="#EBAD88"/>
<path d="M20.9257 25.7005H20.3778C20.196 25.7005 20.0168 25.7124 19.8406 25.7329C22.124 25.9997 23.8965 27.9424 23.8965 30.3012V33.9335C23.8965 36.3491 22.1425 38.3539 19.8406 38.7406C20.1044 38.785 20.3752 38.8085 20.6518 38.8085C23.3399 38.8085 25.5189 36.6257 25.5189 33.9335V30.3009C25.5192 27.7603 23.4625 25.7005 20.9257 25.7005V25.7005Z" fill="#E8916F"/>
<path d="M26.9793 45.3679V45.9863C26.9793 46.1503 26.8466 46.2831 26.6825 46.2831H14.6213C14.4575 46.2831 14.3245 46.1503 14.3245 45.9863V45.3679C14.3245 42.7061 16.1962 40.5483 18.5051 40.5483H22.7987C25.1076 40.5483 26.9793 42.7061 26.9793 45.3679Z" fill="#FF2C5C"/>
<path d="M22.7987 40.5483H20.5049C22.8141 40.5483 24.6855 42.7061 24.6855 45.3679V46.2831H26.6824C26.8465 46.2831 26.9793 46.1503 26.9793 45.9863V45.3679C26.9793 42.7061 25.1076 40.5483 22.7987 40.5483Z" fill="#E62753"/>
<path d="M18.6252 40.5483H22.6786L20.6518 46.2831L18.6252 40.5483Z" fill="#DCDFE8"/>
<path d="M20.6519 46.2831L19.2173 40.2375C19.1872 40.1099 19.0541 40.036 18.9297 40.0777L17.7321 40.4804C17.6112 40.521 17.53 40.6344 17.53 40.7617V42.8818C17.53 42.9384 17.5515 42.9932 17.5906 43.0343L20.6519 46.2831Z" fill="#D6244D"/>
<path d="M20.6519 46.2831L22.0864 40.2375C22.1165 40.1099 22.2499 40.036 22.374 40.0777L23.5716 40.4804C23.6925 40.521 23.774 40.6344 23.774 40.7617V42.8818C23.774 42.9384 23.7522 42.9932 23.7134 43.0343L20.6519 46.2831Z" fill="#D6244D"/>
<path d="M21.5932 28.0723C21.5932 28.0723 18.752 29.3499 17.771 30.9999C16.4817 33.1679 16.4472 35.4031 15.81 37.5355C15.7734 37.6575 15.6105 37.6807 15.5418 37.5731C15.1052 36.8901 14 34.9639 14 32.9617C14 22.2551 21.8275 23.5513 22.1771 24.3648C23.7557 23.7038 26.9216 25.0699 26.9216 31.3417C26.9216 34.3629 26.5807 36.4422 25.6602 37.7758C25.5862 37.8828 25.4207 37.8515 25.3923 37.7245C25.2149 36.9275 24.7519 34.7528 24.5309 32.8269C24.025 28.4115 21.5932 28.0723 21.5932 28.0723V28.0723Z" fill="#FFD659"/>
<path d="M22.177 24.3648C22.0361 24.0372 20.6822 23.6313 19.1155 23.963C19.3926 24.0303 19.6022 24.2033 19.8588 24.6603C20.2009 25.2694 20.7121 25.7703 21.3461 26.0629C23.0511 26.8503 24.1261 28.4935 24.6378 31.3417C24.7587 32.014 24.6201 32.6594 24.5827 33.2485C24.8173 35.0607 25.2278 36.9852 25.3922 37.7245C25.4206 37.8512 25.5861 37.8828 25.6601 37.7758C26.5806 36.4422 26.9215 34.3629 26.9215 31.3417C26.9215 25.0699 23.7556 23.7038 22.177 24.3648V24.3648Z" fill="#FFBD54"/>
<path d="M27.1066 29.3125C27.1066 30.7039 26.2673 31.8316 25.2323 31.8316C24.197 31.8316 23.5957 30.5366 23.5957 29.1453C23.5957 27.754 24.197 26.7935 25.2323 26.7935C26.2673 26.7935 27.1066 27.9212 27.1066 29.3125Z" fill="#E8916F"/>
<path d="M38.8936 29.3125C38.8936 30.7039 39.7329 31.8316 40.7679 31.8316C41.8032 31.8316 42.4044 30.5366 42.4044 29.1453C42.4044 27.754 41.8032 26.7935 40.7679 26.7935C39.7329 26.7935 38.8936 27.9212 38.8936 29.3125Z" fill="#D98868"/>
<path d="M31.0886 37.1223H34.9115V43.2294H31.0886V37.1223Z" fill="#D98868"/>
<path d="M26.1189 31.6206V26.5114C26.1189 22.9274 29.0242 20.0224 32.6078 20.0224H33.3923C36.9763 20.0224 39.8815 22.9274 39.8815 26.5114V31.6206C39.8815 35.4179 36.8029 38.4965 33.0056 38.4965H32.9949C29.1972 38.4965 26.1189 35.4179 26.1189 31.6206V31.6206Z" fill="#EBAD88"/>
<path d="M33.3873 20.0224H32.6126C32.3555 20.0224 32.1024 20.039 31.853 20.068C35.0815 20.444 37.5876 23.1823 37.5876 26.5064V31.6261C37.5876 35.0303 35.1076 37.8558 31.853 38.4012C32.2262 38.4635 32.6091 38.4965 32.9999 38.4965C36.8005 38.4965 39.8811 35.4205 39.8811 31.6261V26.5064C39.8811 22.9254 36.9738 20.0224 33.3873 20.0224V20.0224Z" fill="#E8916F"/>
<path d="M41.9456 47.7411V48.5859C41.9456 48.8321 41.7461 49.0312 41.5002 49.0312H24.4995C24.2537 49.0312 24.0542 48.8321 24.0542 48.5859V47.7411C24.0542 43.9899 26.7003 40.9489 29.9647 40.9489H36.035C39.2995 40.9489 41.9456 43.9899 41.9456 47.7411Z" fill="#685C79"/>
<path d="M36.035 40.9489H33.7412C37.0057 40.9489 39.652 43.9899 39.652 47.7411V49.0312H41.5003C41.7464 49.0312 41.9456 48.8321 41.9456 48.5859V47.7411C41.9456 43.9899 39.2995 40.9489 36.035 40.9489V40.9489Z" fill="#594F69"/>
<path d="M30.1348 40.9489H35.8653L33 49.0312L30.1348 40.9489Z" fill="#FFD659"/>
<path d="M36.308 32.6304C36.0233 32.5144 35.6984 32.6515 35.5827 32.9362C35.5775 32.9496 35.0217 34.2597 33.0688 34.2597C31.1258 34.2597 30.4337 32.9629 30.4004 32.898C30.2641 32.6243 29.9322 32.5118 29.6576 32.646C29.3814 32.7811 29.2668 33.1142 29.4019 33.3905C29.4417 33.4714 30.4019 35.373 33.0688 35.373C35.7624 35.373 36.5806 33.4381 36.6139 33.3557C36.7296 33.071 36.5927 32.7463 36.308 32.6304Z" fill="#D98868"/>
<path d="M37.2975 28.2297C37.241 28.2161 35.8952 27.9021 34.3044 28.4677C34.0148 28.5709 33.8634 28.8893 33.9664 29.1789C34.0475 29.4068 34.2621 29.5491 34.4908 29.5491C34.5529 29.5491 34.6158 29.5387 34.6775 29.5166C35.9427 29.0667 37.0279 29.3099 37.0366 29.312C37.3352 29.3842 37.6361 29.2003 37.708 28.9014C37.7802 28.6025 37.5964 28.3019 37.2975 28.2297V28.2297Z" fill="#D98868"/>
<path d="M31.3227 29.5166C31.3844 29.5387 31.4473 29.5491 31.5091 29.5491C31.7381 29.5491 31.9526 29.4068 32.0335 29.1789C32.1367 28.8893 31.9854 28.5709 31.6958 28.4677C30.105 27.9021 28.7592 28.2161 28.7024 28.2297C28.4046 28.3016 28.222 28.6005 28.2924 28.8988C28.3632 29.1972 28.663 29.3815 28.9613 29.3125C28.9723 29.3099 30.0575 29.0667 31.3227 29.5166Z" fill="#D98868"/>
<path d="M32.9999 49.0313L30.9485 40.4129C30.9183 40.2856 30.7852 40.212 30.6612 40.2534L28.7886 40.8811C28.6677 40.9214 28.5859 41.0348 28.5859 41.1626V44.2485C28.5859 44.3198 28.6201 44.3871 28.6781 44.4288L29.6125 45.1052C29.6702 45.1472 29.7044 45.2142 29.7044 45.2855V46.5264C29.7044 46.5977 29.7386 46.6647 29.7963 46.7064L32.9999 49.0313Z" fill="#50475E"/>
<path d="M33 49.0313L35.0515 40.4129C35.0816 40.2856 35.2147 40.212 35.3388 40.2534L37.2113 40.8811C37.3322 40.9214 37.414 41.0348 37.414 41.1626V44.2485C37.414 44.3198 37.3798 44.3871 37.3218 44.4288L36.3874 45.1052C36.3297 45.1472 36.2955 45.2142 36.2955 45.2855V46.5264C36.2955 46.5977 36.2613 46.6647 36.2036 46.7064L33 49.0313Z" fill="#50475E"/>
<path d="M26.0892 27.8774C26.0892 27.8774 26.6615 28.1079 27.2495 27.0071C27.9215 25.748 29.6929 25.045 31.8154 25.1215C34.3168 25.2117 35.4182 24.3816 35.971 23.5012C36.0047 23.4481 36.0844 23.458 36.1041 23.5177C36.8243 25.721 37.8114 25.1673 38.4582 27.1573C38.8374 28.3248 39.8324 27.8774 39.8324 27.8774C39.8324 27.8774 42.5704 26.2925 41.1594 23.7757C41.4018 18.7181 37.4293 18.4186 37.4293 18.4186C37.4293 18.4186 35.6139 16.1167 30.6369 17.314C23.4553 19.0419 24.7304 24.0804 24.7304 24.0804C24.7304 24.0804 23.4953 26.467 26.0892 27.8774Z" fill="#8C4A37"/>
<path d="M41.1595 23.7757C41.4019 18.7181 37.4295 18.4186 37.4295 18.4186C37.4295 18.4186 35.9842 16.5863 32.1382 17.0415C34.2812 17.3355 35.1356 18.4186 35.1356 18.4186C35.1356 18.4186 39.1081 18.7181 38.8657 23.7757C39.6975 25.2595 39.0872 26.4192 38.4462 27.1213C38.4503 27.1335 38.4543 27.1451 38.4581 27.1573C38.8376 28.3248 39.8326 27.8775 39.8326 27.8775C39.8326 27.8775 42.5706 26.2925 41.1595 23.7757Z" fill="#804231"/>
</g>
<defs>
<clipPath id="clip0_1_4102">
<rect width="38" height="38" fill="white" transform="translate(14 14)"/>
</clipPath>
</defs>
</svg>
