<svg width="65" height="65" viewBox="0 0 65 65" fill="none" xmlns="http://www.w3.org/2000/svg">
<circle cx="32.5" cy="32.5" r="32.5" fill="#F5F5F5"/>
<g clip-path="url(#clip0_1_4097)">
<path d="M42.2733 19.3381V36.5426L27.1745 41.0121C26.4381 41.2298 26.0181 42.0036 26.2358 42.74L28.1781 49.3011C28.3515 49.8874 28.8764 50.2736 29.4543 50.2969H20.2654V19.3381H42.2733Z" fill="#F9F5F3"/>
<path d="M38.6622 15.7032V19.3381H20.2653V46.6619H16.6543V15.7032H38.6622Z" fill="#CCD3DD"/>
<path d="M48.3517 44.7804L29.9062 50.2403C29.1697 50.4582 28.3959 50.038 28.1779 49.3014L26.2358 42.7401C26.0178 42.0036 26.4381 41.2298 27.1746 41.0119L45.6201 35.552C46.3566 35.3341 47.1304 35.7543 47.3483 36.4909L49.2905 43.0522C49.5085 43.7886 49.0881 44.5624 48.3517 44.7804V44.7804Z" fill="#8CC8FF"/>
<path d="M24.7642 31.7554H38.1469V34.6935H24.7642V31.7554Z" fill="#79E4A2"/>
<path d="M49.9647 42.8526L48.0226 36.2912C47.695 35.1843 46.5274 34.5503 45.4206 34.8778L26.975 40.3375C25.8814 40.6613 25.2379 41.8437 25.5615 42.9396L27.5037 49.5009C27.5129 49.5322 27.523 49.5631 27.5336 49.5936H20.9684V20.0413H41.5701V30.1193C41.5701 30.5075 41.885 30.8224 42.2733 30.8224C42.6615 30.8224 42.9764 30.5075 42.9764 30.1193V19.3381C42.9764 18.9498 42.6615 18.635 42.2733 18.635H39.3654V15.7031C39.3654 15.3149 39.0505 15 38.6623 15H16.6543C16.266 15 15.9512 15.3149 15.9512 15.7031V46.6619C15.9512 47.0502 16.266 47.365 16.6543 47.365H19.5622V50.2969C19.5622 50.6851 19.877 51 20.2653 51H42.2733C42.6615 51 42.9764 50.6851 42.9764 50.2969V47.1048L48.5512 45.4547C49.6446 45.131 50.2891 43.9483 49.9647 42.8526V42.8526ZM17.3575 45.9587V16.4063H37.9591V18.635H20.2653C19.877 18.635 19.5622 18.9498 19.5622 19.3381V45.9587H17.3575ZM41.5701 49.5937H34.5679L36.678 48.969L41.5701 47.521V49.5937ZM48.5612 43.7751C48.4735 43.9364 48.3282 44.0541 48.1522 44.1062L29.7066 49.5659C29.347 49.673 28.9584 49.4597 28.8523 49.1014L26.9101 42.5404C26.8041 42.182 27.0157 41.7922 27.3741 41.6862L45.8197 36.2263C46.1787 36.1202 46.5679 36.3314 46.6742 36.6904L48.6162 43.2518C48.6683 43.4279 48.6488 43.6137 48.5612 43.7751Z" fill="black"/>
<path d="M32.2087 42.1441C31.7688 41.9053 31.2621 41.852 30.7819 41.9939L29.1798 42.4681C28.8074 42.5783 28.5949 42.9696 28.7051 43.3419L29.9149 47.429C30.0055 47.7348 30.2854 47.9328 30.5888 47.9328C30.6549 47.9328 30.7221 47.9233 30.7887 47.9037C31.161 47.7935 31.3736 47.4022 31.2633 47.0299L30.918 45.8633L31.8459 45.5886C32.5648 45.3758 33.1004 44.7345 33.1791 43.9876C33.2577 43.2408 32.8675 42.502 32.2087 42.1441ZM31.7253 44.0148C31.6656 44.1247 31.5667 44.2047 31.4468 44.2402L30.5189 44.5149L30.2531 43.617L31.1811 43.3424C31.5733 43.2263 31.9205 43.6553 31.7253 44.0148Z" fill="black"/>
<path d="M38.0636 43.9132C38.0634 43.9129 38.0632 43.9127 38.0629 43.9124L35.7629 40.9825C35.5842 40.7549 35.2842 40.66 35.007 40.7434C34.7299 40.8269 34.5322 41.0717 34.5089 41.3601L34.1419 45.9139C34.1093 46.318 34.4382 46.6736 34.8435 46.6736C35.2062 46.6736 35.514 46.3948 35.5437 46.027L35.5726 45.6686L37.2613 45.1687L37.4883 45.4578C37.7281 45.7632 38.17 45.8166 38.4756 45.5767C38.781 45.337 38.8343 44.8949 38.5945 44.5895L38.0636 43.9132ZM35.6936 44.1661L35.7663 43.2643L36.327 43.9786L35.6936 44.1661Z" fill="black"/>
<path d="M40.1412 39.9569C40.0311 39.5845 39.6397 39.372 39.2674 39.4822C38.8951 39.5924 38.6826 39.9836 38.7928 40.356L40.0024 44.4431C40.1112 44.8104 40.5086 45.0267 40.8762 44.9178C41.2486 44.8076 41.4611 44.4164 41.3509 44.044L40.1412 39.9569Z" fill="black"/>
<path d="M45.9014 39.4376C45.6134 38.4647 44.5874 37.9076 43.6146 38.1954L41.9795 38.6795C41.6072 38.7896 41.3947 39.1809 41.5049 39.5533L42.7147 43.6403C42.8233 44.0073 43.221 44.2238 43.5885 44.115L45.2236 43.631H45.2236C46.1966 43.3429 46.7537 42.3171 46.4657 41.3443L45.9014 39.4376ZM45.0824 42.0736C45.0272 42.1753 44.9355 42.2496 44.8244 42.2825L43.8635 42.5669L43.0529 39.8283L44.0137 39.5439C44.2428 39.4762 44.485 39.6073 44.5529 39.8368L45.1172 41.7434C45.1501 41.8545 45.1378 41.9718 45.0824 42.0736V42.0736Z" fill="black"/>
<path d="M42.9224 33.0812C42.6863 32.5152 41.8584 32.5145 41.6237 33.0812C41.509 33.3582 41.587 33.6871 41.8142 33.8827C42.0423 34.0788 42.376 34.1063 42.6342 33.9532C42.931 33.7773 43.0525 33.3989 42.9224 33.0812V33.0812Z" fill="black"/>
<path d="M38.1467 22.2623H31.6592C31.2709 22.2623 30.9561 22.5771 30.9561 22.9654C30.9561 23.3537 31.2709 23.6686 31.6592 23.6686H38.1467C38.535 23.6686 38.8499 23.3537 38.8499 22.9654C38.8499 22.5771 38.5351 22.2623 38.1467 22.2623Z" fill="black"/>
<path d="M38.1467 24.9597H31.6592C31.2709 24.9597 30.9561 25.2745 30.9561 25.6628C30.9561 26.0511 31.2709 26.3659 31.6592 26.3659H38.1467C38.535 26.3659 38.8499 26.0511 38.8499 25.6628C38.8499 25.2745 38.5351 24.9597 38.1467 24.9597Z" fill="black"/>
<path d="M38.1467 27.657H31.6592C31.2709 27.657 30.9561 27.9718 30.9561 28.3601C30.9561 28.7484 31.2709 29.0633 31.6592 29.0633H38.1467C38.535 29.0633 38.8499 28.7484 38.8499 28.3601C38.8499 27.9718 38.5351 27.657 38.1467 27.657Z" fill="black"/>
<path d="M38.85 34.6935V31.7554C38.85 31.3671 38.5352 31.0522 38.1469 31.0522H24.7642C24.3758 31.0522 24.061 31.3671 24.061 31.7554V34.6935C24.061 35.0817 24.3758 35.3966 24.7642 35.3966H38.1469C38.5352 35.3966 38.85 35.0818 38.85 34.6935ZM37.4437 33.9903H25.4673V32.4585H37.4437V33.9903Z" fill="black"/>
<path d="M24.9129 37.1054C24.5245 37.1054 24.2097 37.4203 24.2097 37.8086C24.2097 38.1968 24.5245 38.5117 24.9129 38.5117H28.528C28.9163 38.5117 29.2311 38.1968 29.2311 37.8086C29.2311 37.4203 28.9163 37.1054 28.528 37.1054H24.9129Z" fill="black"/>
</g>
<defs>
<clipPath id="clip0_1_4097">
<rect width="36" height="36" fill="white" transform="translate(15 15)"/>
</clipPath>
</defs>
</svg>
