<svg width="65" height="65" viewBox="0 0 65 65" fill="none" xmlns="http://www.w3.org/2000/svg">
<circle cx="32.5" cy="32.5" r="32.5" fill="#F5F5F5"/>
<g clip-path="url(#clip0_38_4130)">
<path d="M17 16H39.5V47.5H17V16Z" fill="#ECE6F2"/>
<path d="M28.25 16H39.5V47.5H28.25V16Z" fill="#CFCFE6"/>
<path d="M21.5 20.5H44V52H21.5V20.5Z" fill="#FFF5F5"/>
<path d="M32.75 20.5H44V52H32.75V20.5Z" fill="#ECE6F2"/>
<path d="M34.4531 24.4727H39.9727V26.582H34.4531V24.4727Z" fill="#0A1F33"/>
<path d="M34.4531 28.709H39.9727V30.8184H34.4531V28.709Z" fill="#0A1F33"/>
<path d="M34.4531 32.9453H39.9727V35.0547H34.4531V32.9453Z" fill="#0A1F33"/>
<path d="M25.5273 43H39.9723V47.5H25.5273V43Z" fill="#7ECE50"/>
<path d="M32.75 43H39.9725V47.5H32.75V43Z" fill="#30B52B"/>
<path d="M44.8404 52C49.3469 52 53.0002 48.3468 53.0002 43.8402C53.0002 39.3337 49.3469 35.6805 44.8404 35.6805C40.3339 35.6805 36.6807 39.3337 36.6807 43.8402C36.6807 48.3468 40.3339 52 44.8404 52Z" fill="#7DB3FF"/>
<path d="M53.0001 43.8402C53.0001 48.3466 49.3467 52 44.8403 52V35.6805C49.3467 35.6805 53.0001 39.3339 53.0001 43.8402Z" fill="#8F94F2"/>
<path d="M49.1488 42.1443L44.84 46.0783L43.727 47.0943L40.5312 43.5709L42.0936 42.1541L43.8676 44.1095L44.84 43.2215L47.7263 40.5862L49.1488 42.1443Z" fill="#FFF5F5"/>
<path d="M49.1491 42.1443L44.8403 46.0783V43.2215L47.7267 40.5862L49.1491 42.1443Z" fill="#ECE6F2"/>
</g>
<defs>
<clipPath id="clip0_38_4130">
<rect width="36" height="36" fill="white" transform="translate(17 16)"/>
</clipPath>
</defs>
</svg>
