<svg width="48" height="41" viewBox="0 0 48 41" fill="none" xmlns="http://www.w3.org/2000/svg">
<path d="M46.1494 17.7778C47.2835 19.2106 47.2835 21.1448 46.1494 22.5753C42.5771 27.0793 34.0066 36.3531 24.0004 36.3531C13.9942 36.3531 5.4236 27.0793 1.85133 22.5753C1.29953 21.8893 1 21.0453 1 20.1766C1 19.3078 1.29953 18.4639 1.85133 17.7778C5.4236 13.2738 13.9942 4 24.0004 4C34.0066 4 42.5771 13.2738 46.1494 17.7778V17.7778Z" stroke="white" stroke-width="2" stroke-linecap="round" stroke-linejoin="round"/>
<path d="M24.0003 27.1092C27.9646 27.1092 31.1783 24.0052 31.1783 20.1763C31.1783 16.3475 27.9646 13.2435 24.0003 13.2435C20.036 13.2435 16.8223 16.3475 16.8223 20.1763C16.8223 24.0052 20.036 27.1092 24.0003 27.1092Z" stroke="white" stroke-width="2" stroke-linecap="round" stroke-linejoin="round"/>
<rect x="5" width="55.4186" height="1.38546" transform="rotate(45.034 5 0)" fill="white"/>
</svg>
