<svg width="26" height="26" viewBox="0 0 26 26" fill="none" xmlns="http://www.w3.org/2000/svg">
<g clip-path="url(#clip0_4_328)">
<path d="M12.8807 9.43828L16.4464 13.004L16.4634 12.8172C16.4634 10.9438 14.9409 9.4213 13.0675 9.4213L12.8807 9.43828Z" fill="black"/>
<path d="M13.0675 7.15741C16.1917 7.15741 18.7273 9.69303 18.7273 12.8173C18.7273 13.5474 18.5802 14.2435 18.3255 14.8831L21.6365 18.1941C23.3457 16.7678 24.6928 14.9227 25.5248 12.8173C23.5608 7.84795 18.733 4.32751 13.0675 4.32751C11.4827 4.32751 9.96594 4.61049 8.55664 5.11987L11.0017 7.55924C11.6412 7.31023 12.3373 7.15741 13.0675 7.15741Z" fill="black"/>
<path d="M1.74779 4.07277L4.32867 6.65366L4.84374 7.16872C2.97599 8.62895 1.49878 10.5703 0.615845 12.8172C2.57416 17.7865 7.40764 21.307 13.0675 21.307C14.8221 21.307 16.4973 20.9674 18.0312 20.3504L18.5123 20.8315L21.812 24.1369L23.2552 22.6993L3.19105 2.62952L1.74779 4.07277ZM8.0076 10.3269L9.75649 12.0758C9.70555 12.3192 9.67159 12.5625 9.67159 12.8172C9.67159 14.6906 11.1941 16.2131 13.0675 16.2131C13.3222 16.2131 13.5656 16.1791 13.8033 16.1282L15.5522 17.8771C14.7994 18.2506 13.9618 18.4771 13.0675 18.4771C9.94326 18.4771 7.40764 15.9414 7.40764 12.8172C7.40764 11.923 7.63405 11.0853 8.0076 10.3269Z" fill="black"/>
</g>
<defs>
<clipPath id="clip0_4_328">
<rect width="24.9089" height="24.9089" fill="white" transform="translate(0.615845 0.928741)"/>
</clipPath>
</defs>
</svg>
