<svg width="1659" height="953" viewBox="0 0 1659 953" fill="none" xmlns="http://www.w3.org/2000/svg">
<rect x="649.967" y="253.517" width="220.816" height="37.935" rx="5" fill="#250CBD"/>
<g clip-path="url(#clip0_4_333)">
<path d="M674.469 271.146C674.601 271.146 674.729 271.199 674.822 271.293C674.916 271.386 674.969 271.514 674.969 271.646V274.146C674.969 274.411 675.074 274.666 675.262 274.853C675.449 275.041 675.704 275.146 675.969 275.146H687.969C688.234 275.146 688.488 275.041 688.676 274.853C688.863 274.666 688.969 274.411 688.969 274.146V271.646C688.969 271.514 689.021 271.386 689.115 271.293C689.209 271.199 689.336 271.146 689.469 271.146C689.601 271.146 689.729 271.199 689.822 271.293C689.916 271.386 689.969 271.514 689.969 271.646V274.146C689.969 274.677 689.758 275.185 689.383 275.56C689.008 275.935 688.499 276.146 687.969 276.146H675.969C675.438 276.146 674.93 275.935 674.555 275.56C674.179 275.185 673.969 274.677 673.969 274.146V271.646C673.969 271.514 674.021 271.386 674.115 271.293C674.209 271.199 674.336 271.146 674.469 271.146V271.146Z" fill="white"/>
<path d="M681.615 262.392C681.661 262.345 681.716 262.308 681.777 262.283C681.838 262.258 681.903 262.245 681.969 262.245C682.035 262.245 682.1 262.258 682.16 262.283C682.221 262.308 682.276 262.345 682.323 262.392L685.323 265.392C685.417 265.486 685.469 265.613 685.469 265.746C685.469 265.878 685.417 266.006 685.323 266.1C685.229 266.194 685.102 266.246 684.969 266.246C684.836 266.246 684.709 266.194 684.615 266.1L682.469 263.953V272.746C682.469 272.878 682.416 273.005 682.322 273.099C682.229 273.193 682.101 273.246 681.969 273.246C681.836 273.246 681.709 273.193 681.615 273.099C681.521 273.005 681.469 272.878 681.469 272.746V263.953L679.323 266.1C679.276 266.146 679.221 266.183 679.16 266.208C679.1 266.233 679.035 266.246 678.969 266.246C678.903 266.246 678.838 266.233 678.777 266.208C678.716 266.183 678.661 266.146 678.615 266.1C678.568 266.053 678.531 265.998 678.506 265.937C678.481 265.876 678.468 265.811 678.468 265.746C678.468 265.68 678.481 265.615 678.506 265.554C678.531 265.493 678.568 265.438 678.615 265.392L681.615 262.392Z" fill="white"/>
</g>
<path d="M716.166 265.328H717.496V270.963C717.496 271.756 717.694 272.328 718.091 272.678C718.492 273.028 719.012 273.203 719.652 273.203C720.291 273.203 720.809 273.028 721.206 272.678C721.602 272.328 721.801 271.756 721.801 270.963V265.328H723.131V270.963C723.131 271.709 722.991 272.342 722.711 272.86C722.431 273.373 722.029 273.763 721.507 274.029C720.989 274.295 720.37 274.428 719.652 274.428C718.938 274.428 718.319 274.295 717.797 274.029C717.274 273.763 716.87 273.373 716.586 272.86C716.306 272.342 716.166 271.709 716.166 270.963V265.328ZM728.891 274.428C728.401 274.428 727.976 274.318 727.617 274.099C727.258 273.875 726.982 273.548 726.791 273.119C726.604 272.685 726.511 272.148 726.511 271.509H727.029C727.029 271.877 727.108 272.19 727.267 272.447C727.426 272.699 727.633 272.892 727.89 273.028C728.151 273.158 728.429 273.224 728.723 273.224C729.031 273.224 729.33 273.137 729.619 272.965C729.913 272.787 730.153 272.524 730.34 272.174C730.527 271.824 730.62 271.39 730.62 270.872C730.62 270.377 730.536 269.955 730.368 269.605C730.205 269.255 729.981 268.986 729.696 268.8C729.411 268.613 729.092 268.52 728.737 268.52C728.438 268.52 728.158 268.592 727.897 268.737C727.636 268.877 727.426 269.084 727.267 269.36C727.108 269.63 727.029 269.962 727.029 270.354H726.511C726.511 269.677 726.618 269.115 726.833 268.667C727.052 268.219 727.346 267.885 727.715 267.666C728.084 267.442 728.492 267.33 728.94 267.33C729.467 267.33 729.962 267.472 730.424 267.757C730.886 268.037 731.259 268.44 731.544 268.968C731.833 269.495 731.978 270.13 731.978 270.872C731.978 271.614 731.833 272.251 731.544 272.783C731.255 273.315 730.874 273.723 730.403 274.008C729.936 274.288 729.432 274.428 728.891 274.428ZM725.699 277.55V267.512H726.798L727.029 269.129V277.55H725.699ZM734.039 274.246V264.677H735.369V274.246H734.039ZM740.633 274.428C740.022 274.428 739.474 274.295 738.988 274.029C738.508 273.763 738.127 273.366 737.847 272.839C737.567 272.311 737.427 271.66 737.427 270.886C737.427 270.097 737.567 269.441 737.847 268.919C738.127 268.391 738.508 267.995 738.988 267.729C739.474 267.463 740.022 267.33 740.633 267.33C741.235 267.33 741.777 267.463 742.257 267.729C742.738 267.995 743.116 268.391 743.391 268.919C743.671 269.441 743.811 270.097 743.811 270.886C743.811 271.66 743.671 272.311 743.391 272.839C743.116 273.366 742.738 273.763 742.257 274.029C741.777 274.295 741.235 274.428 740.633 274.428ZM740.591 273.266C740.979 273.266 741.312 273.172 741.592 272.986C741.877 272.799 742.094 272.528 742.243 272.174C742.397 271.814 742.474 271.385 742.474 270.886C742.474 270.12 742.318 269.528 742.005 269.108C741.697 268.688 741.252 268.478 740.668 268.478C740.276 268.478 739.938 268.573 739.653 268.765C739.373 268.951 739.156 269.224 739.002 269.584C738.853 269.938 738.778 270.372 738.778 270.886C738.778 271.637 738.935 272.223 739.247 272.643C739.56 273.058 740.008 273.266 740.591 273.266ZM750.086 274.246L749.918 272.699V269.892C749.918 269.341 749.804 268.942 749.575 268.695C749.346 268.443 748.985 268.317 748.49 268.317C748.21 268.317 747.96 268.359 747.741 268.443C747.526 268.522 747.356 268.643 747.23 268.807C747.109 268.97 747.048 269.175 747.048 269.423H745.578C745.578 268.928 745.699 268.527 745.942 268.219C746.185 267.911 746.523 267.687 746.957 267.547C747.396 267.402 747.907 267.33 748.49 267.33C749.036 267.33 749.517 267.421 749.932 267.603C750.347 267.78 750.669 268.06 750.898 268.443C751.131 268.825 751.248 269.32 751.248 269.927V274.246H750.086ZM747.832 274.428C747.267 274.428 746.798 274.33 746.425 274.134C746.052 273.933 745.772 273.672 745.585 273.35C745.403 273.028 745.312 272.685 745.312 272.321C745.312 271.877 745.424 271.513 745.648 271.229C745.877 270.939 746.192 270.725 746.593 270.585C746.994 270.445 747.456 270.375 747.979 270.375C748.338 270.375 748.688 270.407 749.029 270.473C749.37 270.538 749.706 270.624 750.037 270.732V271.537C749.766 271.439 749.465 271.362 749.134 271.306C748.807 271.245 748.502 271.215 748.217 271.215C747.792 271.215 747.438 271.299 747.153 271.467C746.868 271.635 746.726 271.919 746.726 272.321C746.726 272.615 746.838 272.869 747.062 273.084C747.286 273.294 747.641 273.399 748.126 273.399C748.481 273.399 748.793 273.319 749.064 273.161C749.335 272.997 749.545 272.794 749.694 272.552C749.843 272.309 749.918 272.066 749.918 271.824H750.24C750.24 272.29 750.144 272.722 749.953 273.119C749.766 273.511 749.493 273.828 749.134 274.071C748.775 274.309 748.341 274.428 747.832 274.428ZM756.224 274.428C755.673 274.428 755.167 274.281 754.705 273.987C754.243 273.688 753.874 273.273 753.599 272.741C753.328 272.204 753.193 271.574 753.193 270.851C753.193 270.132 753.326 269.509 753.592 268.982C753.863 268.454 754.22 268.048 754.663 267.764C755.106 267.474 755.599 267.33 756.14 267.33C756.635 267.33 757.066 267.451 757.435 267.694C757.804 267.932 758.088 268.279 758.289 268.737C758.494 269.194 758.597 269.752 758.597 270.41H758.135C758.135 270.004 758.053 269.661 757.89 269.381C757.727 269.096 757.514 268.881 757.253 268.737C756.992 268.592 756.712 268.52 756.413 268.52C756.063 268.52 755.746 268.615 755.461 268.807C755.181 268.993 754.957 269.262 754.789 269.612C754.626 269.957 754.544 270.37 754.544 270.851C754.544 271.336 754.626 271.758 754.789 272.118C754.957 272.472 755.181 272.745 755.461 272.937C755.746 273.128 756.061 273.224 756.406 273.224C756.691 273.224 756.964 273.149 757.225 273C757.491 272.846 757.708 272.626 757.876 272.342C758.049 272.057 758.135 271.719 758.135 271.327H758.597C758.597 271.999 758.49 272.566 758.275 273.028C758.065 273.49 757.78 273.84 757.421 274.078C757.062 274.311 756.663 274.428 756.224 274.428ZM758.366 274.246L758.135 272.629V264.677H759.472V274.246H758.366ZM772.203 274.428C771.414 274.428 770.733 274.236 770.159 273.854C769.59 273.466 769.149 272.923 768.836 272.223C768.523 271.518 768.367 270.692 768.367 269.745C768.367 268.746 768.533 267.908 768.864 267.232C769.195 266.55 769.65 266.037 770.229 265.692C770.812 265.342 771.47 265.167 772.203 265.167C773.188 265.167 773.972 265.412 774.555 265.902C775.138 266.387 775.526 267.019 775.717 267.799L774.296 268.072C774.128 267.554 773.862 267.141 773.498 266.833C773.134 266.52 772.702 266.364 772.203 266.364C771.764 266.364 771.363 266.49 770.999 266.742C770.635 266.994 770.343 267.372 770.124 267.876C769.905 268.375 769.795 268.998 769.795 269.745C769.795 270.435 769.886 271.042 770.068 271.565C770.25 272.083 770.518 272.486 770.873 272.776C771.228 273.065 771.671 273.21 772.203 273.21C772.852 273.21 773.363 273.037 773.736 272.692C774.109 272.342 774.296 271.887 774.296 271.327H775.731C775.731 271.98 775.584 272.538 775.29 273C775.001 273.457 774.592 273.809 774.065 274.057C773.538 274.304 772.917 274.428 772.203 274.428ZM777.734 274.246V264.677H779.064V274.246H777.734ZM782.565 266.077C782.299 266.077 782.089 266.004 781.935 265.86C781.785 265.71 781.711 265.51 781.711 265.258C781.711 265.015 781.785 264.824 781.935 264.684C782.089 264.539 782.299 264.467 782.565 264.467C782.826 264.467 783.031 264.539 783.181 264.684C783.335 264.824 783.412 265.015 783.412 265.258C783.412 265.51 783.335 265.71 783.181 265.86C783.031 266.004 782.826 266.077 782.565 266.077ZM781.9 274.246V267.491H783.23V274.246H781.9ZM788.557 274.428C787.979 274.428 787.456 274.278 786.989 273.98C786.523 273.681 786.152 273.266 785.876 272.734C785.606 272.202 785.47 271.586 785.47 270.886C785.47 270.144 785.606 269.509 785.876 268.982C786.147 268.45 786.516 268.041 786.982 267.757C787.449 267.472 787.974 267.33 788.557 267.33C789.08 267.33 789.528 267.437 789.901 267.652C790.275 267.862 790.576 268.146 790.804 268.506C791.033 268.86 791.189 269.264 791.273 269.717C791.362 270.169 791.378 270.636 791.322 271.117H786.534V270.347H790.412L790.09 270.557C790.104 270.305 790.09 270.053 790.048 269.801C790.011 269.549 789.936 269.318 789.824 269.108C789.712 268.893 789.554 268.723 789.348 268.597C789.148 268.466 788.891 268.401 788.578 268.401C788.186 268.401 787.857 268.499 787.591 268.695C787.33 268.891 787.132 269.154 786.996 269.486C786.861 269.812 786.793 270.172 786.793 270.564V271.103C786.793 271.537 786.859 271.922 786.989 272.258C787.12 272.594 787.314 272.86 787.57 273.056C787.832 273.247 788.161 273.343 788.557 273.343C788.945 273.343 789.264 273.252 789.516 273.07C789.773 272.888 789.932 272.615 789.992 272.251H791.35C791.28 272.689 791.119 273.072 790.867 273.399C790.615 273.725 790.291 273.98 789.894 274.162C789.502 274.339 789.057 274.428 788.557 274.428ZM798.147 274.246V270.298C798.147 269.714 798.007 269.273 797.727 268.975C797.452 268.671 797.079 268.52 796.607 268.52C796.234 268.52 795.907 268.622 795.627 268.828C795.352 269.028 795.137 269.325 794.983 269.717C794.834 270.104 794.759 270.578 794.759 271.138H794.283C794.283 270.312 794.388 269.616 794.598 269.052C794.813 268.487 795.119 268.06 795.515 267.771C795.912 267.477 796.388 267.33 796.943 267.33C797.485 267.33 797.942 267.451 798.315 267.694C798.693 267.936 798.98 268.282 799.176 268.73C799.372 269.173 799.47 269.696 799.47 270.298V274.246H798.147ZM793.429 274.246V267.512H794.584L794.759 268.968V274.246H793.429ZM804.165 274.428C803.782 274.428 803.437 274.355 803.129 274.211C802.821 274.066 802.576 273.849 802.394 273.56C802.216 273.266 802.128 272.897 802.128 272.454V265.678H803.451V272.412C803.451 273.046 803.747 273.364 804.34 273.364C804.522 273.364 804.699 273.345 804.872 273.308C805.044 273.266 805.24 273.205 805.46 273.126L805.649 274.071C805.401 274.173 805.156 274.257 804.914 274.323C804.676 274.393 804.426 274.428 804.165 274.428ZM801.099 268.415V267.512H805.446V268.415H801.099ZM814.211 274.246V265.328H815.541V274.246H814.211ZM827.602 274.246V270.298C827.602 269.714 827.462 269.273 827.182 268.975C826.907 268.671 826.536 268.52 826.069 268.52C825.509 268.52 825.075 268.739 824.767 269.178C824.464 269.616 824.312 270.246 824.312 271.068H823.731C823.731 270.419 823.794 269.859 823.92 269.388C824.046 268.916 824.226 268.529 824.459 268.226C824.697 267.922 824.98 267.698 825.306 267.554C825.638 267.404 826.006 267.33 826.412 267.33C826.954 267.33 827.411 267.451 827.784 267.694C828.162 267.936 828.449 268.282 828.645 268.73C828.841 269.173 828.939 269.696 828.939 270.298V274.246H827.602ZM818.271 274.246V267.512H819.426L819.573 268.779C819.788 268.307 820.082 267.948 820.455 267.701C820.833 267.453 821.277 267.33 821.785 267.33C822.327 267.33 822.784 267.451 823.157 267.694C823.535 267.936 823.822 268.282 824.018 268.73C824.214 269.173 824.312 269.696 824.312 270.298V274.246H822.989V270.298C822.989 269.714 822.849 269.273 822.569 268.975C822.294 268.671 821.921 268.52 821.449 268.52C821.076 268.52 820.749 268.622 820.469 268.828C820.194 269.028 819.979 269.325 819.825 269.717C819.676 270.104 819.601 270.578 819.601 271.138V274.246H818.271ZM835.672 274.246L835.504 272.699V269.892C835.504 269.341 835.39 268.942 835.161 268.695C834.932 268.443 834.571 268.317 834.076 268.317C833.796 268.317 833.546 268.359 833.327 268.443C833.112 268.522 832.942 268.643 832.816 268.807C832.695 268.97 832.634 269.175 832.634 269.423H831.164C831.164 268.928 831.285 268.527 831.528 268.219C831.771 267.911 832.109 267.687 832.543 267.547C832.982 267.402 833.493 267.33 834.076 267.33C834.622 267.33 835.103 267.421 835.518 267.603C835.933 267.78 836.255 268.06 836.484 268.443C836.717 268.825 836.834 269.32 836.834 269.927V274.246H835.672ZM833.418 274.428C832.853 274.428 832.384 274.33 832.011 274.134C831.638 273.933 831.358 273.672 831.171 273.35C830.989 273.028 830.898 272.685 830.898 272.321C830.898 271.877 831.01 271.513 831.234 271.229C831.463 270.939 831.778 270.725 832.179 270.585C832.58 270.445 833.042 270.375 833.565 270.375C833.924 270.375 834.274 270.407 834.615 270.473C834.956 270.538 835.292 270.624 835.623 270.732V271.537C835.352 271.439 835.051 271.362 834.72 271.306C834.393 271.245 834.088 271.215 833.803 271.215C833.378 271.215 833.024 271.299 832.739 271.467C832.454 271.635 832.312 271.919 832.312 272.321C832.312 272.615 832.424 272.869 832.648 273.084C832.872 273.294 833.227 273.399 833.712 273.399C834.067 273.399 834.379 273.319 834.65 273.161C834.921 272.997 835.131 272.794 835.28 272.552C835.429 272.309 835.504 272.066 835.504 271.824H835.826C835.826 272.29 835.73 272.722 835.539 273.119C835.352 273.511 835.079 273.828 834.72 274.071C834.361 274.309 833.927 274.428 833.418 274.428ZM841.845 277.718C841.117 277.718 840.489 277.617 839.962 277.417C839.439 277.216 839.036 276.948 838.751 276.612C838.466 276.276 838.324 275.909 838.324 275.513C838.324 275.009 838.508 274.621 838.877 274.351C839.246 274.085 839.715 273.952 840.284 273.952L841.145 274.358C840.66 274.358 840.284 274.456 840.018 274.652C839.757 274.848 839.626 275.114 839.626 275.45C839.626 275.8 839.817 276.087 840.2 276.311C840.583 276.539 841.131 276.654 841.845 276.654C842.363 276.654 842.818 276.577 843.21 276.423C843.602 276.273 843.905 276.075 844.12 275.828C844.335 275.585 844.442 275.324 844.442 275.044C844.442 274.852 844.372 274.689 844.232 274.554C844.097 274.423 843.889 274.358 843.609 274.358H841.145C840.688 274.358 840.284 274.288 839.934 274.148C839.589 274.003 839.318 273.814 839.122 273.581C838.926 273.347 838.828 273.088 838.828 272.804C838.828 272.524 838.907 272.283 839.066 272.083C839.225 271.877 839.435 271.723 839.696 271.621C839.957 271.513 840.244 271.46 840.557 271.46L840.858 271.922C840.723 271.922 840.587 271.952 840.452 272.013C840.317 272.069 840.205 272.155 840.116 272.272C840.027 272.388 839.983 272.533 839.983 272.706C839.983 272.906 840.067 273.074 840.235 273.21C840.408 273.34 840.711 273.406 841.145 273.406H843.609C844.281 273.406 844.808 273.539 845.191 273.805C845.574 274.071 845.765 274.458 845.765 274.967C845.765 275.429 845.606 275.87 845.289 276.29C844.972 276.71 844.519 277.053 843.931 277.319C843.348 277.585 842.652 277.718 841.845 277.718ZM841.992 272.223C841.469 272.223 840.993 272.122 840.564 271.922C840.139 271.716 839.801 271.432 839.549 271.068C839.297 270.699 839.171 270.27 839.171 269.78C839.171 269.285 839.297 268.856 839.549 268.492C839.801 268.123 840.139 267.838 840.564 267.638C840.993 267.432 841.469 267.33 841.992 267.33C842.501 267.33 842.965 267.432 843.385 267.638C843.81 267.838 844.148 268.123 844.4 268.492C844.657 268.856 844.785 269.285 844.785 269.78C844.785 270.27 844.657 270.699 844.4 271.068C844.148 271.432 843.81 271.716 843.385 271.922C842.965 272.122 842.501 272.223 841.992 272.223ZM841.992 271.285C842.473 271.285 842.839 271.142 843.091 270.858C843.348 270.568 843.476 270.209 843.476 269.78C843.476 269.332 843.348 268.97 843.091 268.695C842.839 268.419 842.473 268.282 841.992 268.282C841.521 268.282 841.152 268.419 840.886 268.695C840.625 268.97 840.494 269.332 840.494 269.78C840.494 270.209 840.625 270.568 840.886 270.858C841.152 271.142 841.521 271.285 841.992 271.285ZM844.281 268.408L843.658 268.107C843.658 267.705 843.742 267.355 843.91 267.057C844.078 266.758 844.311 266.525 844.61 266.357C844.909 266.189 845.252 266.105 845.639 266.105L845.555 267.4C845.14 267.4 844.822 267.481 844.603 267.645C844.388 267.808 844.281 268.062 844.281 268.408ZM849.794 274.428C849.215 274.428 848.692 274.278 848.226 273.98C847.759 273.681 847.388 273.266 847.113 272.734C846.842 272.202 846.707 271.586 846.707 270.886C846.707 270.144 846.842 269.509 847.113 268.982C847.383 268.45 847.752 268.041 848.219 267.757C848.685 267.472 849.21 267.33 849.794 267.33C850.316 267.33 850.764 267.437 851.138 267.652C851.511 267.862 851.812 268.146 852.041 268.506C852.269 268.86 852.426 269.264 852.51 269.717C852.598 270.169 852.615 270.636 852.559 271.117H847.771V270.347H851.649L851.327 270.557C851.341 270.305 851.327 270.053 851.285 269.801C851.247 269.549 851.173 269.318 851.061 269.108C850.949 268.893 850.79 268.723 850.585 268.597C850.384 268.466 850.127 268.401 849.815 268.401C849.423 268.401 849.094 268.499 848.828 268.695C848.566 268.891 848.368 269.154 848.233 269.486C848.097 269.812 848.03 270.172 848.03 270.564V271.103C848.03 271.537 848.095 271.922 848.226 272.258C848.356 272.594 848.55 272.86 848.807 273.056C849.068 273.247 849.397 273.343 849.794 273.343C850.181 273.343 850.501 273.252 850.753 273.07C851.009 272.888 851.168 272.615 851.229 272.251H852.587C852.517 272.689 852.356 273.072 852.104 273.399C851.852 273.725 851.527 273.98 851.131 274.162C850.739 274.339 850.293 274.428 849.794 274.428Z" fill="white"/>
<rect x="705.651" y="323.835" width="146.891" height="30.533" rx="5" fill="#250CBD"/>
<path d="M743.331 333.618H744.661V339.253C744.661 340.046 744.859 340.618 745.256 340.968C745.657 341.318 746.177 341.493 746.817 341.493C747.456 341.493 747.974 341.318 748.371 340.968C748.767 340.618 748.966 340.046 748.966 339.253V333.618H750.296V339.253C750.296 340 750.156 340.632 749.876 341.15C749.596 341.663 749.194 342.053 748.672 342.319C748.154 342.585 747.535 342.718 746.817 342.718C746.103 342.718 745.484 342.585 744.962 342.319C744.439 342.053 744.035 341.663 743.751 341.15C743.471 340.632 743.331 340 743.331 339.253V333.618ZM755.328 342.718C754.675 342.718 754.124 342.627 753.676 342.445C753.228 342.258 752.885 342.002 752.647 341.675C752.414 341.344 752.292 340.956 752.283 340.513H753.536C753.555 340.9 753.709 341.187 753.998 341.374C754.292 341.561 754.689 341.654 755.188 341.654C755.454 341.654 755.694 341.612 755.909 341.528C756.128 341.444 756.301 341.33 756.427 341.185C756.558 341.04 756.623 340.877 756.623 340.695C756.623 340.466 756.539 340.287 756.371 340.156C756.203 340.021 755.932 339.902 755.559 339.799L754.18 339.33C753.629 339.143 753.207 338.896 752.913 338.588C752.619 338.275 752.472 337.902 752.472 337.468C752.472 336.913 752.719 336.467 753.214 336.131C753.709 335.79 754.364 335.62 755.181 335.62C756.026 335.62 756.677 335.8 757.134 336.159C757.596 336.514 757.836 336.959 757.855 337.496H756.574C756.541 337.23 756.408 337.027 756.175 336.887C755.946 336.742 755.615 336.67 755.181 336.67C754.775 336.67 754.455 336.759 754.222 336.936C753.993 337.113 753.879 337.314 753.879 337.538C753.879 337.939 754.224 338.238 754.915 338.434L756.364 338.945C756.915 339.122 757.339 339.351 757.638 339.631C757.937 339.911 758.086 340.266 758.086 340.695C758.086 341.04 757.972 341.367 757.743 341.675C757.514 341.983 757.192 342.235 756.777 342.431C756.366 342.622 755.883 342.718 755.328 342.718ZM762.648 342.718C762.069 342.718 761.547 342.569 761.08 342.27C760.613 341.971 760.242 341.556 759.967 341.024C759.696 340.492 759.561 339.876 759.561 339.176C759.561 338.434 759.696 337.799 759.967 337.272C760.238 336.74 760.606 336.332 761.073 336.047C761.54 335.762 762.065 335.62 762.648 335.62C763.171 335.62 763.619 335.727 763.992 335.942C764.365 336.152 764.666 336.437 764.895 336.796C765.124 337.151 765.28 337.554 765.364 338.007C765.453 338.46 765.469 338.926 765.413 339.407H760.625V338.637H764.503L764.181 338.847C764.195 338.595 764.181 338.343 764.139 338.091C764.102 337.839 764.027 337.608 763.915 337.398C763.803 337.183 763.644 337.013 763.439 336.887C763.238 336.756 762.982 336.691 762.669 336.691C762.277 336.691 761.948 336.789 761.682 336.985C761.421 337.181 761.222 337.445 761.087 337.776C760.952 338.103 760.884 338.462 760.884 338.854V339.393C760.884 339.827 760.949 340.212 761.08 340.548C761.211 340.884 761.404 341.15 761.661 341.346C761.922 341.537 762.251 341.633 762.648 341.633C763.035 341.633 763.355 341.542 763.607 341.36C763.864 341.178 764.022 340.905 764.083 340.541H765.441C765.371 340.98 765.21 341.362 764.958 341.689C764.706 342.016 764.382 342.27 763.985 342.452C763.593 342.629 763.147 342.718 762.648 342.718ZM773.388 342.718C772.837 342.718 772.324 342.571 771.848 342.277C771.372 341.983 770.989 341.57 770.7 341.038C770.411 340.506 770.266 339.881 770.266 339.162C770.266 338.406 770.411 337.767 770.7 337.244C770.989 336.717 771.372 336.315 771.848 336.04C772.324 335.76 772.837 335.62 773.388 335.62C773.794 335.62 774.156 335.685 774.473 335.816C774.79 335.942 775.063 336.115 775.292 336.334C775.521 336.549 775.705 336.791 775.845 337.062C775.99 337.333 776.09 337.613 776.146 337.902L774.795 337.972C774.697 337.622 774.524 337.342 774.277 337.132C774.034 336.917 773.733 336.81 773.374 336.81C773.071 336.81 772.784 336.896 772.513 337.069C772.247 337.237 772.03 337.496 771.862 337.846C771.699 338.191 771.617 338.63 771.617 339.162C771.617 339.657 771.694 340.079 771.848 340.429C772.002 340.779 772.212 341.047 772.478 341.234C772.744 341.421 773.043 341.514 773.374 341.514C773.85 341.514 774.205 341.4 774.438 341.171C774.676 340.938 774.795 340.618 774.795 340.212H776.146C776.146 340.683 776.036 341.108 775.817 341.486C775.598 341.864 775.28 342.165 774.865 342.389C774.454 342.608 773.962 342.718 773.388 342.718ZM782.46 342.536L782.292 340.989V338.182C782.292 337.631 782.178 337.232 781.949 336.985C781.72 336.733 781.359 336.607 780.864 336.607C780.584 336.607 780.334 336.649 780.115 336.733C779.9 336.812 779.73 336.934 779.604 337.097C779.483 337.26 779.422 337.466 779.422 337.713H777.952C777.952 337.218 778.073 336.817 778.316 336.509C778.559 336.201 778.897 335.977 779.331 335.837C779.77 335.692 780.281 335.62 780.864 335.62C781.41 335.62 781.891 335.711 782.306 335.893C782.721 336.07 783.043 336.35 783.272 336.733C783.505 337.116 783.622 337.61 783.622 338.217V342.536H782.46ZM780.206 342.718C779.641 342.718 779.172 342.62 778.799 342.424C778.426 342.223 778.146 341.962 777.959 341.64C777.777 341.318 777.686 340.975 777.686 340.611C777.686 340.168 777.798 339.804 778.022 339.519C778.251 339.23 778.566 339.015 778.967 338.875C779.368 338.735 779.83 338.665 780.353 338.665C780.712 338.665 781.062 338.698 781.403 338.763C781.744 338.828 782.08 338.915 782.411 339.022V339.827C782.14 339.729 781.839 339.652 781.508 339.596C781.181 339.535 780.876 339.505 780.591 339.505C780.166 339.505 779.812 339.589 779.527 339.757C779.242 339.925 779.1 340.21 779.1 340.611C779.1 340.905 779.212 341.159 779.436 341.374C779.66 341.584 780.015 341.689 780.5 341.689C780.855 341.689 781.167 341.61 781.438 341.451C781.709 341.288 781.919 341.085 782.068 340.842C782.217 340.599 782.292 340.357 782.292 340.114H782.614C782.614 340.581 782.518 341.012 782.327 341.409C782.14 341.801 781.867 342.118 781.508 342.361C781.149 342.599 780.715 342.718 780.206 342.718ZM795.486 342.536V338.588C795.486 338.005 795.346 337.564 795.066 337.265C794.791 336.962 794.42 336.81 793.953 336.81C793.393 336.81 792.959 337.029 792.651 337.468C792.348 337.907 792.196 338.537 792.196 339.358H791.615C791.615 338.709 791.678 338.149 791.804 337.678C791.93 337.207 792.11 336.819 792.343 336.516C792.581 336.213 792.863 335.989 793.19 335.844C793.521 335.695 793.89 335.62 794.296 335.62C794.837 335.62 795.295 335.741 795.668 335.984C796.046 336.227 796.333 336.572 796.529 337.02C796.725 337.463 796.823 337.986 796.823 338.588V342.536H795.486ZM786.155 342.536V335.802H787.31L787.457 337.069C787.672 336.598 787.966 336.238 788.339 335.991C788.717 335.744 789.16 335.62 789.669 335.62C790.21 335.62 790.668 335.741 791.041 335.984C791.419 336.227 791.706 336.572 791.902 337.02C792.098 337.463 792.196 337.986 792.196 338.588V342.536H790.873V338.588C790.873 338.005 790.733 337.564 790.453 337.265C790.178 336.962 789.804 336.81 789.333 336.81C788.96 336.81 788.633 336.913 788.353 337.118C788.078 337.319 787.863 337.615 787.709 338.007C787.56 338.394 787.485 338.868 787.485 339.428V342.536H786.155ZM801.75 342.718C801.171 342.718 800.648 342.569 800.182 342.27C799.715 341.971 799.344 341.556 799.069 341.024C798.798 340.492 798.663 339.876 798.663 339.176C798.663 338.434 798.798 337.799 799.069 337.272C799.339 336.74 799.708 336.332 800.175 336.047C800.641 335.762 801.166 335.62 801.75 335.62C802.272 335.62 802.72 335.727 803.094 335.942C803.467 336.152 803.768 336.437 803.997 336.796C804.225 337.151 804.382 337.554 804.466 338.007C804.554 338.46 804.571 338.926 804.515 339.407H799.727V338.637H803.605L803.283 338.847C803.297 338.595 803.283 338.343 803.241 338.091C803.203 337.839 803.129 337.608 803.017 337.398C802.905 337.183 802.746 337.013 802.541 336.887C802.34 336.756 802.083 336.691 801.771 336.691C801.379 336.691 801.05 336.789 800.784 336.985C800.522 337.181 800.324 337.445 800.189 337.776C800.053 338.103 799.986 338.462 799.986 338.854V339.393C799.986 339.827 800.051 340.212 800.182 340.548C800.312 340.884 800.506 341.15 800.763 341.346C801.024 341.537 801.353 341.633 801.75 341.633C802.137 341.633 802.457 341.542 802.709 341.36C802.965 341.178 803.124 340.905 803.185 340.541H804.543C804.473 340.98 804.312 341.362 804.06 341.689C803.808 342.016 803.483 342.27 803.087 342.452C802.695 342.629 802.249 342.718 801.75 342.718ZM806.622 342.536V335.781H807.952V342.536H806.622ZM807.588 339.526C807.588 338.663 807.676 337.946 807.854 337.377C808.036 336.803 808.288 336.376 808.61 336.096C808.936 335.816 809.319 335.676 809.758 335.676C809.888 335.676 810.01 335.685 810.122 335.704C810.238 335.723 810.353 335.748 810.465 335.781L810.416 337.104C810.29 337.071 810.152 337.043 810.003 337.02C809.858 336.992 809.725 336.978 809.604 336.978C809.221 336.978 808.908 337.081 808.666 337.286C808.423 337.487 808.243 337.778 808.127 338.161C808.01 338.539 807.952 338.994 807.952 339.526H807.588ZM816.079 342.536L815.911 340.989V338.182C815.911 337.631 815.797 337.232 815.568 336.985C815.339 336.733 814.978 336.607 814.483 336.607C814.203 336.607 813.953 336.649 813.734 336.733C813.519 336.812 813.349 336.934 813.223 337.097C813.102 337.26 813.041 337.466 813.041 337.713H811.571C811.571 337.218 811.692 336.817 811.935 336.509C812.178 336.201 812.516 335.977 812.95 335.837C813.389 335.692 813.9 335.62 814.483 335.62C815.029 335.62 815.51 335.711 815.925 335.893C816.34 336.07 816.662 336.35 816.891 336.733C817.124 337.116 817.241 337.61 817.241 338.217V342.536H816.079ZM813.825 342.718C813.26 342.718 812.791 342.62 812.418 342.424C812.045 342.223 811.765 341.962 811.578 341.64C811.396 341.318 811.305 340.975 811.305 340.611C811.305 340.168 811.417 339.804 811.641 339.519C811.87 339.23 812.185 339.015 812.586 338.875C812.987 338.735 813.449 338.665 813.972 338.665C814.331 338.665 814.681 338.698 815.022 338.763C815.363 338.828 815.699 338.915 816.03 339.022V339.827C815.759 339.729 815.458 339.652 815.127 339.596C814.8 339.535 814.495 339.505 814.21 339.505C813.785 339.505 813.431 339.589 813.146 339.757C812.861 339.925 812.719 340.21 812.719 340.611C812.719 340.905 812.831 341.159 813.055 341.374C813.279 341.584 813.634 341.689 814.119 341.689C814.474 341.689 814.786 341.61 815.057 341.451C815.328 341.288 815.538 341.085 815.687 340.842C815.836 340.599 815.911 340.357 815.911 340.114H816.233C816.233 340.581 816.137 341.012 815.946 341.409C815.759 341.801 815.486 342.118 815.127 342.361C814.768 342.599 814.334 342.718 813.825 342.718Z" fill="white"/>
<path d="M792.537 183.107C792.665 183.107 792.787 183.156 792.877 183.242C792.967 183.329 793.017 183.447 793.017 183.569V185.883C793.017 186.128 793.119 186.363 793.299 186.537C793.479 186.71 793.723 186.808 793.977 186.808H805.498C805.753 186.808 805.997 186.71 806.177 186.537C806.357 186.363 806.458 186.128 806.458 185.883V183.569C806.458 183.447 806.509 183.329 806.599 183.242C806.689 183.156 806.811 183.107 806.938 183.107C807.066 183.107 807.188 183.156 807.278 183.242C807.368 183.329 807.418 183.447 807.418 183.569V185.883C807.418 186.373 807.216 186.844 806.856 187.191C806.496 187.538 806.008 187.733 805.498 187.733H793.977C793.468 187.733 792.98 187.538 792.62 187.191C792.26 186.844 792.057 186.373 792.057 185.883V183.569C792.057 183.447 792.108 183.329 792.198 183.242C792.288 183.156 792.41 183.107 792.537 183.107V183.107Z" fill="#2D3748"/>
<path d="M799.398 175.007C799.443 174.964 799.496 174.93 799.554 174.906C799.612 174.883 799.675 174.871 799.738 174.871C799.801 174.871 799.864 174.883 799.922 174.906C799.98 174.93 800.033 174.964 800.078 175.007L802.958 177.783C803.048 177.869 803.099 177.987 803.099 178.11C803.099 178.233 803.048 178.351 802.958 178.438C802.868 178.524 802.746 178.573 802.618 178.573C802.491 178.573 802.368 178.524 802.278 178.438L800.218 176.451V184.587C800.218 184.709 800.167 184.827 800.077 184.914C799.987 185.001 799.865 185.049 799.738 185.049C799.611 185.049 799.488 185.001 799.398 184.914C799.308 184.827 799.258 184.709 799.258 184.587V176.451L797.198 178.438C797.153 178.481 797.1 178.515 797.042 178.538C796.983 178.561 796.921 178.573 796.858 178.573C796.795 178.573 796.732 178.561 796.674 178.538C796.615 178.515 796.562 178.481 796.518 178.438C796.473 178.395 796.438 178.344 796.414 178.287C796.389 178.231 796.377 178.171 796.377 178.11C796.377 178.049 796.389 177.989 796.414 177.933C796.438 177.877 796.473 177.826 796.518 177.783L799.398 175.007Z" fill="#2D3748"/>
<g clip-path="url(#clip1_4_333)">
<rect width="1659" height="953" fill="#F9F9F9"/>
<path d="M135.5 224L138.5 221L135.5 218" stroke="#868FA0" stroke-width="1.5" stroke-linecap="round" stroke-linejoin="round"/>
<g clip-path="url(#clip2_4_333)">
<path d="M686.951 730.023C753.672 734.722 837.09 708.25 873.857 650.177C889.099 626.154 899.216 595.281 888.603 568.71C880.568 548.558 846.613 525.693 839.273 505.376C831.933 485.059 832.891 461.334 836.694 439.528C847.671 376.955 786.669 279.274 657.822 268.85C560.154 260.942 515.948 336.916 432.795 347.306C348.913 357.763 250.518 294.958 190.508 347.306C115.984 412.295 150.832 477.349 160.024 507.792C171.695 546.904 114.727 591.443 126.465 649.118C152.717 777.838 343.623 691.043 399.566 685.517C456.402 680.024 512.774 696.205 568.453 709.176C624.131 722.147 683.115 731.942 737.57 714.107L686.951 730.023Z" fill="#2D3748"/>
<path d="M498.689 792C711.147 792 883.379 783.437 883.379 772.874C883.379 762.311 711.147 753.748 498.689 753.748C286.231 753.748 114 762.311 114 772.874C114 783.437 286.231 792 498.689 792Z" fill="#E9ECF2"/>
<path d="M133.044 444.69H131.821C129.11 420.832 136.417 397.669 154.965 371.892L155.957 372.62C137.607 398.232 130.532 421.13 133.044 444.69Z" fill="#2E4882"/>
<path d="M125.341 460.672L124.183 461.036C110.231 416.563 134.102 380.528 159.429 351.178L160.354 351.972C135.326 381.091 111.586 416.762 125.341 460.672Z" fill="#2E4882"/>
<path d="M713.963 271.266C685.992 256.938 662.286 253.1 639.406 259.122L639.075 257.964C662.219 251.842 686.256 255.714 714.525 270.174L713.963 271.266Z" fill="#2E4882"/>
<path d="M734.991 272.821C702.523 252.239 663.906 233.875 622.478 253.927L621.949 252.835C663.906 232.518 702.986 251.015 735.587 271.795L734.991 272.821Z" fill="#2E4882"/>
<path d="M379.365 394.79H377.579C377.579 393.864 377.579 392.97 377.579 392.077H379.365C379.431 392.904 379.398 393.93 379.365 394.79Z" fill="#3F5A9F"/>
<path d="M500.342 379.933C499.847 378.212 499.284 376.624 498.656 374.804L500.309 374.175C500.981 375.906 501.556 377.674 502.029 379.47L500.342 379.933ZM380.092 386.816L378.505 386.518C378.802 384.698 379.199 382.878 379.629 381.091L381.348 381.521C380.753 383.275 380.39 385.029 380.092 386.816ZM496.54 369.741C495.78 368.153 494.92 366.432 494.027 365.009L495.548 364.083C496.474 365.671 497.367 367.392 498.16 368.98L496.54 369.741ZM382.737 376.359L381.051 375.764C381.646 374.043 382.34 372.455 383.101 370.635L384.721 371.363C383.993 373.05 383.332 374.672 382.737 376.359ZM490.919 360.575C489.895 359.152 488.77 357.697 487.613 356.34L488.936 355.182C490.159 356.605 491.316 358.06 492.242 359.55L490.919 360.575ZM387.134 366.432L385.58 365.572C386.473 363.95 387.465 362.263 388.49 360.84L389.978 361.833C388.953 363.421 387.994 364.976 387.134 366.432ZM484.042 352.336C482.753 351.079 481.397 349.854 480.042 348.729L481.166 347.339C482.588 348.531 483.976 349.755 485.266 351.045L484.042 352.336ZM393.185 357.597L391.73 356.505C392.894 355.054 394.13 353.663 395.433 352.336L396.69 353.593C395.453 354.867 394.283 356.203 393.185 357.597V357.597ZM475.843 345.586C474.355 344.593 472.834 343.633 471.28 342.74L472.14 341.218C473.727 342.111 475.446 343.104 476.835 344.13L475.843 345.586ZM400.69 349.887L399.5 348.531C400.922 347.339 402.376 346.181 403.864 345.222L404.955 346.578C403.435 347.571 402.046 348.696 400.69 349.887ZM466.321 340.324C464.7 339.563 463.014 338.902 461.328 338.306L461.923 336.651C463.642 337.247 465.229 337.942 467.048 338.703L466.321 340.324ZM409.386 343.633L408.493 342.111C410.08 341.152 411.799 340.258 413.353 339.464L414.147 341.085C412.527 341.78 410.94 342.641 409.386 343.567V343.633ZM456.17 336.651C454.418 336.221 452.665 335.857 450.88 335.559L451.178 333.806C452.996 334.103 454.815 334.467 456.6 334.931L456.17 336.651ZM419.073 338.769L418.445 337.115C420.164 336.453 421.95 335.89 423.735 335.394L424.198 337.082C422.479 337.677 420.76 338.24 419.073 338.868V338.769ZM445.524 334.931C443.738 334.931 441.92 334.732 440.135 334.765V332.978C441.986 332.978 443.838 332.978 445.656 332.978L445.524 334.931ZM429.422 335.857L429.091 334.103C430.877 333.773 432.728 333.508 434.58 333.309V335.063C432.993 335.361 431.208 335.626 429.455 335.957L429.422 335.857Z" fill="#3F5A9F"/>
<path d="M503.748 387.61L501.996 387.841C501.996 386.981 501.731 386.121 501.566 385.26L503.318 384.929C503.483 385.823 503.616 386.716 503.748 387.61Z" fill="#3F5A9F"/>
<path d="M384.787 395.353L378.34 398.43L371.661 395.948L378.902 411.236L384.787 395.353Z" fill="#3F5A9F"/>
<path d="M324.314 483.206C324.05 479.169 325.703 474.404 326.761 474.901C327.819 475.397 326.761 479.136 327.588 480.261C328.273 481.164 328.732 482.218 328.927 483.334C329.123 484.451 329.049 485.598 328.712 486.681L324.314 483.206Z" fill="#FCB47E"/>
<path d="M287.912 765.396L284.672 739.354H303.749L304.609 765.396H287.912Z" fill="#FCB47E"/>
<path d="M304.245 754.145C297.037 756.031 286.325 752.59 286.325 752.59L285.564 746.435L304.047 747.991L304.245 754.145Z" fill="#FCA377"/>
<path d="M196.889 765.396L198.642 739.354H217.719L213.586 765.396H196.889Z" fill="#FCB47E"/>
<path d="M216.826 744.913L215.537 753.153C209.392 753.568 203.269 752.065 198.013 748.851L198.542 740.843L216.826 744.913Z" fill="#FCA377"/>
<path d="M328.48 749.083C328.48 749.083 315.685 588.895 281.332 511.002L249.327 512.623C252.349 591.996 261.268 671.034 276.009 749.083C276.009 749.083 306.097 756.197 328.48 749.083Z" fill="#2D3748"/>
<path d="M237.821 749.083C237.821 749.083 206.345 754.178 188.227 741.935C188.227 741.935 197.782 568.247 227.076 511.299H261.66C261.66 511.299 260.536 604.943 237.821 749.083Z" fill="#2D3748"/>
<path d="M228.002 428.84C228.861 425.828 230.448 421.957 230.448 421.957C230.004 424.546 229.837 427.175 229.952 429.799C237.425 433.108 253.097 437.708 277.266 431.751C276.968 429.27 276.836 426.92 276.836 426.92C277.281 428.468 277.834 429.983 278.489 431.454L281.101 430.759C280.571 427.972 280.229 425.153 280.076 422.321C280.879 425.041 281.988 427.661 283.382 430.13C284.87 429.7 286.358 429.204 287.912 428.707C287.912 428.707 283.085 421.295 279.911 402.235C277.299 386.452 269.198 379.073 256.767 379.304C231.473 379.999 224.728 426.953 224.728 426.953C225.763 427.676 226.858 428.307 228.002 428.84V428.84Z" fill="#374263"/>
<path d="M315.454 484.563C315.454 484.563 305.303 438.899 264.999 436.549C202.973 432.91 183.895 473.279 183.895 473.279L315.454 484.563Z" fill="white"/>
<path d="M251.212 390.753C258.089 386.849 270.091 386.683 272.835 395.948C275.381 404.519 274.984 430.329 263.544 429.832C259.384 429.745 255.395 428.162 252.305 425.374C249.215 422.585 247.231 418.776 246.715 414.644C246.252 412.758 244.368 394.658 251.212 390.753Z" fill="#FCB47E"/>
<path d="M247.013 414.181C247.013 414.181 241.657 415.835 240.665 410.872C239.673 405.908 244.93 404.816 246.583 406.736L247.013 414.181Z" fill="#FCB47E"/>
<path d="M321.074 539.591C328.745 524.535 334.729 489.46 334.729 489.46C337.17 485.876 338.826 481.817 339.59 477.548C339.59 475.496 338.664 474.239 337.275 474.967C336.779 473.312 335.82 473.014 334.498 473.974C333.771 472.551 332.878 472.617 331.985 473.312C330.001 470.003 326.1 480.427 326.133 481.75C326.166 483.074 326.397 485.82 326.53 486.747C326.662 487.673 303.385 527.546 303.385 527.546L321.074 539.591Z" fill="#FCB47E"/>
<path d="M194.641 744.748H193.616C193.616 743.027 205.386 570.431 234.978 514.344L235.904 514.807C206.577 570.629 194.773 743.027 194.641 744.748Z" fill="white"/>
<path d="M219.802 483.504L208.891 545.647C237.226 554.151 269.198 546.507 295.351 529.102L284.506 467.852L264.371 437.145C263.112 438.681 261.524 439.914 259.725 440.752C257.925 441.591 255.96 442.013 253.975 441.987C251.99 441.962 250.037 441.49 248.259 440.605C246.481 439.721 244.926 438.448 243.707 436.88L215.504 448.727L219.802 483.504Z" fill="white"/>
<path d="M322.893 496.971L317.173 482.776C317.173 482.776 302.856 453.624 291.086 446.112L283.548 497.071L322.893 496.971Z" fill="white"/>
<path d="M255.973 609.444H254.981C256.601 592.038 257.957 575.03 259.015 558.849H260.007C258.982 574.898 257.626 592.038 255.973 609.444Z" fill="#47393D"/>
<path d="M283.713 749.447C283.515 748.421 262.255 646.438 256.237 595.05H257.229C263.28 646.372 284.506 748.288 284.705 749.314L283.713 749.447Z" fill="white"/>
<path d="M285.01 467.773L284.033 467.946L294.854 529.238L295.831 529.066L285.01 467.773Z" fill="#3F5A9F"/>
<path d="M242.649 405.941C243.291 405.63 244.022 405.552 244.716 405.721C245.41 405.89 246.023 406.296 246.451 406.868C246.754 404.582 247.389 402.352 248.335 400.25L249.195 404.783C252.718 405.353 256.274 405.696 259.841 405.809H265.032L265.892 398.265L267.545 405.644C268.669 405.644 269.529 405.445 270.422 405.346L271.083 400.879L272.306 405.081C273.53 404.883 274.356 404.684 274.753 404.585C275.017 401.276 275.117 392.871 269.463 388.04C262.85 382.348 249.261 385.459 246.054 392.275C244.114 396.591 242.961 401.219 242.649 405.941V405.941Z" fill="#374263"/>
<path d="M255.477 442.109C257.256 442.008 258.991 441.51 260.553 440.651C262.115 439.792 263.464 438.594 264.503 437.145L263.082 420.6L247.476 411.302L243.508 436.781C246.687 439.999 250.96 441.902 255.477 442.109Z" fill="#FCB47E"/>
<path d="M263.015 430.759V429.766C259.959 429.386 257.049 428.233 254.561 426.415C252.074 424.597 250.09 422.174 248.798 419.376L247.939 419.839C249.308 422.798 251.414 425.356 254.054 427.268C256.693 429.179 259.779 430.381 263.015 430.759V430.759Z" fill="#374263"/>
<path d="M283.548 777.672L331.787 777.838C332.182 777.839 332.573 777.758 332.935 777.601C333.298 777.444 333.624 777.214 333.894 776.925C334.164 776.637 334.372 776.295 334.504 775.923C334.636 775.55 334.69 775.155 334.663 774.76V774.76C334.663 774.396 334.663 774.032 334.663 773.635C334.563 772.462 334.189 771.329 333.572 770.326C331.291 767.282 326.96 765.892 318.958 762.716C315.097 761.134 311.408 759.16 307.948 756.826C307.649 756.547 307.252 756.398 306.844 756.411C306.435 756.423 306.048 756.596 305.766 756.892C296.211 766.19 290.359 764.205 288.606 760.201C287.284 757.256 285.3 757.884 284.87 758.712C283.182 763.382 282.201 768.278 281.961 773.238C281.961 773.668 281.961 774.065 281.961 774.363C281.961 774.661 281.961 775.554 281.961 775.554C281.896 775.801 281.887 776.058 281.936 776.308C281.985 776.558 282.089 776.794 282.242 776.998C282.395 777.201 282.591 777.368 282.818 777.485C283.044 777.602 283.293 777.666 283.548 777.672V777.672Z" fill="#374263"/>
<path d="M316.082 767.646C317.055 767.19 317.863 766.441 318.39 765.504C318.918 764.566 319.139 763.487 319.024 762.418H318.198C318.299 763.323 318.109 764.237 317.658 765.028C317.206 765.819 316.515 766.446 315.685 766.819L316.082 767.646Z" fill="white"/>
<path d="M320.314 769.069C321.218 768.609 321.967 767.894 322.466 767.011C322.966 766.128 323.195 765.117 323.124 764.105H322.298C322.337 764.954 322.131 765.797 321.702 766.531C321.274 767.265 320.642 767.859 319.884 768.242L320.314 769.069Z" fill="white"/>
<path d="M293.103 766.819C295.244 766.782 297.353 766.286 299.286 765.363L298.922 764.602C298.922 764.602 291.516 768.308 287.747 763.609L287.118 764.138C287.837 765.023 288.752 765.726 289.792 766.192C290.831 766.657 291.965 766.872 293.103 766.819V766.819Z" fill="white"/>
<path d="M287.871 773.908L287.868 774.735L315.972 774.838L315.975 774.011L287.871 773.908Z" fill="white"/>
<path d="M319.59 774.047L319.587 774.874L326.232 774.898L326.235 774.071L319.59 774.047Z" fill="white"/>
<path d="M193.351 777.672L241.558 777.838C241.955 777.843 242.35 777.766 242.716 777.611C243.083 777.456 243.413 777.227 243.687 776.938C243.96 776.648 244.171 776.306 244.305 775.931C244.439 775.556 244.495 775.157 244.467 774.76V774.76C244.467 774.396 244.467 774.032 244.467 773.635C244.366 772.462 243.993 771.329 243.376 770.326C241.095 767.282 236.763 765.892 228.762 762.715C224.901 761.134 221.211 759.16 217.752 756.825C217.457 756.638 217.107 756.555 216.759 756.591C216.411 756.627 216.085 756.78 215.834 757.024C206.279 766.322 200.427 764.337 198.675 760.333C197.352 757.388 195.368 758.017 194.939 758.844C193.25 763.514 192.27 768.41 192.029 773.37C192.002 773.745 192.002 774.121 192.029 774.495V775.687C191.941 776.125 192.031 776.581 192.279 776.953C192.527 777.326 192.913 777.584 193.351 777.672Z" fill="#374263"/>
<path d="M225.753 767.646C226.727 767.19 227.534 766.441 228.062 765.504C228.589 764.566 228.811 763.487 228.696 762.418H227.836C227.951 763.312 227.775 764.22 227.334 765.006C226.893 765.793 226.212 766.417 225.39 766.786L225.753 767.646Z" fill="white"/>
<path d="M229.985 769.069C230.884 768.603 231.628 767.886 232.127 767.004C232.626 766.123 232.858 765.116 232.796 764.105H231.969C232.009 764.954 231.802 765.797 231.374 766.531C230.946 767.265 230.314 767.859 229.556 768.242L229.985 769.069Z" fill="white"/>
<path d="M202.774 766.819C204.916 766.782 207.024 766.286 208.957 765.363L208.594 764.602C208.594 764.602 201.187 768.308 197.418 763.609L196.79 764.138C197.508 765.023 198.424 765.726 199.463 766.192C200.503 766.657 201.637 766.872 202.774 766.819V766.819Z" fill="white"/>
<path d="M197.542 773.907L197.539 774.734L225.643 774.837L225.646 774.01L197.542 773.907Z" fill="white"/>
<path d="M229.261 774.046L229.258 774.873L235.903 774.898L235.906 774.07L229.261 774.046Z" fill="white"/>
<path d="M364.691 474.09L203.586 499.54C200.249 500.067 197.971 503.202 198.498 506.542L214.86 610.284C215.387 613.624 218.519 615.903 221.856 615.376L382.961 589.926C386.298 589.399 388.576 586.264 388.049 582.924L371.687 479.182C371.16 475.842 368.028 473.563 364.691 474.09Z" fill="#6D92F0"/>
<path d="M252.293 564.387L223.292 568.968C222.39 569.111 221.775 569.958 221.917 570.86L222.799 576.45C222.941 577.352 223.787 577.968 224.689 577.826L253.69 573.244C254.592 573.102 255.208 572.255 255.065 571.352L254.184 565.763C254.042 564.861 253.195 564.244 252.293 564.387Z" fill="white"/>
<path d="M290.623 558.349L261.622 562.93C260.72 563.073 260.105 563.92 260.247 564.823L261.128 570.412C261.271 571.314 262.117 571.93 263.019 571.788L292.02 567.207C292.922 567.064 293.538 566.217 293.395 565.314L292.514 559.725C292.371 558.823 291.525 558.206 290.623 558.349Z" fill="white"/>
<path d="M328.986 552.273L299.985 556.854C299.083 556.997 298.467 557.844 298.609 558.746L299.491 564.336C299.633 565.238 300.48 565.854 301.382 565.712L330.383 561.13C331.284 560.988 331.9 560.141 331.758 559.238L330.876 553.649C330.734 552.746 329.887 552.13 328.986 552.273Z" fill="white"/>
<path d="M367.282 546.235L338.281 550.816C337.38 550.959 336.764 551.806 336.906 552.709L337.788 558.298C337.93 559.2 338.777 559.816 339.678 559.674L368.679 555.093C369.581 554.95 370.197 554.103 370.055 553.2L369.173 547.611C369.031 546.709 368.184 546.092 367.282 546.235Z" fill="white"/>
<path d="M369.676 563.6L331.53 569.626C330.43 569.799 329.679 570.833 329.852 571.934L330.62 576.804C330.794 577.905 331.827 578.657 332.927 578.483L371.073 572.457C372.173 572.283 372.924 571.25 372.75 570.149L371.982 565.279C371.808 564.177 370.776 563.426 369.676 563.6Z" fill="white"/>
<path d="M223.274 531.451L221.422 519.837C221.232 518.617 221.532 517.372 222.257 516.373C222.982 515.375 224.073 514.704 225.29 514.509L247.873 510.935C249.09 510.754 250.33 511.058 251.325 511.782C252.321 512.506 252.992 513.592 253.196 514.807L255.014 526.454C255.123 527.066 255.109 527.692 254.972 528.298C254.836 528.904 254.58 529.476 254.219 529.981C253.859 530.487 253.402 530.915 252.874 531.241C252.346 531.568 251.759 531.785 251.146 531.881L228.597 535.19C227.396 535.393 226.165 535.114 225.168 534.414C224.172 533.714 223.491 532.65 223.274 531.451ZM225.489 515.733C225.043 515.793 224.613 515.943 224.227 516.174C223.841 516.406 223.506 516.714 223.243 517.079C222.979 517.445 222.794 517.86 222.697 518.3C222.6 518.74 222.593 519.196 222.678 519.638L224.497 531.252C224.552 531.702 224.699 532.135 224.929 532.526C225.158 532.916 225.465 533.255 225.831 533.522C226.197 533.789 226.613 533.978 227.055 534.077C227.497 534.176 227.954 534.183 228.398 534.098L250.947 530.524C251.397 530.469 251.83 530.322 252.22 530.092C252.61 529.863 252.949 529.555 253.215 529.189C253.482 528.823 253.67 528.406 253.769 527.964C253.868 527.522 253.876 527.065 253.791 526.62L251.939 515.005C251.88 514.559 251.73 514.129 251.499 513.742C251.267 513.356 250.96 513.021 250.594 512.757C250.229 512.494 249.814 512.308 249.374 512.211C248.935 512.114 248.48 512.108 248.038 512.193L225.489 515.733Z" fill="white"/>
<path d="M373.435 486.735L372.324 486.91L376.247 511.783L377.358 511.608L373.435 486.735Z" fill="#2E4882"/>
<path d="M291.714 604.91V603.785L383.068 589.358C384.517 589.122 385.815 588.322 386.676 587.131C387.537 585.94 387.892 584.457 387.663 583.005L379.728 532.708L380.852 532.51L388.788 582.839C389.048 584.586 388.621 586.365 387.597 587.803C387.084 588.518 386.434 589.123 385.685 589.583C384.935 590.043 384.102 590.349 383.233 590.483L291.714 604.91Z" fill="#2E4882"/>
<path d="M275.85 606.274L242.017 611.631L242.193 612.742L276.025 607.385L275.85 606.274Z" fill="#2E4882"/>
<path d="M338.333 474.867C338.498 474.921 338.65 475.01 338.779 475.127C338.907 475.244 339.009 475.387 339.078 475.547C339.147 475.706 339.181 475.879 339.178 476.053C339.175 476.227 339.135 476.398 339.061 476.555C338.499 477.746 337.573 479.004 336.945 479.07C335.787 479.07 336.349 477.151 336.945 475.761C336.986 475.604 337.059 475.457 337.159 475.33C337.259 475.202 337.384 475.097 337.527 475.019C337.669 474.942 337.826 474.894 337.987 474.879C338.149 474.865 338.311 474.883 338.465 474.934L338.333 474.867Z" fill="#FCB47E"/>
<path d="M336.349 474.834C336.578 474.998 336.747 475.232 336.831 475.501C336.915 475.77 336.908 476.059 336.812 476.323C336.316 477.647 335.225 479.632 334.134 479.401C333.043 479.169 333.903 477.217 334.333 475.496C334.403 475.305 334.517 475.132 334.664 474.99C334.811 474.848 334.988 474.742 335.181 474.678C335.375 474.615 335.581 474.596 335.783 474.623C335.986 474.65 336.179 474.722 336.349 474.834V474.834Z" fill="#FCB47E"/>
<path d="M333.473 474.14C333.631 474.167 333.781 474.226 333.915 474.313C334.05 474.401 334.165 474.514 334.255 474.647C334.344 474.78 334.406 474.929 334.436 475.087C334.467 475.244 334.465 475.406 334.432 475.562C334.361 476.356 334.099 477.12 333.667 477.789C333.235 478.458 332.646 479.011 331.952 479.401C330.696 479.831 331.423 476.853 331.952 475C332.023 474.693 332.212 474.427 332.479 474.26C332.745 474.092 333.067 474.037 333.374 474.106L333.473 474.14Z" fill="#FCB47E"/>
<path d="M331.125 472.551C331.36 472.595 331.582 472.695 331.771 472.841C331.961 472.986 332.113 473.175 332.217 473.391C332.32 473.607 332.37 473.844 332.365 474.084C332.359 474.323 332.297 474.557 332.183 474.768C331.621 476.191 330.63 477.812 329.737 478.077C328.844 478.342 329.307 475.926 329.737 474.073C329.77 473.213 330.398 472.32 331.125 472.551Z" fill="#FCB47E"/>
<path d="M208.395 537.606C208.395 537.606 189.549 509.976 218.744 490.287L235.275 443.234V442.936C215.702 442.936 194.674 454.815 183.267 471.592C164.223 499.685 166.141 533.271 198.046 550.61L208.395 537.606Z" fill="white"/>
<path d="M217.984 496.177L216.959 495.979L219.802 481.519L220.827 481.684L217.984 496.177Z" fill="#3F5A9F"/>
<path d="M205.188 551.04C198.852 547.924 193.257 543.486 188.78 538.023C184.303 532.561 181.047 526.201 179.234 519.373C175.564 504.251 179.465 487.177 190.244 471.327L191.103 471.889C180.49 487.541 176.622 504.317 180.258 519.142C182.033 525.825 185.217 532.05 189.597 537.398C193.977 542.747 199.451 547.094 205.651 550.147L205.188 551.04Z" fill="#3F5A9F"/>
<path d="M206.577 539.889C208.113 541.316 209.851 542.509 211.735 543.429C212.859 543.628 219.042 543.86 218.876 545.183C218.711 546.507 214.479 545.481 214.512 546.606C214.545 547.731 222.778 549.485 221.918 550.941C221.389 551.9 216.595 549.849 216.496 550.445C216.396 551.04 222.844 552.264 222.116 553.754C221.389 555.243 215.14 551.437 214.809 552.165C214.479 552.893 222.183 555.209 221.422 556.401C220.662 557.592 214.809 554.117 214.347 554.779C213.884 555.441 216.43 556.103 217.653 556.864C218.347 557.294 218.116 557.923 217.653 557.89C211.834 557.658 204.428 550.577 203.634 550.246C202.841 549.915 200.89 549.22 199.6 548.691L206.577 539.889Z" fill="#FCB47E"/>
<path d="M206.808 503.192L205.915 502.663C209.071 497.501 213.355 493.122 218.446 489.857L219.008 490.717C214.052 493.899 209.88 498.164 206.808 503.192V503.192Z" fill="#3F5A9F"/>
<path d="M821.253 445.55C821.253 445.947 821.253 446.311 821.253 446.708C822.675 495.151 817.715 532.907 809.317 562.324L784.355 577.843L804.887 574.534H805.449C794.34 606.863 778.998 627.742 764.418 641.177C756.995 648.143 748.61 654.004 739.521 658.582C739.058 658.847 738.595 659.045 738.132 659.277C736.975 659.839 735.851 660.336 734.826 660.766L721.105 661.494C720.907 660.865 720.741 660.236 720.576 659.575C720.411 658.913 720.344 658.781 720.245 658.383C720.146 657.986 719.948 657.325 719.815 656.795C703.615 594.288 724.048 544.29 750.729 508.884C750.807 508.755 750.895 508.633 750.994 508.52C759.649 497.111 769.297 486.491 779.825 476.787L785.876 492.173L786.768 470.5C797.261 461.318 808.535 453.069 820.46 445.848L821.253 445.55Z" fill="#9AADE5"/>
<path d="M821.749 445.782L821.286 446.708L793.116 505.74L792.62 506.799L784.95 522.881L784.685 523.41L760.185 574.732L760.152 574.799L720.245 658.416L719.65 659.674L718.691 661.659L717.501 661.725L718.427 659.74L719.815 656.828L759.194 574.302L759.954 572.78L820.46 446.013L820.79 445.285L821.749 445.782Z" fill="white"/>
<path d="M819.43 499.172L784.51 523.217L785.035 523.981L819.955 499.935L819.43 499.172Z" fill="white"/>
<path d="M819.658 487.418L792.277 506.259L792.802 507.023L820.183 488.182L819.658 487.418Z" fill="white"/>
<path d="M751.619 508.436L750.701 508.555L759.296 574.874L760.214 574.755L751.619 508.436Z" fill="white"/>
<path d="M715.749 672.248C715.749 672.248 748.283 687.635 794.538 660.038L779.527 652.891L804.027 653.883C822.08 641.243 841.884 621.985 862.45 592.998L856.73 590.285L864.136 590.582C867.442 585.619 871.112 580.391 874.617 574.832C863.587 574.17 852.519 574.524 841.554 575.891L831.635 589.391L834.478 576.85C794.604 582.873 736.777 603.686 715.749 672.248Z" fill="#BAC8F3"/>
<path d="M874.193 574.338L712.893 668.708L713.41 669.593L874.71 575.223L874.193 574.338Z" fill="white"/>
<path d="M832.53 599.373L832.431 600.328L855.519 602.712L855.617 601.757L832.53 599.373Z" fill="white"/>
<path d="M821.409 605.538L821.241 606.483L848.16 611.282L848.328 610.337L821.409 605.538Z" fill="white"/>
<path d="M753.606 612.918L752.779 611.992C767.07 599.515 783.707 590.02 801.713 584.064L802.11 585.222C784.263 591.135 767.773 600.55 753.606 612.918V612.918Z" fill="#2E4882"/>
<path d="M430.546 535.819L430.712 536.977C437.324 584.99 448.599 621.356 461.791 648.953L488.969 660.104L468.205 660.402H467.775C484.307 690.414 502.789 708.448 519.354 719.269C527.847 724.89 537.099 729.269 546.829 732.273L548.317 732.703C549.54 733.067 550.731 733.365 551.855 733.63L565.51 732.041L565.708 730.056C565.708 729.659 565.708 729.229 565.708 728.832C565.708 728.435 565.708 727.74 565.874 727.177C571.428 662.851 542.961 617.087 510.724 586.512L510.394 586.215C499.966 576.399 488.679 567.539 476.669 559.743L473.363 575.99L468.899 554.779C456.982 547.463 444.434 541.228 431.406 536.15L430.546 535.819Z" fill="#9AADE5"/>
<path d="M430.116 536.117L430.712 536.977L468.337 590.483L468.999 591.443L479.248 606.002L479.612 606.499L512.311 652.99L512.344 653.056L565.642 728.832L566.469 729.957L567.725 731.777L568.915 731.611L567.659 729.824L565.807 727.177L513.204 652.427L512.245 651.037L431.406 536.15L430.976 535.521L430.116 536.117Z" fill="white"/>
<path d="M441.25 588.361L440.86 589.201L479.303 607.068L479.693 606.228L441.25 588.361Z" fill="white"/>
<path d="M439.113 576.875L438.723 577.715L468.863 591.717L469.253 590.876L439.113 576.875Z" fill="white"/>
<path d="M510.667 586.176L509.742 586.212L512.342 653.036L513.267 653L510.667 586.176Z" fill="white"/>
<path d="M572.552 741.704C572.552 741.704 543.06 762.285 492.87 742.795L506.459 733.266L482.488 738.328C462.651 728.898 439.804 713.213 414.709 688.065L419.9 684.425L412.626 685.947C408.372 681.535 404.063 676.958 399.698 672.215C410.435 669.703 421.382 668.196 432.398 667.715L444.466 679.362L439.606 667.549C479.744 666.788 540.217 677.642 572.552 741.704Z" fill="#BAC8F3"/>
<path d="M399.842 671.721L399.48 672.681L574.269 738.747L574.631 737.787L399.842 671.721Z" fill="white"/>
<path d="M445.111 689.339L422.745 695.546L423.001 696.471L445.368 690.263L445.111 689.339Z" fill="white"/>
<path d="M457.018 693.637L431.279 702.871L431.602 703.774L457.342 694.54L457.018 693.637Z" fill="white"/>
<path d="M525.173 689.521L525.834 688.495C509.66 678.597 491.675 672.027 472.933 669.171L472.735 670.362C491.31 673.208 509.135 679.72 525.173 689.521V689.521Z" fill="#2E4882"/>
<path d="M579.033 771.517H545.97C540.87 771.523 535.964 769.564 532.27 766.046C528.577 762.527 526.378 757.721 526.132 752.623L507.55 428.608C507.462 425.946 507.909 423.292 508.866 420.807C509.823 418.321 511.271 416.054 513.122 414.139C514.973 412.225 517.19 410.703 519.641 409.664C522.092 408.625 524.726 408.091 527.388 408.092H565.312L579.033 771.517Z" fill="white"/>
<path d="M741.538 428.608L731.817 752.623C731.571 757.721 729.372 762.527 725.679 766.046C721.985 769.564 717.079 771.523 711.979 771.517H566.502C555.789 771.517 543.159 763.179 542.729 752.623L532.91 428.608C532.821 425.946 533.268 423.292 534.226 420.807C535.183 418.321 536.63 416.054 538.481 414.139C540.332 412.225 542.549 410.703 545 409.664C547.451 408.625 550.086 408.091 552.747 408.092H721.369C724.059 408.046 726.73 408.547 729.219 409.566C731.709 410.585 733.966 412.1 735.852 414.019C737.739 415.938 739.215 418.221 740.193 420.729C741.17 423.237 741.628 425.917 741.538 428.608V428.608Z" fill="#DCE8FF"/>
<path d="M573.081 430.494H565.278C564.251 430.493 563.265 430.897 562.534 431.619C561.811 432.363 561.407 433.361 561.41 434.399C561.41 435.425 561.818 436.41 562.543 437.136C563.269 437.862 564.252 438.27 565.278 438.27H708.078C709.107 438.27 710.094 437.863 710.825 437.138C711.556 436.413 711.971 435.428 711.979 434.399C711.979 433.363 711.568 432.37 710.837 431.638C710.105 430.905 709.113 430.494 708.078 430.494H573.081V430.494Z" fill="#3F5A9F"/>
<path d="M706.491 557.989H567.957C566.686 557.982 565.467 557.487 564.55 556.607C563.633 555.726 563.089 554.527 563.03 553.257L559.724 463.087C559.697 462.424 559.805 461.761 560.04 461.14C560.276 460.518 560.635 459.951 561.095 459.472C561.555 458.993 562.107 458.612 562.718 458.352C563.329 458.092 563.986 457.958 564.65 457.959H710.128C710.791 457.958 711.446 458.092 712.056 458.352C712.665 458.613 713.215 458.994 713.673 459.474C714.13 459.953 714.486 460.521 714.717 461.142C714.949 461.763 715.053 462.425 715.021 463.087L711.715 553.257C711.694 553.915 711.541 554.562 711.265 555.159C710.989 555.757 710.595 556.292 710.108 556.734C709.62 557.176 709.048 557.515 708.427 557.73C707.806 557.946 707.147 558.034 706.491 557.989V557.989Z" fill="white"/>
<path d="M602.474 595.513H581.05C577.288 595.513 574.239 598.565 574.239 602.329V612.091C574.239 615.855 577.288 618.907 581.05 618.907H602.474C606.236 618.907 609.285 615.855 609.285 612.091V602.329C609.285 598.565 606.236 595.513 602.474 595.513Z" fill="#647CE2"/>
<path d="M602.474 633.665H581.05C577.288 633.665 574.239 636.717 574.239 640.482V650.243C574.239 654.008 577.288 657.06 581.05 657.06H602.474C606.236 657.06 609.285 654.008 609.285 650.243V640.482C609.285 636.717 606.236 633.665 602.474 633.665Z" fill="#647CE2"/>
<path d="M602.474 671.851H581.05C577.288 671.851 574.239 674.903 574.239 678.667V688.429C574.239 692.194 577.288 695.245 581.05 695.245H602.474C606.236 695.245 609.285 692.194 609.285 688.429V678.667C609.285 674.903 606.236 671.851 602.474 671.851Z" fill="#647CE2"/>
<path d="M602.474 710.004H581.05C577.288 710.004 574.239 713.055 574.239 716.82V726.581C574.239 730.346 577.288 733.398 581.05 733.398H602.474C606.236 733.398 609.285 730.346 609.285 726.581V716.82C609.285 713.055 606.236 710.004 602.474 710.004Z" fill="#3F5A9F"/>
<path d="M646.977 595.513H625.553C621.791 595.513 618.742 598.565 618.742 602.329V612.091C618.742 615.855 621.791 618.907 625.553 618.907H646.977C650.739 618.907 653.788 615.855 653.788 612.091V602.329C653.788 598.565 650.739 595.513 646.977 595.513Z" fill="#647CE2"/>
<path d="M646.977 633.665H625.553C621.791 633.665 618.742 636.717 618.742 640.482V650.243C618.742 654.008 621.791 657.06 625.553 657.06H646.977C650.739 657.06 653.788 654.008 653.788 650.243V640.482C653.788 636.717 650.739 633.665 646.977 633.665Z" fill="#647CE2"/>
<path d="M646.977 671.851H625.553C621.791 671.851 618.742 674.903 618.742 678.667V688.429C618.742 692.194 621.791 695.245 625.553 695.245H646.977C650.739 695.245 653.788 692.194 653.788 688.429V678.667C653.788 674.903 650.739 671.851 646.977 671.851Z" fill="#647CE2"/>
<path d="M646.977 710.004H625.553C621.791 710.004 618.742 713.055 618.742 716.82V726.581C618.742 730.346 621.791 733.398 625.553 733.398H646.977C650.739 733.398 653.788 730.346 653.788 726.581V716.82C653.788 713.055 650.739 710.004 646.977 710.004Z" fill="#647CE2"/>
<path d="M691.48 595.513H670.055C666.294 595.513 663.244 598.565 663.244 602.329V612.091C663.244 615.855 666.294 618.907 670.055 618.907H691.48C695.242 618.907 698.291 615.855 698.291 612.091V602.329C698.291 598.565 695.242 595.513 691.48 595.513Z" fill="#647CE2"/>
<path d="M691.48 633.665H670.055C666.294 633.665 663.244 636.717 663.244 640.482V650.243C663.244 654.008 666.294 657.06 670.055 657.06H691.48C695.242 657.06 698.291 654.008 698.291 650.243V640.482C698.291 636.717 695.242 633.665 691.48 633.665Z" fill="#647CE2"/>
<path d="M691.48 671.851H670.055C666.294 671.851 663.244 674.903 663.244 678.667V688.429C663.244 692.194 666.294 695.245 670.055 695.245H691.48C695.242 695.245 698.291 692.194 698.291 688.429V678.667C698.291 674.903 695.242 671.851 691.48 671.851Z" fill="#647CE2"/>
<path d="M691.48 710.004H670.055C666.294 710.004 663.244 713.055 663.244 716.82V726.581C663.244 730.346 666.294 733.398 670.055 733.398H691.48C695.242 733.398 698.291 730.346 698.291 726.581V716.82C698.291 713.055 695.242 710.004 691.48 710.004Z" fill="#3F5A9F"/>
<path d="M608.856 595.513H587.431C583.669 595.513 580.62 598.565 580.62 602.329V612.091C580.62 615.855 583.669 618.907 587.431 618.907H608.856C612.617 618.907 615.667 615.855 615.667 612.091V602.329C615.667 598.565 612.617 595.513 608.856 595.513Z" fill="#6D92F0"/>
<path d="M608.856 633.665H587.431C583.669 633.665 580.62 636.717 580.62 640.482V650.243C580.62 654.008 583.669 657.06 587.431 657.06H608.856C612.617 657.06 615.667 654.008 615.667 650.243V640.482C615.667 636.717 612.617 633.665 608.856 633.665Z" fill="#6D92F0"/>
<path d="M608.856 671.851H587.431C583.669 671.851 580.62 674.903 580.62 678.667V688.429C580.62 692.194 583.669 695.245 587.431 695.245H608.856C612.617 695.245 615.667 692.194 615.667 688.429V678.667C615.667 674.903 612.617 671.851 608.856 671.851Z" fill="#6D92F0"/>
<path d="M608.856 710.004H587.431C583.669 710.004 580.62 713.055 580.62 716.82V726.581C580.62 730.346 583.669 733.398 587.431 733.398H608.856C612.617 733.398 615.667 730.346 615.667 726.581V716.82C615.667 713.055 612.617 710.004 608.856 710.004Z" fill="#3F5A9F"/>
<path d="M653.325 595.513H631.901C628.139 595.513 625.09 598.565 625.09 602.329V612.091C625.09 615.855 628.139 618.907 631.901 618.907H653.325C657.087 618.907 660.136 615.855 660.136 612.091V602.329C660.136 598.565 657.087 595.513 653.325 595.513Z" fill="#6D92F0"/>
<path d="M653.325 633.665H631.901C628.139 633.665 625.09 636.717 625.09 640.482V650.243C625.09 654.008 628.139 657.06 631.901 657.06H653.325C657.087 657.06 660.136 654.008 660.136 650.243V640.482C660.136 636.717 657.087 633.665 653.325 633.665Z" fill="#6D92F0"/>
<path d="M653.325 671.851H631.901C628.139 671.851 625.09 674.903 625.09 678.667V688.429C625.09 692.194 628.139 695.245 631.901 695.245H653.325C657.087 695.245 660.136 692.194 660.136 688.429V678.667C660.136 674.903 657.087 671.851 653.325 671.851Z" fill="#6D92F0"/>
<path d="M653.325 710.004H631.901C628.139 710.004 625.09 713.055 625.09 716.82V726.581C625.09 730.346 628.139 733.398 631.901 733.398H653.325C657.087 733.398 660.136 730.346 660.136 726.581V716.82C660.136 713.055 657.087 710.004 653.325 710.004Z" fill="#6D92F0"/>
<path d="M697.828 595.513H676.404C672.642 595.513 669.592 598.565 669.592 602.329V612.091C669.592 615.855 672.642 618.907 676.404 618.907H697.828C701.59 618.907 704.639 615.855 704.639 612.091V602.329C704.639 598.565 701.59 595.513 697.828 595.513Z" fill="#6D92F0"/>
<path d="M697.828 633.665H676.404C672.642 633.665 669.592 636.717 669.592 640.482V650.243C669.592 654.008 672.642 657.06 676.404 657.06H697.828C701.59 657.06 704.639 654.008 704.639 650.243V640.482C704.639 636.717 701.59 633.665 697.828 633.665Z" fill="#6D92F0"/>
<path d="M697.828 671.851H676.404C672.642 671.851 669.592 674.903 669.592 678.667V688.429C669.592 692.194 672.642 695.245 676.404 695.245H697.828C701.59 695.245 704.639 692.194 704.639 688.429V678.667C704.639 674.903 701.59 671.851 697.828 671.851Z" fill="#6D92F0"/>
<path d="M697.828 710.004H676.404C672.642 710.004 669.592 713.055 669.592 716.82V726.581C669.592 730.346 672.642 733.398 676.404 733.398H697.828C701.59 733.398 704.639 730.346 704.639 726.581V716.82C704.639 713.055 701.59 710.004 697.828 710.004Z" fill="#3F5A9F"/>
<path d="M608.856 619.536H587.431C585.455 619.536 583.559 618.753 582.159 617.357C580.758 615.962 579.967 614.068 579.958 612.091V602.329C579.967 600.352 580.758 598.458 582.159 597.063C583.559 595.667 585.455 594.884 587.431 594.884H608.856C610.829 594.884 612.721 595.669 614.116 597.065C615.511 598.461 616.295 600.355 616.295 602.329V612.091C616.295 614.065 615.511 615.959 614.116 617.355C612.721 618.752 610.829 619.536 608.856 619.536ZM587.431 596.142C585.791 596.142 584.218 596.793 583.059 597.954C581.899 599.114 581.248 600.688 581.248 602.329V612.091C581.248 613.732 581.899 615.306 583.059 616.466C584.218 617.627 585.791 618.279 587.431 618.279H608.856C610.495 618.279 612.068 617.627 613.228 616.466C614.387 615.306 615.038 613.732 615.038 612.091V602.329C615.038 600.688 614.387 599.114 613.228 597.954C612.068 596.793 610.495 596.142 608.856 596.142H587.431Z" fill="white"/>
<path d="M608.856 657.622H587.431C585.455 657.622 583.559 656.839 582.159 655.444C580.758 654.048 579.967 652.155 579.958 650.177V640.449C579.958 638.465 580.746 636.563 582.147 635.161C583.548 633.758 585.449 632.97 587.431 632.97H608.856C610.832 632.979 612.724 633.771 614.118 635.172C615.512 636.574 616.295 638.471 616.295 640.449V650.177C616.295 652.152 615.511 654.045 614.116 655.442C612.721 656.838 610.829 657.622 608.856 657.622V657.622ZM587.431 634.46C585.791 634.46 584.218 635.111 583.059 636.272C581.899 637.432 581.248 639.006 581.248 640.647V650.376C581.248 652.017 581.899 653.591 583.059 654.751C584.218 655.912 585.791 656.563 587.431 656.563H608.856C610.495 656.563 612.068 655.912 613.228 654.751C614.387 653.591 615.038 652.017 615.038 650.376V640.647C615.038 639.006 614.387 637.432 613.228 636.272C612.068 635.111 610.495 634.46 608.856 634.46H587.431Z" fill="white"/>
<path d="M608.856 695.874H587.431C585.449 695.874 583.548 695.086 582.147 693.684C580.746 692.281 579.958 690.379 579.958 688.396V678.667C579.967 676.69 580.758 674.796 582.159 673.401C583.559 672.006 585.455 671.222 587.431 671.222H608.856C610.829 671.222 612.721 672.007 614.116 673.403C615.511 674.799 616.295 676.693 616.295 678.667V688.396C616.295 690.374 615.512 692.271 614.118 693.672C612.724 695.074 610.832 695.865 608.856 695.874V695.874ZM587.431 672.48C585.791 672.48 584.218 673.132 583.059 674.292C581.899 675.452 581.248 677.026 581.248 678.667V688.396C581.248 690.037 581.899 691.611 583.059 692.771C584.218 693.932 585.791 694.584 587.431 694.584H608.856C610.495 694.584 612.068 693.932 613.228 692.771C614.387 691.611 615.038 690.037 615.038 688.396V678.667C615.038 677.026 614.387 675.452 613.228 674.292C612.068 673.132 610.495 672.48 608.856 672.48H587.431Z" fill="white"/>
<path d="M608.856 734.027H587.431C585.455 734.027 583.559 733.243 582.159 731.848C580.758 730.453 579.967 728.559 579.958 726.581V716.655C579.967 714.677 580.758 712.783 582.159 711.388C583.559 709.993 585.455 709.209 587.431 709.209H608.856C610.829 709.209 612.721 709.994 614.116 711.39C615.511 712.786 616.295 714.68 616.295 716.655V726.581C616.295 728.556 615.511 730.45 614.116 731.846C612.721 733.242 610.829 734.027 608.856 734.027ZM587.431 710.566C585.791 710.566 584.218 711.218 583.059 712.378C581.899 713.539 581.248 715.113 581.248 716.754V726.681C581.248 728.322 581.899 729.896 583.059 731.056C584.218 732.217 585.791 732.869 587.431 732.869H608.856C610.495 732.869 612.068 732.217 613.228 731.056C614.387 729.896 615.038 728.322 615.038 726.681V716.754C615.038 715.113 614.387 713.539 613.228 712.378C612.068 711.218 610.495 710.566 608.856 710.566H587.431Z" fill="white"/>
<path d="M653.325 619.536H631.901C629.928 619.536 628.035 618.752 626.64 617.355C625.245 615.959 624.461 614.065 624.461 612.091V602.329C624.461 600.355 625.245 598.461 626.64 597.065C628.035 595.669 629.928 594.884 631.901 594.884H653.325C655.302 594.884 657.197 595.667 658.598 597.063C659.998 598.458 660.789 600.352 660.798 602.329V612.091C660.789 614.068 659.998 615.962 658.598 617.357C657.197 618.753 655.302 619.536 653.325 619.536V619.536ZM631.901 596.142C630.267 596.15 628.702 596.806 627.55 597.966C626.398 599.125 625.751 600.694 625.751 602.329V612.091C625.751 613.726 626.398 615.295 627.55 616.455C628.702 617.614 630.267 618.27 631.901 618.279H653.325C654.965 618.279 656.538 617.627 657.697 616.466C658.857 615.306 659.508 613.732 659.508 612.091V602.329C659.508 600.688 658.857 599.114 657.697 597.954C656.538 596.793 654.965 596.142 653.325 596.142H631.901Z" fill="white"/>
<path d="M653.325 657.622H631.901C629.928 657.622 628.035 656.838 626.64 655.442C625.245 654.045 624.461 652.152 624.461 650.177V640.449C624.461 638.471 625.244 636.574 626.638 635.172C628.032 633.771 629.925 632.979 631.901 632.97H653.325C655.307 632.97 657.208 633.758 658.609 635.161C660.011 636.563 660.798 638.465 660.798 640.449V650.177C660.789 652.155 659.998 654.048 658.598 655.444C657.197 656.839 655.302 657.622 653.325 657.622V657.622ZM631.901 634.46C631.09 634.46 630.288 634.62 629.54 634.931C628.791 635.243 628.112 635.699 627.54 636.274C626.969 636.849 626.517 637.531 626.209 638.282C625.902 639.032 625.746 639.836 625.751 640.647V650.376C625.751 652.011 626.398 653.58 627.55 654.739C628.702 655.899 630.267 656.555 631.901 656.563H653.325C654.965 656.563 656.538 655.912 657.697 654.751C658.857 653.591 659.508 652.017 659.508 650.376V640.647C659.508 639.006 658.857 637.432 657.697 636.272C656.538 635.111 654.965 634.46 653.325 634.46H631.901Z" fill="white"/>
<path d="M653.325 695.874H631.901C629.925 695.865 628.032 695.074 626.638 693.672C625.244 692.271 624.461 690.374 624.461 688.396V678.667C624.461 676.693 625.245 674.799 626.64 673.403C628.035 672.007 629.928 671.222 631.901 671.222H653.325C655.302 671.222 657.197 672.006 658.598 673.401C659.998 674.796 660.789 676.69 660.798 678.667V688.396C660.798 690.379 660.011 692.281 658.609 693.684C657.208 695.086 655.307 695.874 653.325 695.874ZM631.901 672.48C630.267 672.488 628.702 673.144 627.55 674.304C626.398 675.463 625.751 677.032 625.751 678.667V688.396C625.751 690.031 626.398 691.6 627.55 692.76C628.702 693.919 630.267 694.575 631.901 694.584H653.325C654.14 694.588 654.948 694.431 655.702 694.122C656.456 693.813 657.141 693.358 657.719 692.783C658.296 692.208 658.755 691.524 659.068 690.772C659.38 690.019 659.541 689.211 659.541 688.396V678.667C659.541 677.026 658.89 675.452 657.73 674.292C656.571 673.132 654.998 672.48 653.359 672.48H631.901Z" fill="white"/>
<path d="M653.325 734.027H631.901C629.928 734.027 628.035 733.242 626.64 731.846C625.245 730.45 624.461 728.556 624.461 726.581V716.655C624.461 714.68 625.245 712.786 626.64 711.39C628.035 709.994 629.928 709.209 631.901 709.209H653.325C655.302 709.209 657.197 709.993 658.598 711.388C659.998 712.783 660.789 714.677 660.798 716.655V726.581C660.789 728.559 659.998 730.453 658.598 731.848C657.197 733.243 655.302 734.027 653.325 734.027V734.027ZM631.901 710.566C630.267 710.575 628.702 711.231 627.55 712.39C626.398 713.55 625.751 715.118 625.751 716.754V726.681C625.751 728.316 626.398 729.885 627.55 731.045C628.702 732.204 630.267 732.86 631.901 732.869H653.325C654.965 732.869 656.538 732.217 657.697 731.056C658.857 729.896 659.508 728.322 659.508 726.681V716.754C659.508 715.113 658.857 713.539 657.697 712.378C656.538 711.218 654.965 710.566 653.325 710.566H631.901Z" fill="white"/>
<path d="M697.828 619.536H676.404C674.431 619.536 672.538 618.752 671.143 617.355C669.748 615.959 668.964 614.065 668.964 612.091V602.329C668.947 601.341 669.126 600.358 669.492 599.439C669.858 598.521 670.403 597.684 671.096 596.979C671.788 596.274 672.614 595.713 673.526 595.331C674.437 594.948 675.415 594.752 676.404 594.752H697.828C699.801 594.752 701.694 595.536 703.089 596.932C704.484 598.329 705.268 600.222 705.268 602.197V611.958C705.285 612.947 705.106 613.93 704.74 614.848C704.374 615.767 703.829 616.603 703.136 617.309C702.444 618.014 701.617 618.574 700.706 618.957C699.795 619.339 698.817 619.536 697.828 619.536V619.536ZM676.404 596.142C674.764 596.142 673.191 596.793 672.032 597.954C670.872 599.114 670.221 600.688 670.221 602.329V612.091C670.221 613.732 670.872 615.306 672.032 616.466C673.191 617.627 674.764 618.279 676.404 618.279H697.828C699.468 618.279 701.041 617.627 702.2 616.466C703.36 615.306 704.011 613.732 704.011 612.091V602.329C704.011 600.688 703.36 599.114 702.2 597.954C701.041 596.793 699.468 596.142 697.828 596.142H676.404Z" fill="white"/>
<path d="M697.828 657.622H676.404C674.431 657.622 672.538 656.838 671.143 655.442C669.748 654.045 668.964 652.152 668.964 650.177V640.449C668.964 638.471 669.747 636.574 671.141 635.172C672.535 633.771 674.428 632.979 676.404 632.97H697.828C699.804 632.979 701.697 633.771 703.091 635.172C704.485 636.574 705.268 638.471 705.268 640.449V650.177C705.268 652.152 704.484 654.045 703.089 655.442C701.694 656.838 699.801 657.622 697.828 657.622V657.622ZM676.404 634.46C674.764 634.46 673.191 635.111 672.032 636.272C670.872 637.432 670.221 639.006 670.221 640.647V650.376C670.221 652.017 670.872 653.591 672.032 654.751C673.191 655.912 674.764 656.563 676.404 656.563H697.828C699.468 656.563 701.041 655.912 702.2 654.751C703.36 653.591 704.011 652.017 704.011 650.376V640.647C704.011 639.006 703.36 637.432 702.2 636.272C701.041 635.111 699.468 634.46 697.828 634.46H676.404Z" fill="white"/>
<path d="M697.828 695.874H676.404C674.428 695.865 672.535 695.074 671.141 693.672C669.747 692.271 668.964 690.374 668.964 688.396V678.667C668.964 676.693 669.748 674.799 671.143 673.403C672.538 672.007 674.431 671.222 676.404 671.222H697.828C699.801 671.222 701.694 672.007 703.089 673.403C704.484 674.799 705.268 676.693 705.268 678.667V688.396C705.268 690.374 704.485 692.271 703.091 693.672C701.697 695.074 699.804 695.865 697.828 695.874ZM676.404 672.48C674.764 672.48 673.191 673.132 672.032 674.292C670.872 675.452 670.221 677.026 670.221 678.667V688.396C670.221 690.037 670.872 691.611 672.032 692.771C673.191 693.932 674.764 694.584 676.404 694.584H697.828C699.468 694.584 701.041 693.932 702.2 692.771C703.36 691.611 704.011 690.037 704.011 688.396V678.667C704.011 677.026 703.36 675.452 702.2 674.292C701.041 673.132 699.468 672.48 697.828 672.48H676.404Z" fill="white"/>
<path d="M697.828 734.027H676.404C674.431 734.027 672.538 733.242 671.143 731.846C669.748 730.45 668.964 728.556 668.964 726.581V716.655C668.964 714.68 669.748 712.786 671.143 711.39C672.538 709.994 674.431 709.209 676.404 709.209H697.828C699.801 709.209 701.694 709.994 703.089 711.39C704.484 712.786 705.268 714.68 705.268 716.655V726.581C705.268 728.556 704.484 730.45 703.089 731.846C701.694 733.242 699.801 734.027 697.828 734.027ZM676.404 710.566C674.764 710.566 673.191 711.218 672.032 712.378C670.872 713.539 670.221 715.113 670.221 716.754V726.681C670.221 728.322 670.872 729.896 672.032 731.056C673.191 732.217 674.764 732.869 676.404 732.869H697.828C699.468 732.869 701.041 732.217 702.2 731.056C703.36 729.896 704.011 728.322 704.011 726.681V716.754C704.011 715.113 703.36 713.539 702.2 712.378C701.041 711.218 699.468 710.566 697.828 710.566H676.404Z" fill="white"/>
<path d="M694.191 772.378H566.403C555.393 772.378 542.233 763.774 541.771 752.524L532.05 428.641C531.93 425.887 532.373 423.137 533.351 420.56C534.328 417.983 535.821 415.632 537.737 413.651C539.693 411.609 542.045 409.986 544.649 408.883C547.252 407.779 550.053 407.217 552.88 407.232H721.502C724.329 407.219 727.129 407.782 729.732 408.885C732.335 409.989 734.687 411.61 736.645 413.651C738.55 415.638 740.033 417.991 741.005 420.567C741.976 423.143 742.417 425.89 742.298 428.641L741.769 446.311H740.083L740.612 428.608C740.75 426.092 740.375 423.575 739.511 421.209C738.647 418.843 737.312 416.677 735.587 414.843C733.797 412.96 731.643 411.464 729.255 410.445C726.867 409.427 724.296 408.908 721.7 408.92H553.078C550.482 408.908 547.911 409.427 545.523 410.445C543.135 411.464 540.981 412.96 539.192 414.843C537.416 416.646 536.03 418.796 535.12 421.158C534.21 423.521 533.795 426.045 533.902 428.575L543.622 752.59C544.019 762.782 556.285 770.657 566.535 770.657H694.324L694.191 772.378Z" fill="#3F5A9F"/>
<path d="M738.639 496.049L733.019 684.445L734.738 684.496L740.358 496.101L738.639 496.049Z" fill="#3F5A9F"/>
<path d="M700.242 368.153V438.27H573.247V368.153C572.941 363.461 570.846 359.066 567.394 355.877C563.924 352.652 559.367 350.856 554.632 350.847H681.627C686.362 350.856 690.92 352.652 694.39 355.877C697.841 359.066 699.937 363.461 700.242 368.153V368.153Z" fill="white"/>
<path d="M573.247 368.153H535.984C536.289 363.454 538.398 359.055 541.87 355.877C545.334 352.643 549.895 350.845 554.632 350.845C559.369 350.845 563.93 352.643 567.394 355.877C570.846 359.066 572.941 363.461 573.247 368.153V368.153Z" fill="#2E4882"/>
<path d="M700.804 438.833H572.685V368.153C572.363 363.617 570.316 359.378 566.965 356.307C563.612 353.165 559.192 351.414 554.599 351.409V350.284H681.594C686.5 350.249 691.233 352.096 694.82 355.446C698.397 358.73 700.566 363.272 700.87 368.12V368.12L700.804 438.833ZM573.809 437.708H699.68V368.219C699.382 363.675 697.345 359.42 693.993 356.34C690.64 353.198 686.221 351.447 681.627 351.443H561.146C563.598 352.331 565.846 353.704 567.758 355.48C571.33 358.767 573.497 363.306 573.809 368.153V437.708Z" fill="#2E4882"/>
<path d="M708.078 438.833H565.278C564.379 438.878 563.487 438.647 562.721 438.172C561.956 437.696 561.354 436.999 560.994 436.172C560.635 435.345 560.536 434.429 560.711 433.544C560.886 432.66 561.326 431.85 561.972 431.222C562.398 430.78 562.913 430.433 563.483 430.204C564.053 429.976 564.665 429.872 565.278 429.898H573.081V431.057H565.278C564.843 431.054 564.412 431.138 564.009 431.302C563.606 431.467 563.24 431.71 562.931 432.016C562.453 432.477 562.125 433.071 561.989 433.721C561.853 434.372 561.916 435.048 562.169 435.662C562.422 436.276 562.854 436.799 563.409 437.164C563.963 437.529 564.615 437.718 565.278 437.708H708.078C708.955 437.708 709.796 437.359 710.416 436.738C711.036 436.118 711.384 435.276 711.384 434.399C711.384 433.521 711.036 432.679 710.416 432.059C709.796 431.438 708.955 431.09 708.078 431.09H700.275V429.932H708.078C709.242 429.966 710.347 430.45 711.161 431.284C711.975 432.117 712.434 433.233 712.442 434.399C712.469 435.013 712.365 435.625 712.137 436.195C711.909 436.766 711.562 437.281 711.12 437.708C710.284 438.454 709.198 438.856 708.078 438.833V438.833Z" fill="#2E4882"/>
<path d="M713.5 776.448C713.5 779.757 736.645 782.172 765.112 782.172C793.579 782.172 816.757 779.624 816.757 776.448V760.995H713.533V776.415C713.522 776.425 713.511 776.436 713.5 776.448V776.448Z" fill="#F49B51"/>
<path d="M765.112 766.719C793.616 766.719 816.723 764.156 816.723 760.995C816.723 757.833 793.616 755.27 765.112 755.27C736.608 755.27 713.5 757.833 713.5 760.995C713.5 764.156 736.608 766.719 765.112 766.719Z" fill="#FCC659"/>
<path d="M701.3 757.818C701.3 760.962 724.444 763.543 752.912 763.543C781.379 763.543 804.556 760.962 804.556 757.818C804.556 757.818 804.556 757.818 804.556 757.653V742.2H701.333V757.62C701.307 757.682 701.295 757.75 701.3 757.818V757.818Z" fill="#F49B51"/>
<path d="M752.912 748.09C781.416 748.09 804.523 745.527 804.523 742.365C804.523 739.204 781.416 736.641 752.912 736.641C724.407 736.641 701.3 739.204 701.3 742.365C701.3 745.527 724.407 748.09 752.912 748.09Z" fill="#FCC659"/>
<path d="M713.5 739.189C713.5 742.332 736.644 744.913 765.112 744.913C793.579 744.913 816.756 742.332 816.756 739.189C816.756 739.189 816.756 739.189 816.756 739.023V723.57H713.533V738.99C713.507 739.053 713.496 739.121 713.5 739.189V739.189Z" fill="#F49B51"/>
<path d="M765.112 729.427C793.616 729.427 816.723 726.864 816.723 723.703C816.723 720.541 793.616 717.978 765.112 717.978C736.608 717.978 713.5 720.541 713.5 723.703C713.5 726.864 736.608 729.427 765.112 729.427Z" fill="#FCC659"/>
<path d="M765.112 782.768C786.107 782.768 817.352 781.08 817.352 776.448H816.128C816.128 778.235 798.605 781.544 765.112 781.544H761.475V782.768H765.112Z" fill="#2E4882"/>
<path d="M744.646 782.305V781.08C739.422 780.849 734.727 780.485 730.396 780.088V781.279C734.595 781.709 739.389 782.073 744.646 782.305Z" fill="#2E4882"/>
<path d="M785.479 762.782C804.887 760.995 804.887 758.546 804.887 757.752H803.663C803.663 758.348 800.357 760.201 785.38 761.557L785.479 762.782Z" fill="#2E4882"/>
<path d="M752.647 764.072C758.466 764.072 764.153 764.072 769.608 763.774V762.55C759.888 762.914 749.175 762.947 739.157 762.55V763.774C743.489 764.006 748.051 764.072 752.647 764.072Z" fill="#2E4882"/>
<path d="M726.23 763.278V762.054C720.708 761.69 715.914 761.226 711.946 760.664V761.855C715.749 762.451 720.708 762.914 726.23 763.278Z" fill="#2E4882"/>
<path d="M799.828 728.567C817.021 726.813 817.021 724.596 817.021 723.769H815.831C815.831 723.769 815.368 725.754 799.696 727.376L799.828 728.567Z" fill="#2E4882"/>
<path d="M764.814 730.089C770.733 730.089 776.552 730.089 782.04 729.758V728.567C776.552 728.765 770.766 728.865 764.847 728.865C754.234 728.865 744.051 728.534 735.421 727.872V729.063C743.985 729.758 754.168 730.089 764.814 730.089Z" fill="#2E4882"/>
<path d="M695.183 720.493C695.183 723.636 718.328 726.217 746.828 726.217C775.328 726.217 798.406 723.802 798.406 720.493C798.422 720.439 798.422 720.382 798.406 720.327V704.941H695.216V720.493H695.183Z" fill="#F49B51"/>
<path d="M746.828 710.798C775.332 710.798 798.44 708.235 798.44 705.073C798.44 701.912 775.332 699.349 746.828 699.349C718.324 699.349 695.216 701.912 695.216 705.073C695.216 708.235 718.324 710.798 746.828 710.798Z" fill="#FCC659"/>
<path d="M704.772 705.073C704.772 707.191 723.585 708.912 746.828 708.912C770.071 708.912 788.884 707.191 788.884 705.073C788.884 702.955 770.038 701.235 746.828 701.235C723.618 701.235 704.772 702.955 704.772 705.073Z" fill="#F49B51"/>
<path d="M686.686 381.687H659.078V385.095H686.686V381.687Z" fill="#E1EAFF"/>
<path d="M646.283 381.687H590.803V385.095H646.283V381.687Z" fill="#E1EAFF"/>
<path d="M686.653 396.478H622.742V399.886H686.653V396.478Z" fill="#E1EAFF"/>
<path d="M614.906 396.478H590.803V399.886H614.906V396.478Z" fill="#E1EAFF"/>
<path d="M674.75 412.427H648.597V415.835H674.75V412.427Z" fill="#E1EAFF"/>
<path d="M637.587 412.427H590.803V415.835H637.587V412.427Z" fill="#E1EAFF"/>
<path d="M635.637 557.162H601.02V558.882H635.637V557.162Z" fill="#3F5A9F"/>
<path d="M706.491 558.849H649.06V557.162H706.491C707.547 557.162 708.562 556.752 709.321 556.017C710.08 555.282 710.523 554.28 710.558 553.224L713.566 474.305H715.253L712.244 553.257C712.201 554.755 711.576 556.178 710.502 557.222C709.427 558.266 707.989 558.85 706.491 558.849V558.849Z" fill="#3F5A9F"/>
<path d="M386.407 438.336C379.623 436.992 372.592 437.69 366.204 440.343C359.816 442.996 354.357 447.485 350.517 453.242C346.678 458.999 344.629 465.766 344.631 472.688C344.633 479.609 346.685 486.375 350.528 492.13C354.37 497.885 359.832 502.371 366.221 505.021C372.61 507.67 379.641 508.365 386.425 507.017C393.209 505.669 399.441 502.338 404.334 497.447C409.227 492.555 412.561 486.321 413.916 479.533C415.725 470.419 413.843 460.96 408.685 453.234C403.526 445.509 395.513 440.15 386.407 438.336ZM407.204 478.21C406.123 483.647 403.465 488.644 399.562 492.578C395.658 496.511 390.683 499.205 385.257 500.323C379.832 501.441 374.198 500.934 369.059 498.865C363.92 496.795 359.505 493.255 356.366 488.688C353.227 484.121 351.503 478.728 351.409 473.185C351.316 467.643 352.857 462.195 355.841 457.525C358.825 452.854 363.118 449.167 368.184 446.925C373.25 444.684 378.864 443.987 384.324 444.921H385.084C392.278 446.359 398.627 450.548 402.782 456.597C406.938 462.647 408.571 470.08 407.336 477.316C407.314 477.617 407.27 477.915 407.204 478.21Z" fill="#FCC659"/>
<path d="M407.336 477.448C407.352 477.702 407.352 477.956 407.336 478.21C406.25 483.644 403.587 488.637 399.681 492.565C395.775 496.493 390.798 499.182 385.374 500.296C379.949 501.409 374.317 500.898 369.181 498.826C364.045 496.754 359.633 493.213 356.497 488.645C353.361 484.078 351.64 478.686 351.548 473.145C351.456 467.604 352.998 462.159 355.981 457.49C358.965 452.821 363.257 449.135 368.321 446.894C373.386 444.653 378.998 443.955 384.456 444.888H385.217C392.419 446.355 398.764 450.58 402.897 456.664C407.029 462.747 408.622 470.206 407.336 477.448V477.448Z" fill="#F49B51"/>
<path d="M407.402 470.301V469.606C406.97 465.648 405.696 461.828 403.665 458.403C401.635 454.979 398.896 452.029 395.632 449.752L396.061 449.124C399.408 451.445 402.219 454.456 404.306 457.955C406.393 461.453 407.708 465.358 408.163 469.408V470.169L407.402 470.301Z" fill="#2E4882"/>
<path d="M395.532 449.818C390.22 446.131 383.79 444.411 377.348 444.954V444.193C383.939 443.644 390.518 445.398 395.962 449.157L395.532 449.818Z" fill="#2E4882"/>
<path d="M401.649 491.081L401.087 490.585C403.443 487.794 405.229 484.568 406.344 481.088L407.071 481.32C405.914 484.895 404.072 488.211 401.649 491.081V491.081Z" fill="#2E4882"/>
<path d="M406.41 450.877C404.127 448.063 401.403 445.638 398.343 443.697L398.806 443.002C401.87 445.028 404.612 447.504 406.939 450.348L406.41 450.877Z" fill="#2E4882"/>
<path d="M394.078 505.012L393.747 504.284C401.991 500.596 408.469 493.829 411.799 485.428C415.128 477.027 415.045 467.656 411.568 459.315L412.229 459.084C414.976 465.59 415.702 472.773 414.312 479.699C413.184 485.221 410.762 490.395 407.244 494.796C403.726 499.197 399.213 502.699 394.078 505.012V505.012Z" fill="#2E4882"/>
<path d="M380.92 487L385.693 457.909H388.534L383.761 487H380.92ZM367.682 478.932L368.136 476.091H389.841L389.386 478.932H367.682ZM370.693 487L375.466 457.909H378.307L373.534 487H370.693ZM369.386 468.818L369.841 465.977H391.545L391.091 468.818H369.386Z" fill="#FCC659"/>
<path d="M665.956 515.336C664.342 521.555 660.924 527.156 656.133 531.433C651.342 535.71 645.393 538.471 639.036 539.368C632.679 540.265 626.199 539.258 620.413 536.474C614.628 533.689 609.796 529.252 606.527 523.723C603.257 518.193 601.698 511.818 602.045 505.403C602.391 498.987 604.629 492.818 608.475 487.673C612.321 482.529 617.603 478.64 623.655 476.496C629.707 474.352 636.258 474.05 642.481 475.629C646.634 476.682 650.538 478.546 653.969 481.115C657.399 483.684 660.288 486.906 662.47 490.596C664.652 494.286 666.083 498.372 666.681 502.618C667.279 506.864 667.033 511.186 665.956 515.336Z" fill="#2D3748"/>
<path d="M633.223 524.006L618.345 508.685L619.965 507.097L632.595 520.101L648.862 486.383L650.912 487.375L633.223 524.006Z" fill="white"/>
<path d="M356.882 453.591C359.939 455.153 362.376 457.708 363.792 460.837C365.193 457.701 367.618 455.134 370.669 453.558C367.629 451.998 365.206 449.456 363.792 446.344C362.367 449.468 359.933 452.02 356.882 453.591Z" fill="#FFE6A6"/>
<path d="M384.886 498.13C386.648 499.048 388.056 500.526 388.887 502.332V502.332C389.741 500.531 391.156 499.056 392.92 498.13C391.141 497.224 389.72 495.743 388.887 493.927V493.927C388.075 495.746 386.662 497.23 384.886 498.13V498.13Z" fill="#FFE6A6"/>
</g>
<circle cx="1644" cy="938" r="305" fill="#2D3748" fill-opacity="0.2"/>
<circle cx="1644" cy="938" r="227" fill="#F9F9F9"/>
<circle cx="221" cy="-144" r="305" fill="#2D3748" fill-opacity="0.2"/>
<circle cx="221" cy="-144" r="227" fill="#F9F9F9"/>
</g>
<defs>
<clipPath id="clip0_4_333">
<rect width="16" height="16" fill="white" transform="translate(673.969 261.246)"/>
</clipPath>
<clipPath id="clip1_4_333">
<rect width="1659" height="953" fill="white"/>
</clipPath>
<clipPath id="clip2_4_333">
<rect width="779" height="548" fill="white" transform="translate(114 244)"/>
</clipPath>
</defs>
</svg>
