<svg width="20" height="25" viewBox="0 0 20 25" fill="none" xmlns="http://www.w3.org/2000/svg">
<path d="M8.23529 11.9048H10.7059L18 4.52381L15.5294 2.02381L8.23529 9.40476V11.9048ZM18.8235 3.69048L19.6471 2.85714C19.8824 2.61905 20 2.34127 20 2.02381C20 1.70635 19.8824 1.42857 19.6471 1.19048L18.8235 0.357143C18.5882 0.119048 18.3137 0 18 0C17.6863 0 17.4118 0.119048 17.1765 0.357143L16.3529 1.19048L18.8235 3.69048ZM9.41177 25C6.2549 22.2817 3.89725 19.7567 2.33882 17.425C0.779608 15.094 0 12.9365 0 10.9524C0 7.97619 0.946275 5.60516 2.83882 3.83929C4.73059 2.07341 6.92157 1.19048 9.41177 1.19048C9.94118 1.19048 10.4659 1.23492 10.9859 1.32381C11.5051 1.41349 12.0098 1.5377 12.5 1.69643L10.5882 3.66071C10.3922 3.62103 10.2008 3.59603 10.0141 3.58571C9.82824 3.57619 9.62745 3.57143 9.41177 3.57143C7.43137 3.57143 5.75961 4.26071 4.39647 5.63929C3.03412 7.01865 2.35294 8.78968 2.35294 10.9524C2.35294 12.3611 2.93137 13.973 4.08824 15.7881C5.2451 17.604 7.01961 19.623 9.41177 21.8452C11.8039 19.623 13.5784 17.604 14.7353 15.7881C15.8922 13.973 16.4706 12.3611 16.4706 10.9524C16.4706 10.7143 16.4608 10.481 16.4412 10.2524C16.4216 10.0246 16.3922 9.80159 16.3529 9.58333L18.2941 7.61905C18.4706 8.13492 18.6031 8.67064 18.6918 9.22619C18.7796 9.78175 18.8235 10.3571 18.8235 10.9524C18.8235 12.9365 18.0443 15.094 16.4859 17.425C14.9267 19.7567 12.5686 22.2817 9.41177 25Z" fill="black"/>
</svg>
