<svg width="176" height="175" viewBox="0 0 176 175" fill="none" xmlns="http://www.w3.org/2000/svg">
<path d="M70.9435 32.4824L89.5903 0L109.737 32.4824L124.848 16.189L161.284 46.8958L145.745 66.1136L175.43 86.8981L145.745 105.385L158.926 122.409L128.277 153.012L109.737 140.896L92.9124 174.11L70.9435 140.896L57.3335 156.458L21.3259 124.916L37.9366 105.385L0 86.8981L32.7926 69.1425L17.468 49.0891L50.0463 16.189L70.9435 32.4824Z" fill="#4BF0A5"/>
<path d="M72.0151 55.2513L89.8046 73.6336L105.558 52.6401L121.418 70.3958L105.558 85.8536L121.418 101.103L105.558 115.307L91.0905 101.103L77.3734 116.769L59.6911 103.818L74.4799 89.0914L57.8693 74.8869L72.0151 55.2513Z" fill="#0A221C"/>
<rect width="23.9617" height="22.1183" transform="matrix(0.768292 -0.640099 0.659404 0.751789 113.121 46.613)" fill="#0A221C"/>
<rect width="23.9507" height="22.1285" transform="matrix(0.756653 -0.653817 0.672917 0.739718 33.1066 47.4066)" fill="#0A221C"/>
<rect width="24.202" height="21.8925" transform="matrix(0.986254 -0.165239 0.173702 0.984798 38.4724 113.875)" fill="#0A221C"/>
<rect width="23.8255" height="22.2443" transform="matrix(0.606868 -0.794802 0.809506 0.587111 111.559 125.47)" fill="#0A221C"/>
<path d="M77.588 38.7491L88.1973 24.7535L98.1637 38.7491L96.6634 51.2825L88.1973 57.1314L78.9811 48.9847L77.588 38.7491Z" fill="#EE8866"/>
<path d="M140.275 74.4544L154.859 84.4937L140.714 94.5033L127.825 93.3086L121.645 85.184L129.805 76.0301L140.275 74.4544Z" fill="#EE8866"/>
<path d="M99.9856 135.151L89.3764 149.147L79.4099 135.151L80.91 122.618L89.376 116.769L98.5924 124.916L99.9856 135.151Z" fill="#EE8866"/>
<path d="M37.1042 95.5895L23.9596 83.8134L39.3024 75.6509L51.9283 78.4437L56.9908 87.2725L47.6951 95.333L37.1042 95.5895Z" fill="#EE8866"/>
</svg>
