<svg width="16" height="14" viewBox="0 0 16 14" fill="none" xmlns="http://www.w3.org/2000/svg">
<path d="M0.5 8.90137C0.632608 8.90137 0.759785 8.95405 0.853553 9.04781C0.947322 9.14158 1 9.26876 1 9.40137V11.9014C1 12.1666 1.10536 12.4209 1.29289 12.6085C1.48043 12.796 1.73478 12.9014 2 12.9014H14C14.2652 12.9014 14.5196 12.796 14.7071 12.6085C14.8946 12.4209 15 12.1666 15 11.9014V9.40137C15 9.26876 15.0527 9.14158 15.1464 9.04781C15.2402 8.95405 15.3674 8.90137 15.5 8.90137C15.6326 8.90137 15.7598 8.95405 15.8536 9.04781C15.9473 9.14158 16 9.26876 16 9.40137V11.9014C16 12.4318 15.7893 12.9405 15.4142 13.3156C15.0391 13.6907 14.5304 13.9014 14 13.9014H2C1.46957 13.9014 0.960859 13.6907 0.585786 13.3156C0.210714 12.9405 0 12.4318 0 11.9014V9.40137C0 9.26876 0.0526784 9.14158 0.146447 9.04781C0.240215 8.95405 0.367392 8.90137 0.5 8.90137V8.90137Z" fill="#2D3748"/>
<path d="M7.64602 0.146894C7.69247 0.100331 7.74764 0.0633877 7.80839 0.0381812C7.86913 0.0129748 7.93425 0 8.00002 0C8.06579 0 8.13091 0.0129748 8.19165 0.0381812C8.2524 0.0633877 8.30758 0.100331 8.35402 0.146894L11.354 3.14689C11.4479 3.24078 11.5007 3.36812 11.5007 3.50089C11.5007 3.63367 11.4479 3.76101 11.354 3.85489C11.2601 3.94878 11.1328 4.00153 11 4.00153C10.8672 4.00153 10.7399 3.94878 10.646 3.85489L8.50002 1.70789V10.5009C8.50002 10.6335 8.44734 10.7607 8.35358 10.8544C8.25981 10.9482 8.13263 11.0009 8.00002 11.0009C7.86741 11.0009 7.74024 10.9482 7.64647 10.8544C7.5527 10.7607 7.50002 10.6335 7.50002 10.5009V1.70789L5.35402 3.85489C5.30753 3.90138 5.25234 3.93826 5.19161 3.96342C5.13087 3.98858 5.06577 4.00153 5.00002 4.00153C4.93428 4.00153 4.86918 3.98858 4.80844 3.96342C4.7477 3.93826 4.69251 3.90138 4.64602 3.85489C4.59953 3.80841 4.56266 3.75322 4.5375 3.69248C4.51234 3.63174 4.49939 3.56664 4.49939 3.50089C4.49939 3.43515 4.51234 3.37005 4.5375 3.30931C4.56266 3.24857 4.59953 3.19338 4.64602 3.14689L7.64602 0.146894Z" fill="#2D3748"/>
</svg>
