<svg width="230" height="41" viewBox="0 0 230 41" fill="none" xmlns="http://www.w3.org/2000/svg">
<rect width="230" height="41" rx="5" fill="#250CBD"/>
<path d="M25.5 18.9005C25.6326 18.9005 25.7598 18.9532 25.8536 19.0469C25.9473 19.1407 26 19.2679 26 19.4005V21.9005C26 22.1657 26.1054 22.42 26.2929 22.6076C26.4804 22.7951 26.7348 22.9005 27 22.9005H39C39.2652 22.9005 39.5196 22.7951 39.7071 22.6076C39.8946 22.42 40 22.1657 40 21.9005V19.4005C40 19.2679 40.0527 19.1407 40.1464 19.0469C40.2402 18.9532 40.3674 18.9005 40.5 18.9005C40.6326 18.9005 40.7598 18.9532 40.8536 19.0469C40.9473 19.1407 41 19.2679 41 19.4005V21.9005C41 22.4309 40.7893 22.9396 40.4142 23.3147C40.0391 23.6898 39.5304 23.9005 39 23.9005H27C26.4696 23.9005 25.9609 23.6898 25.5858 23.3147C25.2107 22.9396 25 22.4309 25 21.9005V19.4005C25 19.2679 25.0527 19.1407 25.1464 19.0469C25.2402 18.9532 25.3674 18.9005 25.5 18.9005Z" fill="white"/>
<path d="M32.646 10.146C32.6924 10.0994 32.7476 10.0625 32.8084 10.0373C32.8691 10.0121 32.9342 9.99911 33 9.99911C33.0658 9.99911 33.1309 10.0121 33.1916 10.0373C33.2524 10.0625 33.3076 10.0994 33.354 10.146L36.354 13.146C36.4479 13.2399 36.5006 13.3672 36.5006 13.5C36.5006 13.6328 36.4479 13.7601 36.354 13.854C36.2601 13.9479 36.1328 14.0006 36 14.0006C35.8672 14.0006 35.7399 13.9479 35.646 13.854L33.5 11.707V20.5C33.5 20.6326 33.4473 20.7598 33.3536 20.8536C33.2598 20.9473 33.1326 21 33 21C32.8674 21 32.7402 20.9473 32.6464 20.8536C32.5527 20.7598 32.5 20.6326 32.5 20.5V11.707L30.354 13.854C30.3075 13.9005 30.2523 13.9374 30.1916 13.9625C30.1308 13.9877 30.0657 14.0006 30 14.0006C29.9343 14.0006 29.8692 13.9877 29.8084 13.9625C29.7477 13.9374 29.6925 13.9005 29.646 13.854C29.5995 13.8075 29.5626 13.7523 29.5375 13.6916C29.5123 13.6308 29.4994 13.5657 29.4994 13.5C29.4994 13.4343 29.5123 13.3692 29.5375 13.3084C29.5626 13.2477 29.5995 13.1925 29.646 13.146L32.646 10.146Z" fill="white"/>
<path d="M67.197 13.082H68.527V18.717C68.527 19.5103 68.7253 20.082 69.122 20.432C69.5233 20.782 70.0437 20.957 70.683 20.957C71.3223 20.957 71.8403 20.782 72.237 20.432C72.6337 20.082 72.832 19.5103 72.832 18.717V13.082H74.162V18.717C74.162 19.4637 74.022 20.096 73.742 20.614C73.462 21.1273 73.0607 21.517 72.538 21.783C72.02 22.049 71.4017 22.182 70.683 22.182C69.969 22.182 69.3507 22.049 68.828 21.783C68.3053 21.517 67.9017 21.1273 67.617 20.614C67.337 20.096 67.197 19.4637 67.197 18.717V13.082ZM79.9222 22.182C79.4322 22.182 79.0076 22.0723 78.6482 21.853C78.2889 21.629 78.0136 21.3023 77.8222 20.873C77.6356 20.439 77.5422 19.9023 77.5422 19.263H78.0602C78.0602 19.6317 78.1396 19.9443 78.2982 20.201C78.4569 20.453 78.6646 20.6467 78.9212 20.782C79.1826 20.9127 79.4602 20.978 79.7542 20.978C80.0622 20.978 80.3609 20.8917 80.6502 20.719C80.9442 20.5417 81.1846 20.278 81.3712 19.928C81.5579 19.578 81.6512 19.144 81.6512 18.626C81.6512 18.1313 81.5672 17.709 81.3992 17.359C81.2359 17.009 81.0119 16.7407 80.7272 16.554C80.4426 16.3673 80.1229 16.274 79.7682 16.274C79.4696 16.274 79.1896 16.3463 78.9282 16.491C78.6669 16.631 78.4569 16.8387 78.2982 17.114C78.1396 17.3847 78.0602 17.716 78.0602 18.108H77.5422C77.5422 17.4313 77.6496 16.869 77.8642 16.421C78.0836 15.973 78.3776 15.6393 78.7462 15.42C79.1149 15.196 79.5232 15.084 79.9712 15.084C80.4986 15.084 80.9932 15.2263 81.4552 15.511C81.9172 15.791 82.2906 16.1947 82.5752 16.722C82.8646 17.2493 83.0092 17.884 83.0092 18.626C83.0092 19.368 82.8646 20.005 82.5752 20.537C82.2859 21.069 81.9056 21.4773 81.4342 21.762C80.9676 22.042 80.4636 22.182 79.9222 22.182ZM76.7302 25.304V15.266H77.8292L78.0602 16.883V25.304H76.7302ZM85.0701 22V12.431H86.4001V22H85.0701ZM91.6646 22.182C91.0533 22.182 90.505 22.049 90.0196 21.783C89.539 21.517 89.1586 21.1203 88.8786 20.593C88.5986 20.0657 88.4586 19.4147 88.4586 18.64C88.4586 17.8513 88.5986 17.1957 88.8786 16.673C89.1586 16.1457 89.539 15.749 90.0196 15.483C90.505 15.217 91.0533 15.084 91.6646 15.084C92.2666 15.084 92.808 15.217 93.2886 15.483C93.7693 15.749 94.1473 16.1457 94.4226 16.673C94.7026 17.1957 94.8426 17.8513 94.8426 18.64C94.8426 19.4147 94.7026 20.0657 94.4226 20.593C94.1473 21.1203 93.7693 21.517 93.2886 21.783C92.808 22.049 92.2666 22.182 91.6646 22.182ZM91.6226 21.02C92.01 21.02 92.3436 20.9267 92.6236 20.74C92.9083 20.5533 93.1253 20.2827 93.2746 19.928C93.4286 19.5687 93.5056 19.1393 93.5056 18.64C93.5056 17.8747 93.3493 17.282 93.0366 16.862C92.7286 16.442 92.283 16.232 91.6996 16.232C91.3076 16.232 90.9693 16.3277 90.6846 16.519C90.4046 16.7057 90.1876 16.9787 90.0336 17.338C89.8843 17.6927 89.8096 18.1267 89.8096 18.64C89.8096 19.3913 89.966 19.977 90.2786 20.397C90.5913 20.8123 91.0393 21.02 91.6226 21.02ZM101.117 22L100.949 20.453V17.646C100.949 17.0953 100.835 16.6963 100.606 16.449C100.378 16.197 100.016 16.071 99.5213 16.071C99.2413 16.071 98.9916 16.113 98.7723 16.197C98.5576 16.2763 98.3873 16.3977 98.2613 16.561C98.1399 16.7243 98.0793 16.9297 98.0793 17.177H96.6093C96.6093 16.6823 96.7306 16.281 96.9733 15.973C97.2159 15.665 97.5543 15.441 97.9883 15.301C98.4269 15.1563 98.9379 15.084 99.5213 15.084C100.067 15.084 100.548 15.175 100.963 15.357C101.379 15.5343 101.701 15.8143 101.929 16.197C102.163 16.5797 102.279 17.0743 102.279 17.681V22H101.117ZM98.8633 22.182C98.2986 22.182 97.8296 22.084 97.4563 21.888C97.0829 21.6873 96.8029 21.426 96.6163 21.104C96.4343 20.782 96.3433 20.439 96.3433 20.075C96.3433 19.6317 96.4553 19.2677 96.6793 18.983C96.9079 18.6937 97.2229 18.479 97.6243 18.339C98.0256 18.199 98.4876 18.129 99.0103 18.129C99.3696 18.129 99.7196 18.1617 100.06 18.227C100.401 18.2923 100.737 18.3787 101.068 18.486V19.291C100.798 19.193 100.497 19.116 100.165 19.06C99.8386 18.9993 99.5329 18.969 99.2483 18.969C98.8236 18.969 98.4689 19.053 98.1843 19.221C97.8996 19.389 97.7573 19.6737 97.7573 20.075C97.7573 20.369 97.8693 20.6233 98.0933 20.838C98.3173 21.048 98.6719 21.153 99.1573 21.153C99.5119 21.153 99.8246 21.0737 100.095 20.915C100.366 20.7517 100.576 20.5487 100.725 20.306C100.875 20.0633 100.949 19.8207 100.949 19.578H101.271C101.271 20.0447 101.176 20.4763 100.984 20.873C100.798 21.265 100.525 21.5823 100.165 21.825C99.8059 22.063 99.3719 22.182 98.8633 22.182ZM107.255 22.182C106.705 22.182 106.198 22.035 105.736 21.741C105.274 21.4423 104.906 21.027 104.63 20.495C104.36 19.9583 104.224 19.3283 104.224 18.605C104.224 17.8863 104.357 17.2633 104.623 16.736C104.894 16.2087 105.251 15.8027 105.694 15.518C106.138 15.2287 106.63 15.084 107.171 15.084C107.666 15.084 108.098 15.2053 108.466 15.448C108.835 15.686 109.12 16.0337 109.32 16.491C109.526 16.9483 109.628 17.506 109.628 18.164H109.166C109.166 17.758 109.085 17.415 108.921 17.135C108.758 16.8503 108.546 16.6357 108.284 16.491C108.023 16.3463 107.743 16.274 107.444 16.274C107.094 16.274 106.777 16.3697 106.492 16.561C106.212 16.7477 105.988 17.016 105.82 17.366C105.657 17.7113 105.575 18.1243 105.575 18.605C105.575 19.0903 105.657 19.5127 105.82 19.872C105.988 20.2267 106.212 20.4997 106.492 20.691C106.777 20.8823 107.092 20.978 107.437 20.978C107.722 20.978 107.995 20.9033 108.256 20.754C108.522 20.6 108.739 20.3807 108.907 20.096C109.08 19.8113 109.166 19.473 109.166 19.081H109.628C109.628 19.753 109.521 20.32 109.306 20.782C109.096 21.244 108.812 21.594 108.452 21.832C108.093 22.0653 107.694 22.182 107.255 22.182ZM109.397 22L109.166 20.383V12.431H110.503V22H109.397ZM123.234 22.182C122.445 22.182 121.764 21.9907 121.19 21.608C120.621 21.2207 120.18 20.677 119.867 19.977C119.554 19.2723 119.398 18.4463 119.398 17.499C119.398 16.5003 119.564 15.6627 119.895 14.986C120.226 14.3047 120.681 13.7913 121.26 13.446C121.843 13.096 122.501 12.921 123.234 12.921C124.219 12.921 125.003 13.166 125.586 13.656C126.169 14.1413 126.557 14.7737 126.748 15.553L125.327 15.826C125.159 15.308 124.893 14.895 124.529 14.587C124.165 14.2743 123.733 14.118 123.234 14.118C122.795 14.118 122.394 14.244 122.03 14.496C121.666 14.748 121.374 15.126 121.155 15.63C120.936 16.1293 120.826 16.7523 120.826 17.499C120.826 18.1897 120.917 18.7963 121.099 19.319C121.281 19.837 121.549 20.2407 121.904 20.53C122.259 20.8193 122.702 20.964 123.234 20.964C123.883 20.964 124.394 20.7913 124.767 20.446C125.14 20.096 125.327 19.641 125.327 19.081H126.762C126.762 19.7343 126.615 20.292 126.321 20.754C126.032 21.2113 125.623 21.5637 125.096 21.811C124.569 22.0583 123.948 22.182 123.234 22.182ZM128.765 22V12.431H130.095V22H128.765ZM133.596 13.831C133.33 13.831 133.12 13.7587 132.966 13.614C132.817 13.4647 132.742 13.264 132.742 13.012C132.742 12.7693 132.817 12.578 132.966 12.438C133.12 12.2933 133.33 12.221 133.596 12.221C133.857 12.221 134.063 12.2933 134.212 12.438C134.366 12.578 134.443 12.7693 134.443 13.012C134.443 13.264 134.366 13.4647 134.212 13.614C134.063 13.7587 133.857 13.831 133.596 13.831ZM132.931 22V15.245H134.261V22H132.931ZM139.589 22.182C139.01 22.182 138.487 22.0327 138.021 21.734C137.554 21.4353 137.183 21.02 136.908 20.488C136.637 19.956 136.502 19.34 136.502 18.64C136.502 17.898 136.637 17.2633 136.908 16.736C137.178 16.204 137.547 15.7957 138.014 15.511C138.48 15.2263 139.005 15.084 139.589 15.084C140.111 15.084 140.559 15.1913 140.933 15.406C141.306 15.616 141.607 15.9007 141.836 16.26C142.064 16.6147 142.221 17.0183 142.305 17.471C142.393 17.9237 142.41 18.3903 142.354 18.871H137.566V18.101H141.444L141.122 18.311C141.136 18.059 141.122 17.807 141.08 17.555C141.042 17.303 140.968 17.072 140.856 16.862C140.744 16.6473 140.585 16.477 140.38 16.351C140.179 16.2203 139.922 16.155 139.61 16.155C139.218 16.155 138.889 16.253 138.623 16.449C138.361 16.645 138.163 16.9087 138.028 17.24C137.892 17.5667 137.825 17.926 137.825 18.318V18.857C137.825 19.291 137.89 19.676 138.021 20.012C138.151 20.348 138.345 20.614 138.602 20.81C138.863 21.0013 139.192 21.097 139.589 21.097C139.976 21.097 140.296 21.006 140.548 20.824C140.804 20.642 140.963 20.369 141.024 20.005H142.382C142.312 20.4437 142.151 20.8263 141.899 21.153C141.647 21.4797 141.322 21.734 140.926 21.916C140.534 22.0933 140.088 22.182 139.589 22.182ZM149.179 22V18.052C149.179 17.4687 149.039 17.0277 148.759 16.729C148.483 16.4257 148.11 16.274 147.639 16.274C147.265 16.274 146.939 16.3767 146.659 16.582C146.383 16.7827 146.169 17.079 146.015 17.471C145.865 17.8583 145.791 18.332 145.791 18.892H145.315C145.315 18.066 145.42 17.3707 145.63 16.806C145.844 16.2413 146.15 15.8143 146.547 15.525C146.943 15.231 147.419 15.084 147.975 15.084C148.516 15.084 148.973 15.2053 149.347 15.448C149.725 15.6907 150.012 16.036 150.208 16.484C150.404 16.9273 150.502 17.45 150.502 18.052V22H149.179ZM144.461 22V15.266H145.616L145.791 16.722V22H144.461ZM155.196 22.182C154.813 22.182 154.468 22.1097 154.16 21.965C153.852 21.8203 153.607 21.6033 153.425 21.314C153.248 21.02 153.159 20.6513 153.159 20.208V13.432H154.482V20.166C154.482 20.8007 154.778 21.118 155.371 21.118C155.553 21.118 155.73 21.0993 155.903 21.062C156.076 21.02 156.272 20.9593 156.491 20.88L156.68 21.825C156.433 21.9277 156.188 22.0117 155.945 22.077C155.707 22.147 155.457 22.182 155.196 22.182ZM152.13 16.169V15.266H156.477V16.169H152.13ZM165.242 22V13.082H166.572V22H165.242ZM178.634 22V18.052C178.634 17.4687 178.494 17.0277 178.214 16.729C177.938 16.4257 177.567 16.274 177.101 16.274C176.541 16.274 176.107 16.4933 175.799 16.932C175.495 17.3707 175.344 18.0007 175.344 18.822H174.763C174.763 18.1733 174.826 17.6133 174.952 17.142C175.078 16.6707 175.257 16.2833 175.49 15.98C175.728 15.6767 176.011 15.4527 176.338 15.308C176.669 15.1587 177.038 15.084 177.444 15.084C177.985 15.084 178.442 15.2053 178.816 15.448C179.194 15.6907 179.481 16.036 179.677 16.484C179.873 16.9273 179.971 17.45 179.971 18.052V22H178.634ZM169.303 22V15.266H170.458L170.605 16.533C170.819 16.0617 171.113 15.7023 171.487 15.455C171.865 15.2077 172.308 15.084 172.817 15.084C173.358 15.084 173.815 15.2053 174.189 15.448C174.567 15.6907 174.854 16.036 175.05 16.484C175.246 16.9273 175.344 17.45 175.344 18.052V22H174.021V18.052C174.021 17.4687 173.881 17.0277 173.601 16.729C173.325 16.4257 172.952 16.274 172.481 16.274C172.107 16.274 171.781 16.3767 171.501 16.582C171.225 16.7827 171.011 17.079 170.857 17.471C170.707 17.8583 170.633 18.332 170.633 18.892V22H169.303ZM186.703 22L186.535 20.453V17.646C186.535 17.0953 186.421 16.6963 186.192 16.449C185.964 16.197 185.602 16.071 185.107 16.071C184.827 16.071 184.578 16.113 184.358 16.197C184.144 16.2763 183.973 16.3977 183.847 16.561C183.726 16.7243 183.665 16.9297 183.665 17.177H182.195C182.195 16.6823 182.317 16.281 182.559 15.973C182.802 15.665 183.14 15.441 183.574 15.301C184.013 15.1563 184.524 15.084 185.107 15.084C185.653 15.084 186.134 15.175 186.549 15.357C186.965 15.5343 187.287 15.8143 187.515 16.197C187.749 16.5797 187.865 17.0743 187.865 17.681V22H186.703ZM184.449 22.182C183.885 22.182 183.416 22.084 183.042 21.888C182.669 21.6873 182.389 21.426 182.202 21.104C182.02 20.782 181.929 20.439 181.929 20.075C181.929 19.6317 182.041 19.2677 182.265 18.983C182.494 18.6937 182.809 18.479 183.21 18.339C183.612 18.199 184.074 18.129 184.596 18.129C184.956 18.129 185.306 18.1617 185.646 18.227C185.987 18.2923 186.323 18.3787 186.654 18.486V19.291C186.384 19.193 186.083 19.116 185.751 19.06C185.425 18.9993 185.119 18.969 184.834 18.969C184.41 18.969 184.055 19.053 183.77 19.221C183.486 19.389 183.343 19.6737 183.343 20.075C183.343 20.369 183.455 20.6233 183.679 20.838C183.903 21.048 184.258 21.153 184.743 21.153C185.098 21.153 185.411 21.0737 185.681 20.915C185.952 20.7517 186.162 20.5487 186.311 20.306C186.461 20.0633 186.535 19.8207 186.535 19.578H186.857C186.857 20.0447 186.762 20.4763 186.57 20.873C186.384 21.265 186.111 21.5823 185.751 21.825C185.392 22.063 184.958 22.182 184.449 22.182ZM192.876 25.472C192.148 25.472 191.521 25.3717 190.993 25.171C190.471 24.9703 190.067 24.702 189.782 24.366C189.498 24.03 189.355 23.6637 189.355 23.267C189.355 22.763 189.54 22.3757 189.908 22.105C190.277 21.839 190.746 21.706 191.315 21.706L192.176 22.112C191.691 22.112 191.315 22.21 191.049 22.406C190.788 22.602 190.657 22.868 190.657 23.204C190.657 23.554 190.849 23.841 191.231 24.065C191.614 24.2937 192.162 24.408 192.876 24.408C193.394 24.408 193.849 24.331 194.241 24.177C194.633 24.0277 194.937 23.8293 195.151 23.582C195.366 23.3393 195.473 23.078 195.473 22.798C195.473 22.6067 195.403 22.4433 195.263 22.308C195.128 22.1773 194.92 22.112 194.64 22.112H192.176C191.719 22.112 191.315 22.042 190.965 21.902C190.62 21.7573 190.349 21.5683 190.153 21.335C189.957 21.1017 189.859 20.8427 189.859 20.558C189.859 20.278 189.939 20.0377 190.097 19.837C190.256 19.6317 190.466 19.4777 190.727 19.375C190.989 19.2677 191.276 19.214 191.588 19.214L191.889 19.676C191.754 19.676 191.619 19.7063 191.483 19.767C191.348 19.823 191.236 19.9093 191.147 20.026C191.059 20.1427 191.014 20.2873 191.014 20.46C191.014 20.6607 191.098 20.8287 191.266 20.964C191.439 21.0947 191.742 21.16 192.176 21.16H194.64C195.312 21.16 195.84 21.293 196.222 21.559C196.605 21.825 196.796 22.2123 196.796 22.721C196.796 23.183 196.638 23.624 196.32 24.044C196.003 24.464 195.55 24.807 194.962 25.073C194.379 25.339 193.684 25.472 192.876 25.472ZM193.023 19.977C192.501 19.977 192.025 19.8767 191.595 19.676C191.171 19.4707 190.832 19.186 190.58 18.822C190.328 18.4533 190.202 18.024 190.202 17.534C190.202 17.0393 190.328 16.61 190.58 16.246C190.832 15.8773 191.171 15.5927 191.595 15.392C192.025 15.1867 192.501 15.084 193.023 15.084C193.532 15.084 193.996 15.1867 194.416 15.392C194.841 15.5927 195.179 15.8773 195.431 16.246C195.688 16.61 195.816 17.0393 195.816 17.534C195.816 18.024 195.688 18.4533 195.431 18.822C195.179 19.186 194.841 19.4707 194.416 19.676C193.996 19.8767 193.532 19.977 193.023 19.977ZM193.023 19.039C193.504 19.039 193.87 18.8967 194.122 18.612C194.379 18.3227 194.507 17.9633 194.507 17.534C194.507 17.086 194.379 16.7243 194.122 16.449C193.87 16.1737 193.504 16.036 193.023 16.036C192.552 16.036 192.183 16.1737 191.917 16.449C191.656 16.7243 191.525 17.086 191.525 17.534C191.525 17.9633 191.656 18.3227 191.917 18.612C192.183 18.8967 192.552 19.039 193.023 19.039ZM195.312 16.162L194.689 15.861C194.689 15.4597 194.773 15.1097 194.941 14.811C195.109 14.5123 195.343 14.279 195.641 14.111C195.94 13.943 196.283 13.859 196.67 13.859L196.586 15.154C196.171 15.154 195.854 15.2357 195.634 15.399C195.42 15.5623 195.312 15.8167 195.312 16.162ZM200.825 22.182C200.246 22.182 199.724 22.0327 199.257 21.734C198.79 21.4353 198.419 21.02 198.144 20.488C197.873 19.956 197.738 19.34 197.738 18.64C197.738 17.898 197.873 17.2633 198.144 16.736C198.415 16.204 198.783 15.7957 199.25 15.511C199.717 15.2263 200.242 15.084 200.825 15.084C201.348 15.084 201.796 15.1913 202.169 15.406C202.542 15.616 202.843 15.9007 203.072 16.26C203.301 16.6147 203.457 17.0183 203.541 17.471C203.63 17.9237 203.646 18.3903 203.59 18.871H198.802V18.101H202.68L202.358 18.311C202.372 18.059 202.358 17.807 202.316 17.555C202.279 17.303 202.204 17.072 202.092 16.862C201.98 16.6473 201.821 16.477 201.616 16.351C201.415 16.2203 201.159 16.155 200.846 16.155C200.454 16.155 200.125 16.253 199.859 16.449C199.598 16.645 199.399 16.9087 199.264 17.24C199.129 17.5667 199.061 17.926 199.061 18.318V18.857C199.061 19.291 199.126 19.676 199.257 20.012C199.388 20.348 199.581 20.614 199.838 20.81C200.099 21.0013 200.428 21.097 200.825 21.097C201.212 21.097 201.532 21.006 201.784 20.824C202.041 20.642 202.199 20.369 202.26 20.005H203.618C203.548 20.4437 203.387 20.8263 203.135 21.153C202.883 21.4797 202.559 21.734 202.162 21.916C201.77 22.0933 201.324 22.182 200.825 22.182Z" fill="white"/>
</svg>
