<svg width="332" height="153" viewBox="0 0 332 153" fill="none" xmlns="http://www.w3.org/2000/svg">
<g filter="url(#filter0_d_7_44)">
<g clip-path="url(#clip0_7_44)">
<rect x="10" y="6" width="312" height="133" rx="10" fill="#0A221C"/>
<circle cx="46" cy="27" r="54" fill="#BCFFEE"/>
<path d="M47.9193 46.1007V49.484C47.9193 52.3507 45.2526 54.6673 41.9693 54.6673C38.6859 54.6673 36.0026 52.3507 36.0026 49.484V46.1007C36.0026 48.9673 38.6693 51.0007 41.9693 51.0007C45.2526 51.0007 47.9193 48.9507 47.9193 46.1007Z" stroke="#0A221C" stroke-width="1.5" stroke-linecap="round" stroke-linejoin="round"/>
<path d="M47.9169 41.5167C47.9169 42.35 47.6835 43.1167 47.2835 43.7833C46.3001 45.4 44.2834 46.4167 41.9501 46.4167C39.6168 46.4167 37.6001 45.3833 36.6168 43.7833C36.2168 43.1167 35.9835 42.35 35.9835 41.5167C35.9835 40.0833 36.6502 38.8 37.7168 37.8667C38.8002 36.9167 40.2834 36.35 41.9334 36.35C43.5834 36.35 45.0668 36.9333 46.1501 37.8667C47.2502 38.7833 47.9169 40.0833 47.9169 41.5167Z" stroke="#0A221C" stroke-width="1.5" stroke-linecap="round" stroke-linejoin="round"/>
<path d="M47.9193 41.5167V46.1C47.9193 48.9667 45.2526 51 41.9693 51C38.6859 51 36.0026 48.95 36.0026 46.1V41.5167C36.0026 38.65 38.6693 36.3333 41.9693 36.3333C43.6193 36.3333 45.1026 36.9167 46.186 37.85C47.2526 38.7833 47.9193 40.0833 47.9193 41.5167Z" stroke="#0A221C" stroke-width="1.5" stroke-linecap="round" stroke-linejoin="round"/>
<path d="M66.6667 36.2832V39.7167C66.6667 40.6333 65.9334 41.3832 65 41.4165H61.7332C59.9332 41.4165 58.2834 40.0998 58.1334 38.2998C58.0334 37.2498 58.4332 36.2665 59.1332 35.5832C59.7499 34.9498 60.6 34.5833 61.5334 34.5833H65C65.9334 34.6166 66.6667 35.3665 66.6667 36.2832Z" stroke="#0A221C" stroke-width="1.5" stroke-linecap="round" stroke-linejoin="round"/>
<path d="M33.3334 35.5V32.1667C33.3334 27.6333 36.0667 24.4667 40.3167 23.9333C40.75 23.8667 41.2 23.8333 41.6667 23.8333H56.6667C57.1 23.8333 57.5167 23.85 57.9167 23.9167C62.2167 24.4167 65 27.6 65 32.1667V34.5834H61.5334C60.6 34.5834 59.75 34.95 59.1334 35.5833C58.4334 36.2667 58.0334 37.25 58.1334 38.3C58.2834 40.1 59.9334 41.4167 61.7334 41.4167H65V43.8333C65 48.8333 61.6667 52.1667 56.6667 52.1667H52.5" stroke="#0A221C" stroke-width="1.5" stroke-linecap="round" stroke-linejoin="round"/>
<path d="M50.7692 36.5714L50 35.8022L55.2747 30.5275H50.5495V29.4286H57.1429V36.022H56.044V31.2967L50.7692 36.5714Z" fill="#0A221C"/>
</g>
</g>
<defs>
<filter id="filter0_d_7_44" x="0" y="0" width="332" height="153" filterUnits="userSpaceOnUse" color-interpolation-filters="sRGB">
<feFlood flood-opacity="0" result="BackgroundImageFix"/>
<feColorMatrix in="SourceAlpha" type="matrix" values="0 0 0 0 0 0 0 0 0 0 0 0 0 0 0 0 0 0 127 0" result="hardAlpha"/>
<feMorphology radius="1" operator="erode" in="SourceAlpha" result="effect1_dropShadow_7_44"/>
<feOffset dy="4"/>
<feGaussianBlur stdDeviation="5.5"/>
<feComposite in2="hardAlpha" operator="out"/>
<feColorMatrix type="matrix" values="0 0 0 0 0 0 0 0 0 0 0 0 0 0 0 0 0 0 0.25 0"/>
<feBlend mode="normal" in2="BackgroundImageFix" result="effect1_dropShadow_7_44"/>
<feBlend mode="normal" in="SourceGraphic" in2="effect1_dropShadow_7_44" result="shape"/>
</filter>
<clipPath id="clip0_7_44">
<rect x="10" y="6" width="312" height="133" rx="10" fill="white"/>
</clipPath>
</defs>
</svg>
