<svg width="944" height="484" viewBox="0 0 944 484" fill="none" xmlns="http://www.w3.org/2000/svg">
<g clip-path="url(#clip0_1_531)">
<rect width="944" height="484" rx="11" fill="#0A221C"/>
<circle cx="95" cy="56" r="263" fill="#071C16"/>
<circle cx="842" cy="421" r="276" fill="#071C16"/>
<path d="M783.565 320.14L802.212 287.658L822.359 320.14L837.47 303.847L873.906 334.554L858.367 353.771L888.052 374.556L858.367 393.043L871.548 410.067L840.899 440.67L822.359 428.554L805.534 461.767L783.565 428.554L769.955 444.116L733.948 412.574L750.558 393.043L712.622 374.556L745.414 356.8L730.09 336.747L762.668 303.847L783.565 320.14Z" fill="#4BF0A5"/>
<path d="M784.637 342.909L802.426 361.291L818.18 340.298L834.04 358.054L818.18 373.511L834.04 388.76L818.18 402.965L803.712 388.76L789.995 404.427L772.313 391.476L787.102 376.749L770.491 362.545L784.637 342.909Z" fill="#0A221C"/>
<rect width="23.9617" height="22.1183" transform="matrix(0.768292 -0.640099 0.659404 0.751789 825.743 334.271)" fill="#0A221C"/>
<rect width="23.9507" height="22.1285" transform="matrix(0.756653 -0.653817 0.672917 0.739718 745.729 335.064)" fill="#0A221C"/>
<rect width="24.202" height="21.8925" transform="matrix(0.986254 -0.165239 0.173702 0.984798 751.094 401.533)" fill="#0A221C"/>
<rect width="23.8255" height="22.2443" transform="matrix(0.606868 -0.794802 0.809506 0.587111 824.181 413.128)" fill="#0A221C"/>
<path d="M790.21 326.407L800.819 312.411L810.785 326.407L809.285 338.94L800.819 344.789L791.603 336.643L790.21 326.407Z" fill="#EE8866"/>
<path d="M852.897 362.112L867.48 372.152L853.336 382.161L840.447 380.966L834.267 372.842L842.427 363.688L852.897 362.112Z" fill="#EE8866"/>
<path d="M812.607 422.809L801.998 436.805L792.032 422.809L793.532 410.276L801.998 404.427L811.214 412.573L812.607 422.809Z" fill="#EE8866"/>
<path d="M749.726 383.247L736.581 371.471L751.924 363.309L764.55 366.102L769.613 374.93L760.317 382.991L749.726 383.247Z" fill="#EE8866"/>
<path d="M71.06 413V381.5H91.4V386.135H76.82V394.955H88.61V399.5H76.82V413H71.06ZM101.516 413.54C99.5955 413.54 98.0205 413.24 96.7905 412.64C95.5605 412.01 94.6455 411.185 94.0455 410.165C93.4455 409.145 93.1455 408.02 93.1455 406.79C93.1455 404.72 93.9555 403.04 95.5755 401.75C97.1955 400.46 99.6255 399.815 102.866 399.815H108.536V399.275C108.536 397.745 108.101 396.62 107.231 395.9C106.361 395.18 105.281 394.82 103.991 394.82C102.821 394.82 101.801 395.105 100.931 395.675C100.061 396.215 99.5205 397.025 99.3105 398.105H93.6855C93.8355 396.485 94.3755 395.075 95.3055 393.875C96.2655 392.675 97.4955 391.76 98.9955 391.13C100.496 390.47 102.176 390.14 104.036 390.14C107.216 390.14 109.721 390.935 111.551 392.525C113.381 394.115 114.296 396.365 114.296 399.275V413H109.391L108.851 409.4C108.191 410.6 107.261 411.59 106.061 412.37C104.891 413.15 103.376 413.54 101.516 413.54ZM102.821 409.04C104.471 409.04 105.746 408.5 106.646 407.42C107.576 406.34 108.161 405.005 108.401 403.415H103.496C101.966 403.415 100.871 403.7 100.211 404.27C99.5505 404.81 99.2205 405.485 99.2205 406.295C99.2205 407.165 99.5505 407.84 100.211 408.32C100.871 408.8 101.741 409.04 102.821 409.04ZM121.835 422.9L127.01 411.515H125.66L116.975 390.68H123.23L129.485 406.385L136.01 390.68H142.13L127.955 422.9H121.835ZM154.022 413.54C152.042 413.54 150.302 413.225 148.802 412.595C147.302 411.935 146.102 411.035 145.202 409.895C144.302 408.755 143.762 407.435 143.582 405.935H149.387C149.567 406.805 150.047 407.555 150.827 408.185C151.637 408.785 152.672 409.085 153.932 409.085C155.192 409.085 156.107 408.83 156.677 408.32C157.277 407.81 157.577 407.225 157.577 406.565C157.577 405.605 157.157 404.96 156.317 404.63C155.477 404.27 154.307 403.925 152.807 403.595C151.847 403.385 150.872 403.13 149.882 402.83C148.892 402.53 147.977 402.155 147.137 401.705C146.327 401.225 145.667 400.625 145.157 399.905C144.647 399.155 144.392 398.24 144.392 397.16C144.392 395.18 145.172 393.515 146.732 392.165C148.322 390.815 150.542 390.14 153.392 390.14C156.032 390.14 158.132 390.755 159.692 391.985C161.282 393.215 162.227 394.91 162.527 397.07H157.082C156.752 395.42 155.507 394.595 153.347 394.595C152.267 394.595 151.427 394.805 150.827 395.225C150.257 395.645 149.972 396.17 149.972 396.8C149.972 397.46 150.407 397.985 151.277 398.375C152.147 398.765 153.302 399.125 154.742 399.455C156.302 399.815 157.727 400.22 159.017 400.67C160.337 401.09 161.387 401.735 162.167 402.605C162.947 403.445 163.337 404.66 163.337 406.25C163.367 407.63 163.007 408.875 162.257 409.985C161.507 411.095 160.427 411.965 159.017 412.595C157.607 413.225 155.942 413.54 154.022 413.54ZM176.135 413.54C174.215 413.54 172.64 413.24 171.41 412.64C170.18 412.01 169.265 411.185 168.665 410.165C168.065 409.145 167.765 408.02 167.765 406.79C167.765 404.72 168.575 403.04 170.195 401.75C171.815 400.46 174.245 399.815 177.485 399.815H183.155V399.275C183.155 397.745 182.72 396.62 181.85 395.9C180.98 395.18 179.9 394.82 178.61 394.82C177.44 394.82 176.42 395.105 175.55 395.675C174.68 396.215 174.14 397.025 173.93 398.105H168.305C168.455 396.485 168.995 395.075 169.925 393.875C170.885 392.675 172.115 391.76 173.615 391.13C175.115 390.47 176.795 390.14 178.655 390.14C181.835 390.14 184.34 390.935 186.17 392.525C188 394.115 188.915 396.365 188.915 399.275V413H184.01L183.47 409.4C182.81 410.6 181.88 411.59 180.68 412.37C179.51 413.15 177.995 413.54 176.135 413.54ZM177.44 409.04C179.09 409.04 180.365 408.5 181.265 407.42C182.195 406.34 182.78 405.005 183.02 403.415H178.115C176.585 403.415 175.49 403.7 174.83 404.27C174.17 404.81 173.84 405.485 173.84 406.295C173.84 407.165 174.17 407.84 174.83 408.32C175.49 408.8 176.36 409.04 177.44 409.04ZM194.411 413V380.6H200.171V413H194.411Z" fill="#4BF0A5"/>
</g>
<defs>
<clipPath id="clip0_1_531">
<rect width="944" height="484" rx="11" fill="white"/>
</clipPath>
</defs>
</svg>
