<svg width="1652" height="1357" viewBox="0 0 1652 1357" fill="none" xmlns="http://www.w3.org/2000/svg">
<g filter="url(#filter0_d_13_36)">
<path d="M649.762 131.5C671.835 131.5 689.762 114.281 689.762 93C689.762 71.719 671.835 54.5 649.762 54.5C627.689 54.5 609.762 71.719 609.762 93C609.762 114.281 627.689 131.5 649.762 131.5ZM972.262 370.5C994.335 370.5 1012.26 353.281 1012.26 332C1012.26 310.719 994.335 293.5 972.262 293.5C950.189 293.5 932.262 310.719 932.262 332C932.262 353.281 950.189 370.5 972.262 370.5Z" stroke="#4E4A4A" shape-rendering="crispEdges"/>
</g>
<g filter="url(#filter1_d_13_36)">
<path d="M983.762 204.5C1005.83 204.5 1023.76 187.281 1023.76 166C1023.76 144.719 1005.83 127.5 983.762 127.5C961.689 127.5 943.762 144.719 943.762 166C943.762 187.281 961.689 204.5 983.762 204.5ZM1306.26 443.5C1328.33 443.5 1346.26 426.281 1346.26 405C1346.26 383.719 1328.33 366.5 1306.26 366.5C1284.19 366.5 1266.26 383.719 1266.26 405C1266.26 426.281 1284.19 443.5 1306.26 443.5Z" stroke="#4E4A4A" shape-rendering="crispEdges"/>
</g>
<g filter="url(#filter2_d_13_36)">
<path d="M991.754 59.5925C996.36 81.1796 1016.94 95.1193 1037.75 90.679C1058.57 86.2386 1071.66 65.1134 1067.06 43.5263C1062.45 21.9391 1041.87 7.99945 1021.06 12.4398C1000.25 16.8801 987.149 38.0053 991.754 59.5925ZM825.305 424.862C829.91 446.449 850.491 460.389 871.303 455.949C892.116 451.508 905.216 430.383 900.61 408.796C896.004 387.209 875.424 373.269 854.611 377.709C833.799 382.15 820.699 403.275 825.305 424.862Z" stroke="#4E4A4A" shape-rendering="crispEdges"/>
</g>
<g filter="url(#filter3_d_13_36)">
<path d="M1325.75 132.592C1330.36 154.18 1350.94 168.119 1371.75 163.679C1392.57 159.239 1405.66 138.113 1401.06 116.526C1396.45 94.9391 1375.87 80.9995 1355.06 85.4398C1334.25 89.8801 1321.15 111.005 1325.75 132.592ZM1159.3 497.862C1163.91 519.449 1184.49 533.389 1205.3 528.949C1226.12 524.508 1239.22 503.383 1234.61 481.796C1230 460.209 1209.42 446.269 1188.61 450.709C1167.8 455.15 1154.7 476.275 1159.3 497.862Z" stroke="#4E4A4A" shape-rendering="crispEdges"/>
</g>
<g filter="url(#filter4_d_13_36)">
<path d="M1023.77 194.848C1038.17 211.575 1062.92 213.925 1079.05 200.04C1095.17 186.155 1096.53 161.334 1082.12 144.607C1067.72 127.88 1042.98 125.53 1026.85 139.415C1010.72 153.3 1009.37 178.121 1023.77 194.848ZM1053.08 595.183C1067.48 611.91 1092.23 614.261 1108.35 600.375C1124.48 586.49 1125.83 561.67 1111.43 544.943C1097.03 528.216 1072.28 525.865 1056.16 539.75C1040.03 553.636 1038.68 578.456 1053.08 595.183Z" stroke="#4E4A4A" shape-rendering="crispEdges"/>
</g>
<g filter="url(#filter5_d_13_36)">
<path d="M1357.77 267.848C1372.17 284.575 1396.92 286.925 1413.05 273.04C1429.17 259.155 1430.53 234.334 1416.12 217.607C1401.72 200.88 1376.98 198.53 1360.85 212.415C1344.72 226.3 1343.37 251.121 1357.77 267.848ZM1387.08 668.183C1401.48 684.91 1426.23 687.261 1442.35 673.375C1458.48 659.49 1459.83 634.67 1445.43 617.943C1431.03 601.216 1406.28 598.865 1390.16 612.75C1374.03 626.636 1372.68 651.456 1387.08 668.183Z" stroke="#4E4A4A" shape-rendering="crispEdges"/>
</g>
<g filter="url(#filter6_d_13_36)">
<path d="M968.772 487.848C983.174 504.575 1007.92 506.925 1024.05 493.04C1040.17 479.155 1041.53 454.334 1027.12 437.607C1012.72 420.88 987.976 418.53 971.849 432.415C955.722 446.3 954.37 471.121 968.772 487.848ZM998.079 888.183C1012.48 904.91 1037.23 907.261 1053.35 893.375C1069.48 879.49 1070.83 854.67 1056.43 837.943C1042.03 821.216 1017.28 818.865 1001.16 832.75C985.028 846.636 983.677 871.456 998.079 888.183Z" stroke="#4E4A4A" shape-rendering="crispEdges"/>
</g>
<g filter="url(#filter7_d_13_36)">
<path d="M1302.77 560.848C1317.17 577.575 1341.92 579.925 1358.05 566.04C1374.17 552.155 1375.53 527.334 1361.12 510.607C1346.72 493.88 1321.98 491.53 1305.85 505.415C1289.72 519.3 1288.37 544.121 1302.77 560.848ZM1332.08 961.183C1346.48 977.91 1371.23 980.261 1387.35 966.375C1403.48 952.49 1404.83 927.67 1390.43 910.943C1376.03 894.216 1351.28 891.865 1335.16 905.75C1319.03 919.636 1317.68 944.456 1332.08 961.183Z" stroke="#4E4A4A" shape-rendering="crispEdges"/>
</g>
<g filter="url(#filter8_d_13_36)">
<path d="M890.772 742.848C905.174 759.575 929.92 761.925 946.047 748.04C962.174 734.155 963.526 709.334 949.124 692.607C934.722 675.88 909.976 673.53 893.849 687.415C877.722 701.3 876.37 726.121 890.772 742.848ZM920.079 1143.18C934.481 1159.91 959.226 1162.26 975.353 1148.38C991.48 1134.49 992.832 1109.67 978.43 1092.94C964.028 1076.22 939.282 1073.87 923.155 1087.75C907.028 1101.64 905.677 1126.46 920.079 1143.18Z" stroke="#4E4A4A" shape-rendering="crispEdges"/>
</g>
<g filter="url(#filter9_d_13_36)">
<path d="M1224.77 815.848C1239.17 832.575 1263.92 834.925 1280.05 821.04C1296.17 807.155 1297.53 782.334 1283.12 765.607C1268.72 748.88 1243.98 746.53 1227.85 760.415C1211.72 774.3 1210.37 799.121 1224.77 815.848ZM1254.08 1216.18C1268.48 1232.91 1293.23 1235.26 1309.35 1221.38C1325.48 1207.49 1326.83 1182.67 1312.43 1165.94C1298.03 1149.22 1273.28 1146.87 1257.16 1160.75C1241.03 1174.64 1239.68 1199.46 1254.08 1216.18Z" stroke="#4E4A4A" shape-rendering="crispEdges"/>
</g>
<g filter="url(#filter10_d_13_36)">
<path d="M842.562 146.564C852.056 166.491 875.312 175.268 894.524 166.115C913.736 156.962 921.57 133.371 912.076 113.444C902.582 93.5176 879.326 84.7398 860.114 93.8932C840.902 103.047 833.068 126.637 842.562 146.564ZM765.514 540.506C775.008 560.433 798.263 569.211 817.475 560.057C836.687 550.904 844.521 527.314 835.027 507.387C825.533 487.46 802.278 478.682 783.066 487.836C763.854 496.989 756.02 520.579 765.514 540.506Z" stroke="#4E4A4A" shape-rendering="crispEdges"/>
</g>
<g filter="url(#filter11_d_13_36)">
<path d="M1176.56 219.564C1186.06 239.491 1209.31 248.268 1228.52 239.115C1247.74 229.962 1255.57 206.371 1246.08 186.444C1236.58 166.518 1213.33 157.74 1194.11 166.893C1174.9 176.047 1167.07 199.637 1176.56 219.564ZM1099.51 613.506C1109.01 633.433 1132.26 642.211 1151.48 633.057C1170.69 623.904 1178.52 600.314 1169.03 580.387C1159.53 560.46 1136.28 551.682 1117.07 560.836C1097.85 569.989 1090.02 593.579 1099.51 613.506Z" stroke="#4E4A4A" shape-rendering="crispEdges"/>
</g>
<g filter="url(#filter12_d_13_36)">
<path d="M669.562 282.564C679.056 302.491 702.312 311.268 721.524 302.115C740.736 292.962 748.57 269.371 739.076 249.444C729.582 229.518 706.326 220.74 687.114 229.893C667.902 239.047 660.068 262.637 669.562 282.564ZM592.514 676.506C602.008 696.433 625.263 705.211 644.475 696.057C663.687 686.904 671.521 663.314 662.027 643.387C652.533 623.46 629.278 614.682 610.066 623.836C590.854 632.989 583.02 656.579 592.514 676.506Z" stroke="#4E4A4A" shape-rendering="crispEdges"/>
</g>
<g filter="url(#filter13_d_13_36)">
<path d="M1003.56 355.564C1013.06 375.491 1036.31 384.268 1055.52 375.115C1074.74 365.962 1082.57 342.371 1073.08 322.444C1063.58 302.518 1040.33 293.74 1021.11 302.893C1001.9 312.047 994.068 335.637 1003.56 355.564ZM926.514 749.506C936.008 769.433 959.263 778.211 978.475 769.057C997.687 759.904 1005.52 736.314 996.027 716.387C986.533 696.46 963.278 687.682 944.066 696.836C924.854 705.989 917.02 729.579 926.514 749.506Z" stroke="#4E4A4A" shape-rendering="crispEdges"/>
</g>
<g filter="url(#filter14_d_13_36)">
<path d="M394.21 434.944C414.611 444.905 439.417 435.999 449.627 415.088C459.838 394.177 451.606 369.14 431.205 359.178C410.805 349.217 385.999 358.123 375.789 379.034C365.578 399.945 373.809 424.983 394.21 434.944ZM577.011 815.772C597.412 825.734 622.217 816.828 632.428 795.917C642.638 775.006 634.407 749.968 614.006 740.007C593.605 730.045 568.8 738.952 558.589 759.863C548.379 780.774 556.61 805.811 577.011 815.772Z" stroke="#4E4A4A" shape-rendering="crispEdges"/>
</g>
<g filter="url(#filter15_d_13_36)">
<path d="M728.21 507.944C748.611 517.905 773.417 508.999 783.627 488.088C793.838 467.177 785.606 442.14 765.205 432.178C744.805 422.217 719.999 431.123 709.789 452.034C699.578 472.945 707.809 497.983 728.21 507.944ZM911.011 888.772C931.412 898.734 956.217 889.828 966.428 868.917C976.638 848.006 968.407 822.968 948.006 813.007C927.605 803.045 902.8 811.952 892.589 832.863C882.379 853.774 890.61 878.811 911.011 888.772Z" stroke="#4E4A4A" shape-rendering="crispEdges"/>
</g>
<g filter="url(#filter16_d_13_36)">
<path d="M591.472 420.124C611.873 430.085 636.678 421.179 646.889 400.268C657.099 379.357 648.868 354.32 628.467 344.358C608.066 334.397 583.261 343.303 573.05 364.214C562.84 385.125 571.071 410.163 591.472 420.124ZM774.273 800.952C794.674 810.914 819.479 802.008 829.69 781.097C839.9 760.186 831.669 735.148 811.268 725.187C790.867 715.225 766.062 724.132 755.851 745.043C745.641 765.954 753.872 790.991 774.273 800.952Z" stroke="#4E4A4A" shape-rendering="crispEdges"/>
</g>
<g filter="url(#filter17_d_13_36)">
<path d="M925.472 493.124C945.873 503.085 970.678 494.179 980.889 473.268C991.099 452.357 982.868 427.32 962.467 417.358C942.066 407.397 917.261 416.303 907.05 437.214C896.84 458.125 905.071 483.163 925.472 493.124ZM1108.27 873.952C1128.67 883.914 1153.48 875.008 1163.69 854.097C1173.9 833.186 1165.67 808.148 1145.27 798.187C1124.87 788.225 1100.06 797.132 1089.85 818.043C1079.64 838.954 1087.87 863.991 1108.27 873.952Z" stroke="#4E4A4A" shape-rendering="crispEdges"/>
</g>
<g filter="url(#filter18_d_13_36)">
<path d="M902.472 616.124C922.873 626.085 947.678 617.179 957.889 596.268C968.099 575.357 959.868 550.32 939.467 540.358C919.066 530.397 894.261 539.303 884.05 560.214C873.84 581.125 882.071 606.163 902.472 616.124ZM1085.27 996.952C1105.67 1006.91 1130.48 998.008 1140.69 977.097C1150.9 956.186 1142.67 931.148 1122.27 921.187C1101.87 911.225 1077.06 920.132 1066.85 941.043C1056.64 961.954 1064.87 986.991 1085.27 996.952Z" stroke="#4E4A4A" shape-rendering="crispEdges"/>
</g>
<g filter="url(#filter19_d_13_36)">
<path d="M1236.47 689.124C1256.87 699.085 1281.68 690.179 1291.89 669.268C1302.1 648.357 1293.87 623.32 1273.47 613.358C1253.07 603.397 1228.26 612.303 1218.05 633.214C1207.84 654.125 1216.07 679.163 1236.47 689.124ZM1419.27 1069.95C1439.67 1079.91 1464.48 1071.01 1474.69 1050.1C1484.9 1029.19 1476.67 1004.15 1456.27 994.187C1435.87 984.225 1411.06 993.132 1400.85 1014.04C1390.64 1034.95 1398.87 1059.99 1419.27 1069.95Z" stroke="#4E4A4A" shape-rendering="crispEdges"/>
</g>
<g filter="url(#filter20_d_13_36)">
<path d="M788.263 648.212C794.868 669.933 818.285 682.026 840.549 675.257C862.814 668.487 875.537 645.406 868.932 623.685C862.328 601.964 838.911 589.87 816.646 596.64C794.382 603.409 781.659 626.49 788.263 648.212ZM633.981 1041.46C640.585 1063.18 664.003 1075.27 686.267 1068.5C708.531 1061.73 721.254 1038.65 714.65 1016.93C708.046 995.211 684.628 983.117 662.364 989.887C640.1 996.656 627.377 1019.74 633.981 1041.46Z" stroke="#4E4A4A" shape-rendering="crispEdges"/>
</g>
<g filter="url(#filter21_d_13_36)">
<path d="M1122.26 721.212C1128.87 742.933 1152.29 755.026 1174.55 748.257C1196.81 741.487 1209.54 718.406 1202.93 696.685C1196.33 674.964 1172.91 662.87 1150.65 669.64C1128.38 676.409 1115.66 699.49 1122.26 721.212ZM967.981 1114.46C974.585 1136.18 998.003 1148.27 1020.27 1141.5C1042.53 1134.73 1055.25 1111.65 1048.65 1089.93C1042.05 1068.21 1018.63 1056.12 996.364 1062.89C974.1 1069.66 961.377 1092.74 967.981 1114.46Z" stroke="#4E4A4A" shape-rendering="crispEdges"/>
</g>
<g filter="url(#filter22_d_13_36)">
<path d="M540.421 938.398C559.385 950.881 585.124 945.212 597.919 925.775C610.714 906.338 605.744 880.455 586.781 867.972C567.818 855.489 542.079 861.157 529.284 880.595C516.489 900.032 521.458 925.915 540.421 938.398ZM676.377 1327.3C695.34 1339.79 721.079 1334.12 733.874 1314.68C746.669 1295.24 741.7 1269.36 722.737 1256.88C703.774 1244.39 678.035 1250.06 665.24 1269.5C652.444 1288.94 657.414 1314.82 676.377 1327.3ZM579.533 1221.53C598.496 1234.01 624.236 1228.34 637.031 1208.91C649.826 1189.47 644.856 1163.59 625.893 1151.1C606.93 1138.62 581.191 1144.29 568.396 1163.73C555.601 1183.16 560.57 1209.05 579.533 1221.53ZM853.422 776.398C872.385 788.881 898.124 783.213 910.919 763.775C923.714 744.338 918.745 718.455 899.781 705.972C880.818 693.489 855.079 699.158 842.284 718.595C829.489 738.032 834.459 763.915 853.422 776.398ZM699.422 893.768C718.385 906.25 744.124 900.582 756.919 881.144C769.714 861.707 764.745 835.824 745.782 823.341C726.818 810.858 701.08 816.527 688.284 835.964C675.489 855.401 680.459 881.285 699.422 893.768ZM483.617 557.898C502.58 570.381 528.319 564.712 541.114 545.275C553.909 525.838 548.939 499.955 529.976 487.472C511.013 474.989 485.274 480.657 472.479 500.095C459.684 519.532 464.653 545.415 483.617 557.898ZM647.332 334.028C666.295 346.511 692.034 340.843 704.829 321.405C717.624 301.968 712.655 276.085 693.691 263.602C674.728 251.119 648.989 256.788 636.194 276.225C623.399 295.662 628.369 321.545 647.332 334.028ZM540.421 706.807C559.384 719.29 585.123 713.622 597.918 694.184C610.713 674.747 605.744 648.864 586.781 636.381C567.818 623.898 542.079 629.567 529.284 649.004C516.489 668.441 521.458 694.324 540.421 706.807ZM899.231 419.418C918.195 431.901 943.934 426.232 956.729 406.795C969.524 387.357 964.554 361.474 945.591 348.991C926.628 336.509 900.889 342.177 888.094 361.614C875.299 381.052 880.268 406.935 899.231 419.418ZM568.538 92.4176C587.501 104.901 613.24 99.232 626.035 79.7947C638.83 60.3574 633.861 34.4743 614.898 21.9914C595.934 9.5085 570.195 15.177 557.4 34.6144C544.605 54.0517 549.575 79.9347 568.538 92.4176ZM551.416 239.009C570.379 251.492 596.118 245.823 608.913 226.386C621.708 206.948 616.739 181.065 597.776 168.582C578.812 156.099 553.074 161.768 540.278 181.205C527.483 200.643 532.453 226.526 551.416 239.009Z" stroke="#4E4A4A" shape-rendering="crispEdges"/>
</g>
<g filter="url(#filter23_d_13_36)">
<path d="M748.712 996.452C764.354 1006.75 785.082 1002.94 794.996 987.875C804.91 972.815 800.218 952.268 784.576 941.971C768.933 931.674 748.206 935.488 738.292 950.548C728.378 965.609 733.07 986.155 748.712 996.452ZM865.733 1315.29C881.375 1325.59 902.103 1321.77 912.017 1306.71C921.931 1291.65 917.239 1271.11 901.597 1260.81C885.954 1250.51 865.226 1254.33 855.313 1269.39C845.399 1284.45 850.091 1304.99 865.733 1315.29Z" stroke="#4E4A4A" shape-rendering="crispEdges"/>
</g>
<g filter="url(#filter24_d_13_36)">
<path d="M638.854 1033.53C639.758 1052.23 655.057 1066.73 673.067 1065.86C691.077 1064.99 704.908 1049.09 704.003 1030.38C703.099 1011.68 687.8 997.18 669.79 998.051C651.78 998.921 637.949 1014.82 638.854 1033.53ZM450.296 1316.01C451.2 1334.72 466.5 1349.21 484.51 1348.34C502.519 1347.47 516.35 1331.57 515.446 1312.86C514.542 1294.16 499.242 1279.66 481.233 1280.53C463.223 1281.41 449.392 1297.31 450.296 1316.01Z" stroke="#4E4A4A" shape-rendering="crispEdges"/>
</g>
<defs>
<filter id="filter0_d_13_36" x="605.262" y="54" width="411.5" height="325" filterUnits="userSpaceOnUse" color-interpolation-filters="sRGB">
<feFlood flood-opacity="0" result="BackgroundImageFix"/>
<feColorMatrix in="SourceAlpha" type="matrix" values="0 0 0 0 0 0 0 0 0 0 0 0 0 0 0 0 0 0 127 0" result="hardAlpha"/>
<feOffset dy="4"/>
<feGaussianBlur stdDeviation="2"/>
<feComposite in2="hardAlpha" operator="out"/>
<feColorMatrix type="matrix" values="0 0 0 0 0 0 0 0 0 0 0 0 0 0 0 0 0 0 0.25 0"/>
<feBlend mode="normal" in2="BackgroundImageFix" result="effect1_dropShadow_13_36"/>
<feBlend mode="normal" in="SourceGraphic" in2="effect1_dropShadow_13_36" result="shape"/>
</filter>
<filter id="filter1_d_13_36" x="939.262" y="127" width="411.5" height="325" filterUnits="userSpaceOnUse" color-interpolation-filters="sRGB">
<feFlood flood-opacity="0" result="BackgroundImageFix"/>
<feColorMatrix in="SourceAlpha" type="matrix" values="0 0 0 0 0 0 0 0 0 0 0 0 0 0 0 0 0 0 127 0" result="hardAlpha"/>
<feOffset dy="4"/>
<feGaussianBlur stdDeviation="2"/>
<feComposite in2="hardAlpha" operator="out"/>
<feColorMatrix type="matrix" values="0 0 0 0 0 0 0 0 0 0 0 0 0 0 0 0 0 0 0.25 0"/>
<feBlend mode="normal" in2="BackgroundImageFix" result="effect1_dropShadow_13_36"/>
<feBlend mode="normal" in="SourceGraphic" in2="effect1_dropShadow_13_36" result="shape"/>
</filter>
<filter id="filter2_d_13_36" x="819.883" y="11.1148" width="252.598" height="454.159" filterUnits="userSpaceOnUse" color-interpolation-filters="sRGB">
<feFlood flood-opacity="0" result="BackgroundImageFix"/>
<feColorMatrix in="SourceAlpha" type="matrix" values="0 0 0 0 0 0 0 0 0 0 0 0 0 0 0 0 0 0 127 0" result="hardAlpha"/>
<feOffset dy="4"/>
<feGaussianBlur stdDeviation="2"/>
<feComposite in2="hardAlpha" operator="out"/>
<feColorMatrix type="matrix" values="0 0 0 0 0 0 0 0 0 0 0 0 0 0 0 0 0 0 0.25 0"/>
<feBlend mode="normal" in2="BackgroundImageFix" result="effect1_dropShadow_13_36"/>
<feBlend mode="normal" in="SourceGraphic" in2="effect1_dropShadow_13_36" result="shape"/>
</filter>
<filter id="filter3_d_13_36" x="1153.88" y="84.1148" width="252.598" height="454.159" filterUnits="userSpaceOnUse" color-interpolation-filters="sRGB">
<feFlood flood-opacity="0" result="BackgroundImageFix"/>
<feColorMatrix in="SourceAlpha" type="matrix" values="0 0 0 0 0 0 0 0 0 0 0 0 0 0 0 0 0 0 127 0" result="hardAlpha"/>
<feOffset dy="4"/>
<feGaussianBlur stdDeviation="2"/>
<feComposite in2="hardAlpha" operator="out"/>
<feColorMatrix type="matrix" values="0 0 0 0 0 0 0 0 0 0 0 0 0 0 0 0 0 0 0.25 0"/>
<feBlend mode="normal" in2="BackgroundImageFix" result="effect1_dropShadow_13_36"/>
<feBlend mode="normal" in="SourceGraphic" in2="effect1_dropShadow_13_36" result="shape"/>
</filter>
<filter id="filter4_d_13_36" x="1009.3" y="129.857" width="116.598" height="488.076" filterUnits="userSpaceOnUse" color-interpolation-filters="sRGB">
<feFlood flood-opacity="0" result="BackgroundImageFix"/>
<feColorMatrix in="SourceAlpha" type="matrix" values="0 0 0 0 0 0 0 0 0 0 0 0 0 0 0 0 0 0 127 0" result="hardAlpha"/>
<feOffset dy="4"/>
<feGaussianBlur stdDeviation="2"/>
<feComposite in2="hardAlpha" operator="out"/>
<feColorMatrix type="matrix" values="0 0 0 0 0 0 0 0 0 0 0 0 0 0 0 0 0 0 0.25 0"/>
<feBlend mode="normal" in2="BackgroundImageFix" result="effect1_dropShadow_13_36"/>
<feBlend mode="normal" in="SourceGraphic" in2="effect1_dropShadow_13_36" result="shape"/>
</filter>
<filter id="filter5_d_13_36" x="1343.3" y="202.857" width="116.598" height="488.076" filterUnits="userSpaceOnUse" color-interpolation-filters="sRGB">
<feFlood flood-opacity="0" result="BackgroundImageFix"/>
<feColorMatrix in="SourceAlpha" type="matrix" values="0 0 0 0 0 0 0 0 0 0 0 0 0 0 0 0 0 0 127 0" result="hardAlpha"/>
<feOffset dy="4"/>
<feGaussianBlur stdDeviation="2"/>
<feComposite in2="hardAlpha" operator="out"/>
<feColorMatrix type="matrix" values="0 0 0 0 0 0 0 0 0 0 0 0 0 0 0 0 0 0 0.25 0"/>
<feBlend mode="normal" in2="BackgroundImageFix" result="effect1_dropShadow_13_36"/>
<feBlend mode="normal" in="SourceGraphic" in2="effect1_dropShadow_13_36" result="shape"/>
</filter>
<filter id="filter6_d_13_36" x="954.302" y="422.857" width="116.598" height="488.076" filterUnits="userSpaceOnUse" color-interpolation-filters="sRGB">
<feFlood flood-opacity="0" result="BackgroundImageFix"/>
<feColorMatrix in="SourceAlpha" type="matrix" values="0 0 0 0 0 0 0 0 0 0 0 0 0 0 0 0 0 0 127 0" result="hardAlpha"/>
<feOffset dy="4"/>
<feGaussianBlur stdDeviation="2"/>
<feComposite in2="hardAlpha" operator="out"/>
<feColorMatrix type="matrix" values="0 0 0 0 0 0 0 0 0 0 0 0 0 0 0 0 0 0 0.25 0"/>
<feBlend mode="normal" in2="BackgroundImageFix" result="effect1_dropShadow_13_36"/>
<feBlend mode="normal" in="SourceGraphic" in2="effect1_dropShadow_13_36" result="shape"/>
</filter>
<filter id="filter7_d_13_36" x="1288.3" y="495.857" width="116.598" height="488.076" filterUnits="userSpaceOnUse" color-interpolation-filters="sRGB">
<feFlood flood-opacity="0" result="BackgroundImageFix"/>
<feColorMatrix in="SourceAlpha" type="matrix" values="0 0 0 0 0 0 0 0 0 0 0 0 0 0 0 0 0 0 127 0" result="hardAlpha"/>
<feOffset dy="4"/>
<feGaussianBlur stdDeviation="2"/>
<feComposite in2="hardAlpha" operator="out"/>
<feColorMatrix type="matrix" values="0 0 0 0 0 0 0 0 0 0 0 0 0 0 0 0 0 0 0.25 0"/>
<feBlend mode="normal" in2="BackgroundImageFix" result="effect1_dropShadow_13_36"/>
<feBlend mode="normal" in="SourceGraphic" in2="effect1_dropShadow_13_36" result="shape"/>
</filter>
<filter id="filter8_d_13_36" x="876.302" y="677.857" width="116.598" height="488.076" filterUnits="userSpaceOnUse" color-interpolation-filters="sRGB">
<feFlood flood-opacity="0" result="BackgroundImageFix"/>
<feColorMatrix in="SourceAlpha" type="matrix" values="0 0 0 0 0 0 0 0 0 0 0 0 0 0 0 0 0 0 127 0" result="hardAlpha"/>
<feOffset dy="4"/>
<feGaussianBlur stdDeviation="2"/>
<feComposite in2="hardAlpha" operator="out"/>
<feColorMatrix type="matrix" values="0 0 0 0 0 0 0 0 0 0 0 0 0 0 0 0 0 0 0.25 0"/>
<feBlend mode="normal" in2="BackgroundImageFix" result="effect1_dropShadow_13_36"/>
<feBlend mode="normal" in="SourceGraphic" in2="effect1_dropShadow_13_36" result="shape"/>
</filter>
<filter id="filter9_d_13_36" x="1210.3" y="750.857" width="116.598" height="488.076" filterUnits="userSpaceOnUse" color-interpolation-filters="sRGB">
<feFlood flood-opacity="0" result="BackgroundImageFix"/>
<feColorMatrix in="SourceAlpha" type="matrix" values="0 0 0 0 0 0 0 0 0 0 0 0 0 0 0 0 0 0 127 0" result="hardAlpha"/>
<feOffset dy="4"/>
<feGaussianBlur stdDeviation="2"/>
<feComposite in2="hardAlpha" operator="out"/>
<feColorMatrix type="matrix" values="0 0 0 0 0 0 0 0 0 0 0 0 0 0 0 0 0 0 0.25 0"/>
<feBlend mode="normal" in2="BackgroundImageFix" result="effect1_dropShadow_13_36"/>
<feBlend mode="normal" in="SourceGraphic" in2="effect1_dropShadow_13_36" result="shape"/>
</filter>
<filter id="filter10_d_13_36" x="756.981" y="89.7661" width="163.628" height="482.418" filterUnits="userSpaceOnUse" color-interpolation-filters="sRGB">
<feFlood flood-opacity="0" result="BackgroundImageFix"/>
<feColorMatrix in="SourceAlpha" type="matrix" values="0 0 0 0 0 0 0 0 0 0 0 0 0 0 0 0 0 0 127 0" result="hardAlpha"/>
<feOffset dy="4"/>
<feGaussianBlur stdDeviation="2"/>
<feComposite in2="hardAlpha" operator="out"/>
<feColorMatrix type="matrix" values="0 0 0 0 0 0 0 0 0 0 0 0 0 0 0 0 0 0 0.25 0"/>
<feBlend mode="normal" in2="BackgroundImageFix" result="effect1_dropShadow_13_36"/>
<feBlend mode="normal" in="SourceGraphic" in2="effect1_dropShadow_13_36" result="shape"/>
</filter>
<filter id="filter11_d_13_36" x="1090.98" y="162.766" width="163.628" height="482.418" filterUnits="userSpaceOnUse" color-interpolation-filters="sRGB">
<feFlood flood-opacity="0" result="BackgroundImageFix"/>
<feColorMatrix in="SourceAlpha" type="matrix" values="0 0 0 0 0 0 0 0 0 0 0 0 0 0 0 0 0 0 127 0" result="hardAlpha"/>
<feOffset dy="4"/>
<feGaussianBlur stdDeviation="2"/>
<feComposite in2="hardAlpha" operator="out"/>
<feColorMatrix type="matrix" values="0 0 0 0 0 0 0 0 0 0 0 0 0 0 0 0 0 0 0.25 0"/>
<feBlend mode="normal" in2="BackgroundImageFix" result="effect1_dropShadow_13_36"/>
<feBlend mode="normal" in="SourceGraphic" in2="effect1_dropShadow_13_36" result="shape"/>
</filter>
<filter id="filter12_d_13_36" x="583.981" y="225.766" width="163.628" height="482.418" filterUnits="userSpaceOnUse" color-interpolation-filters="sRGB">
<feFlood flood-opacity="0" result="BackgroundImageFix"/>
<feColorMatrix in="SourceAlpha" type="matrix" values="0 0 0 0 0 0 0 0 0 0 0 0 0 0 0 0 0 0 127 0" result="hardAlpha"/>
<feOffset dy="4"/>
<feGaussianBlur stdDeviation="2"/>
<feComposite in2="hardAlpha" operator="out"/>
<feColorMatrix type="matrix" values="0 0 0 0 0 0 0 0 0 0 0 0 0 0 0 0 0 0 0.25 0"/>
<feBlend mode="normal" in2="BackgroundImageFix" result="effect1_dropShadow_13_36"/>
<feBlend mode="normal" in="SourceGraphic" in2="effect1_dropShadow_13_36" result="shape"/>
</filter>
<filter id="filter13_d_13_36" x="917.981" y="298.766" width="163.628" height="482.418" filterUnits="userSpaceOnUse" color-interpolation-filters="sRGB">
<feFlood flood-opacity="0" result="BackgroundImageFix"/>
<feColorMatrix in="SourceAlpha" type="matrix" values="0 0 0 0 0 0 0 0 0 0 0 0 0 0 0 0 0 0 127 0" result="hardAlpha"/>
<feOffset dy="4"/>
<feGaussianBlur stdDeviation="2"/>
<feComposite in2="hardAlpha" operator="out"/>
<feColorMatrix type="matrix" values="0 0 0 0 0 0 0 0 0 0 0 0 0 0 0 0 0 0 0.25 0"/>
<feBlend mode="normal" in2="BackgroundImageFix" result="effect1_dropShadow_13_36"/>
<feBlend mode="normal" in="SourceGraphic" in2="effect1_dropShadow_13_36" result="shape"/>
</filter>
<filter id="filter14_d_13_36" x="366.906" y="354.597" width="274.405" height="473.757" filterUnits="userSpaceOnUse" color-interpolation-filters="sRGB">
<feFlood flood-opacity="0" result="BackgroundImageFix"/>
<feColorMatrix in="SourceAlpha" type="matrix" values="0 0 0 0 0 0 0 0 0 0 0 0 0 0 0 0 0 0 127 0" result="hardAlpha"/>
<feOffset dy="4"/>
<feGaussianBlur stdDeviation="2"/>
<feComposite in2="hardAlpha" operator="out"/>
<feColorMatrix type="matrix" values="0 0 0 0 0 0 0 0 0 0 0 0 0 0 0 0 0 0 0.25 0"/>
<feBlend mode="normal" in2="BackgroundImageFix" result="effect1_dropShadow_13_36"/>
<feBlend mode="normal" in="SourceGraphic" in2="effect1_dropShadow_13_36" result="shape"/>
</filter>
<filter id="filter15_d_13_36" x="700.906" y="427.597" width="274.405" height="473.757" filterUnits="userSpaceOnUse" color-interpolation-filters="sRGB">
<feFlood flood-opacity="0" result="BackgroundImageFix"/>
<feColorMatrix in="SourceAlpha" type="matrix" values="0 0 0 0 0 0 0 0 0 0 0 0 0 0 0 0 0 0 127 0" result="hardAlpha"/>
<feOffset dy="4"/>
<feGaussianBlur stdDeviation="2"/>
<feComposite in2="hardAlpha" operator="out"/>
<feColorMatrix type="matrix" values="0 0 0 0 0 0 0 0 0 0 0 0 0 0 0 0 0 0 0.25 0"/>
<feBlend mode="normal" in2="BackgroundImageFix" result="effect1_dropShadow_13_36"/>
<feBlend mode="normal" in="SourceGraphic" in2="effect1_dropShadow_13_36" result="shape"/>
</filter>
<filter id="filter16_d_13_36" x="564.167" y="339.777" width="274.405" height="473.757" filterUnits="userSpaceOnUse" color-interpolation-filters="sRGB">
<feFlood flood-opacity="0" result="BackgroundImageFix"/>
<feColorMatrix in="SourceAlpha" type="matrix" values="0 0 0 0 0 0 0 0 0 0 0 0 0 0 0 0 0 0 127 0" result="hardAlpha"/>
<feOffset dy="4"/>
<feGaussianBlur stdDeviation="2"/>
<feComposite in2="hardAlpha" operator="out"/>
<feColorMatrix type="matrix" values="0 0 0 0 0 0 0 0 0 0 0 0 0 0 0 0 0 0 0.25 0"/>
<feBlend mode="normal" in2="BackgroundImageFix" result="effect1_dropShadow_13_36"/>
<feBlend mode="normal" in="SourceGraphic" in2="effect1_dropShadow_13_36" result="shape"/>
</filter>
<filter id="filter17_d_13_36" x="898.167" y="412.777" width="274.405" height="473.757" filterUnits="userSpaceOnUse" color-interpolation-filters="sRGB">
<feFlood flood-opacity="0" result="BackgroundImageFix"/>
<feColorMatrix in="SourceAlpha" type="matrix" values="0 0 0 0 0 0 0 0 0 0 0 0 0 0 0 0 0 0 127 0" result="hardAlpha"/>
<feOffset dy="4"/>
<feGaussianBlur stdDeviation="2"/>
<feComposite in2="hardAlpha" operator="out"/>
<feColorMatrix type="matrix" values="0 0 0 0 0 0 0 0 0 0 0 0 0 0 0 0 0 0 0.25 0"/>
<feBlend mode="normal" in2="BackgroundImageFix" result="effect1_dropShadow_13_36"/>
<feBlend mode="normal" in="SourceGraphic" in2="effect1_dropShadow_13_36" result="shape"/>
</filter>
<filter id="filter18_d_13_36" x="875.167" y="535.777" width="274.405" height="473.757" filterUnits="userSpaceOnUse" color-interpolation-filters="sRGB">
<feFlood flood-opacity="0" result="BackgroundImageFix"/>
<feColorMatrix in="SourceAlpha" type="matrix" values="0 0 0 0 0 0 0 0 0 0 0 0 0 0 0 0 0 0 127 0" result="hardAlpha"/>
<feOffset dy="4"/>
<feGaussianBlur stdDeviation="2"/>
<feComposite in2="hardAlpha" operator="out"/>
<feColorMatrix type="matrix" values="0 0 0 0 0 0 0 0 0 0 0 0 0 0 0 0 0 0 0.25 0"/>
<feBlend mode="normal" in2="BackgroundImageFix" result="effect1_dropShadow_13_36"/>
<feBlend mode="normal" in="SourceGraphic" in2="effect1_dropShadow_13_36" result="shape"/>
</filter>
<filter id="filter19_d_13_36" x="1209.17" y="608.777" width="274.405" height="473.757" filterUnits="userSpaceOnUse" color-interpolation-filters="sRGB">
<feFlood flood-opacity="0" result="BackgroundImageFix"/>
<feColorMatrix in="SourceAlpha" type="matrix" values="0 0 0 0 0 0 0 0 0 0 0 0 0 0 0 0 0 0 127 0" result="hardAlpha"/>
<feOffset dy="4"/>
<feGaussianBlur stdDeviation="2"/>
<feComposite in2="hardAlpha" operator="out"/>
<feColorMatrix type="matrix" values="0 0 0 0 0 0 0 0 0 0 0 0 0 0 0 0 0 0 0.25 0"/>
<feBlend mode="normal" in2="BackgroundImageFix" result="effect1_dropShadow_13_36"/>
<feBlend mode="normal" in="SourceGraphic" in2="effect1_dropShadow_13_36" result="shape"/>
</filter>
<filter id="filter20_d_13_36" x="627.736" y="594.261" width="247.442" height="484.622" filterUnits="userSpaceOnUse" color-interpolation-filters="sRGB">
<feFlood flood-opacity="0" result="BackgroundImageFix"/>
<feColorMatrix in="SourceAlpha" type="matrix" values="0 0 0 0 0 0 0 0 0 0 0 0 0 0 0 0 0 0 127 0" result="hardAlpha"/>
<feOffset dy="4"/>
<feGaussianBlur stdDeviation="2"/>
<feComposite in2="hardAlpha" operator="out"/>
<feColorMatrix type="matrix" values="0 0 0 0 0 0 0 0 0 0 0 0 0 0 0 0 0 0 0.25 0"/>
<feBlend mode="normal" in2="BackgroundImageFix" result="effect1_dropShadow_13_36"/>
<feBlend mode="normal" in="SourceGraphic" in2="effect1_dropShadow_13_36" result="shape"/>
</filter>
<filter id="filter21_d_13_36" x="961.736" y="667.261" width="247.442" height="484.622" filterUnits="userSpaceOnUse" color-interpolation-filters="sRGB">
<feFlood flood-opacity="0" result="BackgroundImageFix"/>
<feColorMatrix in="SourceAlpha" type="matrix" values="0 0 0 0 0 0 0 0 0 0 0 0 0 0 0 0 0 0 127 0" result="hardAlpha"/>
<feOffset dy="4"/>
<feGaussianBlur stdDeviation="2"/>
<feComposite in2="hardAlpha" operator="out"/>
<feColorMatrix type="matrix" values="0 0 0 0 0 0 0 0 0 0 0 0 0 0 0 0 0 0 0.25 0"/>
<feBlend mode="normal" in2="BackgroundImageFix" result="effect1_dropShadow_13_36"/>
<feBlend mode="normal" in="SourceGraphic" in2="effect1_dropShadow_13_36" result="shape"/>
</filter>
<filter id="filter22_d_13_36" x="460.88" y="14.8622" width="507.447" height="1327.57" filterUnits="userSpaceOnUse" color-interpolation-filters="sRGB">
<feFlood flood-opacity="0" result="BackgroundImageFix"/>
<feColorMatrix in="SourceAlpha" type="matrix" values="0 0 0 0 0 0 0 0 0 0 0 0 0 0 0 0 0 0 127 0" result="hardAlpha"/>
<feOffset dy="4"/>
<feGaussianBlur stdDeviation="2"/>
<feComposite in2="hardAlpha" operator="out"/>
<feColorMatrix type="matrix" values="0 0 0 0 0 0 0 0 0 0 0 0 0 0 0 0 0 0 0.25 0"/>
<feBlend mode="normal" in2="BackgroundImageFix" result="effect1_dropShadow_13_36"/>
<feBlend mode="normal" in="SourceGraphic" in2="effect1_dropShadow_13_36" result="shape"/>
</filter>
<filter id="filter23_d_13_36" x="728.591" y="935.688" width="193.126" height="393.884" filterUnits="userSpaceOnUse" color-interpolation-filters="sRGB">
<feFlood flood-opacity="0" result="BackgroundImageFix"/>
<feColorMatrix in="SourceAlpha" type="matrix" values="0 0 0 0 0 0 0 0 0 0 0 0 0 0 0 0 0 0 127 0" result="hardAlpha"/>
<feOffset dy="4"/>
<feGaussianBlur stdDeviation="2"/>
<feComposite in2="hardAlpha" operator="out"/>
<feColorMatrix type="matrix" values="0 0 0 0 0 0 0 0 0 0 0 0 0 0 0 0 0 0 0.25 0"/>
<feBlend mode="normal" in2="BackgroundImageFix" result="effect1_dropShadow_13_36"/>
<feBlend mode="normal" in="SourceGraphic" in2="effect1_dropShadow_13_36" result="shape"/>
</filter>
<filter id="filter24_d_13_36" x="445.754" y="997.514" width="262.791" height="359.367" filterUnits="userSpaceOnUse" color-interpolation-filters="sRGB">
<feFlood flood-opacity="0" result="BackgroundImageFix"/>
<feColorMatrix in="SourceAlpha" type="matrix" values="0 0 0 0 0 0 0 0 0 0 0 0 0 0 0 0 0 0 127 0" result="hardAlpha"/>
<feOffset dy="4"/>
<feGaussianBlur stdDeviation="2"/>
<feComposite in2="hardAlpha" operator="out"/>
<feColorMatrix type="matrix" values="0 0 0 0 0 0 0 0 0 0 0 0 0 0 0 0 0 0 0.25 0"/>
<feBlend mode="normal" in2="BackgroundImageFix" result="effect1_dropShadow_13_36"/>
<feBlend mode="normal" in="SourceGraphic" in2="effect1_dropShadow_13_36" result="shape"/>
</filter>
</defs>
</svg>
