<svg width="49" height="48" viewBox="0 0 49 48" fill="none" xmlns="http://www.w3.org/2000/svg">
<circle cx="24.5" cy="24" r="24" fill="#F5F5F5"/>
<path d="M16.7575 19.6395C16.7575 15.1442 20.2239 11.5 24.5 11.5C28.7761 11.5 32.2425 15.1442 32.2425 19.6395V23.1612C32.2425 24.6249 32.8536 26.0245 33.9329 27.0331C35.1189 28.1414 34.3207 30.1046 32.6841 30.1046H16.3159C14.6793 30.1046 13.8811 28.1414 15.0671 27.0331C16.1464 26.0245 16.7575 24.6249 16.7575 23.1612V19.6395Z" fill="#868FA0"/>
<path d="M24.4998 36.5C26.599 36.5 28.3008 34.9011 28.3008 32.9286C28.3008 32.8952 28.3003 32.8618 28.2994 32.8286C28.2909 32.5405 28.0251 32.331 27.7184 32.3277L21.2964 32.2593C20.9897 32.256 20.7188 32.4598 20.7035 32.7476C20.7003 32.8076 20.6987 32.8679 20.6987 32.9286C20.6987 34.9011 22.4005 36.5 24.4998 36.5Z" fill="#868FA0"/>
<g filter="url(#filter0_dd_29_4106)">
<circle cx="33.25" cy="14" r="5" fill="#E01919"/>
</g>
<defs>
<filter id="filter0_dd_29_4106" x="25.75" y="6.5" width="15" height="16.25" filterUnits="userSpaceOnUse" color-interpolation-filters="sRGB">
<feFlood flood-opacity="0" result="BackgroundImageFix"/>
<feColorMatrix in="SourceAlpha" type="matrix" values="0 0 0 0 0 0 0 0 0 0 0 0 0 0 0 0 0 0 127 0" result="hardAlpha"/>
<feMorphology radius="2.5" operator="dilate" in="SourceAlpha" result="effect1_dropShadow_29_4106"/>
<feOffset/>
<feColorMatrix type="matrix" values="0 0 0 0 0.968627 0 0 0 0 0.975163 0 0 0 0 0.988235 0 0 0 1 0"/>
<feBlend mode="normal" in2="BackgroundImageFix" result="effect1_dropShadow_29_4106"/>
<feColorMatrix in="SourceAlpha" type="matrix" values="0 0 0 0 0 0 0 0 0 0 0 0 0 0 0 0 0 0 127 0" result="hardAlpha"/>
<feOffset dy="1.25"/>
<feGaussianBlur stdDeviation="1.25"/>
<feColorMatrix type="matrix" values="0 0 0 0 0 0 0 0 0 0 0 0 0 0 0 0 0 0 0.25 0"/>
<feBlend mode="normal" in2="effect1_dropShadow_29_4106" result="effect2_dropShadow_29_4106"/>
<feBlend mode="normal" in="SourceGraphic" in2="effect2_dropShadow_29_4106" result="shape"/>
</filter>
</defs>
</svg>
