<svg width="90" height="75" viewBox="0 0 90 75" fill="none" xmlns="http://www.w3.org/2000/svg">
<circle cx="36" cy="21" r="54" fill="#0A221C"/>
<path d="M37.9193 40.1007V43.484C37.9193 46.3507 35.2526 48.6674 31.9693 48.6674C28.686 48.6674 26.0026 46.3507 26.0026 43.484V40.1007C26.0026 42.9674 28.6693 45.0007 31.9693 45.0007C35.2526 45.0007 37.9193 42.9507 37.9193 40.1007Z" stroke="white" stroke-width="1.5" stroke-linecap="round" stroke-linejoin="round"/>
<path d="M37.9168 35.5166C37.9168 36.35 37.6835 37.1166 37.2835 37.7833C36.3001 39.4 34.2834 40.4166 31.9501 40.4166C29.6167 40.4166 27.6001 39.3833 26.6167 37.7833C26.2167 37.1166 25.9835 36.35 25.9835 35.5166C25.9835 34.0833 26.6501 32.8 27.7168 31.8666C28.8001 30.9166 30.2834 30.35 31.9334 30.35C33.5834 30.35 35.0668 30.9333 36.1501 31.8666C37.2502 32.7833 37.9168 34.0833 37.9168 35.5166Z" stroke="white" stroke-width="1.5" stroke-linecap="round" stroke-linejoin="round"/>
<path d="M37.9193 35.5167V40.1C37.9193 42.9667 35.2526 45 31.9693 45C28.686 45 26.0026 42.95 26.0026 40.1V35.5167C26.0026 32.65 28.6693 30.3334 31.9693 30.3334C33.6193 30.3334 35.1027 30.9167 36.186 31.85C37.2527 32.7834 37.9193 34.0834 37.9193 35.5167Z" stroke="white" stroke-width="1.5" stroke-linecap="round" stroke-linejoin="round"/>
<path d="M56.6667 30.2832V33.7167C56.6667 34.6333 55.9333 35.3832 55 35.4165H51.7332C49.9332 35.4165 48.2833 34.0998 48.1333 32.2998C48.0333 31.2498 48.4332 30.2665 49.1332 29.5832C49.7498 28.9498 50.6 28.5833 51.5333 28.5833H55C55.9333 28.6166 56.6667 29.3665 56.6667 30.2832Z" stroke="white" stroke-width="1.5" stroke-linecap="round" stroke-linejoin="round"/>
<path d="M23.3333 29.5V26.1667C23.3333 21.6334 26.0667 18.4667 30.3167 17.9334C30.75 17.8667 31.2 17.8334 31.6667 17.8334H46.6667C47.1 17.8334 47.5167 17.85 47.9167 17.9167C52.2167 18.4167 55 21.6 55 26.1667V28.5834H51.5333C50.6 28.5834 49.75 28.95 49.1333 29.5834C48.4333 30.2667 48.0333 31.25 48.1333 32.3C48.2833 34.1 49.9333 35.4167 51.7333 35.4167H55V37.8334C55 42.8334 51.6667 46.1667 46.6667 46.1667H42.5" stroke="white" stroke-width="1.5" stroke-linecap="round" stroke-linejoin="round"/>
<path d="M40.7692 30.5714L40 29.8022L45.2747 24.5275H40.5495V23.4286H47.1429V30.022H46.044V25.2967L40.7692 30.5714Z" fill="white"/>
</svg>
