<svg width="83" height="68" viewBox="0 0 83 68" fill="none" xmlns="http://www.w3.org/2000/svg">
<circle cx="36" cy="21" r="47" fill="white"/>
<path d="M34.1274 38.2906V41.3357C34.1274 43.9157 31.7274 46.0007 28.7724 46.0007C25.8174 46.0007 23.4023 43.9157 23.4023 41.3357V38.2906C23.4023 40.8706 25.8024 42.7007 28.7724 42.7007C31.7274 42.7007 34.1274 40.8556 34.1274 38.2906Z" stroke="#E86B35" stroke-width="1.5" stroke-linecap="round" stroke-linejoin="round"/>
<path d="M34.1251 34.165C34.1251 34.915 33.9151 35.605 33.5551 36.205C32.6701 37.66 30.8551 38.575 28.7551 38.575C26.6551 38.575 24.84 37.645 23.955 36.205C23.595 35.605 23.3851 34.915 23.3851 34.165C23.3851 32.875 23.9851 31.72 24.9451 30.88C25.9201 30.025 27.255 29.515 28.74 29.515C30.225 29.515 31.5601 30.04 32.5351 30.88C33.5251 31.705 34.1251 32.875 34.1251 34.165Z" stroke="#E86B35" stroke-width="1.5" stroke-linecap="round" stroke-linejoin="round"/>
<path d="M34.1274 34.165V38.29C34.1274 40.87 31.7274 42.7 28.7724 42.7C25.8174 42.7 23.4023 40.855 23.4023 38.29V34.165C23.4023 31.585 25.8024 29.5 28.7724 29.5C30.2574 29.5 31.5924 30.025 32.5674 30.865C33.5274 31.705 34.1274 32.875 34.1274 34.165Z" stroke="#E86B35" stroke-width="1.5" stroke-linecap="round" stroke-linejoin="round"/>
<path d="M51 29.4549V32.545C51 33.37 50.34 34.0449 49.5 34.0749H46.5598C44.9398 34.0749 43.455 32.8899 43.32 31.2699C43.23 30.3249 43.5898 29.4399 44.2198 28.8249C44.7748 28.2549 45.54 27.9249 46.38 27.9249H49.5C50.34 27.9549 51 28.6299 51 29.4549Z" stroke="#E86B35" stroke-width="1.5" stroke-linecap="round" stroke-linejoin="round"/>
<path d="M21 28.75V25.75C21 21.67 23.46 18.82 27.285 18.34C27.675 18.28 28.08 18.25 28.5 18.25H42C42.39 18.25 42.765 18.265 43.125 18.325C46.995 18.775 49.5 21.64 49.5 25.75V27.925H46.38C45.54 27.925 44.775 28.255 44.22 28.825C43.59 29.44 43.23 30.325 43.32 31.27C43.455 32.89 44.94 34.075 46.56 34.075H49.5V36.25C49.5 40.75 46.5 43.75 42 43.75H38.25" stroke="#E86B35" stroke-width="1.5" stroke-linecap="round" stroke-linejoin="round"/>
<path d="M36.6923 29.7143L36 29.022L40.7473 24.2748H36.4945V23.2858H42.4286V29.2198H41.4396V24.9671L36.6923 29.7143Z" fill="#E86B35"/>
</svg>
