<svg width="320" height="48" viewBox="0 0 320 48" fill="none" xmlns="http://www.w3.org/2000/svg">
<path d="M5 47.5C4.69883 47.5 4.40504 47.4705 4.12122 47.4143L4.02419 47.9048C3.36822 47.7751 2.75838 47.517 2.22192 47.1578L2.50008 46.7423C2.00913 46.4137 1.58634 45.9909 1.25766 45.4999L0.842173 45.7781C0.483023 45.2416 0.224942 44.6318 0.0951704 43.9758L0.585664 43.8788C0.529517 43.595 0.5 43.3012 0.5 43V42.05H0V40.15H0.5V38.25H0V36.35H0.5V34.45H0V32.55H0.5V30.65H0V28.75H0.5V26.85H0V24.95H0.5V23.05H0V21.15H0.5V19.25H0V17.35H0.5V15.45H0V13.55H0.5V11.65H0V9.75001H0.5V7.85H0V5.95H0.5V5C0.5 4.69883 0.529517 4.40504 0.585664 4.12123L0.0951703 4.02419C0.224942 3.36822 0.483023 2.75838 0.842173 2.22192L1.25766 2.50008C1.58634 2.00913 2.00913 1.58634 2.50008 1.25766L2.22192 0.842173C2.75838 0.483023 3.36822 0.224942 4.02419 0.0951702L4.12122 0.585664C4.40504 0.529517 4.69883 0.5 5 0.5H5.99359V0H7.98077V0.5H9.96795V0H11.9551V0.5H13.9423V0H15.9295V0.5H17.9167V0H19.9038V0.5H21.891V0H23.8782V0.5H25.8654V0H27.8526V0.5H29.8397V0H31.8269V0.5H33.8141V0H35.8013V0.5H37.7885V0H39.7756V0.5H41.7628V0H43.75V0.5H45.7372V0H47.7244V0.5H49.7115V0H51.6987V0.5H53.6859V0H55.6731V0.5H57.6602V0H59.6474V0.5H61.6346V0H63.6218V0.5H65.609V0H67.5961V0.5H69.5833V0H71.5705V0.5H73.5577V0H75.5449V0.5H77.5321V0H79.5192V0.5H81.5064V0H83.4936V0.5H85.4808V0H87.468V0.5H89.4551V0H91.4423V0.5H93.4295V0H95.4167V0.5H97.4039V0H99.3911V0.5H101.378V0H103.365V0.5H105.353V0H107.34V0.5H109.327V0H111.314V0.5H113.301V0H115.289V0.5H117.276V0H119.263V0.5H121.25V0H123.237V0.5H125.224V0H127.212V0.5H129.199V0H131.186V0.5H133.173V0H135.16V0.5H137.148V0H139.135V0.5H141.122V0H143.109V0.5H145.096V0H147.083V0.5H149.071V0H151.058V0.5H153.045V0H155.032V0.5H157.019V0H159.007V0.5H160.994V0H162.981V0.5H164.968V0H166.955V0.5H168.942V0H170.93V0.5H172.917V0H174.904V0.5H176.891V0H178.878V0.5H180.866V0H182.853V0.5H184.84V0H186.827V0.5H188.814V0H190.801V0.5H192.789V0H194.776V0.5H196.763V0H198.75V0.5H200.737V0H202.725V0.5H204.712V0H206.699V0.5H208.686V0H210.673V0.5H212.66V0H214.648V0.5H216.635V0H218.622V0.5H220.609V0H222.596V0.5H224.584V0H226.571V0.5H228.558V0H230.545V0.5H232.532V0H234.519V0.5H236.507V0H238.494V0.5H240.481V0H242.468V0.5H244.455V0H246.443V0.5H248.43V0H250.417V0.5H252.404V0H254.391V0.5H256.378V0H258.366V0.5H260.353V0H262.34V0.5H264.327V0H266.314V0.5H268.302V0H270.289V0.5H272.276V0H274.263V0.5H276.25V0H278.237V0.5H280.225V0H282.212V0.5H284.199V0H286.186V0.5H288.173V0H290.161V0.5H292.148V0H294.135V0.5H296.122V0H298.109V0.5H300.096V0H302.084V0.5H304.071V0H306.058V0.5H308.045V0H310.032V0.5H312.02V0H314.007V0.5H315C315.301 0.5 315.595 0.529517 315.879 0.585664L315.976 0.0951717C316.632 0.224944 317.242 0.483025 317.778 0.842174L317.5 1.25766C317.991 1.58634 318.414 2.00913 318.742 2.50008L319.158 2.22192C319.517 2.75838 319.775 3.36822 319.905 4.02419L319.414 4.12122C319.47 4.40504 319.5 4.69883 319.5 5V5.95H320V7.85H319.5V9.75H320V11.65H319.5V13.55H320V15.45H319.5V17.35H320V19.25H319.5V21.15H320V23.05H319.5V24.95H320V26.85H319.5V28.75H320V30.65H319.5V32.55H320V34.45H319.5V36.35H320V38.25H319.5V40.15H320V42.05H319.5V43C319.5 43.3012 319.47 43.595 319.414 43.8788L319.905 43.9758C319.775 44.6318 319.517 45.2416 319.158 45.7781L318.742 45.4999C318.414 45.9909 317.991 46.4137 317.5 46.7423L317.778 47.1578C317.242 47.517 316.632 47.7751 315.976 47.9048L315.879 47.4143C315.595 47.4705 315.301 47.5 315 47.5H314.006V48H312.019V47.5H310.032V48H308.045V47.5H306.058V48H304.071V47.5H302.083V48H300.096V47.5H298.109V48H296.122V47.5H294.135V48H292.147V47.5H290.16V48H288.173V47.5H286.186V48H284.199V47.5H282.212V48H280.224V47.5H278.237V48H276.25V47.5H274.263V48H272.276V47.5H270.288V48H268.301V47.5H266.314V48H264.327V47.5H262.34V48H260.353V47.5H258.365V48H256.378V47.5H254.391V48H252.404V47.5H250.417V48H248.43V47.5H246.442V48H244.455V47.5H242.468V48H240.481V47.5H238.494V48H236.506V47.5H234.519V48H232.532V47.5H230.545V48H228.558V47.5H226.57V48H224.583V47.5H222.596V48H220.609V47.5H218.622V48H216.635V47.5H214.647V48H212.66V47.5H210.673V48H208.686V47.5H206.699V48H204.711V47.5H202.724V48H200.737V47.5H198.75V48H196.763V47.5H194.776V48H192.788V47.5H190.801V48H188.814V47.5H186.827V48H184.84V47.5H182.852V48H180.865V47.5H178.878V48H176.891V47.5H174.904V48H172.917V47.5H170.929V48H168.942V47.5H166.955V48H164.968V47.5H162.981V48H160.993V47.5H159.006V48H157.019V47.5H155.032V48H153.045V47.5H151.058V48H149.07V47.5H147.083V48H145.096V47.5H143.109V48H141.122V47.5H139.134V48H137.147V47.5H135.16V48H133.173V47.5H131.186V48H129.199V47.5H127.211V48H125.224V47.5H123.237V48H121.25V47.5H119.263V48H117.275V47.5H115.288V48H113.301V47.5H111.314V48H109.327V47.5H107.34V48H105.352V47.5H103.365V48H101.378V47.5H99.3908V48H97.4036V47.5H95.4165V48H93.4293V47.5H91.4421V48H89.4549V47.5H87.4677V48H85.4805V47.5H83.4933V48H81.5062V47.5H79.519V48H77.5318V47.5H75.5446V48H73.5574V47.5H71.5702V48H69.5831V47.5H67.5959V48H65.6087V47.5H63.6215V48H61.6343V47.5H59.6472V48H57.66V47.5H55.6728V48H53.6856V47.5H51.6984V48H49.7112V47.5H47.7241V48H45.7369V47.5H43.7497V48H41.7625V47.5H39.7753V48H37.7881V47.5H35.801V48H33.8138V47.5H31.8266V48H29.8394V47.5H27.8522V48H25.8651V47.5H23.8779V48H21.8907V47.5H19.9035V48H17.9163V47.5H15.9291V48H13.942V47.5H11.9548V48H9.96759V47.5H7.98041V48H5.99322V47.5H5Z" fill="#2D3748" stroke="#D1D1D1" stroke-dasharray="2 2"/>
<rect width="232" height="20" transform="translate(53 13)" fill="#2D3748"/>
<path d="M53.5 24.9005C53.6326 24.9005 53.7598 24.9531 53.8536 25.0469C53.9473 25.1407 54 25.2678 54 25.4005V27.9005C54 28.1657 54.1054 28.42 54.2929 28.6076C54.4804 28.7951 54.7348 28.9005 55 28.9005H67C67.2652 28.9005 67.5196 28.7951 67.7071 28.6076C67.8946 28.42 68 28.1657 68 27.9005V25.4005C68 25.2678 68.0527 25.1407 68.1464 25.0469C68.2402 24.9531 68.3674 24.9005 68.5 24.9005C68.6326 24.9005 68.7598 24.9531 68.8536 25.0469C68.9473 25.1407 69 25.2678 69 25.4005V27.9005C69 28.4309 68.7893 28.9396 68.4142 29.3147C68.0391 29.6897 67.5304 29.9005 67 29.9005H55C54.4696 29.9005 53.9609 29.6897 53.5858 29.3147C53.2107 28.9396 53 28.4309 53 27.9005V25.4005C53 25.2678 53.0527 25.1407 53.1464 25.0469C53.2402 24.9531 53.3674 24.9005 53.5 24.9005V24.9005Z" fill="white"/>
<path d="M60.646 16.146C60.6924 16.0994 60.7476 16.0625 60.8084 16.0373C60.8691 16.0121 60.9342 15.9991 61 15.9991C61.0658 15.9991 61.1309 16.0121 61.1916 16.0373C61.2524 16.0625 61.3076 16.0994 61.354 16.146L64.354 19.146C64.4479 19.2399 64.5006 19.3672 64.5006 19.5C64.5006 19.6328 64.4479 19.7601 64.354 19.854C64.2601 19.9479 64.1328 20.0006 64 20.0006C63.8672 20.0006 63.7399 19.9479 63.646 19.854L61.5 17.707V26.5C61.5 26.6326 61.4473 26.7598 61.3536 26.8535C61.2598 26.9473 61.1326 27 61 27C60.8674 27 60.7402 26.9473 60.6464 26.8535C60.5527 26.7598 60.5 26.6326 60.5 26.5V17.707L58.354 19.854C58.3075 19.9005 58.2523 19.9373 58.1916 19.9625C58.1308 19.9877 58.0657 20.0006 58 20.0006C57.9343 20.0006 57.8692 19.9877 57.8084 19.9625C57.7477 19.9373 57.6925 19.9005 57.646 19.854C57.5995 19.8075 57.5626 19.7523 57.5375 19.6916C57.5123 19.6308 57.4994 19.5657 57.4994 19.5C57.4994 19.4342 57.5123 19.3691 57.5375 19.3084C57.5626 19.2477 57.5995 19.1925 57.646 19.146L60.646 16.146Z" fill="white"/>
<path d="M98.529 28.182C97.7403 28.182 97.059 27.9907 96.485 27.608C95.9157 27.2207 95.4747 26.677 95.162 25.977C94.8493 25.2723 94.693 24.4463 94.693 23.499C94.693 22.5003 94.8587 21.6627 95.19 20.986C95.5213 20.3047 95.9763 19.7913 96.555 19.446C97.1383 19.096 97.7963 18.921 98.529 18.921C99.5137 18.921 100.298 19.166 100.881 19.656C101.464 20.1413 101.852 20.7737 102.043 21.553L100.622 21.826C100.454 21.308 100.188 20.895 99.824 20.587C99.46 20.2743 99.0283 20.118 98.529 20.118C98.0903 20.118 97.689 20.244 97.325 20.496C96.961 20.748 96.6693 21.126 96.45 21.63C96.2307 22.1293 96.121 22.7523 96.121 23.499C96.121 24.1897 96.212 24.7963 96.394 25.319C96.576 25.837 96.8443 26.2407 97.199 26.53C97.5537 26.8193 97.997 26.964 98.529 26.964C99.1777 26.964 99.6887 26.7913 100.062 26.446C100.435 26.096 100.622 25.641 100.622 25.081H102.057C102.057 25.7343 101.91 26.292 101.616 26.754C101.327 27.2113 100.918 27.5637 100.391 27.811C99.8637 28.0583 99.243 28.182 98.529 28.182ZM103.038 28L106.09 19.082H107.735L110.696 28H109.296L108.603 25.872H105.159L104.438 28H103.038ZM105.495 24.85H108.274L106.888 20.685L105.495 24.85ZM112.365 28V19.082H115.354C116.348 19.082 117.113 19.3293 117.65 19.824C118.187 20.3187 118.455 21.0023 118.455 21.875C118.455 22.7383 118.187 23.4173 117.65 23.912C117.113 24.402 116.348 24.647 115.354 24.647H113.709V28H112.365ZM113.709 23.485H115.354C115.923 23.485 116.355 23.338 116.649 23.044C116.943 22.75 117.09 22.3603 117.09 21.875C117.09 21.385 116.943 20.9883 116.649 20.685C116.355 20.3817 115.923 20.23 115.354 20.23H113.709V23.485ZM119.035 20.23V19.082H126.063V20.23H122.913L123.214 19.922V28H121.884V19.922L122.178 20.23H119.035ZM127.34 19.082H128.67V24.717C128.67 25.5103 128.868 26.082 129.265 26.432C129.666 26.782 130.186 26.957 130.826 26.957C131.465 26.957 131.983 26.782 132.38 26.432C132.776 26.082 132.975 25.5103 132.975 24.717V19.082H134.305V24.717C134.305 25.4637 134.165 26.096 133.885 26.614C133.605 27.1273 133.203 27.517 132.681 27.783C132.163 28.049 131.544 28.182 130.826 28.182C130.112 28.182 129.493 28.049 128.971 27.783C128.448 27.517 128.044 27.1273 127.76 26.614C127.48 26.096 127.34 25.4637 127.34 24.717V19.082ZM136.873 28V19.082H140.065C141.105 19.082 141.896 19.3293 142.438 19.824C142.984 20.314 143.257 20.9603 143.257 21.763C143.257 22.5563 142.984 23.198 142.438 23.688C141.896 24.178 141.105 24.423 140.065 24.423H138.203V28H136.873ZM141.794 28L139.323 23.898H140.758L143.523 28H141.794ZM138.203 23.513H139.946C140.58 23.513 141.063 23.3613 141.395 23.058C141.726 22.75 141.892 22.3533 141.892 21.868C141.892 21.3687 141.735 20.972 141.423 20.678C141.115 20.3793 140.662 20.23 140.065 20.23H138.203V23.513ZM145.622 28V19.082H151.222V20.23H146.952V22.946H150.97V24.094H146.952V26.838H151.222V28H145.622ZM160.23 28.182C159.442 28.182 158.76 27.9907 158.186 27.608C157.617 27.2207 157.176 26.677 156.863 25.977C156.551 25.2723 156.394 24.4463 156.394 23.499C156.394 22.5003 156.56 21.6627 156.891 20.986C157.223 20.3047 157.678 19.7913 158.256 19.446C158.84 19.096 159.498 18.921 160.23 18.921C161.215 18.921 161.999 19.166 162.582 19.656C163.166 20.1413 163.553 20.7737 163.744 21.553L162.323 21.826C162.155 21.308 161.889 20.895 161.525 20.587C161.161 20.2743 160.73 20.118 160.23 20.118C159.792 20.118 159.39 20.244 159.026 20.496C158.662 20.748 158.371 21.126 158.151 21.63C157.932 22.1293 157.822 22.7523 157.822 23.499C157.822 24.1897 157.913 24.7963 158.095 25.319C158.277 25.837 158.546 26.2407 158.9 26.53C159.255 26.8193 159.698 26.964 160.23 26.964C160.879 26.964 161.39 26.7913 161.763 26.446C162.137 26.096 162.323 25.641 162.323 25.081H163.758C163.758 25.7343 163.611 26.292 163.317 26.754C163.028 27.2113 162.62 27.5637 162.092 27.811C161.565 28.0583 160.944 28.182 160.23 28.182ZM165.593 19.082H166.923V24.717C166.923 25.5103 167.122 26.082 167.518 26.432C167.92 26.782 168.44 26.957 169.079 26.957C169.719 26.957 170.237 26.782 170.633 26.432C171.03 26.082 171.228 25.5103 171.228 24.717V19.082H172.558V24.717C172.558 25.4637 172.418 26.096 172.138 26.614C171.858 27.1273 171.457 27.517 170.934 27.783C170.416 28.049 169.798 28.182 169.079 28.182C168.365 28.182 167.747 28.049 167.224 27.783C166.702 27.517 166.298 27.1273 166.013 26.614C165.733 26.096 165.593 25.4637 165.593 24.717V19.082ZM178.095 28.182C177.488 28.182 176.93 28.0747 176.422 27.86C175.913 27.6407 175.502 27.3163 175.19 26.887C174.882 26.4577 174.721 25.921 174.707 25.277H176.009C176.009 25.6643 176.102 25.9817 176.289 26.229C176.48 26.4763 176.732 26.6607 177.045 26.782C177.357 26.8987 177.703 26.957 178.081 26.957C178.463 26.957 178.802 26.8987 179.096 26.782C179.39 26.6653 179.616 26.509 179.775 26.313C179.938 26.117 180.02 25.893 180.02 25.641C180.02 25.3003 179.915 25.0273 179.705 24.822C179.495 24.612 179.175 24.4347 178.746 24.29L177.087 23.674C176.373 23.408 175.829 23.1023 175.456 22.757C175.082 22.407 174.896 21.9217 174.896 21.301C174.896 20.5963 175.171 20.0247 175.722 19.586C176.272 19.1427 177.047 18.921 178.046 18.921C178.993 18.921 179.728 19.1403 180.251 19.579C180.778 20.0177 181.079 20.615 181.154 21.371H179.845C179.779 20.9883 179.6 20.685 179.306 20.461C179.016 20.237 178.596 20.125 178.046 20.125C177.514 20.125 177.098 20.2417 176.8 20.475C176.501 20.7037 176.352 20.993 176.352 21.343C176.352 21.6323 176.445 21.8633 176.632 22.036C176.823 22.2087 177.119 22.365 177.521 22.505L179.411 23.198C180.059 23.4267 180.566 23.7347 180.93 24.122C181.294 24.5093 181.476 25.0017 181.476 25.599C181.476 26.103 181.345 26.5487 181.084 26.936C180.822 27.3233 180.44 27.629 179.936 27.853C179.432 28.0723 178.818 28.182 178.095 28.182ZM182.5 20.23V19.082H189.528V20.23H186.378L186.679 19.922V28H185.349V19.922L185.643 20.23H182.5ZM194.234 28.182C193.474 28.182 192.797 28.0093 192.204 27.664C191.612 27.3187 191.145 26.803 190.804 26.117C190.468 25.431 190.3 24.5747 190.3 23.548C190.3 22.5027 190.468 21.6393 190.804 20.958C191.145 20.272 191.612 19.761 192.204 19.425C192.797 19.089 193.474 18.921 194.234 18.921C195 18.921 195.679 19.0913 196.271 19.432C196.869 19.7727 197.335 20.2883 197.671 20.979C198.012 21.665 198.182 22.5213 198.182 23.548C198.182 24.584 198.012 25.4473 197.671 26.138C197.335 26.824 196.869 27.3373 196.271 27.678C195.679 28.014 195 28.182 194.234 28.182ZM194.234 26.964C195.028 26.964 195.653 26.6723 196.11 26.089C196.572 25.5057 196.803 24.654 196.803 23.534C196.803 22.442 196.572 21.5997 196.11 21.007C195.653 20.4097 195.028 20.111 194.234 20.111C193.455 20.111 192.834 20.4097 192.372 21.007C191.91 21.6043 191.679 22.4513 191.679 23.548C191.679 24.6587 191.91 25.5057 192.372 26.089C192.834 26.6723 193.455 26.964 194.234 26.964ZM200.228 19.082H202.139L204.967 24.941H204.841L207.669 19.082H209.517V28H208.173V20.545H208.39L205.338 26.943H204.463L201.425 20.58H201.558V28H200.228V19.082ZM212.232 28V19.082H217.832V20.23H213.562V22.946H217.58V24.094H213.562V26.838H217.832V28H212.232ZM220.258 28V19.082H223.45C224.49 19.082 225.281 19.3293 225.823 19.824C226.369 20.314 226.642 20.9603 226.642 21.763C226.642 22.5563 226.369 23.198 225.823 23.688C225.281 24.178 224.49 24.423 223.45 24.423H221.588V28H220.258ZM225.179 28L222.708 23.898H224.143L226.908 28H225.179ZM221.588 23.513H223.331C223.965 23.513 224.448 23.3613 224.78 23.058C225.111 22.75 225.277 22.3533 225.277 21.868C225.277 21.3687 225.12 20.972 224.808 20.678C224.5 20.3793 224.047 20.23 223.45 20.23H221.588V23.513ZM228.888 22.372L227.95 21.854C228.235 21.714 228.48 21.553 228.685 21.371C228.895 21.1843 229.033 20.972 229.098 20.734C228.86 20.7013 228.662 20.615 228.503 20.475C228.345 20.335 228.265 20.153 228.265 19.929C228.265 19.6863 228.356 19.4857 228.538 19.327C228.725 19.1637 228.954 19.082 229.224 19.082C229.453 19.082 229.649 19.1403 229.812 19.257C229.976 19.3737 230.099 19.53 230.183 19.726C230.272 19.9173 230.316 20.1273 230.316 20.356C230.316 20.748 230.188 21.1237 229.931 21.483C229.675 21.8377 229.327 22.134 228.888 22.372ZM235.312 28.182C234.705 28.182 234.147 28.0747 233.639 27.86C233.13 27.6407 232.719 27.3163 232.407 26.887C232.099 26.4577 231.938 25.921 231.924 25.277H233.226C233.226 25.6643 233.319 25.9817 233.506 26.229C233.697 26.4763 233.949 26.6607 234.262 26.782C234.574 26.8987 234.92 26.957 235.298 26.957C235.68 26.957 236.019 26.8987 236.313 26.782C236.607 26.6653 236.833 26.509 236.992 26.313C237.155 26.117 237.237 25.893 237.237 25.641C237.237 25.3003 237.132 25.0273 236.922 24.822C236.712 24.612 236.392 24.4347 235.963 24.29L234.304 23.674C233.59 23.408 233.046 23.1023 232.673 22.757C232.299 22.407 232.113 21.9217 232.113 21.301C232.113 20.5963 232.388 20.0247 232.939 19.586C233.489 19.1427 234.264 18.921 235.263 18.921C236.21 18.921 236.945 19.1403 237.468 19.579C237.995 20.0177 238.296 20.615 238.371 21.371H237.062C236.996 20.9883 236.817 20.685 236.523 20.461C236.233 20.237 235.813 20.125 235.263 20.125C234.731 20.125 234.315 20.2417 234.017 20.475C233.718 20.7037 233.569 20.993 233.569 21.343C233.569 21.6323 233.662 21.8633 233.849 22.036C234.04 22.2087 234.336 22.365 234.738 22.505L236.628 23.198C237.276 23.4267 237.783 23.7347 238.147 24.122C238.511 24.5093 238.693 25.0017 238.693 25.599C238.693 26.103 238.562 26.5487 238.301 26.936C238.039 27.3233 237.657 27.629 237.153 27.853C236.649 28.0723 236.035 28.182 235.312 28.182ZM244.416 28V19.082H245.746V28H244.416ZM248.476 19.082H250.387L253.215 24.941H253.089L255.917 19.082H257.765V28H256.421V20.545H256.638L253.586 26.943H252.711L249.673 20.58H249.806V28H248.476V19.082ZM259.472 28L262.524 19.082H264.169L267.13 28H265.73L265.037 25.872H261.593L260.872 28H259.472ZM261.929 24.85H264.708L263.322 20.685L261.929 24.85ZM272.026 28.182C271.307 28.182 270.656 27.9953 270.073 27.622C269.489 27.244 269.025 26.7143 268.68 26.033C268.334 25.347 268.162 24.542 268.162 23.618C268.162 22.8667 268.269 22.1993 268.484 21.616C268.703 21.0327 269.004 20.5403 269.387 20.139C269.774 19.7377 270.222 19.4343 270.731 19.229C271.239 19.0237 271.783 18.921 272.362 18.921C273.118 18.921 273.766 19.0797 274.308 19.397C274.849 19.7143 275.295 20.2183 275.645 20.909L274.329 21.287C274.049 20.8997 273.741 20.6103 273.405 20.419C273.069 20.223 272.7 20.125 272.299 20.125C271.809 20.125 271.356 20.2673 270.941 20.552C270.53 20.832 270.201 21.2333 269.954 21.756C269.706 22.274 269.583 22.8947 269.583 23.618C269.583 24.276 269.685 24.857 269.891 25.361C270.101 25.8603 270.395 26.2523 270.773 26.537C271.155 26.817 271.606 26.957 272.124 26.957C272.534 26.957 272.903 26.8637 273.23 26.677C273.556 26.4903 273.813 26.215 274 25.851C274.191 25.4823 274.287 25.0273 274.287 24.486H274.637C274.637 25.2373 274.546 25.8907 274.364 26.446C274.186 26.9967 273.906 27.4237 273.524 27.727C273.141 28.0303 272.642 28.182 272.026 28.182ZM274.497 28L274.287 25.956V24.444L272.145 24.388V23.513H275.575V28H274.497ZM278.035 28V19.082H283.635V20.23H279.365V22.946H283.383V24.094H279.365V26.838H283.635V28H278.035Z" fill="white"/>
</svg>
