<svg width="40" height="42" viewBox="0 0 40 42" fill="none" xmlns="http://www.w3.org/2000/svg">
<path d="M30.5 9.99248C30.1886 9.66479 29.7658 9.48063 29.325 9.48063C28.8841 9.48063 28.4613 9.66479 28.15 9.99248L20 18.5325L11.85 9.97498C11.5386 9.64729 11.1158 9.46313 10.675 9.46313C10.2341 9.46313 9.81134 9.64729 9.49995 9.97498C8.84995 10.6575 8.84995 11.76 9.49995 12.4425L17.65 21L9.49995 29.5575C8.84995 30.24 8.84995 31.3425 9.49995 32.025C10.15 32.7075 11.2 32.7075 11.85 32.025L20 23.4675L28.15 32.025C28.8 32.7075 29.85 32.7075 30.5 32.025C31.15 31.3425 31.15 30.24 30.5 29.5575L22.35 21L30.5 12.4425C31.1333 11.7775 31.1333 10.6575 30.5 9.99248Z" fill="black"/>
</svg>
