<svg width="65" height="65" viewBox="0 0 65 65" fill="none" xmlns="http://www.w3.org/2000/svg">
<circle cx="32.5" cy="32.5" r="32.5" fill="#F5F5F5"/>
<path d="M27.7863 42.3269H16.9512V50.328C16.9512 50.4706 17.0997 50.5646 17.2286 50.5036L18.5966 49.856C18.6471 49.832 18.7056 49.8311 18.757 49.8533L20.4817 50.6008C20.532 50.6226 20.5891 50.6221 20.639 50.5996L22.2902 49.8539C22.3402 49.8313 22.3974 49.8309 22.4478 49.8528L24.1617 50.5998C24.2131 50.6222 24.2718 50.6213 24.3225 50.5972L25.8856 49.8568C25.9369 49.8324 25.9964 49.8318 26.0483 49.8551L27.5125 50.5121C27.641 50.5698 27.7863 50.4757 27.7863 50.3348V42.3269H27.7863Z" fill="#F8F7F8"/>
<path d="M19.2661 44.851H27.7863V42.3269H16.9512V50.328C16.9512 50.4706 17.0997 50.5646 17.2286 50.5036L18.5966 49.856C18.6158 49.8469 18.6363 49.8421 18.657 49.8398C18.6931 49.8356 18.7297 49.8416 18.7632 49.8561L20.4817 50.6009C20.5319 50.6226 20.589 50.6222 20.6389 50.5997L22.2901 49.8539C22.3401 49.8314 22.3974 49.8309 22.4477 49.8529L24.1616 50.5998C24.2131 50.6223 24.2717 50.6214 24.3224 50.5973L25.8855 49.8568C25.9369 49.8325 25.9963 49.8319 26.0482 49.8551L27.5124 50.5122C27.641 50.5698 27.7863 50.4758 27.7863 50.3349V49.5251C27.7863 49.666 27.641 49.76 27.5124 49.7023L26.226 49.125C26.0613 49.0511 25.8725 49.0531 25.7093 49.1304L24.7235 49.5974C24.4179 49.7422 24.0647 49.7477 23.7548 49.6127L22.6404 49.1271C22.4674 49.0516 22.2704 49.053 22.0983 49.1306L21.1809 49.545C20.7858 49.7234 20.3337 49.7269 19.9359 49.5545L18.7568 49.0435C18.6975 49.018 18.659 48.9596 18.659 48.895V45.458C18.6591 45.1227 18.9309 44.851 19.2661 44.851V44.851Z" fill="#EFEDEE"/>
<path d="M35.5829 40.0594L35.1224 42.3636C34.9719 43.1163 34.2399 43.6044 33.4872 43.454C32.7346 43.3036 32.2464 42.5715 32.3968 41.8188L32.6933 40.3357L33.5935 35.3993L36.4622 36.0058L35.5829 40.0594Z" fill="#FFE6C6"/>
<path d="M33.2977 42.0912L33.5941 40.608L34.4943 35.6717L36.4452 36.0842L36.4622 36.0059L33.5935 35.3994L32.6933 40.3357L32.3968 41.8189C32.2464 42.5716 32.7346 43.3036 33.4872 43.454C33.6034 43.4773 33.7199 43.4849 33.833 43.4791C33.4159 43.1683 33.189 42.6351 33.2977 42.0912V42.0912Z" fill="#F8D3AA"/>
<path d="M37.678 43.3459C37.3852 43.8379 36.8058 44.1174 36.2123 43.9987C35.4597 43.8483 34.9715 43.1163 35.1219 42.3636L35.5825 40.0594L35.5899 40.0552L36.3863 35.3994L40.3695 36.4256L37.678 43.3459Z" fill="#FFE6C6"/>
<path d="M36.088 42.3887L36.5485 40.0845L36.556 40.0803L37.3157 35.6388L36.3863 35.3994L35.5899 40.0552L35.5825 40.0594L35.1219 42.3636C34.9715 43.1163 35.4597 43.8483 36.2123 43.9987C36.4621 44.0486 36.7103 44.0278 36.9348 43.9505C36.325 43.7065 35.9547 43.056 36.088 42.3887Z" fill="#F8D3AA"/>
<path d="M38.3373 32.1768L41.8221 28.712L46.5809 32.7217C48.6574 34.4716 49.7369 37.1346 49.4644 39.8362L48.8712 45.7115L49.6246 47.0292C49.7506 47.2494 49.6741 47.5301 49.4539 47.656L43.2306 51.2148C43.0103 51.3408 42.7297 51.2644 42.6037 51.0441L41.8555 49.736L41.3923 49.3351C38.9416 47.2163 37.4679 44.1836 37.3165 40.9467L37.1227 36.7952C37.1145 36.6193 37.0648 36.447 36.9772 36.2941L35.0744 32.9666C34.9296 32.7142 34.8613 32.4395 34.8613 32.1678C34.8613 31.608 35.1531 31.0646 35.6735 30.7669C36.4464 30.3244 37.4315 30.5924 37.874 31.366L38.3373 32.1768Z" fill="#FFE6C6"/>
<path d="M30.5907 40.7993C30.5907 42.2169 29.4415 43.3661 28.0238 43.3661H16.7134C15.2957 43.3661 14.1465 42.2169 14.1465 40.7993V17.1237C14.1465 15.706 15.2957 14.5568 16.7134 14.5568H28.0239C29.4416 14.5568 30.5908 15.706 30.5908 17.1237V40.7993H30.5907Z" fill="#D6D1D6"/>
<path d="M19.7737 41.4145C18.356 41.4145 17.2067 40.3132 17.2067 38.9548V16.2674C17.2067 15.6024 17.4825 14.9995 17.93 14.5568H16.7134C15.2957 14.5568 14.1465 15.706 14.1465 17.1237V40.7993C14.1465 42.2169 15.2957 43.3661 16.7134 43.3661H28.0239C29.2294 43.3661 30.2403 42.5349 30.516 41.4144H19.7737V41.4145Z" fill="#C7C0C7"/>
<path d="M28.3634 19.1048C28.3634 18.9172 28.2113 18.7652 28.0237 18.7652H16.7133C16.5257 18.7652 16.3735 18.9173 16.3735 19.1049V27.1126C16.3735 27.3002 16.5257 27.4523 16.7133 27.4523H27.8801C28.147 27.4523 28.3634 27.2359 28.3634 26.9691V19.1048Z" fill="#CFEFFC"/>
<path d="M19.0593 25.8739C18.4008 25.8739 17.867 25.3401 17.867 24.6816V18.7652H16.7133C16.5257 18.7652 16.3735 18.9173 16.3735 19.1049V27.1126C16.3735 27.3002 16.5257 27.4523 16.7133 27.4523H27.8801C28.147 27.4523 28.3634 27.2359 28.3634 26.9691V25.874H19.0593V25.8739Z" fill="#A9E4F9"/>
<path d="M23.0864 32.5405H21.6506C21.3908 32.5405 21.1802 32.3299 21.1802 32.07V30.8952C21.1802 30.6354 21.3908 30.4248 21.6506 30.4248H23.0864C23.3462 30.4248 23.5568 30.6354 23.5568 30.8952V32.07C23.5568 32.3299 23.3462 32.5405 23.0864 32.5405Z" fill="#F8F7F8"/>
<path d="M18.2797 32.5405H16.844C16.5842 32.5405 16.3735 32.3299 16.3735 32.07V30.8952C16.3735 30.6354 16.5842 30.4248 16.844 30.4248H18.2797C18.5396 30.4248 18.7502 30.6354 18.7502 30.8952V32.07C18.7501 32.3299 18.5395 32.5405 18.2797 32.5405Z" fill="#F8F7F8"/>
<path d="M23.0864 36.7689H21.6506C21.3908 36.7689 21.1802 36.5583 21.1802 36.2985V35.1237C21.1802 34.8638 21.3908 34.6532 21.6506 34.6532H23.0864C23.3462 34.6532 23.5568 34.8638 23.5568 35.1237V36.2985C23.5568 36.5583 23.3462 36.7689 23.0864 36.7689Z" fill="#F8F7F8"/>
<path d="M18.2797 36.7689H16.844C16.5842 36.7689 16.3735 36.5583 16.3735 36.2985V35.1237C16.3735 34.8638 16.5842 34.6532 16.844 34.6532H18.2797C18.5396 34.6532 18.7502 34.8638 18.7502 35.1237V36.2985C18.7501 36.5583 18.5395 36.7689 18.2797 36.7689Z" fill="#F8F7F8"/>
<path d="M26.4573 36.7689H27.893C28.1529 36.7689 28.3635 36.5583 28.3635 36.2985V35.1237C28.3635 34.8638 28.1529 34.6532 27.893 34.6532H26.4573C26.1974 34.6532 25.9868 34.8638 25.9868 35.1237V36.2985C25.9868 36.5583 26.1974 36.7689 26.4573 36.7689Z" fill="#D8EFA7"/>
<path d="M23.0864 40.9974H21.6506C21.3908 40.9974 21.1802 40.7868 21.1802 40.5269V39.3521C21.1802 39.0923 21.3908 38.8817 21.6506 38.8817H23.0864C23.3462 38.8817 23.5568 39.0923 23.5568 39.3521V40.5269C23.5568 40.7868 23.3462 40.9974 23.0864 40.9974Z" fill="#F8F7F8"/>
<path d="M18.2797 40.9974H16.844C16.5842 40.9974 16.3735 40.7868 16.3735 40.5269V39.3521C16.3735 39.0923 16.5842 38.8817 16.844 38.8817H18.2797C18.5396 38.8817 18.7502 39.0923 18.7502 39.3521V40.5269C18.7501 40.7868 18.5395 40.9974 18.2797 40.9974Z" fill="#F8F7F8"/>
<path d="M26.4573 40.9974H27.893C28.1529 40.9974 28.3635 40.7868 28.3635 40.5269V39.3521C28.3635 39.0923 28.1529 38.8817 27.893 38.8817H26.4573C26.1974 38.8817 25.9868 39.0923 25.9868 39.3521V40.5269C25.9868 40.7868 26.1974 40.9974 26.4573 40.9974Z" fill="#FBE88C"/>
<path d="M41.0776 38.3568C41.9568 37.9278 42.2901 36.8448 41.8044 35.9956L39.3041 31.6242L39.1551 31.3635L38.3604 32.1537L40.3343 38.7195L41.0776 38.3568Z" fill="#F8D3AA"/>
<path d="M43.6304 35.4568C44.4833 34.969 44.7793 33.8822 44.2915 33.0293L36.8873 20.0831C36.3995 19.2302 35.3127 18.9342 34.4598 19.422L25.5743 24.5038C24.7215 24.9915 24.4255 26.0783 24.9132 26.9313L32.3174 39.8775C32.8052 40.7304 33.892 41.0264 34.745 40.5386L43.6304 35.4568Z" fill="#F8F7F8"/>
<path d="M44.353 33.148L41.8157 34.5991C41.4786 34.7919 41.0491 34.6749 40.8563 34.3379L38.8407 30.8131C38.3563 29.9661 37.449 29.4399 36.4729 29.4399C35.9999 29.4399 35.5322 29.5646 35.1206 29.8002C34.2738 30.2846 33.7478 31.1918 33.7478 32.1677C33.7478 32.6414 33.8725 33.1093 34.1077 33.5194L36.0103 36.8471L36.0479 37.6519C36.0547 37.7989 35.9787 37.9374 35.8508 38.0105C34.998 38.4983 33.9443 38.2603 33.4975 37.479L26.7147 25.6193C26.3636 25.0054 26.4917 24.2389 26.9764 23.7019L25.5743 24.5038C24.7215 24.9915 24.4255 26.0783 24.9132 26.9312L32.3174 39.8775C32.8052 40.7303 33.892 41.0263 34.745 40.5386L43.6304 35.4568C44.4442 34.9914 44.7504 33.9806 44.353 33.148V33.148Z" fill="#EFEDEE"/>
<path d="M38.3373 32.1768L41.7834 38.0609L37.3215 41.055L37.1227 36.7952C37.1145 36.6193 37.0648 36.447 36.9772 36.2941L35.0744 32.9666C34.9296 32.7142 34.8613 32.4395 34.8613 32.1678C34.8613 31.608 35.1531 31.0646 35.6735 30.7669C36.4464 30.3244 37.4315 30.5924 37.874 31.366L38.3373 32.1768Z" fill="#FFE6C6"/>
<path d="M44.4518 50.3854L43.8655 49.3604C43.7584 49.1731 43.6203 49.0052 43.457 48.864L43.2403 48.6765C40.7896 46.5577 39.316 43.525 39.1645 40.2881L38.9708 36.1366C38.9626 35.9606 38.9128 35.7884 38.8252 35.6354L36.9225 32.308C36.7777 32.0556 36.7094 31.7809 36.7094 31.5091C36.7094 31.1991 36.799 30.8922 36.9673 30.6312C36.551 30.4973 36.0829 30.5327 35.6735 30.767C35.1531 31.0647 34.8613 31.6081 34.8613 32.1679C34.8613 32.4396 34.9296 32.7143 35.0744 32.9667L36.9772 36.2942C37.0648 36.4471 37.1145 36.6193 37.1227 36.7953L37.3165 40.9468C37.4679 44.1837 38.9416 47.2164 41.3923 49.3352L41.8555 49.7361L42.6037 51.0442C42.7297 51.2644 43.0103 51.3408 43.2306 51.2149L44.5211 50.4769C44.495 50.4498 44.4713 50.4195 44.4518 50.3854V50.3854Z" fill="#F8D3AA"/>
<path d="M24.1138 30.8952C24.1138 30.3289 23.653 29.8681 23.0865 29.8681H21.6508C21.0843 29.8681 20.6235 30.3289 20.6235 30.8952V32.07C20.6235 32.6365 21.0843 33.0973 21.6508 33.0973H23.0865C23.653 33.0973 24.1138 32.6365 24.1138 32.07V30.8952ZM23.0002 31.9837H21.7371V30.9816H23.0002V31.9837Z" fill="black"/>
<path d="M19.3071 30.8952C19.3071 30.3289 18.8463 29.8681 18.2798 29.8681H16.8442C16.2777 29.8681 15.8169 30.3289 15.8169 30.8952V32.07C15.8169 32.6365 16.2777 33.0973 16.8442 33.0973H18.2798C18.8463 33.0973 19.3071 32.6365 19.3071 32.07V30.8952ZM18.1935 31.9837H16.9305V30.9816H18.1935V31.9837Z" fill="black"/>
<path d="M24.1138 35.1237C24.1138 34.5572 23.653 34.0964 23.0865 34.0964H21.6508C21.0843 34.0964 20.6235 34.5572 20.6235 35.1237V36.2985C20.6235 36.8648 21.0843 37.3257 21.6508 37.3257H23.0865C23.653 37.3257 24.1138 36.8648 24.1138 36.2985V35.1237ZM23.0002 36.2121H21.7371V35.21H23.0002V36.2121Z" fill="black"/>
<path d="M19.3071 35.1237C19.3071 34.5572 18.8463 34.0964 18.2798 34.0964H16.8442C16.2777 34.0964 15.8169 34.5572 15.8169 35.1237V36.2985C15.8169 36.8648 16.2777 37.3257 16.8442 37.3257H18.2798C18.8463 37.3257 19.3071 36.8648 19.3071 36.2985V35.1237ZM18.1935 36.2121H16.9305V35.21H18.1935V36.2121Z" fill="black"/>
<path d="M23.0865 38.3249H21.6508C21.0843 38.3249 20.6235 38.7857 20.6235 39.3522V40.527C20.6235 41.0934 21.0843 41.5542 21.6508 41.5542H23.0865C23.653 41.5542 24.1138 41.0934 24.1138 40.527V39.3522C24.1137 38.7857 23.6529 38.3249 23.0865 38.3249ZM23.0001 40.4405H21.7371V39.4385H23.0001V40.4405Z" fill="black"/>
<path d="M18.2798 38.3249H16.8442C16.2777 38.3249 15.8169 38.7857 15.8169 39.3522V40.527C15.8169 41.0934 16.2777 41.5542 16.8442 41.5542H18.2798C18.8463 41.5542 19.3071 41.0934 19.3071 40.527V39.3522C19.3071 38.7857 18.8463 38.3249 18.2798 38.3249V38.3249ZM18.1935 40.4405H16.9305V39.4385H18.1935V40.4405Z" fill="black"/>
<path d="M26.4574 41.5542H27.8931C28.4596 41.5542 28.9204 41.0934 28.9204 40.5269V39.3521C28.9204 38.7857 28.4596 38.3249 27.8931 38.3249H26.4574C25.891 38.3249 25.4302 38.7857 25.4302 39.3521V40.5269C25.4302 41.0934 25.891 41.5542 26.4574 41.5542ZM26.5438 39.4385H27.8068V40.4406H26.5438V39.4385Z" fill="black"/>
<path d="M50.3362 47.1512L49.4433 45.5899L50.0181 39.8921C50.3093 37.0053 49.1586 34.1656 46.9399 32.2959L42.2564 28.3495L37.3707 19.8066C37.0609 19.2651 36.5588 18.8765 35.9568 18.7126C35.3548 18.5487 34.725 18.6289 34.1835 18.9387L31.1477 20.6749V17.1237C31.1477 15.4013 29.7464 14 28.024 14H16.7136C14.9911 14 13.5898 15.4013 13.5898 17.1237V40.7993C13.5898 42.414 14.8213 43.7465 16.3944 43.9068V50.3279C16.3944 50.5868 16.525 50.824 16.7438 50.9625C16.9627 51.101 17.233 51.1175 17.467 51.0067L18.6864 50.4294L20.2606 51.1116C20.3557 51.1528 20.4573 51.1733 20.559 51.1733C20.6646 51.1733 20.7701 51.1512 20.8683 51.1069L22.3728 50.4274L23.9392 51.1099C24.1381 51.1966 24.3648 51.1932 24.5609 51.1003L25.9729 50.4314L27.2846 51.02C27.518 51.1247 27.7855 51.1043 28.0003 50.9652C28.215 50.8262 28.3432 50.5905 28.3432 50.3347V43.9068C29.9163 43.7465 31.1478 42.414 31.1478 40.7993V38.9535L31.8343 40.1538C31.9086 40.2838 31.9942 40.4047 32.0894 40.516L31.8508 41.7096C31.7489 42.2195 31.8517 42.7384 32.1401 43.171C32.4286 43.6036 32.8682 43.898 33.378 43.9999C33.5065 44.0255 33.6355 44.0382 33.7635 44.0382C34.1439 44.0382 34.5158 43.9264 34.8394 43.7106C34.8451 43.7068 34.8504 43.7028 34.856 43.699C35.1319 44.1218 35.5705 44.4382 36.1035 44.5447C36.2301 44.57 36.3571 44.5823 36.483 44.5823C36.8058 44.5823 37.1206 44.5008 37.4004 44.3512C38.1031 46.4263 39.35 48.3056 41.0281 49.7565L41.4195 50.0949L42.3486 51.7194C42.4515 51.8992 42.6393 51.9999 42.8325 51.9999C42.9262 51.9999 43.0212 51.9762 43.1084 51.9264C43.3753 51.7737 43.468 51.4335 43.3153 51.1666L42.3391 49.4595C42.3078 49.4049 42.2676 49.3559 42.2199 49.3147L41.7566 48.9141C39.4319 46.9041 38.0164 43.9908 37.8731 40.921L37.6793 36.7697C37.667 36.5066 37.5915 36.2466 37.4606 36.0177L35.5577 32.6905C35.4177 32.4458 35.3814 32.1611 35.4556 31.889C35.5297 31.6169 35.7053 31.39 35.9501 31.25C36.1949 31.11 36.4794 31.0736 36.7516 31.1479C37.0237 31.222 37.2507 31.3976 37.3906 31.6423L38.4539 33.5015C38.6066 33.7684 38.9468 33.861 39.2136 33.7084C39.4806 33.5557 39.5732 33.2156 39.4206 32.9487L38.3574 31.0895C38.0697 30.5866 37.6034 30.2257 37.0443 30.0734C36.4852 29.9212 35.9003 29.9958 35.3973 30.2834C34.359 30.8773 33.9973 32.2052 34.5912 33.2435L36.494 36.5706C36.5377 36.647 36.5629 36.7338 36.567 36.8216L36.6595 38.8023L34.4687 40.0552C34.1853 40.2173 33.8558 40.2594 33.5408 40.1735C33.2258 40.0878 32.9631 39.8844 32.801 39.601L28.4213 31.9432C28.2686 31.6762 27.9283 31.5835 27.6615 31.7362C27.3946 31.8889 27.302 32.2291 27.4546 32.496L28.4727 34.2762C28.3077 34.163 28.1082 34.0965 27.8934 34.0965H26.4577C25.8912 34.0965 25.4304 34.5573 25.4304 35.1238V36.2985C25.4304 36.8649 25.8912 37.3257 26.4577 37.3257H27.8934C28.4598 37.3257 28.9206 36.8649 28.9206 36.2985V35.1238C28.9206 35.0999 28.9186 35.0765 28.9171 35.0531L30.0342 37.0065V40.7994C30.0342 41.9078 29.1325 42.8095 28.0242 42.8095H16.7136C15.6052 42.8095 14.7034 41.9078 14.7034 40.7994V17.1237C14.7034 16.0153 15.6052 15.1136 16.7136 15.1136H28.024C29.1324 15.1136 30.0341 16.0153 30.0341 17.1237V21.3118L28.9205 21.9487V19.1048C28.9205 18.6105 28.5183 18.2084 28.024 18.2084H16.7136C16.2192 18.2084 15.8171 18.6105 15.8171 19.1049V21.4812C15.8171 21.7887 16.0664 22.038 16.3739 22.038C16.6814 22.038 16.9307 21.7887 16.9307 21.4812V19.322H27.8069V22.5855L25.298 24.0204C24.2818 24.6016 23.8678 25.8358 24.281 26.8955H16.9307V23.8541C16.9307 23.5466 16.6814 23.2973 16.3739 23.2973C16.0664 23.2973 15.8171 23.5466 15.8171 23.8541V27.1126C15.8171 27.6069 16.2192 28.0091 16.7136 28.0091H24.8883L26.2765 30.4362C26.4292 30.7031 26.7693 30.7958 27.0363 30.6431C27.3032 30.4905 27.3958 30.1503 27.2432 29.8834L25.3967 26.6549C25.0621 26.0699 25.2659 25.3217 25.8509 24.9872L34.7364 19.9054C35.0198 19.7434 35.3492 19.7013 35.6642 19.7872C35.9793 19.8729 36.242 20.0763 36.4041 20.3597L43.8082 33.3059C43.9703 33.5893 44.0123 33.9188 43.9265 34.2338C43.8407 34.5488 43.6374 34.8115 43.3541 34.9736L41.2626 36.1697L40.5985 35.0084C40.4458 34.7414 40.1055 34.6488 39.8387 34.8015C39.5718 34.9541 39.4792 35.2943 39.6318 35.5613L41.1339 38.1877C41.2367 38.3674 41.4246 38.4681 41.6177 38.4681C41.7115 38.4681 41.8065 38.4445 41.8937 38.3946C42.1606 38.2419 42.2532 37.9018 42.1006 37.6348L41.8155 37.1363L43.9069 35.9403C44.4485 35.6305 44.8371 35.1284 45.001 34.5264C45.1649 33.9245 45.0846 33.2946 44.7749 32.753L43.8641 31.1606L46.2223 33.1477C48.1596 34.7802 49.1645 37.2598 48.9102 39.7804L48.3175 45.6557C48.3058 45.7712 48.3305 45.8873 48.3882 45.9881L49.3697 47.7043C49.4725 47.884 49.6603 47.9848 49.8535 47.9848C49.9473 47.9848 50.0422 47.9611 50.1295 47.9112C50.3964 47.7584 50.4889 47.4182 50.3362 47.1512V47.1512ZM36.7607 40.973C36.7963 41.734 36.9035 42.486 37.0767 43.2201C36.8828 43.4166 36.5997 43.5082 36.3218 43.4528C35.8715 43.3628 35.5783 42.9232 35.6683 42.4728L36.0792 40.417L36.7176 40.0518L36.7607 40.973ZM33.8656 41.3311C34.1863 41.3311 34.5034 41.2634 34.8006 41.1322L34.5763 42.2545C34.5327 42.4726 34.4067 42.6607 34.2216 42.7842C34.0365 42.9077 33.8144 42.9516 33.5963 42.9079C33.3782 42.8644 33.19 42.7384 33.0666 42.5533C32.9431 42.3682 32.8992 42.1462 32.9428 41.928L33.0888 41.1978C33.1411 41.2161 33.1941 41.2332 33.2481 41.248C33.4522 41.3036 33.6595 41.3311 33.8656 41.3311V41.3311ZM27.8069 36.2121H26.5439V35.21H27.8069V36.2121ZM27.2295 49.7747L26.2761 49.3469C26.0754 49.2569 25.8463 49.2592 25.6471 49.3534L24.2331 50.0233L22.6703 49.3422C22.4762 49.2576 22.2541 49.259 22.061 49.3463L20.556 50.026L18.9785 49.3424C18.8831 49.3011 18.7815 49.2804 18.6798 49.2804C18.5699 49.2804 18.46 49.3046 18.3583 49.3527L17.508 49.7553V43.923H27.2295V49.7747Z" fill="black"/>
<path d="M34.9608 24.0686C35.0416 23.7719 34.8666 23.4659 34.5698 23.3851C33.4735 23.0866 32.3264 23.2328 31.3399 23.7969C30.3536 24.3611 29.6459 25.2756 29.3473 26.372C29.2666 26.6688 29.4415 26.9748 29.7383 27.0555C29.7873 27.0689 29.8365 27.0753 29.8849 27.0753C30.1298 27.0753 30.3543 26.9124 30.4218 26.6647C30.6422 25.8552 31.1647 25.1801 31.8928 24.7637C32.621 24.3472 33.4677 24.2392 34.2773 24.4597C34.5739 24.5404 34.88 24.3653 34.9608 24.0686V24.0686Z" fill="black"/>
<path d="M33.6916 26.6091C33.9881 26.6898 34.2943 26.5149 34.3752 26.2183C34.456 25.9216 34.281 25.6155 33.9843 25.5347C33.4617 25.3923 32.9151 25.4617 32.4455 25.7301C31.976 25.9986 31.6391 26.4344 31.4967 26.9573C31.416 27.254 31.591 27.56 31.8877 27.6408C31.9367 27.6541 31.9859 27.6605 32.0343 27.6605C32.2792 27.6605 32.5037 27.4976 32.5712 27.2499C32.6354 27.014 32.7872 26.8177 32.9984 26.6968C33.2096 26.5761 33.4558 26.5449 33.6916 26.6091V26.6091Z" fill="black"/>
<path d="M33.4743 28.6505C33.5771 28.8302 33.7649 28.9309 33.9581 28.9309C34.0519 28.9309 34.1468 28.9072 34.2341 28.8574C34.501 28.7047 34.5936 28.3646 34.441 28.0976L34.256 27.7742C34.1033 27.5072 33.7632 27.4146 33.4963 27.5673C33.2294 27.7199 33.1367 28.0601 33.2894 28.3271L33.4743 28.6505Z" fill="black"/>
</svg>
