<svg width="65" height="65" viewBox="0 0 65 65" fill="none" xmlns="http://www.w3.org/2000/svg">
<circle cx="32.5" cy="32.5" r="32.5" fill="#F5F5F5"/>
<g clip-path="url(#clip0_1_4095)">
<path d="M45.5691 48.3601C42.9017 48.3601 40.7417 47.5513 40.7417 46.5498V48.9635C40.7417 49.965 42.9017 50.7738 45.5691 50.7738C48.2362 50.7738 50.3966 49.965 50.3966 48.9635V46.5498C50.3966 47.5513 48.2362 48.3601 45.5691 48.3601Z" fill="#FF9811"/>
<path d="M45.5691 43.5326C42.9017 43.5326 40.7417 42.7238 40.7417 41.7223V44.136C40.7417 45.1375 42.9017 45.9463 45.5691 45.9463C48.2362 45.9463 50.3966 45.1375 50.3966 44.136V41.7223C50.3966 42.7238 48.2362 43.5326 45.5691 43.5326Z" fill="#FFA733"/>
<path d="M45.5691 41.1189C42.9017 41.1189 40.7417 40.3101 40.7417 39.3086V41.7223C40.7417 42.7238 42.9017 43.5326 45.5691 43.5326C48.2362 43.5326 50.3966 42.7238 50.3966 41.7223V39.3086C50.3966 40.3101 48.2362 41.1189 45.5691 41.1189Z" fill="#FFB655"/>
<path d="M45.5691 45.9463C42.9017 45.9463 40.7417 45.1375 40.7417 44.136V46.5498C40.7417 47.5513 42.9017 48.3601 45.5691 48.3601C48.2362 48.3601 50.3966 47.5513 50.3966 46.5498V44.136C50.3966 45.1375 48.2362 45.9463 45.5691 45.9463Z" fill="#FFB655"/>
<path d="M45.5691 33.8777C42.9017 33.8777 40.7417 33.0689 40.7417 32.0674V34.4812C40.7417 35.4827 42.9017 36.2915 45.5691 36.2915C48.2362 36.2915 50.3966 35.4827 50.3966 34.4812V32.0674C50.3966 33.0689 48.2362 33.8777 45.5691 33.8777V33.8777Z" fill="#FFC477"/>
<path d="M45.5691 38.7052C42.9017 38.7052 40.7417 37.8964 40.7417 36.8949V39.3086C40.7417 40.3101 42.9017 41.1189 45.5691 41.1189C48.2362 41.1189 50.3966 40.3101 50.3966 39.3086V36.8949C50.3966 37.8964 48.2362 38.7052 45.5691 38.7052Z" fill="#FFC477"/>
<path d="M45.5691 36.2915C42.9017 36.2915 40.7417 35.4827 40.7417 34.4812V36.8949C40.7417 37.8964 42.9017 38.7052 45.5691 38.7052C48.2362 38.7052 50.3966 37.8964 50.3966 36.8949V34.4812C50.3966 35.4827 48.2362 36.2915 45.5691 36.2915Z" fill="#FFB655"/>
<path d="M45.5691 31.464C42.9032 31.464 40.7417 30.6535 40.7417 29.6537V32.0675C40.7417 33.069 42.9017 33.8778 45.5691 33.8778C48.2362 33.8778 50.3966 33.069 50.3966 32.0675V29.6537C50.3966 30.6535 48.2351 31.464 45.5691 31.464Z" fill="#FFB655"/>
<path d="M20.2254 50.7738C22.8925 50.7738 25.0528 49.965 25.0528 48.9635V46.5498C25.0528 47.5513 22.8925 48.3601 20.2254 48.3601C17.558 48.3601 15.3979 47.5513 15.3979 46.5498V48.9635C15.3979 49.965 17.558 50.7738 20.2254 50.7738Z" fill="#FF6243"/>
<path d="M32.8973 45.9463C30.2299 45.9463 28.0698 45.1375 28.0698 44.136V46.5498C28.0698 47.5513 30.2299 48.3601 32.8973 48.3601C35.5644 48.3601 37.7247 47.5513 37.7247 46.5498V44.136C37.7247 45.1375 35.5644 45.9463 32.8973 45.9463Z" fill="#FFA733"/>
<path d="M32.8973 43.5326C30.2299 43.5326 28.0698 42.7238 28.0698 41.7223V44.136C28.0698 45.1375 30.2299 45.9463 32.8973 45.9463C35.5644 45.9463 37.7247 45.1375 37.7247 44.136V41.7223C37.7247 42.7238 35.5644 43.5326 32.8973 43.5326Z" fill="#FF9811"/>
<path d="M32.8973 38.7052C30.2313 38.7052 28.0698 37.8946 28.0698 36.8949V39.3086C28.0698 40.3101 30.2299 41.1189 32.8973 41.1189C35.5644 41.1189 37.7247 40.3101 37.7247 39.3086V36.8949C37.7247 37.8946 35.5632 38.7052 32.8973 38.7052Z" fill="#FFB655"/>
<path d="M32.8973 41.1189C30.2299 41.1189 28.0698 40.3101 28.0698 39.3086V41.7223C28.0698 42.7238 30.2299 43.5326 32.8973 43.5326C35.5644 43.5326 37.7247 42.7238 37.7247 41.7223V39.3086C37.7247 40.3101 35.5644 41.1189 32.8973 41.1189Z" fill="#FFA733"/>
<path d="M20.2254 48.3601C22.8925 48.3601 25.0528 47.5513 25.0528 46.5498V44.136C25.0528 45.1375 22.8925 45.9463 20.2254 45.9463C17.558 45.9463 15.3979 45.1375 15.3979 44.136V46.5498C15.3979 47.5513 17.558 48.3601 20.2254 48.3601Z" fill="#FF9478"/>
<path d="M20.2254 45.9463C22.8925 45.9463 25.0528 45.1375 25.0528 44.136V41.7223C25.0528 42.722 22.8913 43.5326 20.2254 43.5326C17.5595 43.5326 15.3979 42.722 15.3979 41.7223V44.136C15.3979 45.1375 17.558 45.9463 20.2254 45.9463Z" fill="#FF7956"/>
<path d="M32.8973 48.3601C30.2299 48.3601 28.0698 47.5513 28.0698 46.5498V48.9635C28.0698 49.965 30.2299 50.7738 32.8973 50.7738C35.5644 50.7738 37.7247 49.965 37.7247 48.9635V46.5498C37.7247 47.5513 35.5644 48.3601 32.8973 48.3601Z" fill="#FF9811"/>
<path d="M25.0528 41.7223C25.0528 40.7226 22.8913 39.912 20.2254 39.912C17.5592 39.912 15.3979 40.7226 15.3979 41.7223C15.3979 42.7221 17.5592 43.5326 20.2254 43.5326C22.8913 43.5326 25.0528 42.7221 25.0528 41.7223Z" fill="#FF9478"/>
<path d="M37.7247 36.8949C37.7247 35.8952 35.5632 35.0846 32.8973 35.0846C30.231 35.0846 28.0698 35.8952 28.0698 36.8949C28.0698 37.8946 30.231 38.7052 32.8973 38.7052C35.5632 38.7052 37.7247 37.8946 37.7247 36.8949Z" fill="#FFA733"/>
<path d="M50.3966 29.6537C50.3966 28.654 48.2351 27.8434 45.5691 27.8434C42.9029 27.8434 40.7417 28.654 40.7417 29.6537C40.7417 30.6535 42.9029 31.464 45.5691 31.464C48.2351 31.464 50.3966 30.6535 50.3966 29.6537Z" fill="#FFA733"/>
<path d="M44.3624 15.1714V16.3783H48.94L37.4748 27.8434H24.8258L15 36.4405L15.7952 37.3492L25.2795 29.0503H37.9745L49.7932 17.2316V21.8091H51.0001V15.1714H44.3624Z" fill="#5EAC24"/>
</g>
<defs>
<clipPath id="clip0_1_4095">
<rect width="36" height="36" fill="white" transform="translate(15 15)"/>
</clipPath>
</defs>
</svg>
