<svg width="65" height="65" viewBox="0 0 65 65" fill="none" xmlns="http://www.w3.org/2000/svg">
<circle cx="32.5" cy="32.5" r="32.5" fill="#F5F5F5"/>
<path d="M44.6344 37.9851L33.9209 31.7591C33.8056 31.6921 33.6979 31.6118 33.5986 31.5187L44.3121 37.7447C44.4114 37.8378 44.5191 37.9181 44.6344 37.9851V37.9851Z" fill="#FFD69A"/>
<path d="M39.108 22.8182L49.8215 29.0442C49.1569 28.658 48.2378 28.7123 47.2253 29.2969C47.0173 29.417 46.8094 29.5608 46.6085 29.7167L35.895 23.4907C36.096 23.3348 36.3039 23.191 36.5118 23.0709C37.5244 22.4863 38.4434 22.432 39.108 22.8182V22.8182Z" fill="#56707B"/>
<path d="M43.7958 29.3816L33.0823 23.1557C34.3757 23.9073 35.3203 23.7552 35.895 23.4907L46.6085 29.7167C46.0338 29.9812 45.0892 30.1333 43.7958 29.3816Z" fill="#56707B"/>
<path d="M27.1678 48.7565L16.462 42.535C16.3969 42.4915 16.3535 42.4481 16.3209 42.3717C16.0929 41.8617 15.854 41.0256 15.8323 40.9715L26.5489 47.2036C26.5597 47.2471 26.8095 48.0943 27.0375 48.6043C27.0701 48.6695 27.1135 48.7236 27.1678 48.7565Z" fill="#40545D"/>
<path d="M50.8051 32.3612C50.5228 34.1637 49.3502 36.1508 47.917 37.2689C47.689 37.4428 47.4609 37.6055 47.2438 37.7248C46.6575 38.0615 46.1146 38.2242 45.626 38.2354C45.1048 38.2354 44.6597 38.0721 44.3122 37.7466C41.9127 38.0074 39.7411 38.8429 37.8736 39.9181C33.6825 42.3505 30.9572 45.9662 30.3275 46.8781C30.2297 47.0191 30.1103 47.1278 29.9909 47.2148L27.6782 48.6913C27.385 48.8652 27.1353 48.8217 27.0375 48.6043C26.8096 48.0943 26.5598 47.2471 26.5489 47.2036C26.0169 47.5079 25.8541 47.2036 25.8432 47.193C24.9095 45.7812 26.006 43.501 26.0604 43.3711C35.7563 34.1855 43.1613 29.484 43.5522 29.2343C44.9745 30.1567 45.9952 29.994 46.6032 29.7119C46.8095 29.5598 47.0158 29.4188 47.2221 29.2995C49.5022 27.9852 51.3046 29.3424 50.8051 32.3612V32.3612Z" fill="#485F69"/>
<path d="M25.9518 47.2906L15.2352 41.0691C15.1701 41.0256 15.1375 40.9715 15.1375 40.9715C14.2037 39.5491 15.2895 37.2689 15.3438 37.1496L26.0604 43.3711C26.0061 43.501 24.9095 45.7812 25.8433 47.193C25.8541 47.2036 25.8758 47.2577 25.9518 47.2906Z" fill="#56707B"/>
<path d="M26.0594 43.3763L15.3459 37.1503C25.041 27.9621 32.4487 23.2535 32.8386 23.0057L43.552 29.2317C43.1622 29.4795 35.7545 34.1881 26.0594 43.3763V43.3763Z" fill="#778C95"/>
<path d="M41.0767 29.5927C40.5773 29.9399 40.0018 30.3524 39.3395 30.8412C37.9171 31.8618 36.1364 33.2084 34.0952 34.8694L28.1017 31.6661L25.4958 30.2766C25.7999 30.0375 26.093 29.7989 26.3862 29.5815C27.0594 29.0386 27.6891 28.5504 28.2754 28.105C28.688 27.8007 29.0789 27.5081 29.4372 27.2366C31.0225 26.0639 32.2059 25.2602 32.8682 24.826L36.1582 26.7367L37.3634 27.4317L39.3937 28.615L41.0767 29.5927Z" fill="#4BB5E7"/>
<path d="M24.9204 44.6954V45.629L15.4851 40.179V39.2448L15.7673 39.4081L24.9204 44.6954Z" fill="#485F69"/>
<path d="M24.9204 44.6954V45.2494L15.7673 39.9616V39.4081L24.9204 44.6954Z" fill="#35484F"/>
<path d="M27.204 32.2153L27.2736 32.7155L25.8272 33.8334L25.7576 33.3332L27.204 32.2153Z" fill="#40545D"/>
<path d="M25.7575 33.3332L25.8271 33.8334L22.9937 32.3653L22.9241 31.8651L25.7575 33.3332Z" fill="#485F69"/>
<path d="M27.204 32.2153L25.7575 33.3332L22.9241 31.8651L24.3705 30.7473L27.204 32.2153Z" fill="#56707B"/>
<path d="M30.4318 33.8877L30.5014 34.3879L29.0549 35.5058L28.9854 35.0055L30.4318 33.8877Z" fill="#40545D"/>
<path d="M28.9853 35.0056L29.0549 35.5058L26.2214 34.0377L26.1519 33.5375L28.9853 35.0056Z" fill="#485F69"/>
<path d="M30.4318 33.8877L28.9853 35.0056L26.1519 33.5375L27.5983 32.4197L30.4318 33.8877Z" fill="#56707B"/>
<path d="M33.6598 35.5601L33.7294 36.0603L32.283 37.1781L32.2134 36.6779L33.6598 35.5601Z" fill="#40545D"/>
<path d="M32.2133 36.6779L32.2829 37.1781L29.4495 35.7101L29.3799 35.2099L32.2133 36.6779Z" fill="#485F69"/>
<path d="M33.6598 35.5601L32.2133 36.6779L29.3799 35.2099L30.8263 34.0921L33.6598 35.5601Z" fill="#56707B"/>
<path d="M25.1662 33.7902L25.2358 34.2904L23.7891 35.4084L23.7195 34.9082L25.1662 33.7902Z" fill="#40545D"/>
<path d="M23.7194 34.9082L23.789 35.4084L20.9556 33.9404L20.886 33.4402L23.7194 34.9082Z" fill="#485F69"/>
<path d="M25.1661 33.7902L23.7194 34.9082L20.886 33.4402L22.3327 32.3222L25.1661 33.7902Z" fill="#56707B"/>
<path d="M28.3939 35.4626L28.4635 35.9628L27.0169 37.0808L26.9473 36.5806L28.3939 35.4626Z" fill="#40545D"/>
<path d="M26.9472 36.5806L27.0168 37.0808L24.1834 35.6128L24.1138 35.1126L26.9472 36.5806Z" fill="#485F69"/>
<path d="M28.3939 35.4626L26.9472 36.5806L24.1138 35.1126L25.5605 33.9946L28.3939 35.4626Z" fill="#56707B"/>
<path d="M31.622 37.135L31.6916 37.6352L30.2449 38.7532L30.1753 38.253L31.622 37.135Z" fill="#40545D"/>
<path d="M30.1753 38.253L30.2448 38.7532L27.4114 37.2851L27.3418 36.7849L30.1753 38.253Z" fill="#485F69"/>
<path d="M31.6219 37.135L30.1753 38.253L27.3418 36.785L28.7885 35.6669L31.6219 37.135Z" fill="#56707B"/>
<path d="M23.1242 35.3683L23.1938 35.8685L21.7473 36.9863L21.6777 36.4861L23.1242 35.3683Z" fill="#40545D"/>
<path d="M21.6777 36.4861L21.7473 36.9863L18.9138 35.5183L18.8442 35.0181L21.6777 36.4861Z" fill="#485F69"/>
<path d="M23.1242 35.3683L21.6777 36.4861L18.8442 35.0181L20.2907 33.9003L23.1242 35.3683Z" fill="#56707B"/>
<path d="M26.352 37.0407L26.4216 37.5409L24.9751 38.6587L24.9055 38.1585L26.352 37.0407Z" fill="#40545D"/>
<path d="M24.9055 38.1585L24.9751 38.6587L22.1416 37.1907L22.072 36.6905L24.9055 38.1585Z" fill="#485F69"/>
<path d="M26.3519 37.0407L24.9055 38.1585L22.072 36.6905L23.5185 35.5726L26.3519 37.0407Z" fill="#56707B"/>
<path d="M29.5798 38.7131L29.6494 39.2133L28.2029 40.3311L28.1333 39.8309L29.5798 38.7131Z" fill="#40545D"/>
<path d="M28.1333 39.8309L28.2029 40.3311L25.3694 38.8631L25.2998 38.3629L28.1333 39.8309Z" fill="#485F69"/>
<path d="M29.5797 38.7131L28.1333 39.8309L25.2998 38.3628L26.7463 37.245L29.5797 38.7131Z" fill="#56707B"/>
<path d="M21.0863 36.9432L21.1559 37.4434L19.7092 38.5614L19.6396 38.0612L21.0863 36.9432Z" fill="#CB4844"/>
<path d="M19.6396 38.0612L19.7092 38.5614L16.8758 37.0934L16.8062 36.5932L19.6396 38.0612Z" fill="#EE5550"/>
<path d="M21.0863 36.9432L19.6396 38.0612L16.8062 36.5932L18.2528 35.4752L21.0863 36.9432Z" fill="#F17572"/>
<path d="M24.3141 38.6156L24.3837 39.1158L22.937 40.2338L22.8674 39.7336L24.3141 38.6156Z" fill="#269DD6"/>
<path d="M22.8674 39.7336L22.937 40.2338L20.1035 38.7657L20.0339 38.2655L22.8674 39.7336Z" fill="#4BB5E7"/>
<path d="M24.3141 38.6156L22.8674 39.7336L20.0339 38.2655L21.4806 37.1475L24.3141 38.6156Z" fill="#78CFE2"/>
<path d="M27.5419 40.2879L27.6115 40.7881L26.1648 41.9062L26.0952 41.406L27.5419 40.2879Z" fill="#D8B441"/>
<path d="M26.0952 41.4059L26.1648 41.9062L23.3313 40.4381L23.2617 39.9379L26.0952 41.4059Z" fill="#FED44C"/>
<path d="M27.5418 40.2879L26.0952 41.406L23.2617 39.9379L24.7084 38.8199L27.5418 40.2879Z" fill="#FEE182"/>
<path d="M47.0474 29.1734L47.1641 29.1152C48.0725 28.5903 48.981 28.565 49.6727 28.9569L39.188 22.8644C38.4962 22.4644 37.5878 22.4977 36.6793 23.0227L36.5626 23.0809C36.5565 23.0846 36.5344 23.1004 36.5205 23.1098L47.0096 29.2003C47.0214 29.1917 47.0419 29.1771 47.0474 29.1734V29.1734Z" fill="#485F69"/>
<path d="M46.8224 28.39C46.6724 28.4983 46.3224 28.7652 46.3224 28.7652L37.4128 23.5896C37.4212 23.581 37.5795 23.4476 37.5879 23.4476C37.6045 23.4313 37.6962 23.3645 37.9045 23.2144L46.8224 28.39Z" fill="#40545D"/>
<path d="M46.4898 28.486L37.8784 23.4283C37.8699 20.4108 40.0001 16.7186 42.6284 15.2011L51.2397 20.2588C48.6114 21.7762 46.4812 25.4685 46.4898 28.486Z" fill="#DDE4E7"/>
<path d="M51.2397 20.2588L51.2399 20.3309C48.6475 21.8277 46.5441 25.4709 46.5526 28.4497L46.4898 28.486C46.4812 25.4685 48.6114 21.7762 51.2397 20.2588Z" fill="#CFD8DD"/>
<path d="M25.085 30.0565L25.4938 30.275C29.0835 27.4036 31.7316 25.5798 32.8682 24.827V24.2831C31.6878 25.0651 28.8883 26.9895 25.085 30.0565V30.0565Z" fill="#485F69"/>
<path d="M32.8682 24.2831V24.827L41.0727 29.5953C41.2194 29.4935 41.3689 29.3891 41.5001 29.2995L32.8682 24.2831Z" fill="#56707B"/>
<path d="M37.3633 27.4317L28.2754 28.105C28.688 27.8007 29.0789 27.508 29.4372 27.2366L36.1581 26.7367L37.3633 27.4317Z" fill="#61C4F0"/>
<path d="M41.0767 29.5927C40.5773 29.9399 40.0018 30.3524 39.3395 30.8412L28.1017 31.6661L25.4958 30.2766C25.7999 30.0375 26.093 29.7989 26.3862 29.5815L39.3937 28.615L41.0767 29.5927Z" fill="#61C4F0"/>
<path d="M44.3124 37.7466C41.9128 38.0074 39.7413 38.8429 37.8738 39.9181C33.6826 42.3505 30.9574 45.9662 30.3276 46.8781C30.2299 47.0191 30.1104 47.1278 29.991 47.2147L27.6783 48.6913C27.3851 48.8651 27.1354 48.8217 27.0377 48.6043C26.8097 48.0943 26.5599 47.2471 26.5491 47.2036C26.5491 47.2036 34.4318 34.9998 44.3124 37.7466V37.7466Z" fill="#778C95"/>
</svg>
