<svg width="16" height="16" viewBox="0 0 16 16" fill="none" xmlns="http://www.w3.org/2000/svg">
<path d="M1.3335 7.63999V10.9733C1.3335 12.5 2.56683 13.7333 4.0935 13.7333H11.9002C13.4268 13.7333 14.6668 12.4933 14.6668 10.9667V7.63999C14.6668 7.19333 14.3068 6.83333 13.8602 6.83333H2.14016C1.6935 6.83333 1.3335 7.19333 1.3335 7.63999ZM5.3335 11.5H4.00016C3.72683 11.5 3.50016 11.2733 3.50016 11C3.50016 10.7267 3.72683 10.5 4.00016 10.5H5.3335C5.60683 10.5 5.8335 10.7267 5.8335 11C5.8335 11.2733 5.60683 11.5 5.3335 11.5ZM9.66683 11.5H7.00016C6.72683 11.5 6.50016 11.2733 6.50016 11C6.50016 10.7267 6.72683 10.5 7.00016 10.5H9.66683C9.94016 10.5 10.1668 10.7267 10.1668 11C10.1668 11.2733 9.94016 11.5 9.66683 11.5Z" fill="#8791A3"/>
<path d="M9.00016 3.07327V5.0266C9.00016 5.47327 8.64016 5.83327 8.1935 5.83327H2.14016C1.68683 5.83327 1.3335 5.45993 1.3335 5.01327C1.34016 4.25993 1.64016 3.57327 2.14016 3.07327C2.64016 2.57327 3.3335 2.2666 4.0935 2.2666H8.1935C8.64016 2.2666 9.00016 2.6266 9.00016 3.07327Z" fill="#8791A3"/>
<path d="M13.3133 1.33333H11.3533C10.5067 1.33333 10 1.84 10 2.68666V4.64666C10 5.49333 10.5067 5.99999 11.3533 5.99999H13.3133C14.16 5.99999 14.6667 5.49333 14.6667 4.64666V2.68666C14.6667 1.84 14.16 1.33333 13.3133 1.33333ZM13.7533 2.96666L12.1733 4.81333C12.1133 4.88666 12.02 4.93333 11.9267 4.93333C11.92 4.93333 11.92 4.93333 11.9133 4.93333C11.82 4.93333 11.7333 4.89999 11.6667 4.83333L10.9333 4.11333C10.8 3.97999 10.8 3.75999 10.9333 3.62666C11.0667 3.49333 11.2867 3.48666 11.42 3.62666L11.8867 4.08666L13.22 2.52666C13.3467 2.37999 13.56 2.36666 13.7067 2.48666C13.86 2.60666 13.8733 2.82666 13.7533 2.96666Z" fill="#8791A3"/>
</svg>
