<svg width="65" height="65" viewBox="0 0 65 65" fill="none" xmlns="http://www.w3.org/2000/svg">
<circle cx="32.5" cy="32.5" r="32.5" fill="#F5F5F5"/>
<g clip-path="url(#clip0_1_4099)">
<path d="M38.25 30.75V49.5L36 48L33.75 49.5L31.5 48L29.25 49.5L27 48L24.75 49.5L22.5 48L20.25 49.5L18 48L15.75 49.5V18.75C15.75 17.9544 16.0661 17.1913 16.6287 16.6287C17.1913 16.0661 17.9544 15.75 18.75 15.75H40.5" fill="white"/>
<path d="M46.5 30.75H38.25V18.75C38.25 17.9544 38.5661 17.1913 39.1287 16.6287C39.6913 16.0661 40.4544 15.75 41.25 15.75C42.0456 15.75 42.8087 16.0661 43.3713 16.6287C43.9339 17.1913 44.25 17.9544 44.25 18.75V20.25" fill="#7C6F66"/>
<path d="M47.25 30.75C46.4544 30.75 45.6913 30.4339 45.1287 29.8713C44.5661 29.3087 44.25 28.5457 44.25 27.75V20.25H50.25V27.75C50.25 28.5457 49.9339 29.3087 49.3713 29.8713C48.8087 30.4339 48.0456 30.75 47.25 30.75Z" fill="white"/>
<path d="M18 33H22.5V34.5H18V33Z" fill="#7C6F66"/>
<path d="M24 33H36V34.5H24V33Z" fill="#7C6F66"/>
<path d="M18 36H22.5V37.5H18V36Z" fill="#7C6F66"/>
<path d="M24 36H36V37.5H24V36Z" fill="#7C6F66"/>
<path d="M18 39H22.5V40.5H18V39Z" fill="#7C6F66"/>
<path d="M24 39H36V40.5H24V39Z" fill="#7C6F66"/>
<path d="M18 42H22.5V43.5H18V42Z" fill="#7C6F66"/>
<path d="M24 42H36V43.5H24V42Z" fill="#7C6F66"/>
<path d="M36.75 50.25C40.4779 50.25 43.5 47.2279 43.5 43.5C43.5 39.7721 40.4779 36.75 36.75 36.75C33.0221 36.75 30 39.7721 30 43.5C30 47.2279 33.0221 50.25 36.75 50.25Z" fill="#FFBE1D"/>
<path d="M45 19.5V18.75C45 17.7554 44.6049 16.8016 43.9017 16.0983C43.1984 15.3951 42.2446 15 41.25 15H18.75C17.7554 15 16.8016 15.3951 16.0983 16.0983C15.3951 16.8016 15 17.7554 15 18.75V50.9025L18 48.9L20.25 50.4L22.5 48.9L24.75 50.4L27 48.9L29.25 50.4L31.5 48.9C32.935 50.2173 34.8023 50.9642 36.75 51C37.5131 50.9986 38.2716 50.8823 39 50.655C45.975 48.45 45.99 38.55 39 36.345V31.5H47.25C47.7425 31.5 48.2301 31.403 48.6851 31.2145C49.14 31.0261 49.5534 30.7499 49.9017 30.4017C50.2499 30.0534 50.5261 29.64 50.7145 29.1851C50.903 28.7301 51 28.2425 51 27.75V19.5H45ZM29.25 48.6L27 47.1L24.75 48.6L22.5 47.1L20.25 48.6L18 47.1L16.5 48.0975V18.75C16.5 18.1533 16.7371 17.581 17.159 17.159C17.581 16.7371 18.1533 16.5 18.75 16.5H38.25C37.7592 17.147 37.4956 17.9379 37.5 18.75V36.0375C36.0785 35.8943 34.6457 36.16 33.3702 36.8035C32.0946 37.4469 31.0294 38.4413 30.2998 39.6696C29.5702 40.8979 29.2067 42.3091 29.2519 43.737C29.2971 45.165 29.7492 46.5503 30.555 47.73L29.25 48.6ZM42.75 43.5C42.7496 44.7186 42.3781 45.9083 41.685 46.9106C40.9918 47.9129 40.0099 48.6804 38.8699 49.111C37.7298 49.5415 36.4857 49.6147 35.303 49.3209C34.1204 49.027 33.0552 48.3799 32.2493 47.4658C31.4434 46.5517 30.935 45.4138 30.7916 44.2036C30.6483 42.9935 30.8769 41.7683 31.4469 40.6912C32.017 39.6142 32.9015 38.7362 33.9828 38.1742C35.0641 37.6121 36.2909 37.3927 37.5 37.545C38.9503 37.7277 40.284 38.4336 41.2507 39.5301C42.2174 40.6266 42.7505 42.0382 42.75 43.5V43.5ZM39 30V18.75C39 18.1533 39.2371 17.581 39.659 17.159C40.081 16.7371 40.6533 16.5 41.25 16.5C41.8467 16.5 42.419 16.7371 42.841 17.159C43.2629 17.581 43.5 18.1533 43.5 18.75C43.5 28.245 43.245 28.68 44.25 30H39ZM49.5 27.75C49.5 28.3467 49.2629 28.919 48.841 29.341C48.419 29.7629 47.8467 30 47.25 30C46.6533 30 46.081 29.7629 45.659 29.341C45.2371 28.919 45 28.3467 45 27.75V21H49.5V27.75Z" fill="black"/>
<path d="M40.0574 41.25L38.9999 40.1925L36.7499 42.4425L34.4999 40.1925L33.4424 41.25L35.6924 43.5L33.4424 45.75L34.4999 46.8075L36.7499 44.5575L38.9999 46.8075L40.0574 45.75L37.8074 43.5L40.0574 41.25Z" fill="white"/>
</g>
<defs>
<clipPath id="clip0_1_4099">
<rect width="36" height="36" fill="white" transform="translate(15 15)"/>
</clipPath>
</defs>
</svg>
