<svg width="34" height="34" viewBox="0 0 34 34" fill="none" xmlns="http://www.w3.org/2000/svg">
<path d="M13.1483 17C13.1483 17.9863 13.5401 18.9322 14.2375 19.6296C14.9349 20.327 15.8808 20.7187 16.8671 20.7187C17.8533 20.7187 18.7992 20.327 19.4966 19.6296C20.194 18.9322 20.5858 17.9863 20.5858 17C20.5858 16.0137 20.194 15.0678 19.4966 14.3704C18.7992 13.673 17.8533 13.2812 16.8671 13.2812C15.8808 13.2812 14.9349 13.673 14.2375 14.3704C13.5401 15.0678 13.1483 16.0137 13.1483 17V17ZM31.2839 16.1434C28.1362 9.5127 23.3782 6.17578 16.9999 6.17578C10.6182 6.17578 5.86356 9.51269 2.7159 16.1467C2.58965 16.414 2.52417 16.706 2.52417 17.0017C2.52417 17.2973 2.58965 17.5893 2.7159 17.8566C5.86356 24.4873 10.6216 27.8242 16.9999 27.8242C23.3815 27.8242 28.1362 24.4873 31.2839 17.8533C31.5395 17.3154 31.5395 16.6912 31.2839 16.1434V16.1434ZM16.8671 22.8437C13.6397 22.8437 11.0233 20.2273 11.0233 17C11.0233 13.7727 13.6397 11.1562 16.8671 11.1562C20.0944 11.1562 22.7108 13.7727 22.7108 17C22.7108 20.2273 20.0944 22.8437 16.8671 22.8437Z" fill="black"/>
</svg>
