<svg width="140" height="35" viewBox="0 0 140 35" fill="none" xmlns="http://www.w3.org/2000/svg">
<path opacity="0.1" fill-rule="evenodd" clip-rule="evenodd" d="M1.46362 23.7763C1.46362 23.7763 6.8759 22.9833 13.0293 24.8884C24.7328 28.5118 25.4005 21.8765 29.7402 18.6771C33.7107 15.75 36.9989 17.5359 41.4197 21.1155C44.6802 23.7556 49.4319 28.1873 54.3529 27.4739C58.8512 26.8217 62.0401 21.6239 68.2752 20.3021C73.2169 19.2544 77.2329 22.1326 82.9233 21.1155C90.6428 19.7357 94.0909 11.6128 99.6081 11.6128C106.417 11.6128 111.212 4.74268 117.406 4.74268C123.564 4.74268 124.4 8.78247 131.136 11.6128C136.286 13.7766 138.764 11.6128 138.764 11.6128V34.7995H1.46362V23.7763Z" fill="url(#paint0_linear_58_4131)"/>
<path d="M1.46362 20.1749C1.46362 20.1749 6.8759 19.3933 13.0293 21.2708C24.7328 24.8418 25.4005 18.3026 29.7402 15.1495C33.7107 12.2647 36.9989 14.0248 41.4197 17.5526C44.6802 20.1545 49.4319 24.5221 54.3529 23.8189C58.8512 23.1762 62.0401 18.0537 68.2752 16.7509C73.2169 15.7184 77.2329 18.555 82.9233 17.5526C90.6428 16.1928 94.0909 8.18742 99.6081 8.18742C106.417 8.18742 111.212 1.40039 117.406 1.40039C123.564 1.40039 123.892 5.39807 130.628 8.18742C135.778 10.3199 138.764 8.18742 138.764 8.18742" stroke="#1B59F8" stroke-width="2" stroke-linecap="round" stroke-linejoin="round"/>
<defs>
<linearGradient id="paint0_linear_58_4131" x1="26.2774" y1="19.9937" x2="26.2774" y2="34.7995" gradientUnits="userSpaceOnUse">
<stop stop-color="#0062FF"/>
<stop offset="1" stop-color="white" stop-opacity="0.01"/>
</linearGradient>
</defs>
</svg>
