<svg width="2033" height="1692" viewBox="0 0 2033 1692" fill="none" xmlns="http://www.w3.org/2000/svg">
<path d="M288.5 673L291.5 670L288.5 667" stroke="#868FA0" stroke-width="1.5" stroke-linecap="round" stroke-linejoin="round"/>
<g clip-path="url(#clip0_1_327)">
<path d="M797.963 720.266C769.992 705.938 746.286 702.1 723.406 708.122L723.075 706.964C746.219 700.842 770.256 704.714 798.525 719.174L797.963 720.266Z" fill="#2E4882"/>
<path d="M818.991 721.821C786.523 701.239 747.906 682.875 706.478 702.927L705.949 701.835C747.906 681.518 786.986 700.015 819.587 720.795L818.991 721.821Z" fill="#2E4882"/>
<path d="M770.951 1179.02C837.672 1183.72 921.09 1157.25 957.857 1099.18C973.099 1075.15 983.216 1044.28 972.603 1017.71C964.568 997.558 930.613 974.693 923.273 954.376C915.933 934.059 916.891 910.334 920.694 888.528C931.671 825.955 870.669 728.274 741.822 717.85C644.154 709.942 599.948 785.916 516.795 796.306C432.913 806.763 334.518 743.958 274.508 796.306C199.984 861.295 234.832 926.349 244.024 956.792C255.695 995.904 198.727 1040.44 210.465 1098.12C236.717 1226.84 427.623 1140.04 483.566 1134.52C540.402 1129.02 596.774 1145.21 652.453 1158.18C708.131 1171.15 767.115 1180.94 821.57 1163.11L770.951 1179.02Z" fill="#E7F5FF"/>
<path d="M582.689 1241C795.147 1241 967.379 1232.44 967.379 1221.87C967.379 1211.31 795.147 1202.75 582.689 1202.75C370.231 1202.75 198 1211.31 198 1221.87C198 1232.44 370.231 1241 582.689 1241Z" fill="#E9ECF2"/>
<path d="M217.044 893.69H215.821C213.11 869.832 220.417 846.669 238.965 820.892L239.957 821.62C221.607 847.232 214.532 870.13 217.044 893.69Z" fill="#2E4882"/>
<path d="M209.341 909.672L208.183 910.036C194.231 865.563 218.102 829.528 243.429 800.178L244.354 800.972C219.326 830.091 195.586 865.762 209.341 909.672Z" fill="#2E4882"/>
<path d="M463.365 843.79H461.579C461.579 842.864 461.579 841.97 461.579 841.077H463.365C463.431 841.904 463.398 842.93 463.365 843.79Z" fill="#3F5A9F"/>
<path d="M584.342 828.933C583.847 827.212 583.284 825.624 582.656 823.804L584.309 823.175C584.981 824.906 585.555 826.674 586.029 828.47L584.342 828.933ZM464.092 835.816L462.505 835.518C462.802 833.698 463.199 831.878 463.629 830.091L465.348 830.521C464.753 832.275 464.389 834.029 464.092 835.816ZM580.54 818.741C579.78 817.153 578.92 815.432 578.027 814.009L579.548 813.083C580.474 814.671 581.367 816.392 582.16 817.98L580.54 818.741ZM466.737 825.359L465.051 824.764C465.646 823.043 466.34 821.455 467.101 819.635L468.721 820.363C467.993 822.05 467.332 823.672 466.737 825.359ZM574.919 809.575C573.895 808.152 572.77 806.697 571.613 805.34L572.936 804.182C574.159 805.605 575.316 807.06 576.242 808.55L574.919 809.575ZM471.134 815.432L469.58 814.572C470.473 812.95 471.465 811.263 472.49 809.84L473.978 810.833C472.953 812.421 471.994 813.976 471.134 815.432ZM568.042 801.336C566.753 800.079 565.397 798.854 564.042 797.729L565.166 796.339C566.588 797.531 567.976 798.755 569.266 800.045L568.042 801.336ZM477.185 806.597L475.73 805.505C476.894 804.054 478.13 802.663 479.433 801.336L480.69 802.593C479.453 803.867 478.283 805.203 477.185 806.597V806.597ZM559.843 794.586C558.355 793.593 556.834 792.633 555.28 791.74L556.14 790.218C557.727 791.111 559.446 792.104 560.835 793.13L559.843 794.586ZM484.69 798.887L483.5 797.531C484.922 796.339 486.376 795.181 487.864 794.222L488.955 795.578C487.434 796.571 486.046 797.696 484.69 798.887ZM550.321 789.324C548.7 788.563 547.014 787.902 545.328 787.306L545.923 785.651C547.642 786.247 549.229 786.942 551.048 787.703L550.321 789.324ZM493.386 792.633L492.493 791.111C494.08 790.152 495.799 789.258 497.353 788.464L498.147 790.085C496.527 790.78 494.94 791.641 493.386 792.567V792.633ZM540.17 785.651C538.418 785.221 536.665 784.857 534.88 784.559L535.178 782.806C536.996 783.103 538.815 783.467 540.6 783.931L540.17 785.651ZM503.073 787.769L502.445 786.115C504.164 785.453 505.95 784.89 507.735 784.394L508.198 786.082C506.479 786.677 504.76 787.24 503.073 787.868V787.769ZM529.524 783.931C527.738 783.931 525.92 783.732 524.135 783.765V781.978C525.986 781.978 527.838 781.978 529.656 781.978L529.524 783.931ZM513.422 784.857L513.091 783.103C514.877 782.773 516.728 782.508 518.58 782.309V784.063C516.993 784.361 515.207 784.626 513.455 784.957L513.422 784.857Z" fill="#3F5A9F"/>
<path d="M587.748 836.61L585.996 836.841C585.996 835.981 585.731 835.121 585.566 834.26L587.318 833.929C587.483 834.823 587.616 835.716 587.748 836.61Z" fill="#3F5A9F"/>
<path d="M468.787 844.353L462.34 847.43L455.661 844.948L462.902 860.236L468.787 844.353Z" fill="#3F5A9F"/>
<path d="M408.314 932.206C408.05 928.169 409.703 923.404 410.761 923.901C411.819 924.397 410.761 928.136 411.588 929.261C412.273 930.164 412.732 931.218 412.927 932.334C413.123 933.451 413.049 934.598 412.712 935.681L408.314 932.206Z" fill="#FCB47E"/>
<path d="M371.912 1214.4L368.672 1188.35H387.749L388.609 1214.4H371.912Z" fill="#FCB47E"/>
<path d="M388.245 1203.15C381.037 1205.03 370.325 1201.59 370.325 1201.59L369.564 1195.44L388.047 1196.99L388.245 1203.15Z" fill="#FCA377"/>
<path d="M280.889 1214.4L282.642 1188.35H301.719L297.586 1214.4H280.889Z" fill="#FCB47E"/>
<path d="M300.826 1193.91L299.537 1202.15C293.392 1202.57 287.269 1201.07 282.013 1197.85L282.542 1189.84L300.826 1193.91Z" fill="#FCA377"/>
<path d="M412.48 1198.08C412.48 1198.08 399.685 1037.89 365.332 960.002L333.327 961.623C336.349 1041 345.268 1120.03 360.009 1198.08C360.009 1198.08 390.097 1205.2 412.48 1198.08Z" fill="#1B59F8"/>
<path d="M321.821 1198.08C321.821 1198.08 290.345 1203.18 272.227 1190.94C272.227 1190.94 281.782 1017.25 311.076 960.299H345.66C345.66 960.299 344.536 1053.94 321.821 1198.08Z" fill="#1B59F8"/>
<path d="M312.002 877.84C312.861 874.828 314.448 870.957 314.448 870.957C314.004 873.546 313.837 876.175 313.952 878.799C321.425 882.108 337.097 886.708 361.266 880.751C360.968 878.27 360.836 875.92 360.836 875.92C361.281 877.468 361.834 878.983 362.489 880.454L365.101 879.759C364.571 876.972 364.229 874.153 364.076 871.321C364.879 874.041 365.988 876.661 367.382 879.13C368.87 878.7 370.358 878.204 371.912 877.707C371.912 877.707 367.085 870.295 363.911 851.235C361.299 835.452 353.198 828.073 340.767 828.304C315.473 828.999 308.728 875.953 308.728 875.953C309.763 876.676 310.858 877.307 312.002 877.84V877.84Z" fill="#374263"/>
<path d="M399.454 933.563C399.454 933.563 389.303 887.899 348.999 885.549C286.973 881.91 267.895 922.279 267.895 922.279L399.454 933.563Z" fill="white"/>
<path d="M335.212 839.753C342.089 835.849 354.091 835.683 356.835 844.948C359.381 853.519 358.984 879.329 347.544 878.832C343.384 878.745 339.395 877.162 336.305 874.374C333.215 871.585 331.231 867.776 330.715 863.644C330.252 861.758 328.368 843.658 335.212 839.753Z" fill="#FCB47E"/>
<path d="M331.013 863.181C331.013 863.181 325.657 864.835 324.665 859.872C323.673 854.908 328.93 853.816 330.583 855.736L331.013 863.181Z" fill="#FCB47E"/>
<path d="M405.074 988.591C412.745 973.535 418.729 938.46 418.729 938.46C421.17 934.876 422.826 930.817 423.59 926.548C423.59 924.496 422.664 923.239 421.275 923.967C420.779 922.312 419.82 922.014 418.498 922.974C417.771 921.551 416.878 921.617 415.985 922.312C414.001 919.003 410.1 929.427 410.133 930.75C410.166 932.074 410.397 934.82 410.53 935.747C410.662 936.673 387.385 976.546 387.385 976.546L405.074 988.591Z" fill="#FCB47E"/>
<path d="M278.641 1193.75H277.616C277.616 1192.03 289.386 1019.43 318.978 963.344L319.904 963.807C290.577 1019.63 278.773 1192.03 278.641 1193.75Z" fill="white"/>
<path d="M303.802 932.504L292.891 994.647C321.226 1003.15 353.198 995.507 379.351 978.102L368.506 916.852L348.371 886.145C347.112 887.681 345.524 888.914 343.725 889.752C341.925 890.591 339.96 891.013 337.975 890.987C335.99 890.962 334.037 890.49 332.259 889.605C330.481 888.721 328.926 887.448 327.707 885.88L299.504 897.727L303.802 932.504Z" fill="white"/>
<path d="M406.893 945.971L401.173 931.776C401.173 931.776 386.856 902.624 375.086 895.112L367.548 946.071L406.893 945.971Z" fill="white"/>
<path d="M339.973 1058.44H338.981C340.601 1041.04 341.957 1024.03 343.015 1007.85H344.007C342.982 1023.9 341.626 1041.04 339.973 1058.44Z" fill="#47393D"/>
<path d="M367.713 1198.45C367.515 1197.42 346.255 1095.44 340.237 1044.05H341.229C347.28 1095.37 368.506 1197.29 368.705 1198.31L367.713 1198.45Z" fill="white"/>
<path d="M369.01 916.773L368.033 916.946L378.854 978.238L379.831 978.066L369.01 916.773Z" fill="#3F5A9F"/>
<path d="M326.649 854.941C327.291 854.63 328.022 854.552 328.716 854.721C329.41 854.89 330.023 855.296 330.451 855.868C330.754 853.582 331.389 851.352 332.335 849.25L333.195 853.783C336.718 854.353 340.274 854.696 343.841 854.809H349.032L349.892 847.265L351.545 854.644C352.669 854.644 353.529 854.445 354.422 854.346L355.083 849.879L356.306 854.081C357.53 853.883 358.356 853.684 358.753 853.585C359.017 850.276 359.117 841.871 353.463 837.04C346.85 831.348 333.261 834.459 330.054 841.275C328.114 845.591 326.961 850.219 326.649 854.941V854.941Z" fill="#374263"/>
<path d="M339.477 891.109C341.256 891.008 342.991 890.51 344.553 889.651C346.115 888.792 347.464 887.594 348.503 886.145L347.082 869.6L331.476 860.302L327.508 885.781C330.687 888.999 334.96 890.902 339.477 891.109Z" fill="#FCB47E"/>
<path d="M347.015 879.759V878.766C343.959 878.386 341.049 877.233 338.561 875.415C336.074 873.597 334.09 871.174 332.798 868.376L331.939 868.839C333.308 871.798 335.414 874.356 338.054 876.268C340.693 878.179 343.779 879.381 347.015 879.759V879.759Z" fill="#374263"/>
<path d="M367.548 1226.67L415.787 1226.84C416.182 1226.84 416.573 1226.76 416.935 1226.6C417.298 1226.44 417.624 1226.21 417.894 1225.93C418.164 1225.64 418.372 1225.3 418.504 1224.92C418.636 1224.55 418.69 1224.15 418.663 1223.76V1223.76C418.663 1223.4 418.663 1223.03 418.663 1222.64C418.563 1221.46 418.189 1220.33 417.572 1219.33C415.291 1216.28 410.96 1214.89 402.958 1211.72C399.097 1210.13 395.408 1208.16 391.948 1205.83C391.649 1205.55 391.252 1205.4 390.844 1205.41C390.435 1205.42 390.048 1205.6 389.766 1205.89C380.211 1215.19 374.359 1213.2 372.606 1209.2C371.284 1206.26 369.3 1206.88 368.87 1207.71C367.182 1212.38 366.201 1217.28 365.961 1222.24C365.961 1222.67 365.961 1223.07 365.961 1223.36C365.961 1223.66 365.961 1224.55 365.961 1224.55C365.896 1224.8 365.887 1225.06 365.936 1225.31C365.985 1225.56 366.089 1225.79 366.242 1226C366.395 1226.2 366.591 1226.37 366.818 1226.48C367.044 1226.6 367.293 1226.67 367.548 1226.67V1226.67Z" fill="#374263"/>
<path d="M400.082 1216.65C401.055 1216.19 401.863 1215.44 402.39 1214.5C402.918 1213.57 403.139 1212.49 403.024 1211.42H402.198C402.299 1212.32 402.109 1213.24 401.658 1214.03C401.206 1214.82 400.515 1215.45 399.685 1215.82L400.082 1216.65Z" fill="white"/>
<path d="M404.314 1218.07C405.218 1217.61 405.967 1216.89 406.466 1216.01C406.966 1215.13 407.195 1214.12 407.124 1213.11H406.298C406.337 1213.95 406.131 1214.8 405.702 1215.53C405.274 1216.26 404.642 1216.86 403.884 1217.24L404.314 1218.07Z" fill="white"/>
<path d="M377.103 1215.82C379.244 1215.78 381.353 1215.29 383.286 1214.36L382.922 1213.6C382.922 1213.6 375.516 1217.31 371.747 1212.61L371.118 1213.14C371.837 1214.02 372.752 1214.73 373.792 1215.19C374.831 1215.66 375.965 1215.87 377.103 1215.82V1215.82Z" fill="white"/>
<path d="M371.871 1222.91L371.868 1223.73L399.972 1223.84L399.975 1223.01L371.871 1222.91Z" fill="white"/>
<path d="M403.59 1223.05L403.587 1223.87L410.232 1223.9L410.235 1223.07L403.59 1223.05Z" fill="white"/>
<path d="M277.351 1226.67L325.558 1226.84C325.955 1226.84 326.35 1226.77 326.716 1226.61C327.083 1226.46 327.413 1226.23 327.687 1225.94C327.96 1225.65 328.171 1225.31 328.305 1224.93C328.439 1224.56 328.495 1224.16 328.467 1223.76V1223.76C328.467 1223.4 328.467 1223.03 328.467 1222.64C328.366 1221.46 327.993 1220.33 327.376 1219.33C325.095 1216.28 320.763 1214.89 312.762 1211.72C308.901 1210.13 305.211 1208.16 301.752 1205.83C301.457 1205.64 301.107 1205.56 300.759 1205.59C300.411 1205.63 300.085 1205.78 299.834 1206.02C290.279 1215.32 284.427 1213.34 282.675 1209.33C281.352 1206.39 279.368 1207.02 278.939 1207.84C277.25 1212.51 276.27 1217.41 276.029 1222.37C276.002 1222.74 276.002 1223.12 276.029 1223.5V1224.69C275.941 1225.13 276.031 1225.58 276.279 1225.95C276.527 1226.33 276.913 1226.58 277.351 1226.67Z" fill="#374263"/>
<path d="M309.753 1216.65C310.727 1216.19 311.534 1215.44 312.062 1214.5C312.589 1213.57 312.811 1212.49 312.696 1211.42H311.836C311.951 1212.31 311.775 1213.22 311.334 1214.01C310.893 1214.79 310.212 1215.42 309.39 1215.79L309.753 1216.65Z" fill="white"/>
<path d="M313.985 1218.07C314.884 1217.6 315.628 1216.89 316.127 1216C316.626 1215.12 316.858 1214.12 316.796 1213.11H315.969C316.009 1213.95 315.802 1214.8 315.374 1215.53C314.946 1216.26 314.314 1216.86 313.556 1217.24L313.985 1218.07Z" fill="white"/>
<path d="M286.774 1215.82C288.916 1215.78 291.024 1215.29 292.957 1214.36L292.594 1213.6C292.594 1213.6 285.187 1217.31 281.418 1212.61L280.79 1213.14C281.508 1214.02 282.424 1214.73 283.463 1215.19C284.503 1215.66 285.637 1215.87 286.774 1215.82V1215.82Z" fill="white"/>
<path d="M281.542 1222.91L281.539 1223.73L309.643 1223.84L309.646 1223.01L281.542 1222.91Z" fill="white"/>
<path d="M313.261 1223.05L313.258 1223.87L319.903 1223.9L319.906 1223.07L313.261 1223.05Z" fill="white"/>
<path d="M448.691 923.09L287.586 948.54C284.249 949.067 281.971 952.202 282.498 955.542L298.86 1059.28C299.387 1062.62 302.519 1064.9 305.856 1064.38L466.961 1038.93C470.298 1038.4 472.576 1035.26 472.049 1031.92L455.687 928.182C455.16 924.842 452.028 922.563 448.691 923.09Z" fill="#6D92F0"/>
<path d="M336.293 1013.39L307.292 1017.97C306.39 1018.11 305.775 1018.96 305.917 1019.86L306.799 1025.45C306.941 1026.35 307.787 1026.97 308.689 1026.83L337.69 1022.24C338.592 1022.1 339.208 1021.25 339.065 1020.35L338.184 1014.76C338.042 1013.86 337.195 1013.24 336.293 1013.39Z" fill="white"/>
<path d="M374.623 1007.35L345.622 1011.93C344.72 1012.07 344.105 1012.92 344.247 1013.82L345.128 1019.41C345.271 1020.31 346.117 1020.93 347.019 1020.79L376.02 1016.21C376.922 1016.06 377.538 1015.22 377.395 1014.31L376.514 1008.73C376.371 1007.82 375.525 1007.21 374.623 1007.35Z" fill="white"/>
<path d="M412.986 1001.27L383.985 1005.85C383.083 1006 382.467 1006.84 382.609 1007.75L383.491 1013.34C383.633 1014.24 384.48 1014.85 385.382 1014.71L414.383 1010.13C415.284 1009.99 415.9 1009.14 415.758 1008.24L414.876 1002.65C414.734 1001.75 413.887 1001.13 412.986 1001.27Z" fill="white"/>
<path d="M451.282 995.235L422.281 999.816C421.38 999.959 420.764 1000.81 420.906 1001.71L421.788 1007.3C421.93 1008.2 422.777 1008.82 423.678 1008.67L452.679 1004.09C453.581 1003.95 454.197 1003.1 454.055 1002.2L453.173 996.611C453.031 995.709 452.184 995.092 451.282 995.235Z" fill="white"/>
<path d="M453.676 1012.6L415.53 1018.63C414.43 1018.8 413.679 1019.83 413.852 1020.93L414.62 1025.8C414.794 1026.91 415.827 1027.66 416.927 1027.48L455.073 1021.46C456.173 1021.28 456.924 1020.25 456.75 1019.15L455.982 1014.28C455.808 1013.18 454.776 1012.43 453.676 1012.6Z" fill="white"/>
<path d="M307.274 980.451L305.422 968.837C305.232 967.617 305.532 966.372 306.257 965.373C306.982 964.375 308.073 963.704 309.29 963.509L331.873 959.935C333.09 959.754 334.33 960.058 335.325 960.782C336.321 961.506 336.992 962.592 337.196 963.807L339.014 975.454C339.123 976.066 339.109 976.692 338.972 977.298C338.836 977.904 338.58 978.476 338.219 978.981C337.859 979.487 337.402 979.915 336.874 980.241C336.346 980.568 335.759 980.785 335.146 980.881L312.597 984.19C311.396 984.393 310.165 984.114 309.168 983.414C308.172 982.714 307.491 981.65 307.274 980.451ZM309.489 964.733C309.043 964.793 308.613 964.943 308.227 965.174C307.841 965.406 307.506 965.714 307.243 966.079C306.979 966.445 306.794 966.86 306.697 967.3C306.6 967.74 306.593 968.196 306.678 968.638L308.497 980.252C308.552 980.702 308.699 981.135 308.929 981.526C309.158 981.916 309.465 982.255 309.831 982.522C310.197 982.789 310.613 982.978 311.055 983.077C311.497 983.176 311.954 983.183 312.398 983.098L334.947 979.524C335.397 979.469 335.83 979.322 336.22 979.092C336.61 978.863 336.949 978.555 337.215 978.189C337.482 977.823 337.67 977.406 337.769 976.964C337.868 976.522 337.876 976.065 337.791 975.62L335.939 964.005C335.88 963.559 335.73 963.129 335.499 962.742C335.267 962.356 334.96 962.021 334.594 961.757C334.229 961.494 333.814 961.308 333.374 961.211C332.935 961.114 332.48 961.108 332.038 961.193L309.489 964.733Z" fill="white"/>
<path d="M457.435 935.735L456.324 935.91L460.247 960.783L461.358 960.608L457.435 935.735Z" fill="#2E4882"/>
<path d="M375.714 1053.91V1052.79L467.068 1038.36C468.517 1038.12 469.815 1037.32 470.676 1036.13C471.537 1034.94 471.892 1033.46 471.663 1032L463.728 981.708L464.852 981.51L472.788 1031.84C473.048 1033.59 472.621 1035.37 471.597 1036.8C471.084 1037.52 470.434 1038.12 469.685 1038.58C468.935 1039.04 468.102 1039.35 467.233 1039.48L375.714 1053.91Z" fill="#2E4882"/>
<path d="M359.85 1055.27L326.017 1060.63L326.193 1061.74L360.025 1056.39L359.85 1055.27Z" fill="#2E4882"/>
<path d="M422.333 923.867C422.498 923.921 422.65 924.01 422.779 924.127C422.907 924.244 423.009 924.387 423.078 924.547C423.147 924.706 423.181 924.879 423.178 925.053C423.175 925.227 423.135 925.398 423.061 925.555C422.499 926.746 421.573 928.004 420.945 928.07C419.787 928.07 420.349 926.151 420.945 924.761C420.986 924.604 421.059 924.457 421.159 924.33C421.259 924.202 421.384 924.097 421.527 924.019C421.669 923.942 421.826 923.894 421.987 923.879C422.149 923.865 422.311 923.883 422.465 923.934L422.333 923.867Z" fill="#FCB47E"/>
<path d="M420.349 923.834C420.578 923.998 420.747 924.232 420.831 924.501C420.915 924.77 420.908 925.059 420.812 925.323C420.316 926.647 419.225 928.632 418.134 928.401C417.043 928.169 417.903 926.217 418.333 924.496C418.403 924.305 418.517 924.132 418.664 923.99C418.811 923.848 418.988 923.742 419.181 923.678C419.375 923.615 419.581 923.596 419.783 923.623C419.986 923.65 420.179 923.722 420.349 923.834V923.834Z" fill="#FCB47E"/>
<path d="M417.473 923.14C417.631 923.167 417.781 923.226 417.916 923.313C418.05 923.401 418.165 923.514 418.255 923.647C418.344 923.78 418.406 923.929 418.436 924.087C418.467 924.244 418.465 924.406 418.432 924.562C418.362 925.356 418.099 926.12 417.667 926.789C417.235 927.458 416.646 928.011 415.952 928.401C414.696 928.831 415.423 925.853 415.952 924C416.023 923.693 416.212 923.427 416.479 923.26C416.745 923.092 417.067 923.037 417.374 923.106L417.473 923.14Z" fill="#FCB47E"/>
<path d="M415.125 921.551C415.36 921.595 415.582 921.695 415.771 921.841C415.961 921.986 416.113 922.175 416.217 922.391C416.32 922.607 416.37 922.844 416.365 923.084C416.359 923.323 416.297 923.557 416.183 923.768C415.621 925.191 414.63 926.812 413.737 927.077C412.844 927.342 413.307 924.926 413.737 923.073C413.77 922.213 414.398 921.32 415.125 921.551Z" fill="#FCB47E"/>
<path d="M292.395 986.606C292.395 986.606 273.549 958.976 302.744 939.287L319.275 892.234V891.936C299.702 891.936 278.674 903.815 267.267 920.592C248.223 948.685 250.141 982.271 282.046 999.61L292.395 986.606Z" fill="white"/>
<path d="M301.984 945.177L300.959 944.979L303.802 930.519L304.827 930.684L301.984 945.177Z" fill="#3F5A9F"/>
<path d="M289.188 1000.04C282.852 996.924 277.257 992.486 272.78 987.023C268.303 981.561 265.047 975.201 263.234 968.373C259.564 953.251 263.465 936.177 274.244 920.327L275.103 920.889C264.49 936.541 260.622 953.317 264.258 968.142C266.033 974.825 269.217 981.05 273.597 986.398C277.977 991.747 283.451 996.094 289.651 999.147L289.188 1000.04Z" fill="#3F5A9F"/>
<path d="M290.577 988.889C292.113 990.316 293.851 991.509 295.735 992.429C296.859 992.628 303.042 992.86 302.876 994.183C302.711 995.507 298.479 994.481 298.512 995.606C298.545 996.731 306.778 998.485 305.918 999.941C305.389 1000.9 300.595 998.849 300.496 999.445C300.396 1000.04 306.844 1001.26 306.116 1002.75C305.389 1004.24 299.14 1000.44 298.809 1001.17C298.479 1001.89 306.183 1004.21 305.422 1005.4C304.662 1006.59 298.809 1003.12 298.347 1003.78C297.884 1004.44 300.43 1005.1 301.653 1005.86C302.347 1006.29 302.116 1006.92 301.653 1006.89C295.834 1006.66 288.428 999.577 287.634 999.246C286.841 998.915 284.89 998.22 283.6 997.691L290.577 988.889Z" fill="#FCB47E"/>
<path d="M290.808 952.192L289.915 951.663C293.071 946.501 297.355 942.122 302.446 938.857L303.008 939.717C298.052 942.899 293.88 947.164 290.808 952.192V952.192Z" fill="#3F5A9F"/>
<path d="M905.253 894.55C905.253 894.947 905.253 895.311 905.253 895.708C906.675 944.151 901.715 981.907 893.317 1011.32L868.355 1026.84L888.887 1023.53H889.449C878.34 1055.86 862.998 1076.74 848.418 1090.18C840.995 1097.14 832.61 1103 823.521 1107.58C823.058 1107.85 822.595 1108.05 822.132 1108.28C820.975 1108.84 819.851 1109.34 818.826 1109.77L805.105 1110.49C804.907 1109.87 804.741 1109.24 804.576 1108.57C804.411 1107.91 804.344 1107.78 804.245 1107.38C804.146 1106.99 803.948 1106.32 803.815 1105.8C787.615 1043.29 808.048 993.29 834.729 957.884C834.807 957.755 834.895 957.633 834.994 957.52C843.649 946.111 853.297 935.491 863.825 925.787L869.876 941.173L870.768 919.5C881.261 910.318 892.535 902.069 904.46 894.848L905.253 894.55Z" fill="#9AADE5"/>
<path d="M905.749 894.782L905.286 895.708L877.116 954.74L876.62 955.799L868.95 971.881L868.685 972.41L844.185 1023.73L844.152 1023.8L804.245 1107.42L803.65 1108.67L802.691 1110.66L801.501 1110.73L802.427 1108.74L803.815 1105.83L843.194 1023.3L843.954 1021.78L904.46 895.013L904.79 894.285L905.749 894.782Z" fill="white"/>
<path d="M903.43 948.172L868.51 972.217L869.035 972.981L903.955 948.935L903.43 948.172Z" fill="white"/>
<path d="M903.658 936.418L876.277 955.259L876.802 956.023L904.183 937.182L903.658 936.418Z" fill="white"/>
<path d="M835.619 957.436L834.701 957.555L843.296 1023.87L844.214 1023.75L835.619 957.436Z" fill="white"/>
<path d="M799.749 1121.25C799.749 1121.25 832.283 1136.63 878.538 1109.04L863.527 1101.89L888.027 1102.88C906.08 1090.24 925.884 1070.98 946.45 1042L940.73 1039.28L948.136 1039.58C951.442 1034.62 955.112 1029.39 958.617 1023.83C947.587 1023.17 936.519 1023.52 925.554 1024.89L915.635 1038.39L918.478 1025.85C878.604 1031.87 820.777 1052.69 799.749 1121.25Z" fill="#BAC8F3"/>
<path d="M958.193 1023.34L796.893 1117.71L797.41 1118.59L958.71 1024.22L958.193 1023.34Z" fill="white"/>
<path d="M916.53 1048.37L916.431 1049.33L939.519 1051.71L939.617 1050.76L916.53 1048.37Z" fill="white"/>
<path d="M905.409 1054.54L905.241 1055.48L932.16 1060.28L932.328 1059.34L905.409 1054.54Z" fill="white"/>
<path d="M837.606 1061.92L836.779 1060.99C851.07 1048.51 867.707 1039.02 885.713 1033.06L886.11 1034.22C868.263 1040.13 851.773 1049.55 837.606 1061.92V1061.92Z" fill="#2E4882"/>
<path d="M514.546 984.819L514.712 985.977C521.324 1033.99 532.599 1070.36 545.791 1097.95L572.969 1109.1L552.205 1109.4H551.775C568.307 1139.41 586.789 1157.45 603.354 1168.27C611.847 1173.89 621.099 1178.27 630.829 1181.27L632.317 1181.7C633.54 1182.07 634.731 1182.36 635.855 1182.63L649.51 1181.04L649.708 1179.06C649.708 1178.66 649.708 1178.23 649.708 1177.83C649.708 1177.43 649.708 1176.74 649.874 1176.18C655.428 1111.85 626.961 1066.09 594.724 1035.51L594.394 1035.21C583.966 1025.4 572.679 1016.54 560.669 1008.74L557.363 1024.99L552.899 1003.78C540.982 996.463 528.434 990.228 515.406 985.15L514.546 984.819Z" fill="#9AADE5"/>
<path d="M514.116 985.117L514.712 985.977L552.337 1039.48L552.999 1040.44L563.248 1055L563.612 1055.5L596.311 1101.99L596.344 1102.06L649.642 1177.83L650.469 1178.96L651.725 1180.78L652.915 1180.61L651.659 1178.82L649.807 1176.18L597.204 1101.43L596.245 1100.04L515.406 985.15L514.976 984.521L514.116 985.117Z" fill="white"/>
<path d="M525.25 1037.36L524.86 1038.2L563.303 1056.07L563.693 1055.23L525.25 1037.36Z" fill="white"/>
<path d="M523.113 1025.87L522.723 1026.72L552.863 1040.72L553.253 1039.88L523.113 1025.87Z" fill="white"/>
<path d="M594.667 1035.18L593.742 1035.21L596.342 1102.04L597.267 1102L594.667 1035.18Z" fill="white"/>
<path d="M656.552 1190.7C656.552 1190.7 627.06 1211.29 576.87 1191.8L590.459 1182.27L566.488 1187.33C546.651 1177.9 523.804 1162.21 498.709 1137.06L503.9 1133.43L496.626 1134.95C492.372 1130.54 488.063 1125.96 483.698 1121.21C494.435 1118.7 505.382 1117.2 516.398 1116.71L528.466 1128.36L523.606 1116.55C563.744 1115.79 624.217 1126.64 656.552 1190.7Z" fill="#BAC8F3"/>
<path d="M483.842 1120.72L483.48 1121.68L658.269 1187.75L658.631 1186.79L483.842 1120.72Z" fill="white"/>
<path d="M529.111 1138.34L506.745 1144.55L507.001 1145.47L529.368 1139.26L529.111 1138.34Z" fill="white"/>
<path d="M541.018 1142.64L515.279 1151.87L515.602 1152.77L541.342 1143.54L541.018 1142.64Z" fill="white"/>
<path d="M609.173 1138.52L609.834 1137.5C593.66 1127.6 575.675 1121.03 556.933 1118.17L556.735 1119.36C575.31 1122.21 593.135 1128.72 609.173 1138.52V1138.52Z" fill="#2E4882"/>
<path d="M663.033 1220.52H629.97C624.87 1220.52 619.964 1218.56 616.27 1215.05C612.577 1211.53 610.378 1206.72 610.132 1201.62L591.55 877.608C591.462 874.946 591.909 872.292 592.866 869.807C593.823 867.321 595.271 865.054 597.122 863.139C598.973 861.225 601.19 859.703 603.641 858.664C606.092 857.625 608.726 857.091 611.388 857.092H649.312L663.033 1220.52Z" fill="#1B59F8"/>
<path d="M825.538 877.608L815.817 1201.62C815.571 1206.72 813.372 1211.53 809.679 1215.05C805.985 1218.56 801.079 1220.52 795.979 1220.52H650.502C639.789 1220.52 627.159 1212.18 626.729 1201.62L616.91 877.608C616.821 874.946 617.268 872.292 618.226 869.807C619.183 867.321 620.63 865.054 622.481 863.139C624.332 861.225 626.549 859.703 629 858.664C631.451 857.625 634.086 857.091 636.747 857.092H805.369C808.059 857.046 810.73 857.547 813.219 858.566C815.709 859.585 817.966 861.1 819.852 863.019C821.739 864.938 823.215 867.221 824.193 869.729C825.17 872.237 825.628 874.917 825.538 877.608V877.608Z" fill="#DCE8FF"/>
<path d="M657.081 879.494H649.278C648.251 879.493 647.265 879.897 646.534 880.619C645.811 881.363 645.407 882.361 645.41 883.399C645.41 884.425 645.818 885.41 646.543 886.136C647.269 886.862 648.252 887.27 649.278 887.27H792.078C793.107 887.27 794.094 886.863 794.825 886.138C795.556 885.413 795.971 884.428 795.979 883.399C795.979 882.363 795.568 881.37 794.837 880.638C794.105 879.905 793.113 879.494 792.078 879.494H657.081V879.494Z" fill="#3F5A9F"/>
<path d="M790.491 1006.99H651.957C650.686 1006.98 649.467 1006.49 648.55 1005.61C647.633 1004.73 647.089 1003.53 647.03 1002.26L643.724 912.087C643.697 911.424 643.805 910.761 644.04 910.14C644.276 909.518 644.635 908.951 645.095 908.472C645.555 907.993 646.107 907.612 646.718 907.352C647.329 907.092 647.986 906.958 648.65 906.959H794.128C794.791 906.958 795.446 907.092 796.056 907.352C796.665 907.613 797.215 907.994 797.673 908.474C798.13 908.953 798.486 909.521 798.717 910.142C798.949 910.763 799.053 911.425 799.021 912.087L795.715 1002.26C795.694 1002.92 795.541 1003.56 795.265 1004.16C794.989 1004.76 794.595 1005.29 794.108 1005.73C793.62 1006.18 793.048 1006.51 792.427 1006.73C791.806 1006.95 791.147 1007.03 790.491 1006.99V1006.99Z" fill="white"/>
<path d="M686.474 1044.51H665.05C661.288 1044.51 658.239 1047.56 658.239 1051.33V1061.09C658.239 1064.86 661.288 1067.91 665.05 1067.91H686.474C690.236 1067.91 693.285 1064.86 693.285 1061.09V1051.33C693.285 1047.56 690.236 1044.51 686.474 1044.51Z" fill="#647CE2"/>
<path d="M686.474 1082.67H665.05C661.288 1082.67 658.239 1085.72 658.239 1089.48V1099.24C658.239 1103.01 661.288 1106.06 665.05 1106.06H686.474C690.236 1106.06 693.285 1103.01 693.285 1099.24V1089.48C693.285 1085.72 690.236 1082.67 686.474 1082.67Z" fill="#647CE2"/>
<path d="M686.474 1120.85H665.05C661.288 1120.85 658.239 1123.9 658.239 1127.67V1137.43C658.239 1141.19 661.288 1144.25 665.05 1144.25H686.474C690.236 1144.25 693.285 1141.19 693.285 1137.43V1127.67C693.285 1123.9 690.236 1120.85 686.474 1120.85Z" fill="#647CE2"/>
<path d="M686.474 1159H665.05C661.288 1159 658.239 1162.06 658.239 1165.82V1175.58C658.239 1179.35 661.288 1182.4 665.05 1182.4H686.474C690.236 1182.4 693.285 1179.35 693.285 1175.58V1165.82C693.285 1162.06 690.236 1159 686.474 1159Z" fill="#3F5A9F"/>
<path d="M730.977 1044.51H709.553C705.791 1044.51 702.742 1047.56 702.742 1051.33V1061.09C702.742 1064.86 705.791 1067.91 709.553 1067.91H730.977C734.739 1067.91 737.788 1064.86 737.788 1061.09V1051.33C737.788 1047.56 734.739 1044.51 730.977 1044.51Z" fill="#647CE2"/>
<path d="M730.977 1082.67H709.553C705.791 1082.67 702.742 1085.72 702.742 1089.48V1099.24C702.742 1103.01 705.791 1106.06 709.553 1106.06H730.977C734.739 1106.06 737.788 1103.01 737.788 1099.24V1089.48C737.788 1085.72 734.739 1082.67 730.977 1082.67Z" fill="#647CE2"/>
<path d="M730.977 1120.85H709.553C705.791 1120.85 702.742 1123.9 702.742 1127.67V1137.43C702.742 1141.19 705.791 1144.25 709.553 1144.25H730.977C734.739 1144.25 737.788 1141.19 737.788 1137.43V1127.67C737.788 1123.9 734.739 1120.85 730.977 1120.85Z" fill="#647CE2"/>
<path d="M730.977 1159H709.553C705.791 1159 702.742 1162.06 702.742 1165.82V1175.58C702.742 1179.35 705.791 1182.4 709.553 1182.4H730.977C734.739 1182.4 737.788 1179.35 737.788 1175.58V1165.82C737.788 1162.06 734.739 1159 730.977 1159Z" fill="#647CE2"/>
<path d="M775.48 1044.51H754.055C750.294 1044.51 747.244 1047.56 747.244 1051.33V1061.09C747.244 1064.86 750.294 1067.91 754.055 1067.91H775.48C779.242 1067.91 782.291 1064.86 782.291 1061.09V1051.33C782.291 1047.56 779.242 1044.51 775.48 1044.51Z" fill="#647CE2"/>
<path d="M775.48 1082.67H754.055C750.294 1082.67 747.244 1085.72 747.244 1089.48V1099.24C747.244 1103.01 750.294 1106.06 754.055 1106.06H775.48C779.242 1106.06 782.291 1103.01 782.291 1099.24V1089.48C782.291 1085.72 779.242 1082.67 775.48 1082.67Z" fill="#647CE2"/>
<path d="M775.48 1120.85H754.055C750.294 1120.85 747.244 1123.9 747.244 1127.67V1137.43C747.244 1141.19 750.294 1144.25 754.055 1144.25H775.48C779.242 1144.25 782.291 1141.19 782.291 1137.43V1127.67C782.291 1123.9 779.242 1120.85 775.48 1120.85Z" fill="#647CE2"/>
<path d="M775.48 1159H754.055C750.294 1159 747.244 1162.06 747.244 1165.82V1175.58C747.244 1179.35 750.294 1182.4 754.055 1182.4H775.48C779.242 1182.4 782.291 1179.35 782.291 1175.58V1165.82C782.291 1162.06 779.242 1159 775.48 1159Z" fill="#3F5A9F"/>
<path d="M692.856 1044.51H671.431C667.669 1044.51 664.62 1047.56 664.62 1051.33V1061.09C664.62 1064.86 667.669 1067.91 671.431 1067.91H692.856C696.617 1067.91 699.667 1064.86 699.667 1061.09V1051.33C699.667 1047.56 696.617 1044.51 692.856 1044.51Z" fill="#6D92F0"/>
<path d="M692.856 1082.67H671.431C667.669 1082.67 664.62 1085.72 664.62 1089.48V1099.24C664.62 1103.01 667.669 1106.06 671.431 1106.06H692.856C696.617 1106.06 699.667 1103.01 699.667 1099.24V1089.48C699.667 1085.72 696.617 1082.67 692.856 1082.67Z" fill="#6D92F0"/>
<path d="M692.856 1120.85H671.431C667.669 1120.85 664.62 1123.9 664.62 1127.67V1137.43C664.62 1141.19 667.669 1144.25 671.431 1144.25H692.856C696.617 1144.25 699.667 1141.19 699.667 1137.43V1127.67C699.667 1123.9 696.617 1120.85 692.856 1120.85Z" fill="#6D92F0"/>
<path d="M692.856 1159H671.431C667.669 1159 664.62 1162.06 664.62 1165.82V1175.58C664.62 1179.35 667.669 1182.4 671.431 1182.4H692.856C696.617 1182.4 699.667 1179.35 699.667 1175.58V1165.82C699.667 1162.06 696.617 1159 692.856 1159Z" fill="#3F5A9F"/>
<path d="M737.325 1044.51H715.901C712.139 1044.51 709.09 1047.56 709.09 1051.33V1061.09C709.09 1064.86 712.139 1067.91 715.901 1067.91H737.325C741.087 1067.91 744.136 1064.86 744.136 1061.09V1051.33C744.136 1047.56 741.087 1044.51 737.325 1044.51Z" fill="#6D92F0"/>
<path d="M737.325 1082.67H715.901C712.139 1082.67 709.09 1085.72 709.09 1089.48V1099.24C709.09 1103.01 712.139 1106.06 715.901 1106.06H737.325C741.087 1106.06 744.136 1103.01 744.136 1099.24V1089.48C744.136 1085.72 741.087 1082.67 737.325 1082.67Z" fill="#6D92F0"/>
<path d="M737.325 1120.85H715.901C712.139 1120.85 709.09 1123.9 709.09 1127.67V1137.43C709.09 1141.19 712.139 1144.25 715.901 1144.25H737.325C741.087 1144.25 744.136 1141.19 744.136 1137.43V1127.67C744.136 1123.9 741.087 1120.85 737.325 1120.85Z" fill="#6D92F0"/>
<path d="M737.325 1159H715.901C712.139 1159 709.09 1162.06 709.09 1165.82V1175.58C709.09 1179.35 712.139 1182.4 715.901 1182.4H737.325C741.087 1182.4 744.136 1179.35 744.136 1175.58V1165.82C744.136 1162.06 741.087 1159 737.325 1159Z" fill="#6D92F0"/>
<path d="M781.828 1044.51H760.404C756.642 1044.51 753.592 1047.56 753.592 1051.33V1061.09C753.592 1064.86 756.642 1067.91 760.404 1067.91H781.828C785.59 1067.91 788.639 1064.86 788.639 1061.09V1051.33C788.639 1047.56 785.59 1044.51 781.828 1044.51Z" fill="#6D92F0"/>
<path d="M781.828 1082.67H760.404C756.642 1082.67 753.592 1085.72 753.592 1089.48V1099.24C753.592 1103.01 756.642 1106.06 760.404 1106.06H781.828C785.59 1106.06 788.639 1103.01 788.639 1099.24V1089.48C788.639 1085.72 785.59 1082.67 781.828 1082.67Z" fill="#6D92F0"/>
<path d="M781.828 1120.85H760.404C756.642 1120.85 753.592 1123.9 753.592 1127.67V1137.43C753.592 1141.19 756.642 1144.25 760.404 1144.25H781.828C785.59 1144.25 788.639 1141.19 788.639 1137.43V1127.67C788.639 1123.9 785.59 1120.85 781.828 1120.85Z" fill="#6D92F0"/>
<path d="M781.828 1159H760.404C756.642 1159 753.592 1162.06 753.592 1165.82V1175.58C753.592 1179.35 756.642 1182.4 760.404 1182.4H781.828C785.59 1182.4 788.639 1179.35 788.639 1175.58V1165.82C788.639 1162.06 785.59 1159 781.828 1159Z" fill="#3F5A9F"/>
<path d="M692.856 1068.54H671.431C669.455 1068.54 667.559 1067.75 666.159 1066.36C664.758 1064.96 663.967 1063.07 663.958 1061.09V1051.33C663.967 1049.35 664.758 1047.46 666.159 1046.06C667.559 1044.67 669.455 1043.88 671.431 1043.88H692.856C694.829 1043.88 696.721 1044.67 698.116 1046.06C699.511 1047.46 700.295 1049.35 700.295 1051.33V1061.09C700.295 1063.07 699.511 1064.96 698.116 1066.36C696.721 1067.75 694.829 1068.54 692.856 1068.54ZM671.431 1045.14C669.791 1045.14 668.218 1045.79 667.059 1046.95C665.899 1048.11 665.248 1049.69 665.248 1051.33V1061.09C665.248 1062.73 665.899 1064.31 667.059 1065.47C668.218 1066.63 669.791 1067.28 671.431 1067.28H692.856C694.495 1067.28 696.068 1066.63 697.228 1065.47C698.387 1064.31 699.038 1062.73 699.038 1061.09V1051.33C699.038 1049.69 698.387 1048.11 697.228 1046.95C696.068 1045.79 694.495 1045.14 692.856 1045.14H671.431Z" fill="white"/>
<path d="M692.856 1106.62H671.431C669.455 1106.62 667.559 1105.84 666.159 1104.44C664.758 1103.05 663.967 1101.15 663.958 1099.18V1089.45C663.958 1087.47 664.746 1085.56 666.147 1084.16C667.548 1082.76 669.449 1081.97 671.431 1081.97H692.856C694.832 1081.98 696.724 1082.77 698.118 1084.17C699.512 1085.57 700.295 1087.47 700.295 1089.45V1099.18C700.295 1101.15 699.511 1103.05 698.116 1104.44C696.721 1105.84 694.829 1106.62 692.856 1106.62V1106.62ZM671.431 1083.46C669.791 1083.46 668.218 1084.11 667.059 1085.27C665.899 1086.43 665.248 1088.01 665.248 1089.65V1099.38C665.248 1101.02 665.899 1102.59 667.059 1103.75C668.218 1104.91 669.791 1105.56 671.431 1105.56H692.856C694.495 1105.56 696.068 1104.91 697.228 1103.75C698.387 1102.59 699.038 1101.02 699.038 1099.38V1089.65C699.038 1088.01 698.387 1086.43 697.228 1085.27C696.068 1084.11 694.495 1083.46 692.856 1083.46H671.431Z" fill="white"/>
<path d="M692.856 1144.87H671.431C669.449 1144.87 667.548 1144.09 666.147 1142.68C664.746 1141.28 663.958 1139.38 663.958 1137.4V1127.67C663.967 1125.69 664.758 1123.8 666.159 1122.4C667.559 1121.01 669.455 1120.22 671.431 1120.22H692.856C694.829 1120.22 696.721 1121.01 698.116 1122.4C699.511 1123.8 700.295 1125.69 700.295 1127.67V1137.4C700.295 1139.37 699.512 1141.27 698.118 1142.67C696.724 1144.07 694.832 1144.87 692.856 1144.87V1144.87ZM671.431 1121.48C669.791 1121.48 668.218 1122.13 667.059 1123.29C665.899 1124.45 665.248 1126.03 665.248 1127.67V1137.4C665.248 1139.04 665.899 1140.61 667.059 1141.77C668.218 1142.93 669.791 1143.58 671.431 1143.58H692.856C694.495 1143.58 696.068 1142.93 697.228 1141.77C698.387 1140.61 699.038 1139.04 699.038 1137.4V1127.67C699.038 1126.03 698.387 1124.45 697.228 1123.29C696.068 1122.13 694.495 1121.48 692.856 1121.48H671.431Z" fill="white"/>
<path d="M692.856 1183.03H671.431C669.455 1183.03 667.559 1182.24 666.159 1180.85C664.758 1179.45 663.967 1177.56 663.958 1175.58V1165.65C663.967 1163.68 664.758 1161.78 666.159 1160.39C667.559 1158.99 669.455 1158.21 671.431 1158.21H692.856C694.829 1158.21 696.721 1158.99 698.116 1160.39C699.511 1161.79 700.295 1163.68 700.295 1165.65V1175.58C700.295 1177.56 699.511 1179.45 698.116 1180.85C696.721 1182.24 694.829 1183.03 692.856 1183.03ZM671.431 1159.57C669.791 1159.57 668.218 1160.22 667.059 1161.38C665.899 1162.54 665.248 1164.11 665.248 1165.75V1175.68C665.248 1177.32 665.899 1178.9 667.059 1180.06C668.218 1181.22 669.791 1181.87 671.431 1181.87H692.856C694.495 1181.87 696.068 1181.22 697.228 1180.06C698.387 1178.9 699.038 1177.32 699.038 1175.68V1165.75C699.038 1164.11 698.387 1162.54 697.228 1161.38C696.068 1160.22 694.495 1159.57 692.856 1159.57H671.431Z" fill="white"/>
<path d="M737.325 1068.54H715.901C713.928 1068.54 712.035 1067.75 710.64 1066.36C709.245 1064.96 708.461 1063.07 708.461 1061.09V1051.33C708.461 1049.35 709.245 1047.46 710.64 1046.06C712.035 1044.67 713.928 1043.88 715.901 1043.88H737.325C739.302 1043.88 741.197 1044.67 742.598 1046.06C743.998 1047.46 744.789 1049.35 744.798 1051.33V1061.09C744.789 1063.07 743.998 1064.96 742.598 1066.36C741.197 1067.75 739.302 1068.54 737.325 1068.54V1068.54ZM715.901 1045.14C714.267 1045.15 712.702 1045.81 711.55 1046.97C710.398 1048.13 709.751 1049.69 709.751 1051.33V1061.09C709.751 1062.73 710.398 1064.3 711.55 1065.45C712.702 1066.61 714.267 1067.27 715.901 1067.28H737.325C738.965 1067.28 740.538 1066.63 741.697 1065.47C742.857 1064.31 743.508 1062.73 743.508 1061.09V1051.33C743.508 1049.69 742.857 1048.11 741.697 1046.95C740.538 1045.79 738.965 1045.14 737.325 1045.14H715.901Z" fill="white"/>
<path d="M737.325 1106.62H715.901C713.928 1106.62 712.035 1105.84 710.64 1104.44C709.245 1103.05 708.461 1101.15 708.461 1099.18V1089.45C708.461 1087.47 709.244 1085.57 710.638 1084.17C712.032 1082.77 713.925 1081.98 715.901 1081.97H737.325C739.307 1081.97 741.208 1082.76 742.609 1084.16C744.011 1085.56 744.798 1087.47 744.798 1089.45V1099.18C744.789 1101.15 743.998 1103.05 742.598 1104.44C741.197 1105.84 739.302 1106.62 737.325 1106.62V1106.62ZM715.901 1083.46C715.09 1083.46 714.288 1083.62 713.54 1083.93C712.791 1084.24 712.112 1084.7 711.54 1085.27C710.969 1085.85 710.517 1086.53 710.209 1087.28C709.902 1088.03 709.746 1088.84 709.751 1089.65V1099.38C709.751 1101.01 710.398 1102.58 711.55 1103.74C712.702 1104.9 714.267 1105.55 715.901 1105.56H737.325C738.965 1105.56 740.538 1104.91 741.697 1103.75C742.857 1102.59 743.508 1101.02 743.508 1099.38V1089.65C743.508 1088.01 742.857 1086.43 741.697 1085.27C740.538 1084.11 738.965 1083.46 737.325 1083.46H715.901Z" fill="white"/>
<path d="M737.325 1144.87H715.901C713.925 1144.87 712.032 1144.07 710.638 1142.67C709.244 1141.27 708.461 1139.37 708.461 1137.4V1127.67C708.461 1125.69 709.245 1123.8 710.64 1122.4C712.035 1121.01 713.928 1120.22 715.901 1120.22H737.325C739.302 1120.22 741.197 1121.01 742.598 1122.4C743.998 1123.8 744.789 1125.69 744.798 1127.67V1137.4C744.798 1139.38 744.011 1141.28 742.609 1142.68C741.208 1144.09 739.307 1144.87 737.325 1144.87ZM715.901 1121.48C714.267 1121.49 712.702 1122.14 711.55 1123.3C710.398 1124.46 709.751 1126.03 709.751 1127.67V1137.4C709.751 1139.03 710.398 1140.6 711.55 1141.76C712.702 1142.92 714.267 1143.57 715.901 1143.58H737.325C738.14 1143.59 738.948 1143.43 739.702 1143.12C740.456 1142.81 741.141 1142.36 741.719 1141.78C742.296 1141.21 742.755 1140.52 743.068 1139.77C743.38 1139.02 743.541 1138.21 743.541 1137.4V1127.67C743.541 1126.03 742.89 1124.45 741.73 1123.29C740.571 1122.13 738.998 1121.48 737.359 1121.48H715.901Z" fill="white"/>
<path d="M737.325 1183.03H715.901C713.928 1183.03 712.035 1182.24 710.64 1180.85C709.245 1179.45 708.461 1177.56 708.461 1175.58V1165.65C708.461 1163.68 709.245 1161.79 710.64 1160.39C712.035 1158.99 713.928 1158.21 715.901 1158.21H737.325C739.302 1158.21 741.197 1158.99 742.598 1160.39C743.998 1161.78 744.789 1163.68 744.798 1165.65V1175.58C744.789 1177.56 743.998 1179.45 742.598 1180.85C741.197 1182.24 739.302 1183.03 737.325 1183.03V1183.03ZM715.901 1159.57C714.267 1159.57 712.702 1160.23 711.55 1161.39C710.398 1162.55 709.751 1164.12 709.751 1165.75V1175.68C709.751 1177.32 710.398 1178.89 711.55 1180.04C712.702 1181.2 714.267 1181.86 715.901 1181.87H737.325C738.965 1181.87 740.538 1181.22 741.697 1180.06C742.857 1178.9 743.508 1177.32 743.508 1175.68V1165.75C743.508 1164.11 742.857 1162.54 741.697 1161.38C740.538 1160.22 738.965 1159.57 737.325 1159.57H715.901Z" fill="white"/>
<path d="M781.828 1068.54H760.404C758.431 1068.54 756.538 1067.75 755.143 1066.36C753.748 1064.96 752.964 1063.07 752.964 1061.09V1051.33C752.947 1050.34 753.126 1049.36 753.492 1048.44C753.858 1047.52 754.403 1046.68 755.096 1045.98C755.788 1045.27 756.614 1044.71 757.526 1044.33C758.437 1043.95 759.415 1043.75 760.404 1043.75H781.828C783.801 1043.75 785.694 1044.54 787.089 1045.93C788.484 1047.33 789.268 1049.22 789.268 1051.2V1060.96C789.285 1061.95 789.106 1062.93 788.74 1063.85C788.374 1064.77 787.829 1065.6 787.136 1066.31C786.444 1067.01 785.617 1067.57 784.706 1067.96C783.795 1068.34 782.817 1068.54 781.828 1068.54V1068.54ZM760.404 1045.14C758.764 1045.14 757.191 1045.79 756.032 1046.95C754.872 1048.11 754.221 1049.69 754.221 1051.33V1061.09C754.221 1062.73 754.872 1064.31 756.032 1065.47C757.191 1066.63 758.764 1067.28 760.404 1067.28H781.828C783.468 1067.28 785.041 1066.63 786.2 1065.47C787.36 1064.31 788.011 1062.73 788.011 1061.09V1051.33C788.011 1049.69 787.36 1048.11 786.2 1046.95C785.041 1045.79 783.468 1045.14 781.828 1045.14H760.404Z" fill="white"/>
<path d="M781.828 1106.62H760.404C758.431 1106.62 756.538 1105.84 755.143 1104.44C753.748 1103.05 752.964 1101.15 752.964 1099.18V1089.45C752.964 1087.47 753.747 1085.57 755.141 1084.17C756.535 1082.77 758.428 1081.98 760.404 1081.97H781.828C783.804 1081.98 785.697 1082.77 787.091 1084.17C788.485 1085.57 789.268 1087.47 789.268 1089.45V1099.18C789.268 1101.15 788.484 1103.05 787.089 1104.44C785.694 1105.84 783.801 1106.62 781.828 1106.62V1106.62ZM760.404 1083.46C758.764 1083.46 757.191 1084.11 756.032 1085.27C754.872 1086.43 754.221 1088.01 754.221 1089.65V1099.38C754.221 1101.02 754.872 1102.59 756.032 1103.75C757.191 1104.91 758.764 1105.56 760.404 1105.56H781.828C783.468 1105.56 785.041 1104.91 786.2 1103.75C787.36 1102.59 788.011 1101.02 788.011 1099.38V1089.65C788.011 1088.01 787.36 1086.43 786.2 1085.27C785.041 1084.11 783.468 1083.46 781.828 1083.46H760.404Z" fill="white"/>
<path d="M781.828 1144.87H760.404C758.428 1144.87 756.535 1144.07 755.141 1142.67C753.747 1141.27 752.964 1139.37 752.964 1137.4V1127.67C752.964 1125.69 753.748 1123.8 755.143 1122.4C756.538 1121.01 758.431 1120.22 760.404 1120.22H781.828C783.801 1120.22 785.694 1121.01 787.089 1122.4C788.484 1123.8 789.268 1125.69 789.268 1127.67V1137.4C789.268 1139.37 788.485 1141.27 787.091 1142.67C785.697 1144.07 783.804 1144.87 781.828 1144.87ZM760.404 1121.48C758.764 1121.48 757.191 1122.13 756.032 1123.29C754.872 1124.45 754.221 1126.03 754.221 1127.67V1137.4C754.221 1139.04 754.872 1140.61 756.032 1141.77C757.191 1142.93 758.764 1143.58 760.404 1143.58H781.828C783.468 1143.58 785.041 1142.93 786.2 1141.77C787.36 1140.61 788.011 1139.04 788.011 1137.4V1127.67C788.011 1126.03 787.36 1124.45 786.2 1123.29C785.041 1122.13 783.468 1121.48 781.828 1121.48H760.404Z" fill="white"/>
<path d="M781.828 1183.03H760.404C758.431 1183.03 756.538 1182.24 755.143 1180.85C753.748 1179.45 752.964 1177.56 752.964 1175.58V1165.65C752.964 1163.68 753.748 1161.79 755.143 1160.39C756.538 1158.99 758.431 1158.21 760.404 1158.21H781.828C783.801 1158.21 785.694 1158.99 787.089 1160.39C788.484 1161.79 789.268 1163.68 789.268 1165.65V1175.58C789.268 1177.56 788.484 1179.45 787.089 1180.85C785.694 1182.24 783.801 1183.03 781.828 1183.03ZM760.404 1159.57C758.764 1159.57 757.191 1160.22 756.032 1161.38C754.872 1162.54 754.221 1164.11 754.221 1165.75V1175.68C754.221 1177.32 754.872 1178.9 756.032 1180.06C757.191 1181.22 758.764 1181.87 760.404 1181.87H781.828C783.468 1181.87 785.041 1181.22 786.2 1180.06C787.36 1178.9 788.011 1177.32 788.011 1175.68V1165.75C788.011 1164.11 787.36 1162.54 786.2 1161.38C785.041 1160.22 783.468 1159.57 781.828 1159.57H760.404Z" fill="white"/>
<path d="M778.191 1221.38H650.403C639.393 1221.38 626.233 1212.77 625.771 1201.52L616.05 877.641C615.93 874.887 616.373 872.137 617.351 869.56C618.328 866.983 619.821 864.632 621.737 862.651C623.693 860.609 626.045 858.986 628.649 857.883C631.252 856.779 634.053 856.217 636.88 856.232H805.502C808.329 856.219 811.129 856.782 813.732 857.885C816.335 858.989 818.687 860.61 820.645 862.651C822.55 864.638 824.033 866.991 825.005 869.567C825.976 872.143 826.417 874.89 826.298 877.641L825.769 895.311H824.083L824.612 877.608C824.75 875.092 824.375 872.575 823.511 870.209C822.647 867.843 821.312 865.677 819.587 863.843C817.797 861.96 815.643 860.464 813.255 859.445C810.867 858.427 808.296 857.908 805.7 857.92H637.078C634.482 857.908 631.911 858.427 629.523 859.445C627.135 860.464 624.981 861.96 623.192 863.843C621.416 865.646 620.03 867.796 619.12 870.158C618.21 872.521 617.795 875.045 617.902 877.575L627.622 1201.59C628.019 1211.78 640.285 1219.66 650.535 1219.66H778.324L778.191 1221.38Z" fill="#3F5A9F"/>
<path d="M822.639 945.049L817.019 1133.44L818.738 1133.5L824.358 945.101L822.639 945.049Z" fill="#3F5A9F"/>
<path d="M784.242 817.153V887.27H657.247V817.153C656.941 812.461 654.846 808.066 651.394 804.877C647.924 801.652 643.367 799.856 638.632 799.847H765.627C770.362 799.856 774.92 801.652 778.39 804.877C781.841 808.066 783.937 812.461 784.242 817.153V817.153Z" fill="white"/>
<path d="M657.247 817.153H619.984C620.289 812.454 622.398 808.055 625.87 804.877C629.334 801.643 633.895 799.845 638.632 799.845C643.369 799.845 647.93 801.643 651.394 804.877C654.846 808.066 656.941 812.461 657.247 817.153V817.153Z" fill="#2E4882"/>
<path d="M784.804 887.833H656.685V817.153C656.363 812.617 654.316 808.378 650.965 805.307C647.612 802.165 643.192 800.414 638.599 800.409V799.284H765.594C770.5 799.249 775.233 801.096 778.82 804.446C782.397 807.73 784.566 812.272 784.87 817.12V817.12L784.804 887.833ZM657.809 886.708H783.68V817.219C783.382 812.675 781.345 808.42 777.993 805.34C774.64 802.198 770.221 800.447 765.627 800.443H645.146C647.598 801.331 649.846 802.704 651.758 804.48C655.33 807.767 657.497 812.306 657.809 817.153V886.708Z" fill="#2E4882"/>
<path d="M792.078 887.833H649.278C648.379 887.878 647.487 887.647 646.721 887.172C645.956 886.696 645.354 885.999 644.994 885.172C644.635 884.345 644.536 883.429 644.711 882.544C644.886 881.66 645.326 880.85 645.972 880.222C646.398 879.78 646.913 879.433 647.483 879.204C648.053 878.976 648.665 878.872 649.278 878.898H657.081V880.057H649.278C648.843 880.054 648.412 880.138 648.009 880.302C647.606 880.467 647.24 880.71 646.931 881.016C646.453 881.477 646.125 882.071 645.989 882.721C645.853 883.372 645.916 884.048 646.169 884.662C646.422 885.276 646.854 885.799 647.409 886.164C647.963 886.529 648.615 886.718 649.278 886.708H792.078C792.955 886.708 793.796 886.359 794.416 885.738C795.036 885.118 795.384 884.276 795.384 883.399C795.384 882.521 795.036 881.679 794.416 881.059C793.796 880.438 792.955 880.09 792.078 880.09H784.275V878.932H792.078C793.242 878.966 794.347 879.45 795.161 880.284C795.975 881.117 796.434 882.233 796.442 883.399C796.469 884.013 796.365 884.625 796.137 885.195C795.909 885.766 795.562 886.281 795.12 886.708C794.284 887.454 793.198 887.856 792.078 887.833V887.833Z" fill="#2E4882"/>
<path d="M797.5 1225.45C797.5 1228.76 820.645 1231.17 849.112 1231.17C877.579 1231.17 900.757 1228.62 900.757 1225.45V1209.99H797.533V1225.41C797.522 1225.43 797.511 1225.44 797.5 1225.45V1225.45Z" fill="#F49B51"/>
<path d="M849.112 1215.72C877.616 1215.72 900.723 1213.16 900.723 1209.99C900.723 1206.83 877.616 1204.27 849.112 1204.27C820.608 1204.27 797.5 1206.83 797.5 1209.99C797.5 1213.16 820.608 1215.72 849.112 1215.72Z" fill="#FCC659"/>
<path d="M785.3 1206.82C785.3 1209.96 808.444 1212.54 836.912 1212.54C865.379 1212.54 888.556 1209.96 888.556 1206.82C888.556 1206.82 888.556 1206.82 888.556 1206.65V1191.2H785.333V1206.62C785.307 1206.68 785.295 1206.75 785.3 1206.82V1206.82Z" fill="#F49B51"/>
<path d="M836.912 1197.09C865.416 1197.09 888.523 1194.53 888.523 1191.37C888.523 1188.2 865.416 1185.64 836.912 1185.64C808.407 1185.64 785.3 1188.2 785.3 1191.37C785.3 1194.53 808.407 1197.09 836.912 1197.09Z" fill="#FCC659"/>
<path d="M797.5 1188.19C797.5 1191.33 820.644 1193.91 849.112 1193.91C877.579 1193.91 900.756 1191.33 900.756 1188.19C900.756 1188.19 900.756 1188.19 900.756 1188.02V1172.57H797.533V1187.99C797.507 1188.05 797.496 1188.12 797.5 1188.19V1188.19Z" fill="#F49B51"/>
<path d="M849.112 1178.43C877.616 1178.43 900.723 1175.86 900.723 1172.7C900.723 1169.54 877.616 1166.98 849.112 1166.98C820.608 1166.98 797.5 1169.54 797.5 1172.7C797.5 1175.86 820.608 1178.43 849.112 1178.43Z" fill="#FCC659"/>
<path d="M849.112 1231.77C870.107 1231.77 901.352 1230.08 901.352 1225.45H900.128C900.128 1227.23 882.605 1230.54 849.112 1230.54H845.475V1231.77H849.112Z" fill="#2E4882"/>
<path d="M828.646 1231.3V1230.08C823.422 1229.85 818.727 1229.48 814.396 1229.09V1230.28C818.595 1230.71 823.389 1231.07 828.646 1231.3Z" fill="#2E4882"/>
<path d="M869.479 1211.78C888.887 1209.99 888.887 1207.55 888.887 1206.75H887.663C887.663 1207.35 884.357 1209.2 869.38 1210.56L869.479 1211.78Z" fill="#2E4882"/>
<path d="M836.647 1213.07C842.466 1213.07 848.153 1213.07 853.608 1212.77V1211.55C843.888 1211.91 833.175 1211.95 823.157 1211.55V1212.77C827.489 1213.01 832.051 1213.07 836.647 1213.07Z" fill="#2E4882"/>
<path d="M810.23 1212.28V1211.05C804.708 1210.69 799.914 1210.23 795.946 1209.66V1210.86C799.749 1211.45 804.708 1211.91 810.23 1212.28Z" fill="#2E4882"/>
<path d="M883.828 1177.57C901.021 1175.81 901.021 1173.6 901.021 1172.77H899.831C899.831 1172.77 899.368 1174.75 883.696 1176.38L883.828 1177.57Z" fill="#2E4882"/>
<path d="M848.814 1179.09C854.733 1179.09 860.552 1179.09 866.04 1178.76V1177.57C860.552 1177.77 854.766 1177.86 848.847 1177.86C838.234 1177.86 828.051 1177.53 819.421 1176.87V1178.06C827.985 1178.76 838.168 1179.09 848.814 1179.09Z" fill="#2E4882"/>
<path d="M779.183 1169.49C779.183 1172.64 802.328 1175.22 830.828 1175.22C859.328 1175.22 882.406 1172.8 882.406 1169.49C882.422 1169.44 882.422 1169.38 882.406 1169.33V1153.94H779.216V1169.49H779.183Z" fill="#F49B51"/>
<path d="M830.828 1159.8C859.332 1159.8 882.44 1157.23 882.44 1154.07C882.44 1150.91 859.332 1148.35 830.828 1148.35C802.324 1148.35 779.216 1150.91 779.216 1154.07C779.216 1157.23 802.324 1159.8 830.828 1159.8Z" fill="#FCC659"/>
<path d="M788.772 1154.07C788.772 1156.19 807.585 1157.91 830.828 1157.91C854.071 1157.91 872.884 1156.19 872.884 1154.07C872.884 1151.96 854.038 1150.23 830.828 1150.23C807.618 1150.23 788.772 1151.96 788.772 1154.07Z" fill="#F49B51"/>
<path d="M770.686 830.687H743.078V834.095H770.686V830.687Z" fill="#E1EAFF"/>
<path d="M730.283 830.687H674.803V834.095H730.283V830.687Z" fill="#E1EAFF"/>
<path d="M770.653 845.478H706.742V848.886H770.653V845.478Z" fill="#E1EAFF"/>
<path d="M698.906 845.478H674.803V848.886H698.906V845.478Z" fill="#E1EAFF"/>
<path d="M758.75 861.427H732.597V864.835H758.75V861.427Z" fill="#E1EAFF"/>
<path d="M721.587 861.427H674.803V864.835H721.587V861.427Z" fill="#E1EAFF"/>
<path d="M719.637 1006.16H685.02V1007.88H719.637V1006.16Z" fill="#3F5A9F"/>
<path d="M790.491 1007.85H733.06V1006.16H790.491C791.547 1006.16 792.562 1005.75 793.321 1005.02C794.08 1004.28 794.523 1003.28 794.558 1002.22L797.566 923.305H799.253L796.244 1002.26C796.201 1003.76 795.576 1005.18 794.502 1006.22C793.427 1007.27 791.989 1007.85 790.491 1007.85V1007.85Z" fill="#3F5A9F"/>
<path d="M470.407 887.336C463.623 885.992 456.592 886.69 450.204 889.343C443.816 891.996 438.357 896.485 434.517 902.242C430.678 907.999 428.629 914.766 428.631 921.688C428.633 928.609 430.685 935.375 434.528 941.13C438.37 946.885 443.832 951.371 450.221 954.021C456.61 956.67 463.641 957.365 470.425 956.017C477.209 954.669 483.441 951.338 488.334 946.447C493.227 941.555 496.561 935.321 497.916 928.533C499.725 919.419 497.843 909.96 492.685 902.234C487.526 894.509 479.513 889.15 470.407 887.336ZM491.204 927.21C490.123 932.647 487.465 937.644 483.562 941.578C479.658 945.511 474.683 948.205 469.257 949.323C463.832 950.441 458.198 949.934 453.059 947.865C447.92 945.795 443.505 942.255 440.366 937.688C437.227 933.121 435.503 927.728 435.409 922.185C435.316 916.643 436.857 911.195 439.841 906.525C442.825 901.854 447.118 898.167 452.184 895.925C457.25 893.684 462.864 892.987 468.324 893.921H469.084C476.278 895.359 482.627 899.548 486.782 905.597C490.938 911.647 492.571 919.08 491.336 926.316C491.314 926.617 491.27 926.915 491.204 927.21Z" fill="#FCC659"/>
<path d="M491.336 926.448C491.352 926.702 491.352 926.956 491.336 927.21C490.25 932.644 487.587 937.637 483.681 941.565C479.775 945.493 474.798 948.182 469.374 949.296C463.949 950.409 458.317 949.898 453.181 947.826C448.045 945.754 443.633 942.213 440.497 937.645C437.361 933.078 435.64 927.686 435.548 922.145C435.456 916.604 436.998 911.159 439.981 906.49C442.965 901.821 447.257 898.135 452.321 895.894C457.386 893.653 462.998 892.955 468.456 893.888H469.217C476.419 895.355 482.764 899.58 486.897 905.664C491.029 911.747 492.622 919.206 491.336 926.448V926.448Z" fill="#F49B51"/>
<path d="M491.402 919.301V918.606C490.97 914.648 489.696 910.828 487.665 907.403C485.635 903.979 482.896 901.029 479.632 898.752L480.061 898.124C483.408 900.445 486.219 903.456 488.306 906.955C490.393 910.453 491.708 914.358 492.163 918.408V919.169L491.402 919.301Z" fill="#2E4882"/>
<path d="M479.532 898.818C474.22 895.131 467.79 893.411 461.348 893.954V893.193C467.939 892.644 474.518 894.398 479.962 898.157L479.532 898.818Z" fill="#2E4882"/>
<path d="M485.649 940.081L485.087 939.585C487.443 936.794 489.229 933.568 490.344 930.088L491.071 930.32C489.914 933.895 488.072 937.211 485.649 940.081V940.081Z" fill="#2E4882"/>
<path d="M490.41 899.877C488.127 897.063 485.403 894.638 482.343 892.697L482.806 892.002C485.87 894.028 488.612 896.504 490.939 899.348L490.41 899.877Z" fill="#2E4882"/>
<path d="M478.078 954.012L477.747 953.284C485.991 949.596 492.469 942.829 495.799 934.428C499.128 926.027 499.045 916.656 495.568 908.315L496.229 908.084C498.976 914.59 499.702 921.773 498.312 928.699C497.184 934.221 494.762 939.395 491.244 943.796C487.726 948.197 483.213 951.699 478.078 954.012V954.012Z" fill="#2E4882"/>
<path d="M464.92 936L469.693 906.909H472.534L467.761 936H464.92ZM451.682 927.932L452.136 925.091H473.841L473.386 927.932H451.682ZM454.693 936L459.466 906.909H462.307L457.534 936H454.693ZM453.386 917.818L453.841 914.977H475.545L475.091 917.818H453.386Z" fill="#FCC659"/>
<path d="M749.956 964.336C748.342 970.555 744.924 976.156 740.133 980.433C735.342 984.71 729.393 987.471 723.036 988.368C716.679 989.265 710.199 988.258 704.413 985.474C698.628 982.689 693.796 978.252 690.527 972.723C687.257 967.193 685.698 960.818 686.045 954.403C686.391 947.987 688.629 941.818 692.475 936.673C696.321 931.529 701.603 927.64 707.655 925.496C713.707 923.352 720.258 923.05 726.481 924.629C730.634 925.682 734.538 927.546 737.969 930.115C741.399 932.684 744.288 935.906 746.47 939.596C748.652 943.286 750.083 947.372 750.681 951.618C751.279 955.864 751.033 960.186 749.956 964.336Z" fill="#6D92F0"/>
<path d="M717.223 973.006L702.345 957.685L703.965 956.097L716.595 969.101L732.862 935.383L734.912 936.375L717.223 973.006Z" fill="white"/>
<path d="M440.882 902.591C443.939 904.153 446.376 906.708 447.792 909.837C449.193 906.701 451.618 904.134 454.669 902.558C451.629 900.998 449.206 898.456 447.792 895.344C446.367 898.468 443.933 901.02 440.882 902.591Z" fill="#FFE6A6"/>
<path d="M468.886 947.13C470.648 948.048 472.056 949.526 472.887 951.332V951.332C473.741 949.531 475.156 948.056 476.92 947.13C475.141 946.224 473.72 944.743 472.887 942.927V942.927C472.075 944.746 470.663 946.23 468.886 947.13V947.13Z" fill="#FFE6A6"/>
</g>
<circle cx="1728" cy="1387" r="305" fill="#6D92F0" fill-opacity="0.2"/>
<circle cx="1728" cy="1387" r="227" fill="#F9F9F9"/>
<circle cx="305" cy="305" r="305" fill="#6D92F0" fill-opacity="0.2"/>
<circle cx="305" cy="305" r="227" fill="#F9F9F9"/>
<defs>
<clipPath id="clip0_1_327">
<rect width="779" height="548" fill="white" transform="translate(198 693)"/>
</clipPath>
</defs>
</svg>
