<svg width="2056" height="1757" viewBox="0 0 2056 1757" fill="none" xmlns="http://www.w3.org/2000/svg">
<path d="M311.5 738L314.5 735L311.5 732" stroke="#868FA0" stroke-width="1.5" stroke-linecap="round" stroke-linejoin="round"/>
<g clip-path="url(#clip0_1_327)">
<path d="M806.963 688.266C778.992 673.938 755.286 670.1 732.406 676.122L732.075 674.964C755.219 668.842 779.256 672.714 807.525 687.174L806.963 688.266Z" fill="#2E4882"/>
<path d="M827.991 689.821C795.523 669.239 756.906 650.875 715.478 670.927L714.949 669.835C756.906 649.518 795.986 668.015 828.587 688.795L827.991 689.821Z" fill="#2E4882"/>
<path d="M779.951 1147.02C846.672 1151.72 930.09 1125.25 966.857 1067.18C982.099 1043.15 992.216 1012.28 981.603 985.71C973.568 965.558 939.613 942.693 932.273 922.376C924.933 902.059 925.891 878.334 929.694 856.528C940.671 793.955 879.669 696.274 750.822 685.85C653.154 677.942 608.948 753.916 525.795 764.306C441.913 774.763 343.518 711.958 283.508 764.306C208.984 829.295 243.832 894.349 253.024 924.792C264.695 963.904 207.727 1008.44 219.465 1066.12C245.717 1194.84 436.623 1108.04 492.566 1102.52C549.402 1097.02 605.774 1113.21 661.453 1126.18C717.131 1139.15 776.115 1148.94 830.57 1131.11L779.951 1147.02Z" fill="#E7F5FF"/>
<path d="M591.689 1209C804.147 1209 976.379 1200.44 976.379 1189.87C976.379 1179.31 804.147 1170.75 591.689 1170.75C379.231 1170.75 207 1179.31 207 1189.87C207 1200.44 379.231 1209 591.689 1209Z" fill="#E9ECF2"/>
<path d="M226.044 861.69H224.821C222.11 837.832 229.417 814.669 247.965 788.892L248.957 789.62C230.607 815.232 223.532 838.13 226.044 861.69Z" fill="#2E4882"/>
<path d="M218.341 877.672L217.183 878.036C203.231 833.563 227.102 797.528 252.429 768.178L253.354 768.972C228.326 798.091 204.586 833.762 218.341 877.672Z" fill="#2E4882"/>
<path d="M472.365 811.79H470.579C470.579 810.864 470.579 809.97 470.579 809.077H472.365C472.431 809.904 472.398 810.93 472.365 811.79Z" fill="#3F5A9F"/>
<path d="M593.342 796.933C592.847 795.212 592.284 793.624 591.656 791.804L593.309 791.175C593.981 792.906 594.555 794.674 595.029 796.47L593.342 796.933ZM473.092 803.816L471.505 803.518C471.802 801.698 472.199 799.878 472.629 798.091L474.348 798.521C473.753 800.275 473.389 802.029 473.092 803.816ZM589.54 786.741C588.78 785.153 587.92 783.432 587.027 782.009L588.548 781.083C589.474 782.671 590.367 784.392 591.16 785.98L589.54 786.741ZM475.737 793.359L474.051 792.764C474.646 791.043 475.34 789.455 476.101 787.635L477.721 788.363C476.993 790.05 476.332 791.672 475.737 793.359ZM583.919 777.575C582.895 776.152 581.77 774.697 580.613 773.34L581.936 772.182C583.159 773.605 584.316 775.06 585.242 776.55L583.919 777.575ZM480.134 783.432L478.58 782.572C479.473 780.95 480.465 779.263 481.49 777.84L482.978 778.833C481.953 780.421 480.994 781.976 480.134 783.432ZM577.042 769.336C575.753 768.079 574.397 766.854 573.042 765.729L574.166 764.339C575.588 765.531 576.976 766.755 578.266 768.045L577.042 769.336ZM486.185 774.597L484.73 773.505C485.894 772.054 487.13 770.663 488.433 769.336L489.69 770.593C488.453 771.867 487.283 773.203 486.185 774.597V774.597ZM568.843 762.586C567.355 761.593 565.834 760.633 564.28 759.74L565.14 758.218C566.727 759.111 568.446 760.104 569.835 761.13L568.843 762.586ZM493.69 766.887L492.5 765.531C493.922 764.339 495.376 763.181 496.864 762.222L497.955 763.578C496.434 764.571 495.046 765.696 493.69 766.887ZM559.321 757.324C557.7 756.563 556.014 755.902 554.328 755.306L554.923 753.651C556.642 754.247 558.229 754.942 560.048 755.703L559.321 757.324ZM502.386 760.633L501.493 759.111C503.08 758.152 504.799 757.258 506.353 756.464L507.147 758.085C505.527 758.78 503.94 759.641 502.386 760.567V760.633ZM549.17 753.651C547.418 753.221 545.665 752.857 543.88 752.559L544.178 750.806C545.996 751.103 547.815 751.467 549.6 751.931L549.17 753.651ZM512.073 755.769L511.445 754.115C513.164 753.453 514.95 752.89 516.735 752.394L517.198 754.082C515.479 754.677 513.76 755.24 512.073 755.868V755.769ZM538.524 751.931C536.738 751.931 534.92 751.732 533.135 751.765V749.978C534.986 749.978 536.838 749.978 538.656 749.978L538.524 751.931ZM522.422 752.857L522.091 751.103C523.877 750.773 525.728 750.508 527.58 750.309V752.063C525.993 752.361 524.207 752.626 522.455 752.957L522.422 752.857Z" fill="#3F5A9F"/>
<path d="M596.748 804.61L594.996 804.841C594.996 803.981 594.731 803.121 594.566 802.26L596.318 801.929C596.483 802.823 596.616 803.716 596.748 804.61Z" fill="#3F5A9F"/>
<path d="M477.787 812.353L471.34 815.43L464.661 812.948L471.902 828.236L477.787 812.353Z" fill="#3F5A9F"/>
<path d="M417.314 900.206C417.05 896.169 418.703 891.404 419.761 891.901C420.819 892.397 419.761 896.136 420.588 897.261C421.273 898.164 421.732 899.218 421.927 900.334C422.123 901.451 422.049 902.598 421.712 903.681L417.314 900.206Z" fill="#FCB47E"/>
<path d="M380.912 1182.4L377.672 1156.35H396.749L397.609 1182.4H380.912Z" fill="#FCB47E"/>
<path d="M397.245 1171.15C390.037 1173.03 379.325 1169.59 379.325 1169.59L378.564 1163.44L397.047 1164.99L397.245 1171.15Z" fill="#FCA377"/>
<path d="M289.889 1182.4L291.642 1156.35H310.719L306.586 1182.4H289.889Z" fill="#FCB47E"/>
<path d="M309.826 1161.91L308.537 1170.15C302.392 1170.57 296.269 1169.07 291.013 1165.85L291.542 1157.84L309.826 1161.91Z" fill="#FCA377"/>
<path d="M421.48 1166.08C421.48 1166.08 408.685 1005.89 374.332 928.002L342.327 929.623C345.349 1009 354.268 1088.03 369.009 1166.08C369.009 1166.08 399.097 1173.2 421.48 1166.08Z" fill="#1B59F8"/>
<path d="M330.821 1166.08C330.821 1166.08 299.345 1171.18 281.227 1158.94C281.227 1158.94 290.782 985.247 320.076 928.299H354.66C354.66 928.299 353.536 1021.94 330.821 1166.08Z" fill="#1B59F8"/>
<path d="M321.002 845.84C321.861 842.828 323.448 838.957 323.448 838.957C323.004 841.546 322.837 844.175 322.952 846.799C330.425 850.108 346.097 854.708 370.266 848.751C369.968 846.27 369.836 843.92 369.836 843.92C370.281 845.468 370.834 846.983 371.489 848.454L374.101 847.759C373.571 844.972 373.229 842.153 373.076 839.321C373.879 842.041 374.988 844.661 376.382 847.13C377.87 846.7 379.358 846.204 380.912 845.707C380.912 845.707 376.085 838.295 372.911 819.235C370.299 803.452 362.198 796.073 349.767 796.304C324.473 796.999 317.728 843.953 317.728 843.953C318.763 844.676 319.858 845.307 321.002 845.84V845.84Z" fill="#374263"/>
<path d="M408.454 901.563C408.454 901.563 398.303 855.899 357.999 853.549C295.973 849.91 276.895 890.279 276.895 890.279L408.454 901.563Z" fill="white"/>
<path d="M344.212 807.753C351.089 803.849 363.091 803.683 365.835 812.948C368.381 821.519 367.984 847.329 356.544 846.832C352.384 846.745 348.395 845.162 345.305 842.374C342.215 839.585 340.231 835.776 339.715 831.644C339.252 829.758 337.368 811.658 344.212 807.753Z" fill="#FCB47E"/>
<path d="M340.013 831.181C340.013 831.181 334.657 832.835 333.665 827.872C332.673 822.908 337.93 821.816 339.583 823.736L340.013 831.181Z" fill="#FCB47E"/>
<path d="M414.074 956.591C421.745 941.535 427.729 906.46 427.729 906.46C430.17 902.876 431.826 898.817 432.59 894.548C432.59 892.496 431.664 891.239 430.275 891.967C429.779 890.312 428.82 890.014 427.498 890.974C426.771 889.551 425.878 889.617 424.985 890.312C423.001 887.003 419.1 897.427 419.133 898.75C419.166 900.074 419.397 902.82 419.53 903.747C419.662 904.673 396.385 944.546 396.385 944.546L414.074 956.591Z" fill="#FCB47E"/>
<path d="M287.641 1161.75H286.616C286.616 1160.03 298.386 987.431 327.978 931.344L328.904 931.807C299.577 987.629 287.773 1160.03 287.641 1161.75Z" fill="white"/>
<path d="M312.802 900.504L301.891 962.647C330.226 971.151 362.198 963.507 388.351 946.102L377.506 884.852L357.371 854.145C356.112 855.681 354.524 856.914 352.725 857.752C350.925 858.591 348.96 859.013 346.975 858.987C344.99 858.962 343.037 858.49 341.259 857.605C339.481 856.721 337.926 855.448 336.707 853.88L308.504 865.727L312.802 900.504Z" fill="white"/>
<path d="M415.893 913.971L410.173 899.776C410.173 899.776 395.856 870.624 384.086 863.112L376.548 914.071L415.893 913.971Z" fill="white"/>
<path d="M348.973 1026.44H347.981C349.601 1009.04 350.957 992.03 352.015 975.849H353.007C351.982 991.898 350.626 1009.04 348.973 1026.44Z" fill="#47393D"/>
<path d="M376.713 1166.45C376.515 1165.42 355.255 1063.44 349.237 1012.05H350.229C356.28 1063.37 377.506 1165.29 377.705 1166.31L376.713 1166.45Z" fill="white"/>
<path d="M378.01 884.773L377.033 884.946L387.854 946.238L388.831 946.066L378.01 884.773Z" fill="#3F5A9F"/>
<path d="M335.649 822.941C336.291 822.63 337.022 822.552 337.716 822.721C338.41 822.89 339.023 823.296 339.451 823.868C339.754 821.582 340.389 819.352 341.335 817.25L342.195 821.783C345.718 822.353 349.274 822.696 352.841 822.809H358.032L358.892 815.265L360.545 822.644C361.669 822.644 362.529 822.445 363.422 822.346L364.083 817.879L365.306 822.081C366.53 821.883 367.356 821.684 367.753 821.585C368.017 818.276 368.117 809.871 362.463 805.04C355.85 799.348 342.261 802.459 339.054 809.275C337.114 813.591 335.961 818.219 335.649 822.941V822.941Z" fill="#374263"/>
<path d="M348.477 859.109C350.256 859.008 351.991 858.51 353.553 857.651C355.115 856.792 356.464 855.594 357.503 854.145L356.082 837.6L340.476 828.302L336.508 853.781C339.687 856.999 343.96 858.902 348.477 859.109Z" fill="#FCB47E"/>
<path d="M356.015 847.759V846.766C352.959 846.386 350.049 845.233 347.561 843.415C345.074 841.597 343.09 839.174 341.798 836.376L340.939 836.839C342.308 839.798 344.414 842.356 347.054 844.268C349.693 846.179 352.779 847.381 356.015 847.759V847.759Z" fill="#374263"/>
<path d="M376.548 1194.67L424.787 1194.84C425.182 1194.84 425.573 1194.76 425.935 1194.6C426.298 1194.44 426.624 1194.21 426.894 1193.93C427.164 1193.64 427.372 1193.3 427.504 1192.92C427.636 1192.55 427.69 1192.15 427.663 1191.76V1191.76C427.663 1191.4 427.663 1191.03 427.663 1190.64C427.563 1189.46 427.189 1188.33 426.572 1187.33C424.291 1184.28 419.96 1182.89 411.958 1179.72C408.097 1178.13 404.408 1176.16 400.948 1173.83C400.649 1173.55 400.252 1173.4 399.844 1173.41C399.435 1173.42 399.048 1173.6 398.766 1173.89C389.211 1183.19 383.359 1181.2 381.606 1177.2C380.284 1174.26 378.3 1174.88 377.87 1175.71C376.182 1180.38 375.201 1185.28 374.961 1190.24C374.961 1190.67 374.961 1191.07 374.961 1191.36C374.961 1191.66 374.961 1192.55 374.961 1192.55C374.896 1192.8 374.887 1193.06 374.936 1193.31C374.985 1193.56 375.089 1193.79 375.242 1194C375.395 1194.2 375.591 1194.37 375.818 1194.48C376.044 1194.6 376.293 1194.67 376.548 1194.67V1194.67Z" fill="#374263"/>
<path d="M409.082 1184.65C410.055 1184.19 410.863 1183.44 411.39 1182.5C411.918 1181.57 412.139 1180.49 412.024 1179.42H411.198C411.299 1180.32 411.109 1181.24 410.658 1182.03C410.206 1182.82 409.515 1183.45 408.685 1183.82L409.082 1184.65Z" fill="white"/>
<path d="M413.314 1186.07C414.218 1185.61 414.967 1184.89 415.466 1184.01C415.966 1183.13 416.195 1182.12 416.124 1181.11H415.298C415.337 1181.95 415.131 1182.8 414.702 1183.53C414.274 1184.26 413.642 1184.86 412.884 1185.24L413.314 1186.07Z" fill="white"/>
<path d="M386.103 1183.82C388.244 1183.78 390.353 1183.29 392.286 1182.36L391.922 1181.6C391.922 1181.6 384.516 1185.31 380.747 1180.61L380.118 1181.14C380.837 1182.02 381.752 1182.73 382.792 1183.19C383.831 1183.66 384.965 1183.87 386.103 1183.82V1183.82Z" fill="white"/>
<path d="M380.871 1190.91L380.868 1191.73L408.972 1191.84L408.975 1191.01L380.871 1190.91Z" fill="white"/>
<path d="M412.59 1191.05L412.587 1191.87L419.232 1191.9L419.235 1191.07L412.59 1191.05Z" fill="white"/>
<path d="M286.351 1194.67L334.558 1194.84C334.955 1194.84 335.35 1194.77 335.716 1194.61C336.083 1194.46 336.413 1194.23 336.687 1193.94C336.96 1193.65 337.171 1193.31 337.305 1192.93C337.439 1192.56 337.495 1192.16 337.467 1191.76V1191.76C337.467 1191.4 337.467 1191.03 337.467 1190.64C337.366 1189.46 336.993 1188.33 336.376 1187.33C334.095 1184.28 329.763 1182.89 321.762 1179.72C317.901 1178.13 314.211 1176.16 310.752 1173.83C310.457 1173.64 310.107 1173.56 309.759 1173.59C309.411 1173.63 309.085 1173.78 308.834 1174.02C299.279 1183.32 293.427 1181.34 291.675 1177.33C290.352 1174.39 288.368 1175.02 287.939 1175.84C286.25 1180.51 285.27 1185.41 285.029 1190.37C285.002 1190.74 285.002 1191.12 285.029 1191.5V1192.69C284.941 1193.13 285.031 1193.58 285.279 1193.95C285.527 1194.33 285.913 1194.58 286.351 1194.67Z" fill="#374263"/>
<path d="M318.753 1184.65C319.727 1184.19 320.534 1183.44 321.062 1182.5C321.589 1181.57 321.811 1180.49 321.696 1179.42H320.836C320.951 1180.31 320.775 1181.22 320.334 1182.01C319.893 1182.79 319.212 1183.42 318.39 1183.79L318.753 1184.65Z" fill="white"/>
<path d="M322.985 1186.07C323.884 1185.6 324.628 1184.89 325.127 1184C325.626 1183.12 325.858 1182.12 325.796 1181.11H324.969C325.009 1181.95 324.802 1182.8 324.374 1183.53C323.946 1184.26 323.314 1184.86 322.556 1185.24L322.985 1186.07Z" fill="white"/>
<path d="M295.774 1183.82C297.916 1183.78 300.024 1183.29 301.957 1182.36L301.594 1181.6C301.594 1181.6 294.187 1185.31 290.418 1180.61L289.79 1181.14C290.508 1182.02 291.424 1182.73 292.463 1183.19C293.503 1183.66 294.637 1183.87 295.774 1183.82V1183.82Z" fill="white"/>
<path d="M290.542 1190.91L290.539 1191.73L318.643 1191.84L318.646 1191.01L290.542 1190.91Z" fill="white"/>
<path d="M322.261 1191.05L322.258 1191.87L328.903 1191.9L328.906 1191.07L322.261 1191.05Z" fill="white"/>
<path d="M457.691 891.09L296.586 916.54C293.249 917.067 290.971 920.202 291.498 923.542L307.86 1027.28C308.387 1030.62 311.519 1032.9 314.856 1032.38L475.961 1006.93C479.298 1006.4 481.576 1003.26 481.049 999.924L464.687 896.182C464.16 892.842 461.028 890.563 457.691 891.09Z" fill="#6D92F0"/>
<path d="M345.293 981.387L316.292 985.968C315.39 986.111 314.775 986.958 314.917 987.86L315.799 993.45C315.941 994.352 316.787 994.968 317.689 994.826L346.69 990.244C347.592 990.102 348.208 989.255 348.065 988.352L347.184 982.763C347.042 981.861 346.195 981.244 345.293 981.387Z" fill="white"/>
<path d="M383.623 975.349L354.622 979.93C353.72 980.073 353.105 980.92 353.247 981.823L354.128 987.412C354.271 988.314 355.117 988.93 356.019 988.788L385.02 984.207C385.922 984.064 386.538 983.217 386.395 982.314L385.514 976.725C385.371 975.823 384.525 975.206 383.623 975.349Z" fill="white"/>
<path d="M421.986 969.273L392.985 973.854C392.083 973.997 391.467 974.844 391.609 975.746L392.491 981.336C392.633 982.238 393.48 982.854 394.382 982.712L423.383 978.13C424.284 977.988 424.9 977.141 424.758 976.238L423.876 970.649C423.734 969.746 422.887 969.13 421.986 969.273Z" fill="white"/>
<path d="M460.282 963.235L431.281 967.816C430.38 967.959 429.764 968.806 429.906 969.709L430.788 975.298C430.93 976.2 431.777 976.816 432.678 976.674L461.679 972.093C462.581 971.95 463.197 971.103 463.055 970.2L462.173 964.611C462.031 963.709 461.184 963.092 460.282 963.235Z" fill="white"/>
<path d="M462.676 980.6L424.53 986.626C423.43 986.799 422.679 987.833 422.852 988.934L423.62 993.804C423.794 994.905 424.827 995.657 425.927 995.483L464.073 989.457C465.173 989.283 465.924 988.25 465.75 987.149L464.982 982.279C464.808 981.177 463.776 980.426 462.676 980.6Z" fill="white"/>
<path d="M316.274 948.451L314.422 936.837C314.232 935.617 314.532 934.372 315.257 933.373C315.982 932.375 317.073 931.704 318.29 931.509L340.873 927.935C342.09 927.754 343.33 928.058 344.325 928.782C345.321 929.506 345.992 930.592 346.196 931.807L348.014 943.454C348.123 944.066 348.109 944.692 347.972 945.298C347.836 945.904 347.58 946.476 347.219 946.981C346.859 947.487 346.402 947.915 345.874 948.241C345.346 948.568 344.759 948.785 344.146 948.881L321.597 952.19C320.396 952.393 319.165 952.114 318.168 951.414C317.172 950.714 316.491 949.65 316.274 948.451ZM318.489 932.733C318.043 932.793 317.613 932.943 317.227 933.174C316.841 933.406 316.506 933.714 316.243 934.079C315.979 934.445 315.794 934.86 315.697 935.3C315.6 935.74 315.593 936.196 315.678 936.638L317.497 948.252C317.552 948.702 317.699 949.135 317.929 949.526C318.158 949.916 318.465 950.255 318.831 950.522C319.197 950.789 319.613 950.978 320.055 951.077C320.497 951.176 320.954 951.183 321.398 951.098L343.947 947.524C344.397 947.469 344.83 947.322 345.22 947.092C345.61 946.863 345.949 946.555 346.215 946.189C346.482 945.823 346.67 945.406 346.769 944.964C346.868 944.522 346.876 944.065 346.791 943.62L344.939 932.005C344.88 931.559 344.73 931.129 344.499 930.742C344.267 930.356 343.96 930.021 343.594 929.757C343.229 929.494 342.814 929.308 342.374 929.211C341.935 929.114 341.48 929.108 341.038 929.193L318.489 932.733Z" fill="white"/>
<path d="M466.435 903.735L465.324 903.91L469.247 928.783L470.358 928.608L466.435 903.735Z" fill="#2E4882"/>
<path d="M384.714 1021.91V1020.79L476.068 1006.36C477.517 1006.12 478.815 1005.32 479.676 1004.13C480.537 1002.94 480.892 1001.46 480.663 1000L472.728 949.708L473.852 949.51L481.788 999.839C482.048 1001.59 481.621 1003.37 480.597 1004.8C480.084 1005.52 479.434 1006.12 478.685 1006.58C477.935 1007.04 477.102 1007.35 476.233 1007.48L384.714 1021.91Z" fill="#2E4882"/>
<path d="M368.85 1023.27L335.017 1028.63L335.193 1029.74L369.025 1024.39L368.85 1023.27Z" fill="#2E4882"/>
<path d="M431.333 891.867C431.498 891.921 431.65 892.01 431.779 892.127C431.907 892.244 432.009 892.387 432.078 892.547C432.147 892.706 432.181 892.879 432.178 893.053C432.175 893.227 432.135 893.398 432.061 893.555C431.499 894.746 430.573 896.004 429.945 896.07C428.787 896.07 429.349 894.151 429.945 892.761C429.986 892.604 430.059 892.457 430.159 892.33C430.259 892.202 430.384 892.097 430.527 892.019C430.669 891.942 430.826 891.894 430.987 891.879C431.149 891.865 431.311 891.883 431.465 891.934L431.333 891.867Z" fill="#FCB47E"/>
<path d="M429.349 891.834C429.578 891.998 429.747 892.232 429.831 892.501C429.915 892.77 429.908 893.059 429.812 893.323C429.316 894.647 428.225 896.632 427.134 896.401C426.043 896.169 426.903 894.217 427.333 892.496C427.403 892.305 427.517 892.132 427.664 891.99C427.811 891.848 427.988 891.742 428.181 891.678C428.375 891.615 428.581 891.596 428.783 891.623C428.986 891.65 429.179 891.722 429.349 891.834V891.834Z" fill="#FCB47E"/>
<path d="M426.473 891.14C426.631 891.167 426.781 891.226 426.916 891.313C427.05 891.401 427.165 891.514 427.255 891.647C427.344 891.78 427.406 891.929 427.436 892.087C427.467 892.244 427.465 892.406 427.432 892.562C427.362 893.356 427.099 894.12 426.667 894.789C426.235 895.458 425.646 896.011 424.952 896.401C423.696 896.831 424.423 893.853 424.952 892C425.023 891.693 425.212 891.427 425.479 891.26C425.745 891.092 426.067 891.037 426.374 891.106L426.473 891.14Z" fill="#FCB47E"/>
<path d="M424.125 889.551C424.36 889.595 424.582 889.695 424.771 889.841C424.961 889.986 425.113 890.175 425.217 890.391C425.32 890.607 425.37 890.844 425.365 891.084C425.359 891.323 425.297 891.557 425.183 891.768C424.621 893.191 423.63 894.812 422.737 895.077C421.844 895.342 422.307 892.926 422.737 891.073C422.77 890.213 423.398 889.32 424.125 889.551Z" fill="#FCB47E"/>
<path d="M301.395 954.606C301.395 954.606 282.549 926.976 311.744 907.287L328.275 860.234V859.936C308.702 859.936 287.674 871.815 276.267 888.592C257.223 916.685 259.141 950.271 291.046 967.61L301.395 954.606Z" fill="white"/>
<path d="M310.984 913.177L309.959 912.979L312.802 898.519L313.827 898.684L310.984 913.177Z" fill="#3F5A9F"/>
<path d="M298.188 968.04C291.852 964.924 286.257 960.486 281.78 955.023C277.303 949.561 274.047 943.201 272.234 936.373C268.564 921.251 272.465 904.177 283.244 888.327L284.103 888.889C273.49 904.541 269.622 921.317 273.258 936.142C275.033 942.825 278.217 949.05 282.597 954.398C286.977 959.747 292.451 964.094 298.651 967.147L298.188 968.04Z" fill="#3F5A9F"/>
<path d="M299.577 956.889C301.113 958.316 302.851 959.509 304.735 960.429C305.859 960.628 312.042 960.86 311.876 962.183C311.711 963.507 307.479 962.481 307.512 963.606C307.545 964.731 315.778 966.485 314.918 967.941C314.389 968.9 309.595 966.849 309.496 967.445C309.396 968.04 315.844 969.264 315.116 970.753C314.389 972.243 308.14 968.437 307.809 969.165C307.479 969.893 315.183 972.209 314.422 973.401C313.662 974.592 307.809 971.117 307.347 971.779C306.884 972.441 309.43 973.103 310.653 973.864C311.347 974.294 311.116 974.923 310.653 974.89C304.834 974.658 297.428 967.577 296.634 967.246C295.841 966.915 293.89 966.22 292.6 965.691L299.577 956.889Z" fill="#FCB47E"/>
<path d="M299.808 920.192L298.915 919.663C302.071 914.501 306.355 910.122 311.446 906.857L312.008 907.717C307.052 910.899 302.88 915.164 299.808 920.192V920.192Z" fill="#3F5A9F"/>
<path d="M914.253 862.55C914.253 862.947 914.253 863.311 914.253 863.708C915.675 912.151 910.715 949.907 902.317 979.324L877.355 994.843L897.887 991.534H898.449C887.34 1023.86 871.998 1044.74 857.418 1058.18C849.995 1065.14 841.61 1071 832.521 1075.58C832.058 1075.85 831.595 1076.05 831.132 1076.28C829.975 1076.84 828.851 1077.34 827.826 1077.77L814.105 1078.49C813.907 1077.87 813.741 1077.24 813.576 1076.57C813.411 1075.91 813.344 1075.78 813.245 1075.38C813.146 1074.99 812.948 1074.32 812.815 1073.8C796.615 1011.29 817.048 961.29 843.729 925.884C843.807 925.755 843.895 925.633 843.994 925.52C852.649 914.111 862.297 903.491 872.825 893.787L878.876 909.173L879.768 887.5C890.261 878.318 901.535 870.069 913.46 862.848L914.253 862.55Z" fill="#9AADE5"/>
<path d="M914.749 862.782L914.286 863.708L886.116 922.74L885.62 923.799L877.95 939.881L877.685 940.41L853.185 991.732L853.152 991.799L813.245 1075.42L812.65 1076.67L811.691 1078.66L810.501 1078.73L811.427 1076.74L812.815 1073.83L852.194 991.302L852.954 989.78L913.46 863.013L913.79 862.285L914.749 862.782Z" fill="white"/>
<path d="M912.43 916.172L877.51 940.217L878.035 940.981L912.955 916.935L912.43 916.172Z" fill="white"/>
<path d="M912.658 904.418L885.277 923.259L885.802 924.023L913.183 905.182L912.658 904.418Z" fill="white"/>
<path d="M844.619 925.436L843.701 925.555L852.296 991.874L853.214 991.755L844.619 925.436Z" fill="white"/>
<path d="M808.749 1089.25C808.749 1089.25 841.283 1104.63 887.538 1077.04L872.527 1069.89L897.027 1070.88C915.08 1058.24 934.884 1038.98 955.45 1010L949.73 1007.28L957.136 1007.58C960.442 1002.62 964.112 997.391 967.617 991.832C956.587 991.17 945.519 991.524 934.554 992.891L924.635 1006.39L927.478 993.85C887.604 999.873 829.777 1020.69 808.749 1089.25Z" fill="#BAC8F3"/>
<path d="M967.193 991.338L805.893 1085.71L806.41 1086.59L967.71 992.223L967.193 991.338Z" fill="white"/>
<path d="M925.53 1016.37L925.431 1017.33L948.519 1019.71L948.617 1018.76L925.53 1016.37Z" fill="white"/>
<path d="M914.409 1022.54L914.241 1023.48L941.16 1028.28L941.328 1027.34L914.409 1022.54Z" fill="white"/>
<path d="M846.606 1029.92L845.779 1028.99C860.07 1016.51 876.707 1007.02 894.713 1001.06L895.11 1002.22C877.263 1008.13 860.773 1017.55 846.606 1029.92V1029.92Z" fill="#2E4882"/>
<path d="M523.546 952.819L523.712 953.977C530.324 1001.99 541.599 1038.36 554.791 1065.95L581.969 1077.1L561.205 1077.4H560.775C577.307 1107.41 595.789 1125.45 612.354 1136.27C620.847 1141.89 630.099 1146.27 639.829 1149.27L641.317 1149.7C642.54 1150.07 643.731 1150.36 644.855 1150.63L658.51 1149.04L658.708 1147.06C658.708 1146.66 658.708 1146.23 658.708 1145.83C658.708 1145.43 658.708 1144.74 658.874 1144.18C664.428 1079.85 635.961 1034.09 603.724 1003.51L603.394 1003.21C592.966 993.399 581.679 984.539 569.669 976.743L566.363 992.99L561.899 971.779C549.982 964.463 537.434 958.228 524.406 953.15L523.546 952.819Z" fill="#9AADE5"/>
<path d="M523.116 953.117L523.712 953.977L561.337 1007.48L561.999 1008.44L572.248 1023L572.612 1023.5L605.311 1069.99L605.344 1070.06L658.642 1145.83L659.469 1146.96L660.725 1148.78L661.915 1148.61L660.659 1146.82L658.807 1144.18L606.204 1069.43L605.245 1068.04L524.406 953.15L523.976 952.521L523.116 953.117Z" fill="white"/>
<path d="M534.25 1005.36L533.86 1006.2L572.303 1024.07L572.693 1023.23L534.25 1005.36Z" fill="white"/>
<path d="M532.113 993.875L531.723 994.715L561.863 1008.72L562.253 1007.88L532.113 993.875Z" fill="white"/>
<path d="M603.667 1003.18L602.742 1003.21L605.342 1070.04L606.267 1070L603.667 1003.18Z" fill="white"/>
<path d="M665.552 1158.7C665.552 1158.7 636.06 1179.29 585.87 1159.8L599.459 1150.27L575.488 1155.33C555.651 1145.9 532.804 1130.21 507.709 1105.06L512.9 1101.43L505.626 1102.95C501.372 1098.54 497.063 1093.96 492.698 1089.21C503.435 1086.7 514.382 1085.2 525.398 1084.71L537.466 1096.36L532.606 1084.55C572.744 1083.79 633.217 1094.64 665.552 1158.7Z" fill="#BAC8F3"/>
<path d="M492.842 1088.72L492.48 1089.68L667.269 1155.75L667.631 1154.79L492.842 1088.72Z" fill="white"/>
<path d="M538.111 1106.34L515.745 1112.55L516.001 1113.47L538.368 1107.26L538.111 1106.34Z" fill="white"/>
<path d="M550.018 1110.64L524.279 1119.87L524.602 1120.77L550.342 1111.54L550.018 1110.64Z" fill="white"/>
<path d="M618.173 1106.52L618.834 1105.5C602.66 1095.6 584.675 1089.03 565.933 1086.17L565.735 1087.36C584.31 1090.21 602.135 1096.72 618.173 1106.52V1106.52Z" fill="#2E4882"/>
<path d="M672.033 1188.52H638.97C633.87 1188.52 628.964 1186.56 625.27 1183.05C621.577 1179.53 619.378 1174.72 619.132 1169.62L600.55 845.608C600.462 842.946 600.909 840.292 601.866 837.807C602.823 835.321 604.271 833.054 606.122 831.139C607.973 829.225 610.19 827.703 612.641 826.664C615.092 825.625 617.726 825.091 620.388 825.092H658.312L672.033 1188.52Z" fill="#1B59F8"/>
<path d="M834.538 845.608L824.817 1169.62C824.571 1174.72 822.372 1179.53 818.679 1183.05C814.985 1186.56 810.079 1188.52 804.979 1188.52H659.502C648.789 1188.52 636.159 1180.18 635.729 1169.62L625.91 845.608C625.821 842.946 626.268 840.292 627.226 837.807C628.183 835.321 629.63 833.054 631.481 831.139C633.332 829.225 635.549 827.703 638 826.664C640.451 825.625 643.086 825.091 645.747 825.092H814.369C817.059 825.046 819.73 825.547 822.219 826.566C824.709 827.585 826.966 829.1 828.852 831.019C830.739 832.938 832.215 835.221 833.193 837.729C834.17 840.237 834.628 842.917 834.538 845.608V845.608Z" fill="#DCE8FF"/>
<path d="M666.081 847.494H658.278C657.251 847.493 656.265 847.897 655.534 848.619C654.811 849.363 654.407 850.361 654.41 851.399C654.41 852.425 654.818 853.41 655.543 854.136C656.269 854.862 657.252 855.27 658.278 855.27H801.078C802.107 855.27 803.094 854.863 803.825 854.138C804.556 853.413 804.971 852.428 804.979 851.399C804.979 850.363 804.568 849.37 803.837 848.638C803.105 847.905 802.113 847.494 801.078 847.494H666.081V847.494Z" fill="#3F5A9F"/>
<path d="M799.491 974.989H660.957C659.686 974.982 658.467 974.487 657.55 973.607C656.633 972.726 656.089 971.527 656.03 970.257L652.724 880.087C652.697 879.424 652.805 878.761 653.04 878.14C653.276 877.518 653.635 876.951 654.095 876.472C654.555 875.993 655.107 875.612 655.718 875.352C656.329 875.092 656.986 874.958 657.65 874.959H803.128C803.791 874.958 804.446 875.092 805.056 875.352C805.665 875.613 806.215 875.994 806.673 876.474C807.13 876.953 807.486 877.521 807.717 878.142C807.949 878.763 808.053 879.425 808.021 880.087L804.715 970.257C804.694 970.915 804.541 971.562 804.265 972.159C803.989 972.757 803.595 973.292 803.108 973.734C802.62 974.176 802.048 974.515 801.427 974.73C800.806 974.946 800.147 975.034 799.491 974.989V974.989Z" fill="white"/>
<path d="M695.474 1012.51H674.05C670.288 1012.51 667.239 1015.56 667.239 1019.33V1029.09C667.239 1032.86 670.288 1035.91 674.05 1035.91H695.474C699.236 1035.91 702.285 1032.86 702.285 1029.09V1019.33C702.285 1015.56 699.236 1012.51 695.474 1012.51Z" fill="#647CE2"/>
<path d="M695.474 1050.67H674.05C670.288 1050.67 667.239 1053.72 667.239 1057.48V1067.24C667.239 1071.01 670.288 1074.06 674.05 1074.06H695.474C699.236 1074.06 702.285 1071.01 702.285 1067.24V1057.48C702.285 1053.72 699.236 1050.67 695.474 1050.67Z" fill="#647CE2"/>
<path d="M695.474 1088.85H674.05C670.288 1088.85 667.239 1091.9 667.239 1095.67V1105.43C667.239 1109.19 670.288 1112.25 674.05 1112.25H695.474C699.236 1112.25 702.285 1109.19 702.285 1105.43V1095.67C702.285 1091.9 699.236 1088.85 695.474 1088.85Z" fill="#647CE2"/>
<path d="M695.474 1127H674.05C670.288 1127 667.239 1130.06 667.239 1133.82V1143.58C667.239 1147.35 670.288 1150.4 674.05 1150.4H695.474C699.236 1150.4 702.285 1147.35 702.285 1143.58V1133.82C702.285 1130.06 699.236 1127 695.474 1127Z" fill="#3F5A9F"/>
<path d="M739.977 1012.51H718.553C714.791 1012.51 711.742 1015.56 711.742 1019.33V1029.09C711.742 1032.86 714.791 1035.91 718.553 1035.91H739.977C743.739 1035.91 746.788 1032.86 746.788 1029.09V1019.33C746.788 1015.56 743.739 1012.51 739.977 1012.51Z" fill="#647CE2"/>
<path d="M739.977 1050.67H718.553C714.791 1050.67 711.742 1053.72 711.742 1057.48V1067.24C711.742 1071.01 714.791 1074.06 718.553 1074.06H739.977C743.739 1074.06 746.788 1071.01 746.788 1067.24V1057.48C746.788 1053.72 743.739 1050.67 739.977 1050.67Z" fill="#647CE2"/>
<path d="M739.977 1088.85H718.553C714.791 1088.85 711.742 1091.9 711.742 1095.67V1105.43C711.742 1109.19 714.791 1112.25 718.553 1112.25H739.977C743.739 1112.25 746.788 1109.19 746.788 1105.43V1095.67C746.788 1091.9 743.739 1088.85 739.977 1088.85Z" fill="#647CE2"/>
<path d="M739.977 1127H718.553C714.791 1127 711.742 1130.06 711.742 1133.82V1143.58C711.742 1147.35 714.791 1150.4 718.553 1150.4H739.977C743.739 1150.4 746.788 1147.35 746.788 1143.58V1133.82C746.788 1130.06 743.739 1127 739.977 1127Z" fill="#647CE2"/>
<path d="M784.48 1012.51H763.055C759.294 1012.51 756.244 1015.56 756.244 1019.33V1029.09C756.244 1032.86 759.294 1035.91 763.055 1035.91H784.48C788.242 1035.91 791.291 1032.86 791.291 1029.09V1019.33C791.291 1015.56 788.242 1012.51 784.48 1012.51Z" fill="#647CE2"/>
<path d="M784.48 1050.67H763.055C759.294 1050.67 756.244 1053.72 756.244 1057.48V1067.24C756.244 1071.01 759.294 1074.06 763.055 1074.06H784.48C788.242 1074.06 791.291 1071.01 791.291 1067.24V1057.48C791.291 1053.72 788.242 1050.67 784.48 1050.67Z" fill="#647CE2"/>
<path d="M784.48 1088.85H763.055C759.294 1088.85 756.244 1091.9 756.244 1095.67V1105.43C756.244 1109.19 759.294 1112.25 763.055 1112.25H784.48C788.242 1112.25 791.291 1109.19 791.291 1105.43V1095.67C791.291 1091.9 788.242 1088.85 784.48 1088.85Z" fill="#647CE2"/>
<path d="M784.48 1127H763.055C759.294 1127 756.244 1130.06 756.244 1133.82V1143.58C756.244 1147.35 759.294 1150.4 763.055 1150.4H784.48C788.242 1150.4 791.291 1147.35 791.291 1143.58V1133.82C791.291 1130.06 788.242 1127 784.48 1127Z" fill="#3F5A9F"/>
<path d="M701.856 1012.51H680.431C676.669 1012.51 673.62 1015.56 673.62 1019.33V1029.09C673.62 1032.86 676.669 1035.91 680.431 1035.91H701.856C705.617 1035.91 708.667 1032.86 708.667 1029.09V1019.33C708.667 1015.56 705.617 1012.51 701.856 1012.51Z" fill="#6D92F0"/>
<path d="M701.856 1050.67H680.431C676.669 1050.67 673.62 1053.72 673.62 1057.48V1067.24C673.62 1071.01 676.669 1074.06 680.431 1074.06H701.856C705.617 1074.06 708.667 1071.01 708.667 1067.24V1057.48C708.667 1053.72 705.617 1050.67 701.856 1050.67Z" fill="#6D92F0"/>
<path d="M701.856 1088.85H680.431C676.669 1088.85 673.62 1091.9 673.62 1095.67V1105.43C673.62 1109.19 676.669 1112.25 680.431 1112.25H701.856C705.617 1112.25 708.667 1109.19 708.667 1105.43V1095.67C708.667 1091.9 705.617 1088.85 701.856 1088.85Z" fill="#6D92F0"/>
<path d="M701.856 1127H680.431C676.669 1127 673.62 1130.06 673.62 1133.82V1143.58C673.62 1147.35 676.669 1150.4 680.431 1150.4H701.856C705.617 1150.4 708.667 1147.35 708.667 1143.58V1133.82C708.667 1130.06 705.617 1127 701.856 1127Z" fill="#3F5A9F"/>
<path d="M746.325 1012.51H724.901C721.139 1012.51 718.09 1015.56 718.09 1019.33V1029.09C718.09 1032.86 721.139 1035.91 724.901 1035.91H746.325C750.087 1035.91 753.136 1032.86 753.136 1029.09V1019.33C753.136 1015.56 750.087 1012.51 746.325 1012.51Z" fill="#6D92F0"/>
<path d="M746.325 1050.67H724.901C721.139 1050.67 718.09 1053.72 718.09 1057.48V1067.24C718.09 1071.01 721.139 1074.06 724.901 1074.06H746.325C750.087 1074.06 753.136 1071.01 753.136 1067.24V1057.48C753.136 1053.72 750.087 1050.67 746.325 1050.67Z" fill="#6D92F0"/>
<path d="M746.325 1088.85H724.901C721.139 1088.85 718.09 1091.9 718.09 1095.67V1105.43C718.09 1109.19 721.139 1112.25 724.901 1112.25H746.325C750.087 1112.25 753.136 1109.19 753.136 1105.43V1095.67C753.136 1091.9 750.087 1088.85 746.325 1088.85Z" fill="#6D92F0"/>
<path d="M746.325 1127H724.901C721.139 1127 718.09 1130.06 718.09 1133.82V1143.58C718.09 1147.35 721.139 1150.4 724.901 1150.4H746.325C750.087 1150.4 753.136 1147.35 753.136 1143.58V1133.82C753.136 1130.06 750.087 1127 746.325 1127Z" fill="#6D92F0"/>
<path d="M790.828 1012.51H769.404C765.642 1012.51 762.592 1015.56 762.592 1019.33V1029.09C762.592 1032.86 765.642 1035.91 769.404 1035.91H790.828C794.59 1035.91 797.639 1032.86 797.639 1029.09V1019.33C797.639 1015.56 794.59 1012.51 790.828 1012.51Z" fill="#6D92F0"/>
<path d="M790.828 1050.67H769.404C765.642 1050.67 762.592 1053.72 762.592 1057.48V1067.24C762.592 1071.01 765.642 1074.06 769.404 1074.06H790.828C794.59 1074.06 797.639 1071.01 797.639 1067.24V1057.48C797.639 1053.72 794.59 1050.67 790.828 1050.67Z" fill="#6D92F0"/>
<path d="M790.828 1088.85H769.404C765.642 1088.85 762.592 1091.9 762.592 1095.67V1105.43C762.592 1109.19 765.642 1112.25 769.404 1112.25H790.828C794.59 1112.25 797.639 1109.19 797.639 1105.43V1095.67C797.639 1091.9 794.59 1088.85 790.828 1088.85Z" fill="#6D92F0"/>
<path d="M790.828 1127H769.404C765.642 1127 762.592 1130.06 762.592 1133.82V1143.58C762.592 1147.35 765.642 1150.4 769.404 1150.4H790.828C794.59 1150.4 797.639 1147.35 797.639 1143.58V1133.82C797.639 1130.06 794.59 1127 790.828 1127Z" fill="#3F5A9F"/>
<path d="M701.856 1036.54H680.431C678.455 1036.54 676.559 1035.75 675.159 1034.36C673.758 1032.96 672.967 1031.07 672.958 1029.09V1019.33C672.967 1017.35 673.758 1015.46 675.159 1014.06C676.559 1012.67 678.455 1011.88 680.431 1011.88H701.856C703.829 1011.88 705.721 1012.67 707.116 1014.06C708.511 1015.46 709.295 1017.35 709.295 1019.33V1029.09C709.295 1031.07 708.511 1032.96 707.116 1034.36C705.721 1035.75 703.829 1036.54 701.856 1036.54ZM680.431 1013.14C678.791 1013.14 677.218 1013.79 676.059 1014.95C674.899 1016.11 674.248 1017.69 674.248 1019.33V1029.09C674.248 1030.73 674.899 1032.31 676.059 1033.47C677.218 1034.63 678.791 1035.28 680.431 1035.28H701.856C703.495 1035.28 705.068 1034.63 706.228 1033.47C707.387 1032.31 708.038 1030.73 708.038 1029.09V1019.33C708.038 1017.69 707.387 1016.11 706.228 1014.95C705.068 1013.79 703.495 1013.14 701.856 1013.14H680.431Z" fill="white"/>
<path d="M701.856 1074.62H680.431C678.455 1074.62 676.559 1073.84 675.159 1072.44C673.758 1071.05 672.967 1069.15 672.958 1067.18V1057.45C672.958 1055.47 673.746 1053.56 675.147 1052.16C676.548 1050.76 678.449 1049.97 680.431 1049.97H701.856C703.832 1049.98 705.724 1050.77 707.118 1052.17C708.512 1053.57 709.295 1055.47 709.295 1057.45V1067.18C709.295 1069.15 708.511 1071.05 707.116 1072.44C705.721 1073.84 703.829 1074.62 701.856 1074.62V1074.62ZM680.431 1051.46C678.791 1051.46 677.218 1052.11 676.059 1053.27C674.899 1054.43 674.248 1056.01 674.248 1057.65V1067.38C674.248 1069.02 674.899 1070.59 676.059 1071.75C677.218 1072.91 678.791 1073.56 680.431 1073.56H701.856C703.495 1073.56 705.068 1072.91 706.228 1071.75C707.387 1070.59 708.038 1069.02 708.038 1067.38V1057.65C708.038 1056.01 707.387 1054.43 706.228 1053.27C705.068 1052.11 703.495 1051.46 701.856 1051.46H680.431Z" fill="white"/>
<path d="M701.856 1112.87H680.431C678.449 1112.87 676.548 1112.09 675.147 1110.68C673.746 1109.28 672.958 1107.38 672.958 1105.4V1095.67C672.967 1093.69 673.758 1091.8 675.159 1090.4C676.559 1089.01 678.455 1088.22 680.431 1088.22H701.856C703.829 1088.22 705.721 1089.01 707.116 1090.4C708.511 1091.8 709.295 1093.69 709.295 1095.67V1105.4C709.295 1107.37 708.512 1109.27 707.118 1110.67C705.724 1112.07 703.832 1112.87 701.856 1112.87V1112.87ZM680.431 1089.48C678.791 1089.48 677.218 1090.13 676.059 1091.29C674.899 1092.45 674.248 1094.03 674.248 1095.67V1105.4C674.248 1107.04 674.899 1108.61 676.059 1109.77C677.218 1110.93 678.791 1111.58 680.431 1111.58H701.856C703.495 1111.58 705.068 1110.93 706.228 1109.77C707.387 1108.61 708.038 1107.04 708.038 1105.4V1095.67C708.038 1094.03 707.387 1092.45 706.228 1091.29C705.068 1090.13 703.495 1089.48 701.856 1089.48H680.431Z" fill="white"/>
<path d="M701.856 1151.03H680.431C678.455 1151.03 676.559 1150.24 675.159 1148.85C673.758 1147.45 672.967 1145.56 672.958 1143.58V1133.65C672.967 1131.68 673.758 1129.78 675.159 1128.39C676.559 1126.99 678.455 1126.21 680.431 1126.21H701.856C703.829 1126.21 705.721 1126.99 707.116 1128.39C708.511 1129.79 709.295 1131.68 709.295 1133.65V1143.58C709.295 1145.56 708.511 1147.45 707.116 1148.85C705.721 1150.24 703.829 1151.03 701.856 1151.03ZM680.431 1127.57C678.791 1127.57 677.218 1128.22 676.059 1129.38C674.899 1130.54 674.248 1132.11 674.248 1133.75V1143.68C674.248 1145.32 674.899 1146.9 676.059 1148.06C677.218 1149.22 678.791 1149.87 680.431 1149.87H701.856C703.495 1149.87 705.068 1149.22 706.228 1148.06C707.387 1146.9 708.038 1145.32 708.038 1143.68V1133.75C708.038 1132.11 707.387 1130.54 706.228 1129.38C705.068 1128.22 703.495 1127.57 701.856 1127.57H680.431Z" fill="white"/>
<path d="M746.325 1036.54H724.901C722.928 1036.54 721.035 1035.75 719.64 1034.36C718.245 1032.96 717.461 1031.07 717.461 1029.09V1019.33C717.461 1017.35 718.245 1015.46 719.64 1014.06C721.035 1012.67 722.928 1011.88 724.901 1011.88H746.325C748.302 1011.88 750.197 1012.67 751.598 1014.06C752.998 1015.46 753.789 1017.35 753.798 1019.33V1029.09C753.789 1031.07 752.998 1032.96 751.598 1034.36C750.197 1035.75 748.302 1036.54 746.325 1036.54V1036.54ZM724.901 1013.14C723.267 1013.15 721.702 1013.81 720.55 1014.97C719.398 1016.13 718.751 1017.69 718.751 1019.33V1029.09C718.751 1030.73 719.398 1032.3 720.55 1033.45C721.702 1034.61 723.267 1035.27 724.901 1035.28H746.325C747.965 1035.28 749.538 1034.63 750.697 1033.47C751.857 1032.31 752.508 1030.73 752.508 1029.09V1019.33C752.508 1017.69 751.857 1016.11 750.697 1014.95C749.538 1013.79 747.965 1013.14 746.325 1013.14H724.901Z" fill="white"/>
<path d="M746.325 1074.62H724.901C722.928 1074.62 721.035 1073.84 719.64 1072.44C718.245 1071.05 717.461 1069.15 717.461 1067.18V1057.45C717.461 1055.47 718.244 1053.57 719.638 1052.17C721.032 1050.77 722.925 1049.98 724.901 1049.97H746.325C748.307 1049.97 750.208 1050.76 751.609 1052.16C753.011 1053.56 753.798 1055.47 753.798 1057.45V1067.18C753.789 1069.15 752.998 1071.05 751.598 1072.44C750.197 1073.84 748.302 1074.62 746.325 1074.62V1074.62ZM724.901 1051.46C724.09 1051.46 723.288 1051.62 722.54 1051.93C721.791 1052.24 721.112 1052.7 720.54 1053.27C719.969 1053.85 719.517 1054.53 719.209 1055.28C718.902 1056.03 718.746 1056.84 718.751 1057.65V1067.38C718.751 1069.01 719.398 1070.58 720.55 1071.74C721.702 1072.9 723.267 1073.55 724.901 1073.56H746.325C747.965 1073.56 749.538 1072.91 750.697 1071.75C751.857 1070.59 752.508 1069.02 752.508 1067.38V1057.65C752.508 1056.01 751.857 1054.43 750.697 1053.27C749.538 1052.11 747.965 1051.46 746.325 1051.46H724.901Z" fill="white"/>
<path d="M746.325 1112.87H724.901C722.925 1112.87 721.032 1112.07 719.638 1110.67C718.244 1109.27 717.461 1107.37 717.461 1105.4V1095.67C717.461 1093.69 718.245 1091.8 719.64 1090.4C721.035 1089.01 722.928 1088.22 724.901 1088.22H746.325C748.302 1088.22 750.197 1089.01 751.598 1090.4C752.998 1091.8 753.789 1093.69 753.798 1095.67V1105.4C753.798 1107.38 753.011 1109.28 751.609 1110.68C750.208 1112.09 748.307 1112.87 746.325 1112.87ZM724.901 1089.48C723.267 1089.49 721.702 1090.14 720.55 1091.3C719.398 1092.46 718.751 1094.03 718.751 1095.67V1105.4C718.751 1107.03 719.398 1108.6 720.55 1109.76C721.702 1110.92 723.267 1111.57 724.901 1111.58H746.325C747.14 1111.59 747.948 1111.43 748.702 1111.12C749.456 1110.81 750.141 1110.36 750.719 1109.78C751.296 1109.21 751.755 1108.52 752.068 1107.77C752.38 1107.02 752.541 1106.21 752.541 1105.4V1095.67C752.541 1094.03 751.89 1092.45 750.73 1091.29C749.571 1090.13 747.998 1089.48 746.359 1089.48H724.901Z" fill="white"/>
<path d="M746.325 1151.03H724.901C722.928 1151.03 721.035 1150.24 719.64 1148.85C718.245 1147.45 717.461 1145.56 717.461 1143.58V1133.65C717.461 1131.68 718.245 1129.79 719.64 1128.39C721.035 1126.99 722.928 1126.21 724.901 1126.21H746.325C748.302 1126.21 750.197 1126.99 751.598 1128.39C752.998 1129.78 753.789 1131.68 753.798 1133.65V1143.58C753.789 1145.56 752.998 1147.45 751.598 1148.85C750.197 1150.24 748.302 1151.03 746.325 1151.03V1151.03ZM724.901 1127.57C723.267 1127.57 721.702 1128.23 720.55 1129.39C719.398 1130.55 718.751 1132.12 718.751 1133.75V1143.68C718.751 1145.32 719.398 1146.89 720.55 1148.04C721.702 1149.2 723.267 1149.86 724.901 1149.87H746.325C747.965 1149.87 749.538 1149.22 750.697 1148.06C751.857 1146.9 752.508 1145.32 752.508 1143.68V1133.75C752.508 1132.11 751.857 1130.54 750.697 1129.38C749.538 1128.22 747.965 1127.57 746.325 1127.57H724.901Z" fill="white"/>
<path d="M790.828 1036.54H769.404C767.431 1036.54 765.538 1035.75 764.143 1034.36C762.748 1032.96 761.964 1031.07 761.964 1029.09V1019.33C761.947 1018.34 762.126 1017.36 762.492 1016.44C762.858 1015.52 763.403 1014.68 764.096 1013.98C764.788 1013.27 765.614 1012.71 766.526 1012.33C767.437 1011.95 768.415 1011.75 769.404 1011.75H790.828C792.801 1011.75 794.694 1012.54 796.089 1013.93C797.484 1015.33 798.268 1017.22 798.268 1019.2V1028.96C798.285 1029.95 798.106 1030.93 797.74 1031.85C797.374 1032.77 796.829 1033.6 796.136 1034.31C795.444 1035.01 794.617 1035.57 793.706 1035.96C792.795 1036.34 791.817 1036.54 790.828 1036.54V1036.54ZM769.404 1013.14C767.764 1013.14 766.191 1013.79 765.032 1014.95C763.872 1016.11 763.221 1017.69 763.221 1019.33V1029.09C763.221 1030.73 763.872 1032.31 765.032 1033.47C766.191 1034.63 767.764 1035.28 769.404 1035.28H790.828C792.468 1035.28 794.041 1034.63 795.2 1033.47C796.36 1032.31 797.011 1030.73 797.011 1029.09V1019.33C797.011 1017.69 796.36 1016.11 795.2 1014.95C794.041 1013.79 792.468 1013.14 790.828 1013.14H769.404Z" fill="white"/>
<path d="M790.828 1074.62H769.404C767.431 1074.62 765.538 1073.84 764.143 1072.44C762.748 1071.05 761.964 1069.15 761.964 1067.18V1057.45C761.964 1055.47 762.747 1053.57 764.141 1052.17C765.535 1050.77 767.428 1049.98 769.404 1049.97H790.828C792.804 1049.98 794.697 1050.77 796.091 1052.17C797.485 1053.57 798.268 1055.47 798.268 1057.45V1067.18C798.268 1069.15 797.484 1071.05 796.089 1072.44C794.694 1073.84 792.801 1074.62 790.828 1074.62V1074.62ZM769.404 1051.46C767.764 1051.46 766.191 1052.11 765.032 1053.27C763.872 1054.43 763.221 1056.01 763.221 1057.65V1067.38C763.221 1069.02 763.872 1070.59 765.032 1071.75C766.191 1072.91 767.764 1073.56 769.404 1073.56H790.828C792.468 1073.56 794.041 1072.91 795.2 1071.75C796.36 1070.59 797.011 1069.02 797.011 1067.38V1057.65C797.011 1056.01 796.36 1054.43 795.2 1053.27C794.041 1052.11 792.468 1051.46 790.828 1051.46H769.404Z" fill="white"/>
<path d="M790.828 1112.87H769.404C767.428 1112.87 765.535 1112.07 764.141 1110.67C762.747 1109.27 761.964 1107.37 761.964 1105.4V1095.67C761.964 1093.69 762.748 1091.8 764.143 1090.4C765.538 1089.01 767.431 1088.22 769.404 1088.22H790.828C792.801 1088.22 794.694 1089.01 796.089 1090.4C797.484 1091.8 798.268 1093.69 798.268 1095.67V1105.4C798.268 1107.37 797.485 1109.27 796.091 1110.67C794.697 1112.07 792.804 1112.87 790.828 1112.87ZM769.404 1089.48C767.764 1089.48 766.191 1090.13 765.032 1091.29C763.872 1092.45 763.221 1094.03 763.221 1095.67V1105.4C763.221 1107.04 763.872 1108.61 765.032 1109.77C766.191 1110.93 767.764 1111.58 769.404 1111.58H790.828C792.468 1111.58 794.041 1110.93 795.2 1109.77C796.36 1108.61 797.011 1107.04 797.011 1105.4V1095.67C797.011 1094.03 796.36 1092.45 795.2 1091.29C794.041 1090.13 792.468 1089.48 790.828 1089.48H769.404Z" fill="white"/>
<path d="M790.828 1151.03H769.404C767.431 1151.03 765.538 1150.24 764.143 1148.85C762.748 1147.45 761.964 1145.56 761.964 1143.58V1133.65C761.964 1131.68 762.748 1129.79 764.143 1128.39C765.538 1126.99 767.431 1126.21 769.404 1126.21H790.828C792.801 1126.21 794.694 1126.99 796.089 1128.39C797.484 1129.79 798.268 1131.68 798.268 1133.65V1143.58C798.268 1145.56 797.484 1147.45 796.089 1148.85C794.694 1150.24 792.801 1151.03 790.828 1151.03ZM769.404 1127.57C767.764 1127.57 766.191 1128.22 765.032 1129.38C763.872 1130.54 763.221 1132.11 763.221 1133.75V1143.68C763.221 1145.32 763.872 1146.9 765.032 1148.06C766.191 1149.22 767.764 1149.87 769.404 1149.87H790.828C792.468 1149.87 794.041 1149.22 795.2 1148.06C796.36 1146.9 797.011 1145.32 797.011 1143.68V1133.75C797.011 1132.11 796.36 1130.54 795.2 1129.38C794.041 1128.22 792.468 1127.57 790.828 1127.57H769.404Z" fill="white"/>
<path d="M787.191 1189.38H659.403C648.393 1189.38 635.233 1180.77 634.771 1169.52L625.05 845.641C624.93 842.887 625.373 840.137 626.351 837.56C627.328 834.983 628.821 832.632 630.737 830.651C632.693 828.609 635.045 826.986 637.649 825.883C640.252 824.779 643.053 824.217 645.88 824.232H814.502C817.329 824.219 820.129 824.782 822.732 825.885C825.335 826.989 827.687 828.61 829.645 830.651C831.55 832.638 833.033 834.991 834.005 837.567C834.976 840.143 835.417 842.89 835.298 845.641L834.769 863.311H833.083L833.612 845.608C833.75 843.092 833.375 840.575 832.511 838.209C831.647 835.843 830.312 833.677 828.587 831.843C826.797 829.96 824.643 828.464 822.255 827.445C819.867 826.427 817.296 825.908 814.7 825.92H646.078C643.482 825.908 640.911 826.427 638.523 827.445C636.135 828.464 633.981 829.96 632.192 831.843C630.416 833.646 629.03 835.796 628.12 838.158C627.21 840.521 626.795 843.045 626.902 845.575L636.622 1169.59C637.019 1179.78 649.285 1187.66 659.535 1187.66H787.324L787.191 1189.38Z" fill="#3F5A9F"/>
<path d="M831.639 913.049L826.019 1101.44L827.738 1101.5L833.358 913.101L831.639 913.049Z" fill="#3F5A9F"/>
<path d="M793.242 785.153V855.27H666.247V785.153C665.941 780.461 663.846 776.066 660.394 772.877C656.924 769.652 652.367 767.856 647.632 767.847H774.627C779.362 767.856 783.92 769.652 787.39 772.877C790.841 776.066 792.937 780.461 793.242 785.153V785.153Z" fill="white"/>
<path d="M666.247 785.153H628.984C629.289 780.454 631.398 776.055 634.87 772.877C638.334 769.643 642.895 767.845 647.632 767.845C652.369 767.845 656.93 769.643 660.394 772.877C663.846 776.066 665.941 780.461 666.247 785.153V785.153Z" fill="#2E4882"/>
<path d="M793.804 855.833H665.685V785.153C665.363 780.617 663.316 776.378 659.965 773.307C656.612 770.165 652.192 768.414 647.599 768.409V767.284H774.594C779.5 767.249 784.233 769.096 787.82 772.446C791.397 775.73 793.566 780.272 793.87 785.12V785.12L793.804 855.833ZM666.809 854.708H792.68V785.219C792.382 780.675 790.345 776.42 786.993 773.34C783.64 770.198 779.221 768.447 774.627 768.443H654.146C656.598 769.332 658.846 770.704 660.758 772.48C664.33 775.767 666.497 780.306 666.809 785.153V854.708Z" fill="#2E4882"/>
<path d="M801.078 855.833H658.278C657.379 855.878 656.487 855.647 655.721 855.172C654.956 854.696 654.354 853.999 653.994 853.172C653.635 852.345 653.536 851.429 653.711 850.544C653.886 849.66 654.326 848.85 654.972 848.222C655.398 847.78 655.913 847.433 656.483 847.204C657.053 846.976 657.665 846.872 658.278 846.898H666.081V848.057H658.278C657.843 848.054 657.412 848.138 657.009 848.302C656.606 848.467 656.24 848.71 655.931 849.016C655.453 849.477 655.125 850.071 654.989 850.721C654.853 851.372 654.916 852.048 655.169 852.662C655.422 853.276 655.854 853.799 656.409 854.164C656.963 854.529 657.615 854.718 658.278 854.708H801.078C801.955 854.708 802.796 854.359 803.416 853.738C804.036 853.118 804.384 852.276 804.384 851.399C804.384 850.521 804.036 849.679 803.416 849.059C802.796 848.438 801.955 848.09 801.078 848.09H793.275V846.932H801.078C802.242 846.966 803.347 847.45 804.161 848.284C804.975 849.117 805.434 850.233 805.442 851.399C805.469 852.013 805.365 852.625 805.137 853.195C804.909 853.766 804.562 854.281 804.12 854.708C803.284 855.454 802.198 855.856 801.078 855.833V855.833Z" fill="#2E4882"/>
<path d="M806.5 1193.45C806.5 1196.76 829.645 1199.17 858.112 1199.17C886.579 1199.17 909.757 1196.62 909.757 1193.45V1177.99H806.533V1193.41C806.522 1193.43 806.511 1193.44 806.5 1193.45V1193.45Z" fill="#F49B51"/>
<path d="M858.112 1183.72C886.616 1183.72 909.723 1181.16 909.723 1177.99C909.723 1174.83 886.616 1172.27 858.112 1172.27C829.608 1172.27 806.5 1174.83 806.5 1177.99C806.5 1181.16 829.608 1183.72 858.112 1183.72Z" fill="#FCC659"/>
<path d="M794.3 1174.82C794.3 1177.96 817.444 1180.54 845.912 1180.54C874.379 1180.54 897.556 1177.96 897.556 1174.82C897.556 1174.82 897.556 1174.82 897.556 1174.65V1159.2H794.333V1174.62C794.307 1174.68 794.295 1174.75 794.3 1174.82V1174.82Z" fill="#F49B51"/>
<path d="M845.912 1165.09C874.416 1165.09 897.523 1162.53 897.523 1159.37C897.523 1156.2 874.416 1153.64 845.912 1153.64C817.407 1153.64 794.3 1156.2 794.3 1159.37C794.3 1162.53 817.407 1165.09 845.912 1165.09Z" fill="#FCC659"/>
<path d="M806.5 1156.19C806.5 1159.33 829.644 1161.91 858.112 1161.91C886.579 1161.91 909.756 1159.33 909.756 1156.19C909.756 1156.19 909.756 1156.19 909.756 1156.02V1140.57H806.533V1155.99C806.507 1156.05 806.496 1156.12 806.5 1156.19V1156.19Z" fill="#F49B51"/>
<path d="M858.112 1146.43C886.616 1146.43 909.723 1143.86 909.723 1140.7C909.723 1137.54 886.616 1134.98 858.112 1134.98C829.608 1134.98 806.5 1137.54 806.5 1140.7C806.5 1143.86 829.608 1146.43 858.112 1146.43Z" fill="#FCC659"/>
<path d="M858.112 1199.77C879.107 1199.77 910.352 1198.08 910.352 1193.45H909.128C909.128 1195.23 891.605 1198.54 858.112 1198.54H854.475V1199.77H858.112Z" fill="#2E4882"/>
<path d="M837.646 1199.3V1198.08C832.422 1197.85 827.727 1197.48 823.396 1197.09V1198.28C827.595 1198.71 832.389 1199.07 837.646 1199.3Z" fill="#2E4882"/>
<path d="M878.479 1179.78C897.887 1177.99 897.887 1175.55 897.887 1174.75H896.663C896.663 1175.35 893.357 1177.2 878.38 1178.56L878.479 1179.78Z" fill="#2E4882"/>
<path d="M845.647 1181.07C851.466 1181.07 857.153 1181.07 862.608 1180.77V1179.55C852.888 1179.91 842.175 1179.95 832.157 1179.55V1180.77C836.489 1181.01 841.051 1181.07 845.647 1181.07Z" fill="#2E4882"/>
<path d="M819.23 1180.28V1179.05C813.708 1178.69 808.914 1178.23 804.946 1177.66V1178.86C808.749 1179.45 813.708 1179.91 819.23 1180.28Z" fill="#2E4882"/>
<path d="M892.828 1145.57C910.021 1143.81 910.021 1141.6 910.021 1140.77H908.831C908.831 1140.77 908.368 1142.75 892.696 1144.38L892.828 1145.57Z" fill="#2E4882"/>
<path d="M857.814 1147.09C863.733 1147.09 869.552 1147.09 875.04 1146.76V1145.57C869.552 1145.77 863.766 1145.86 857.847 1145.86C847.234 1145.86 837.051 1145.53 828.421 1144.87V1146.06C836.985 1146.76 847.168 1147.09 857.814 1147.09Z" fill="#2E4882"/>
<path d="M788.183 1137.49C788.183 1140.64 811.328 1143.22 839.828 1143.22C868.328 1143.22 891.406 1140.8 891.406 1137.49C891.422 1137.44 891.422 1137.38 891.406 1137.33V1121.94H788.216V1137.49H788.183Z" fill="#F49B51"/>
<path d="M839.828 1127.8C868.332 1127.8 891.44 1125.23 891.44 1122.07C891.44 1118.91 868.332 1116.35 839.828 1116.35C811.324 1116.35 788.216 1118.91 788.216 1122.07C788.216 1125.23 811.324 1127.8 839.828 1127.8Z" fill="#FCC659"/>
<path d="M797.772 1122.07C797.772 1124.19 816.585 1125.91 839.828 1125.91C863.071 1125.91 881.884 1124.19 881.884 1122.07C881.884 1119.96 863.038 1118.23 839.828 1118.23C816.618 1118.23 797.772 1119.96 797.772 1122.07Z" fill="#F49B51"/>
<path d="M779.686 798.687H752.078V802.095H779.686V798.687Z" fill="#E1EAFF"/>
<path d="M739.283 798.687H683.803V802.095H739.283V798.687Z" fill="#E1EAFF"/>
<path d="M779.653 813.478H715.742V816.886H779.653V813.478Z" fill="#E1EAFF"/>
<path d="M707.906 813.478H683.803V816.886H707.906V813.478Z" fill="#E1EAFF"/>
<path d="M767.75 829.427H741.597V832.835H767.75V829.427Z" fill="#E1EAFF"/>
<path d="M730.587 829.427H683.803V832.835H730.587V829.427Z" fill="#E1EAFF"/>
<path d="M728.637 974.162H694.02V975.882H728.637V974.162Z" fill="#3F5A9F"/>
<path d="M799.491 975.849H742.06V974.162H799.491C800.547 974.162 801.562 973.752 802.321 973.017C803.08 972.282 803.523 971.28 803.558 970.224L806.566 891.305H808.253L805.244 970.257C805.201 971.755 804.576 973.178 803.502 974.222C802.427 975.266 800.989 975.85 799.491 975.849V975.849Z" fill="#3F5A9F"/>
<path d="M479.407 855.336C472.623 853.992 465.592 854.69 459.204 857.343C452.816 859.996 447.357 864.485 443.517 870.242C439.678 875.999 437.629 882.766 437.631 889.688C437.633 896.609 439.685 903.375 443.528 909.13C447.37 914.885 452.832 919.371 459.221 922.021C465.61 924.67 472.641 925.365 479.425 924.017C486.209 922.669 492.441 919.338 497.334 914.447C502.227 909.555 505.561 903.321 506.916 896.533C508.725 887.419 506.843 877.96 501.685 870.234C496.526 862.509 488.513 857.15 479.407 855.336ZM500.204 895.21C499.123 900.647 496.465 905.644 492.562 909.578C488.658 913.511 483.683 916.205 478.257 917.323C472.832 918.441 467.198 917.934 462.059 915.865C456.92 913.795 452.505 910.255 449.366 905.688C446.227 901.121 444.503 895.728 444.409 890.185C444.316 884.643 445.857 879.195 448.841 874.525C451.825 869.854 456.118 866.167 461.184 863.925C466.25 861.684 471.864 860.987 477.324 861.921H478.084C485.278 863.359 491.627 867.548 495.782 873.597C499.938 879.647 501.571 887.08 500.336 894.316C500.314 894.617 500.27 894.915 500.204 895.21Z" fill="#FCC659"/>
<path d="M500.336 894.448C500.352 894.702 500.352 894.956 500.336 895.21C499.25 900.644 496.587 905.637 492.681 909.565C488.775 913.493 483.798 916.182 478.374 917.296C472.949 918.409 467.317 917.898 462.181 915.826C457.045 913.754 452.633 910.213 449.497 905.645C446.361 901.078 444.64 895.686 444.548 890.145C444.456 884.604 445.998 879.159 448.981 874.49C451.965 869.821 456.257 866.135 461.321 863.894C466.386 861.653 471.998 860.955 477.456 861.888H478.217C485.419 863.355 491.764 867.58 495.897 873.664C500.029 879.747 501.622 887.206 500.336 894.448V894.448Z" fill="#F49B51"/>
<path d="M500.402 887.301V886.606C499.97 882.648 498.696 878.828 496.665 875.403C494.635 871.979 491.896 869.029 488.632 866.752L489.061 866.124C492.408 868.445 495.219 871.456 497.306 874.955C499.393 878.453 500.708 882.358 501.163 886.408V887.169L500.402 887.301Z" fill="#2E4882"/>
<path d="M488.532 866.818C483.22 863.131 476.79 861.411 470.348 861.954V861.193C476.939 860.644 483.518 862.398 488.962 866.157L488.532 866.818Z" fill="#2E4882"/>
<path d="M494.649 908.081L494.087 907.585C496.443 904.794 498.229 901.568 499.344 898.088L500.071 898.32C498.914 901.895 497.072 905.211 494.649 908.081V908.081Z" fill="#2E4882"/>
<path d="M499.41 867.877C497.127 865.063 494.403 862.638 491.343 860.697L491.806 860.002C494.87 862.028 497.612 864.504 499.939 867.348L499.41 867.877Z" fill="#2E4882"/>
<path d="M487.078 922.012L486.747 921.284C494.991 917.596 501.469 910.829 504.799 902.428C508.128 894.027 508.045 884.656 504.568 876.315L505.229 876.084C507.976 882.59 508.702 889.773 507.312 896.699C506.184 902.221 503.762 907.395 500.244 911.796C496.726 916.197 492.213 919.699 487.078 922.012V922.012Z" fill="#2E4882"/>
<path d="M473.92 904L478.693 874.909H481.534L476.761 904H473.92ZM460.682 895.932L461.136 893.091H482.841L482.386 895.932H460.682ZM463.693 904L468.466 874.909H471.307L466.534 904H463.693ZM462.386 885.818L462.841 882.977H484.545L484.091 885.818H462.386Z" fill="#FCC659"/>
<path d="M758.956 932.336C757.342 938.555 753.924 944.156 749.133 948.433C744.342 952.71 738.393 955.471 732.036 956.368C725.679 957.265 719.199 956.258 713.413 953.474C707.628 950.689 702.796 946.252 699.527 940.723C696.257 935.193 694.698 928.818 695.045 922.403C695.391 915.987 697.629 909.818 701.475 904.673C705.321 899.529 710.603 895.64 716.655 893.496C722.707 891.352 729.258 891.05 735.481 892.629C739.634 893.682 743.538 895.546 746.969 898.115C750.399 900.684 753.288 903.906 755.47 907.596C757.652 911.286 759.083 915.372 759.681 919.618C760.279 923.864 760.033 928.186 758.956 932.336Z" fill="#6D92F0"/>
<path d="M726.223 941.006L711.345 925.685L712.965 924.097L725.595 937.101L741.862 903.383L743.912 904.375L726.223 941.006Z" fill="white"/>
<path d="M449.882 870.591C452.939 872.153 455.376 874.708 456.792 877.837C458.193 874.701 460.618 872.134 463.669 870.558C460.629 868.998 458.206 866.456 456.792 863.344C455.367 866.468 452.933 869.02 449.882 870.591Z" fill="#FFE6A6"/>
<path d="M477.886 915.13C479.648 916.048 481.056 917.526 481.887 919.332V919.332C482.741 917.531 484.156 916.056 485.92 915.13C484.141 914.224 482.72 912.743 481.887 910.927V910.927C481.075 912.746 479.663 914.23 477.886 915.13V915.13Z" fill="#FFE6A6"/>
</g>
<circle cx="1751" cy="1452" r="305" fill="#6D92F0" fill-opacity="0.2"/>
<circle cx="1751" cy="1452" r="227" fill="#F9F9F9"/>
<circle cx="305" cy="305" r="305" fill="#6D92F0" fill-opacity="0.2"/>
<circle cx="305" cy="305" r="227" fill="#F9F9F9"/>
<defs>
<clipPath id="clip0_1_327">
<rect width="779" height="548" fill="white" transform="translate(207 661)"/>
</clipPath>
</defs>
</svg>
