<svg width="779" height="524" viewBox="0 0 779 524" fill="none" xmlns="http://www.w3.org/2000/svg">
<path d="M572.951 462.023C639.672 466.722 723.09 440.25 759.857 382.177C775.099 358.154 785.216 327.281 774.603 300.71C766.568 280.558 732.613 257.693 725.273 237.376C717.933 217.059 718.891 193.334 722.694 171.528C733.671 108.955 672.669 11.2737 543.822 0.850434C446.154 -7.05803 401.948 68.9161 318.795 79.3063C234.913 89.7627 136.518 26.9583 76.5081 79.3063C1.98379 144.295 36.8323 209.349 46.0239 239.792C57.6951 278.904 0.727397 323.443 12.4648 381.118C38.7169 509.838 229.623 423.043 285.566 417.517C342.402 412.024 398.774 428.205 454.453 441.176C510.131 454.147 569.115 463.942 623.57 446.107L572.951 462.023Z" fill="#E7F5FF"/>
<path d="M384.689 524C597.147 524 769.379 515.437 769.379 504.874C769.379 494.311 597.147 485.748 384.689 485.748C172.231 485.748 0 494.311 0 504.874C0 515.437 172.231 524 384.689 524Z" fill="#E9ECF2"/>
<path d="M19.0444 176.69H17.821C15.1099 152.832 22.4168 129.669 40.9652 103.892L41.9571 104.62C23.6071 130.232 16.5316 153.13 19.0444 176.69Z" fill="#2E4882"/>
<path d="M11.3407 192.672L10.1835 193.036C-3.76918 148.563 20.1024 112.528 45.4287 83.1778L46.3545 83.972C21.3257 113.091 -2.41359 148.762 11.3407 192.672Z" fill="#2E4882"/>
<path d="M265.365 126.79H263.579C263.579 125.864 263.579 124.97 263.579 124.077H265.365C265.431 124.904 265.398 125.93 265.365 126.79Z" fill="#3F5A9F"/>
<path d="M386.342 111.933C385.847 110.212 385.284 108.624 384.656 106.804L386.309 106.175C386.981 107.906 387.555 109.674 388.029 111.47L386.342 111.933ZM266.092 118.816L264.505 118.518C264.802 116.698 265.199 114.878 265.629 113.091L267.348 113.521C266.753 115.275 266.389 117.029 266.092 118.816ZM382.54 101.741C381.78 100.153 380.92 98.4322 380.027 97.0094L381.548 96.0828C382.474 97.6712 383.367 99.3918 384.16 100.98L382.54 101.741ZM268.737 108.359L267.051 107.764C267.646 106.043 268.34 104.455 269.101 102.635L270.721 103.363C269.993 105.05 269.332 106.672 268.737 108.359ZM376.919 92.5753C375.895 91.1525 374.77 89.6965 373.613 88.3398L374.936 87.1817C376.159 88.6045 377.316 90.0605 378.242 91.5495L376.919 92.5753ZM273.134 98.4322L271.58 97.5719C272.473 95.9505 273.465 94.2629 274.49 92.84L275.978 93.8327C274.953 95.4211 273.994 96.9763 273.134 98.4322ZM370.042 84.336C368.753 83.0786 367.397 81.8542 366.042 80.7292L367.166 79.3394C368.588 80.5306 369.976 81.755 371.266 83.0455L370.042 84.336ZM279.185 89.5973L277.73 88.5053C278.894 87.0543 280.13 85.6628 281.433 84.336L282.69 85.5934C281.453 86.8665 280.283 88.203 279.185 89.5973V89.5973ZM361.843 77.5857C360.355 76.593 358.834 75.6334 357.28 74.7399L358.14 73.2178C359.727 74.1112 361.446 75.1039 362.835 76.1297L361.843 77.5857ZM286.69 81.8873L285.5 80.5306C286.922 79.3394 288.376 78.1813 289.864 77.2217L290.955 78.5783C289.434 79.571 288.046 80.6961 286.69 81.8873ZM352.321 72.3244C350.7 71.5633 349.014 70.9015 347.328 70.3059L347.923 68.6514C349.642 69.247 351.229 69.9419 353.048 70.703L352.321 72.3244ZM295.386 75.6334L294.493 74.1112C296.08 73.1516 297.799 72.2582 299.353 71.464L300.147 73.0854C298.527 73.7803 296.94 74.6407 295.386 75.5672V75.6334ZM342.17 68.6514C340.418 68.2212 338.665 67.8573 336.88 67.5594L337.178 65.8057C338.996 66.1035 340.815 66.4675 342.6 66.9307L342.17 68.6514ZM305.073 70.7692L304.445 69.1147C306.164 68.4529 307.95 67.8903 309.735 67.394L310.198 69.0816C308.479 69.6772 306.76 70.2397 305.073 70.8684V70.7692ZM331.524 66.9307C329.738 66.9307 327.92 66.7322 326.135 66.7653V64.9784C327.986 64.9784 329.838 64.9784 331.656 64.9784L331.524 66.9307ZM315.422 67.8573L315.091 66.1035C316.877 65.7726 318.728 65.5079 320.58 65.3093V67.0631C318.993 67.3609 317.207 67.6256 315.455 67.9565L315.422 67.8573Z" fill="#3F5A9F"/>
<path d="M389.748 119.61L387.996 119.841C387.996 118.981 387.731 118.121 387.566 117.26L389.318 116.929C389.483 117.823 389.616 118.716 389.748 119.61Z" fill="#3F5A9F"/>
<path d="M270.787 127.353L264.34 130.43L257.661 127.948L264.902 143.236L270.787 127.353Z" fill="#3F5A9F"/>
<path d="M210.314 215.206C210.05 211.169 211.703 206.404 212.761 206.901C213.819 207.397 212.761 211.136 213.588 212.261C214.273 213.164 214.732 214.218 214.927 215.334C215.123 216.451 215.049 217.598 214.712 218.681L210.314 215.206Z" fill="#FCB47E"/>
<path d="M173.912 497.396L170.672 471.354H189.749L190.609 497.396H173.912Z" fill="#FCB47E"/>
<path d="M190.245 486.145C183.037 488.031 172.325 484.59 172.325 484.59L171.564 478.435L190.047 479.991L190.245 486.145Z" fill="#FCA377"/>
<path d="M82.8892 497.396L84.6416 471.354H103.719L99.5861 497.396H82.8892Z" fill="#FCB47E"/>
<path d="M102.826 476.913L101.537 485.153C95.3916 485.568 89.2689 484.065 84.0134 480.851L84.5424 472.843L102.826 476.913Z" fill="#FCA377"/>
<path d="M214.48 481.083C214.48 481.083 201.685 320.895 167.332 243.002L135.327 244.623C138.349 323.996 147.268 403.034 162.009 481.083C162.009 481.083 192.097 488.197 214.48 481.083Z" fill="#1B59F8"/>
<path d="M123.821 481.083C123.821 481.083 92.3453 486.178 74.2267 473.935C74.2267 473.935 83.7819 300.247 113.076 243.299H147.66C147.66 243.299 146.536 336.943 123.821 481.083Z" fill="#1B59F8"/>
<path d="M114.002 160.84C114.861 157.828 116.448 153.957 116.448 153.957C116.004 156.546 115.837 159.175 115.952 161.799C123.425 165.108 139.097 169.708 163.266 163.751C162.968 161.27 162.836 158.92 162.836 158.92C163.281 160.468 163.834 161.983 164.489 163.454L167.101 162.759C166.571 159.972 166.229 157.153 166.076 154.321C166.879 157.041 167.988 159.661 169.382 162.13C170.87 161.7 172.358 161.204 173.912 160.707C173.912 160.707 169.085 153.295 165.911 134.235C163.299 118.452 155.198 111.073 142.767 111.304C117.473 111.999 110.728 158.953 110.728 158.953C111.763 159.676 112.858 160.307 114.002 160.84V160.84Z" fill="#374263"/>
<path d="M201.454 216.563C201.454 216.563 191.303 170.899 150.999 168.549C88.9728 164.91 69.8954 205.279 69.8954 205.279L201.454 216.563Z" fill="white"/>
<path d="M137.212 122.753C144.089 118.849 156.091 118.683 158.835 127.948C161.381 136.519 160.984 162.329 149.544 161.832C145.384 161.745 141.395 160.162 138.305 157.374C135.215 154.585 133.231 150.776 132.715 146.644C132.252 144.758 130.368 126.658 137.212 122.753Z" fill="#FCB47E"/>
<path d="M133.013 146.181C133.013 146.181 127.657 147.835 126.665 142.872C125.673 137.908 130.93 136.816 132.583 138.736L133.013 146.181Z" fill="#FCB47E"/>
<path d="M207.074 271.591C214.745 256.535 220.729 221.46 220.729 221.46C223.17 217.876 224.826 213.817 225.59 209.548C225.59 207.496 224.664 206.239 223.275 206.967C222.779 205.312 221.82 205.014 220.498 205.974C219.771 204.551 218.878 204.617 217.985 205.312C216.001 202.003 212.1 212.427 212.133 213.75C212.166 215.074 212.397 217.82 212.53 218.747C212.662 219.673 189.385 259.546 189.385 259.546L207.074 271.591Z" fill="#FCB47E"/>
<path d="M80.6409 476.748H79.616C79.616 475.027 91.3864 302.431 120.978 246.344L121.904 246.807C92.5767 302.629 80.7732 475.027 80.6409 476.748Z" fill="white"/>
<path d="M105.802 215.504L94.8911 277.647C123.226 286.151 155.198 278.507 181.351 261.102L170.506 199.852L150.371 169.145C149.112 170.681 147.524 171.914 145.725 172.752C143.925 173.591 141.96 174.013 139.975 173.987C137.99 173.962 136.037 173.49 134.259 172.605C132.481 171.721 130.926 170.448 129.707 168.88L101.504 180.727L105.802 215.504Z" fill="white"/>
<path d="M208.893 228.971L203.173 214.776C203.173 214.776 188.856 185.624 177.086 178.112L169.548 229.071L208.893 228.971Z" fill="white"/>
<path d="M141.973 341.444H140.981C142.601 324.038 143.957 307.03 145.015 290.849H146.007C144.982 306.898 143.626 324.038 141.973 341.444Z" fill="#47393D"/>
<path d="M169.713 481.447C169.515 480.421 148.255 378.438 142.237 327.05H143.229C149.28 378.372 170.506 480.288 170.705 481.314L169.713 481.447Z" fill="white"/>
<path d="M171.01 199.773L170.033 199.946L180.854 261.238L181.831 261.066L171.01 199.773Z" fill="#3F5A9F"/>
<path d="M128.649 137.941C129.291 137.63 130.022 137.552 130.716 137.721C131.41 137.89 132.023 138.296 132.451 138.868C132.754 136.582 133.389 134.352 134.335 132.25L135.195 136.783C138.718 137.353 142.274 137.696 145.841 137.809H151.032L151.892 130.265L153.545 137.644C154.669 137.644 155.529 137.445 156.422 137.346L157.083 132.879L158.306 137.081C159.53 136.883 160.356 136.684 160.753 136.585C161.017 133.276 161.117 124.871 155.463 120.04C148.85 114.348 135.261 117.459 132.054 124.275C130.114 128.591 128.961 133.219 128.649 137.941V137.941Z" fill="#374263"/>
<path d="M141.477 174.109C143.256 174.008 144.991 173.51 146.553 172.651C148.115 171.792 149.464 170.594 150.503 169.145L149.082 152.6L133.476 143.302L129.508 168.781C132.687 171.999 136.96 173.902 141.477 174.109Z" fill="#FCB47E"/>
<path d="M149.015 162.759V161.766C145.959 161.386 143.049 160.233 140.561 158.415C138.074 156.597 136.09 154.174 134.798 151.376L133.939 151.839C135.308 154.798 137.414 157.356 140.054 159.268C142.693 161.179 145.779 162.381 149.015 162.759V162.759Z" fill="#374263"/>
<path d="M169.548 509.672L217.787 509.838C218.182 509.839 218.573 509.758 218.935 509.601C219.298 509.444 219.624 509.214 219.894 508.925C220.164 508.637 220.372 508.295 220.504 507.923C220.636 507.55 220.69 507.155 220.663 506.76V506.76C220.663 506.396 220.663 506.032 220.663 505.635C220.563 504.462 220.189 503.329 219.572 502.326C217.291 499.282 212.96 497.892 204.958 494.716C201.097 493.134 197.408 491.16 193.948 488.826C193.649 488.547 193.252 488.398 192.844 488.411C192.435 488.423 192.048 488.596 191.766 488.892C182.211 498.19 176.359 496.205 174.606 492.201C173.284 489.256 171.3 489.884 170.87 490.712C169.182 495.382 168.201 500.278 167.961 505.238C167.961 505.668 167.961 506.065 167.961 506.363C167.961 506.661 167.961 507.554 167.961 507.554C167.896 507.801 167.887 508.058 167.936 508.308C167.985 508.558 168.089 508.794 168.242 508.998C168.395 509.201 168.591 509.368 168.818 509.485C169.044 509.602 169.293 509.666 169.548 509.672V509.672Z" fill="#374263"/>
<path d="M202.082 499.646C203.055 499.19 203.863 498.441 204.39 497.504C204.918 496.566 205.139 495.487 205.024 494.418H204.198C204.299 495.323 204.109 496.237 203.658 497.028C203.206 497.819 202.515 498.446 201.685 498.819L202.082 499.646Z" fill="white"/>
<path d="M206.314 501.069C207.218 500.609 207.967 499.894 208.466 499.011C208.966 498.128 209.195 497.117 209.124 496.105H208.298C208.337 496.954 208.131 497.797 207.702 498.531C207.274 499.265 206.642 499.859 205.884 500.242L206.314 501.069Z" fill="white"/>
<path d="M179.103 498.819C181.244 498.782 183.353 498.286 185.286 497.363L184.922 496.602C184.922 496.602 177.516 500.308 173.747 495.609L173.118 496.138C173.837 497.023 174.752 497.726 175.792 498.192C176.831 498.657 177.965 498.872 179.103 498.819V498.819Z" fill="white"/>
<path d="M173.871 505.908L173.868 506.735L201.972 506.838L201.975 506.011L173.871 505.908Z" fill="white"/>
<path d="M205.59 506.047L205.587 506.874L212.232 506.898L212.235 506.071L205.59 506.047Z" fill="white"/>
<path d="M79.3515 509.672L127.558 509.838C127.955 509.843 128.35 509.766 128.716 509.611C129.083 509.456 129.413 509.227 129.687 508.938C129.96 508.648 130.171 508.306 130.305 507.931C130.439 507.556 130.495 507.157 130.467 506.76V506.76C130.467 506.396 130.467 506.032 130.467 505.635C130.366 504.462 129.993 503.329 129.376 502.326C127.095 499.282 122.763 497.892 114.762 494.715C110.901 493.134 107.211 491.16 103.752 488.825C103.457 488.638 103.107 488.555 102.759 488.591C102.411 488.627 102.085 488.78 101.834 489.024C92.2792 498.322 86.427 496.337 84.6747 492.333C83.3521 489.388 81.3683 490.017 80.9385 490.844C79.2504 495.514 78.2697 500.41 78.029 505.37C78.0018 505.745 78.0018 506.121 78.029 506.495V507.687C77.9414 508.125 78.0315 508.581 78.2795 508.953C78.5275 509.326 78.9131 509.584 79.3515 509.672Z" fill="#374263"/>
<path d="M111.753 499.646C112.727 499.19 113.534 498.441 114.062 497.504C114.589 496.566 114.811 495.487 114.696 494.418H113.836C113.951 495.312 113.775 496.22 113.334 497.006C112.893 497.793 112.212 498.417 111.39 498.786L111.753 499.646Z" fill="white"/>
<path d="M115.985 501.069C116.884 500.603 117.628 499.886 118.127 499.004C118.626 498.123 118.858 497.116 118.796 496.105H117.969C118.009 496.954 117.802 497.797 117.374 498.531C116.946 499.265 116.314 499.859 115.556 500.242L115.985 501.069Z" fill="white"/>
<path d="M88.7745 498.819C90.9158 498.782 93.0244 498.286 94.9573 497.363L94.5936 496.602C94.5936 496.602 87.1874 500.308 83.4182 495.609L82.79 496.138C83.5083 497.023 84.424 497.726 85.4634 498.192C86.5028 498.657 87.6369 498.872 88.7745 498.819V498.819Z" fill="white"/>
<path d="M83.5425 505.907L83.5394 506.734L111.643 506.837L111.646 506.01L83.5425 505.907Z" fill="white"/>
<path d="M115.261 506.046L115.258 506.873L121.903 506.898L121.906 506.07L115.261 506.046Z" fill="white"/>
<path d="M250.691 206.09L89.5858 231.54C86.249 232.067 83.9709 235.202 84.4976 238.542L100.86 342.284C101.387 345.624 104.519 347.903 107.856 347.376L268.961 321.926C272.298 321.399 274.576 318.264 274.049 314.924L257.687 211.182C257.16 207.842 254.028 205.563 250.691 206.09Z" fill="#6D92F0"/>
<path d="M138.293 296.387L109.292 300.968C108.39 301.111 107.775 301.958 107.917 302.86L108.799 308.45C108.941 309.352 109.787 309.968 110.689 309.826L139.69 305.244C140.592 305.102 141.208 304.255 141.065 303.352L140.184 297.763C140.042 296.861 139.195 296.244 138.293 296.387Z" fill="white"/>
<path d="M176.623 290.349L147.622 294.93C146.72 295.073 146.105 295.92 146.247 296.823L147.128 302.412C147.271 303.314 148.117 303.93 149.019 303.788L178.02 299.207C178.922 299.064 179.538 298.217 179.395 297.314L178.514 291.725C178.371 290.823 177.525 290.206 176.623 290.349Z" fill="white"/>
<path d="M214.986 284.273L185.985 288.854C185.083 288.997 184.467 289.844 184.609 290.746L185.491 296.336C185.633 297.238 186.48 297.854 187.382 297.712L216.383 293.13C217.284 292.988 217.9 292.141 217.758 291.238L216.876 285.649C216.734 284.746 215.887 284.13 214.986 284.273Z" fill="white"/>
<path d="M253.282 278.235L224.281 282.816C223.38 282.959 222.764 283.806 222.906 284.709L223.788 290.298C223.93 291.2 224.777 291.816 225.678 291.674L254.679 287.093C255.581 286.95 256.197 286.103 256.055 285.2L255.173 279.611C255.031 278.709 254.184 278.092 253.282 278.235Z" fill="white"/>
<path d="M255.676 295.6L217.53 301.626C216.43 301.799 215.679 302.833 215.852 303.934L216.62 308.804C216.794 309.905 217.827 310.657 218.927 310.483L257.073 304.457C258.173 304.283 258.924 303.25 258.75 302.149L257.982 297.279C257.808 296.177 256.776 295.426 255.676 295.6Z" fill="white"/>
<path d="M109.274 263.451L107.422 251.837C107.232 250.617 107.532 249.372 108.257 248.373C108.982 247.375 110.073 246.704 111.29 246.509L133.873 242.935C135.09 242.754 136.33 243.058 137.325 243.782C138.321 244.506 138.992 245.592 139.196 246.807L141.014 258.454C141.123 259.066 141.109 259.692 140.972 260.298C140.836 260.904 140.58 261.476 140.219 261.981C139.859 262.487 139.402 262.915 138.874 263.241C138.346 263.568 137.759 263.785 137.146 263.881L114.597 267.19C113.396 267.393 112.165 267.114 111.168 266.414C110.172 265.714 109.491 264.65 109.274 263.451ZM111.489 247.733C111.043 247.793 110.613 247.943 110.227 248.174C109.841 248.406 109.506 248.714 109.243 249.079C108.979 249.445 108.794 249.86 108.697 250.3C108.6 250.74 108.593 251.196 108.678 251.638L110.497 263.252C110.552 263.702 110.699 264.135 110.929 264.526C111.158 264.916 111.465 265.255 111.831 265.522C112.197 265.789 112.613 265.978 113.055 266.077C113.497 266.176 113.954 266.183 114.398 266.098L136.947 262.524C137.397 262.469 137.83 262.322 138.22 262.092C138.61 261.863 138.949 261.555 139.215 261.189C139.482 260.823 139.67 260.406 139.769 259.964C139.868 259.522 139.876 259.065 139.791 258.62L137.939 247.005C137.88 246.559 137.73 246.129 137.499 245.742C137.267 245.356 136.96 245.021 136.594 244.757C136.229 244.494 135.814 244.308 135.374 244.211C134.935 244.114 134.48 244.108 134.038 244.193L111.489 247.733Z" fill="white"/>
<path d="M259.435 218.735L258.324 218.91L262.247 243.783L263.358 243.608L259.435 218.735Z" fill="#2E4882"/>
<path d="M177.714 336.91V335.785L269.068 321.358C270.517 321.122 271.815 320.322 272.676 319.131C273.537 317.94 273.892 316.457 273.663 315.005L265.728 264.708L266.852 264.51L274.788 314.839C275.048 316.586 274.621 318.365 273.597 319.803C273.084 320.518 272.434 321.123 271.685 321.583C270.935 322.043 270.102 322.349 269.233 322.483L177.714 336.91Z" fill="#2E4882"/>
<path d="M161.85 338.274L128.017 343.631L128.193 344.742L162.025 339.385L161.85 338.274Z" fill="#2E4882"/>
<path d="M224.333 206.867C224.498 206.921 224.65 207.01 224.779 207.127C224.907 207.244 225.009 207.387 225.078 207.547C225.147 207.706 225.181 207.879 225.178 208.053C225.175 208.227 225.135 208.398 225.061 208.555C224.499 209.746 223.573 211.004 222.945 211.07C221.787 211.07 222.349 209.151 222.945 207.761C222.986 207.604 223.059 207.457 223.159 207.33C223.259 207.202 223.384 207.097 223.527 207.019C223.669 206.942 223.826 206.894 223.987 206.879C224.149 206.865 224.311 206.883 224.465 206.934L224.333 206.867Z" fill="#FCB47E"/>
<path d="M222.349 206.834C222.578 206.998 222.747 207.232 222.831 207.501C222.915 207.77 222.908 208.059 222.812 208.323C222.316 209.647 221.225 211.632 220.134 211.401C219.043 211.169 219.903 209.217 220.333 207.496C220.403 207.305 220.517 207.132 220.664 206.99C220.811 206.848 220.988 206.742 221.181 206.678C221.375 206.615 221.581 206.596 221.783 206.623C221.986 206.65 222.179 206.722 222.349 206.834V206.834Z" fill="#FCB47E"/>
<path d="M219.473 206.14C219.631 206.167 219.781 206.226 219.916 206.313C220.05 206.401 220.165 206.514 220.255 206.647C220.344 206.78 220.406 206.929 220.436 207.087C220.467 207.244 220.465 207.406 220.432 207.562C220.362 208.356 220.099 209.12 219.667 209.789C219.235 210.458 218.646 211.011 217.952 211.401C216.696 211.831 217.423 208.853 217.952 207C218.023 206.693 218.212 206.427 218.479 206.26C218.745 206.092 219.067 206.037 219.374 206.106L219.473 206.14Z" fill="#FCB47E"/>
<path d="M217.125 204.551C217.36 204.595 217.582 204.695 217.771 204.841C217.961 204.986 218.113 205.175 218.217 205.391C218.32 205.607 218.37 205.844 218.365 206.084C218.359 206.323 218.297 206.557 218.183 206.768C217.621 208.191 216.63 209.812 215.737 210.077C214.844 210.342 215.307 207.926 215.737 206.073C215.77 205.213 216.398 204.32 217.125 204.551Z" fill="#FCB47E"/>
<path d="M94.3952 269.606C94.3952 269.606 75.5492 241.976 104.744 222.287L121.275 175.234V174.936C101.702 174.936 80.674 186.815 69.2672 203.592C50.2228 231.685 52.1405 265.271 84.0464 282.61L94.3952 269.606Z" fill="white"/>
<path d="M103.984 228.177L102.959 227.979L105.802 213.519L106.827 213.684L103.984 228.177Z" fill="#3F5A9F"/>
<path d="M91.1881 283.04C84.8521 279.924 79.257 275.486 74.7798 270.023C70.3027 264.561 67.0475 258.201 65.2335 251.373C61.5635 236.251 65.465 219.177 76.2435 203.327L77.1032 203.889C66.4899 219.541 62.6215 236.317 66.2585 251.142C68.0328 257.825 71.2171 264.05 75.5972 269.398C79.9772 274.747 85.4513 279.094 91.6509 282.147L91.1881 283.04Z" fill="#3F5A9F"/>
<path d="M92.5767 271.889C94.1134 273.316 95.8512 274.509 97.7346 275.429C98.8587 275.628 105.042 275.86 104.876 277.183C104.711 278.507 100.479 277.481 100.512 278.606C100.545 279.731 108.778 281.485 107.918 282.941C107.389 283.9 102.595 281.849 102.496 282.445C102.396 283.04 108.844 284.264 108.116 285.753C107.389 287.243 101.14 283.437 100.809 284.165C100.479 284.893 108.183 287.209 107.422 288.401C106.662 289.592 100.809 286.117 100.347 286.779C99.8837 287.441 102.43 288.103 103.653 288.864C104.347 289.294 104.116 289.923 103.653 289.89C97.8338 289.658 90.4276 282.577 89.6341 282.246C88.8406 281.915 86.8899 281.22 85.6004 280.691L92.5767 271.889Z" fill="#FCB47E"/>
<path d="M92.8082 235.192L91.9155 234.663C95.0709 229.501 99.3554 225.122 104.446 221.857L105.008 222.717C100.052 225.899 95.8803 230.164 92.8082 235.192V235.192Z" fill="#3F5A9F"/>
<path d="M707.253 177.55C707.253 177.947 707.253 178.311 707.253 178.708C708.675 227.151 703.715 264.907 695.317 294.324L670.355 309.843L690.887 306.534H691.449C680.34 338.863 664.998 359.742 650.418 373.177C642.995 380.143 634.61 386.004 625.521 390.582C625.058 390.847 624.595 391.045 624.132 391.277C622.975 391.839 621.851 392.336 620.826 392.766L607.105 393.494C606.907 392.865 606.741 392.236 606.576 391.575C606.411 390.913 606.344 390.781 606.245 390.383C606.146 389.986 605.948 389.325 605.815 388.795C589.615 326.288 610.048 276.29 636.729 240.884C636.807 240.755 636.895 240.633 636.994 240.52C645.649 229.111 655.297 218.491 665.825 208.787L671.876 224.173L672.768 202.5C683.261 193.318 694.535 185.069 706.46 177.848L707.253 177.55Z" fill="#9AADE5"/>
<path d="M707.749 177.782L707.286 178.708L679.116 237.74L678.62 238.799L670.95 254.881L670.685 255.41L646.185 306.732L646.152 306.799L606.245 390.416L605.65 391.674L604.691 393.659L603.501 393.725L604.427 391.74L605.815 388.828L645.194 306.302L645.954 304.78L706.46 178.013L706.79 177.285L707.749 177.782Z" fill="white"/>
<path d="M705.43 231.172L670.51 255.217L671.035 255.981L705.955 231.935L705.43 231.172Z" fill="white"/>
<path d="M705.658 219.418L678.277 238.259L678.802 239.023L706.183 220.182L705.658 219.418Z" fill="white"/>
<path d="M637.619 240.436L636.701 240.555L645.296 306.874L646.214 306.755L637.619 240.436Z" fill="white"/>
<path d="M601.749 404.248C601.749 404.248 634.283 419.635 680.538 392.038L665.527 384.891L690.027 385.883C708.08 373.243 727.884 353.985 748.45 324.998L742.73 322.285L750.136 322.582C753.442 317.619 757.112 312.391 760.617 306.832C749.587 306.17 738.519 306.524 727.554 307.891L717.635 321.391L720.478 308.85C680.604 314.873 622.777 335.686 601.749 404.248Z" fill="#BAC8F3"/>
<path d="M760.193 306.338L598.893 400.708L599.41 401.593L760.71 307.223L760.193 306.338Z" fill="white"/>
<path d="M718.53 331.373L718.431 332.328L741.519 334.712L741.617 333.757L718.53 331.373Z" fill="white"/>
<path d="M707.409 337.538L707.241 338.483L734.16 343.282L734.328 342.337L707.409 337.538Z" fill="white"/>
<path d="M639.606 344.918L638.779 343.992C653.07 331.515 669.707 322.02 687.713 316.064L688.11 317.222C670.263 323.135 653.773 332.55 639.606 344.918V344.918Z" fill="#2E4882"/>
<path d="M316.546 267.819L316.712 268.977C323.324 316.99 334.599 353.356 347.791 380.953L374.969 392.104L354.205 392.402H353.775C370.307 422.414 388.789 440.448 405.354 451.269C413.847 456.89 423.099 461.269 432.829 464.273L434.317 464.703C435.54 465.067 436.731 465.365 437.855 465.63L451.51 464.041L451.708 462.056C451.708 461.659 451.708 461.229 451.708 460.832C451.708 460.435 451.708 459.74 451.874 459.177C457.428 394.851 428.961 349.087 396.724 318.512L396.394 318.215C385.966 308.399 374.679 299.539 362.669 291.743L359.363 307.99L354.899 286.779C342.982 279.463 330.434 273.228 317.406 268.15L316.546 267.819Z" fill="#9AADE5"/>
<path d="M316.116 268.117L316.712 268.977L354.337 322.483L354.999 323.443L365.248 338.002L365.612 338.499L398.311 384.99L398.344 385.056L451.642 460.832L452.469 461.957L453.725 463.777L454.915 463.611L453.659 461.824L451.807 459.177L399.204 384.427L398.245 383.037L317.406 268.15L316.976 267.521L316.116 268.117Z" fill="white"/>
<path d="M327.25 320.361L326.86 321.201L365.303 339.068L365.693 338.228L327.25 320.361Z" fill="white"/>
<path d="M325.113 308.875L324.723 309.715L354.863 323.717L355.253 322.876L325.113 308.875Z" fill="white"/>
<path d="M396.667 318.176L395.742 318.212L398.342 385.036L399.267 385L396.667 318.176Z" fill="white"/>
<path d="M458.552 473.704C458.552 473.704 429.06 494.285 378.87 474.795L392.459 465.266L368.488 470.328C348.651 460.898 325.804 445.213 300.709 420.065L305.9 416.425L298.626 417.947C294.372 413.535 290.063 408.958 285.698 404.215C296.435 401.703 307.382 400.196 318.398 399.715L330.466 411.362L325.606 399.549C365.744 398.788 426.217 409.642 458.552 473.704Z" fill="#BAC8F3"/>
<path d="M285.842 403.721L285.48 404.681L460.269 470.746L460.631 469.787L285.842 403.721Z" fill="white"/>
<path d="M331.111 421.339L308.745 427.546L309.001 428.471L331.368 422.263L331.111 421.339Z" fill="white"/>
<path d="M343.018 425.637L317.279 434.871L317.602 435.774L343.342 426.54L343.018 425.637Z" fill="white"/>
<path d="M411.173 421.521L411.834 420.495C395.66 410.597 377.675 404.027 358.933 401.171L358.735 402.362C377.31 405.208 395.135 411.72 411.173 421.521V421.521Z" fill="#2E4882"/>
<path d="M465.033 503.517H431.97C426.87 503.523 421.964 501.564 418.27 498.046C414.577 494.527 412.378 489.721 412.132 484.623L393.55 160.608C393.462 157.946 393.909 155.292 394.866 152.807C395.823 150.321 397.271 148.054 399.122 146.139C400.973 144.225 403.19 142.703 405.641 141.664C408.092 140.625 410.726 140.091 413.388 140.092H451.312L465.033 503.517Z" fill="#1B59F8"/>
<path d="M627.538 160.608L617.817 484.623C617.571 489.721 615.372 494.527 611.679 498.046C607.985 501.564 603.079 503.523 597.979 503.517H452.502C441.789 503.517 429.159 495.179 428.729 484.623L418.91 160.608C418.821 157.946 419.268 155.292 420.226 152.807C421.183 150.321 422.63 148.054 424.481 146.139C426.332 144.225 428.549 142.703 431 141.664C433.451 140.625 436.086 140.091 438.747 140.092H607.369C610.059 140.046 612.73 140.547 615.219 141.566C617.709 142.585 619.966 144.1 621.852 146.019C623.739 147.938 625.215 150.221 626.193 152.729C627.17 155.237 627.628 157.917 627.538 160.608V160.608Z" fill="#DCE8FF"/>
<path d="M459.081 162.494H451.278C450.251 162.493 449.265 162.897 448.534 163.619C447.811 164.363 447.407 165.361 447.41 166.399C447.41 167.425 447.818 168.41 448.543 169.136C449.269 169.862 450.252 170.27 451.278 170.27H594.078C595.107 170.27 596.094 169.863 596.825 169.138C597.556 168.413 597.971 167.428 597.979 166.399C597.979 165.363 597.568 164.37 596.837 163.638C596.105 162.905 595.113 162.494 594.078 162.494H459.081V162.494Z" fill="#3F5A9F"/>
<path d="M592.491 289.989H453.957C452.686 289.982 451.467 289.487 450.55 288.607C449.633 287.726 449.089 286.527 449.03 285.257L445.724 195.087C445.697 194.424 445.805 193.761 446.04 193.14C446.276 192.518 446.635 191.951 447.095 191.472C447.555 190.993 448.107 190.612 448.718 190.352C449.329 190.092 449.986 189.958 450.65 189.959H596.128C596.791 189.958 597.446 190.092 598.056 190.352C598.665 190.613 599.215 190.994 599.673 191.474C600.13 191.953 600.486 192.521 600.717 193.142C600.949 193.763 601.053 194.425 601.021 195.087L597.715 285.257C597.694 285.915 597.541 286.562 597.265 287.159C596.989 287.757 596.595 288.292 596.108 288.734C595.62 289.176 595.048 289.515 594.427 289.73C593.806 289.946 593.147 290.034 592.491 289.989V289.989Z" fill="white"/>
<path d="M488.474 327.513H467.05C463.288 327.513 460.239 330.565 460.239 334.329V344.091C460.239 347.855 463.288 350.907 467.05 350.907H488.474C492.236 350.907 495.285 347.855 495.285 344.091V334.329C495.285 330.565 492.236 327.513 488.474 327.513Z" fill="#647CE2"/>
<path d="M488.474 365.665H467.05C463.288 365.665 460.239 368.717 460.239 372.482V382.243C460.239 386.008 463.288 389.06 467.05 389.06H488.474C492.236 389.06 495.285 386.008 495.285 382.243V372.482C495.285 368.717 492.236 365.665 488.474 365.665Z" fill="#647CE2"/>
<path d="M488.474 403.851H467.05C463.288 403.851 460.239 406.903 460.239 410.667V420.429C460.239 424.194 463.288 427.245 467.05 427.245H488.474C492.236 427.245 495.285 424.194 495.285 420.429V410.667C495.285 406.903 492.236 403.851 488.474 403.851Z" fill="#647CE2"/>
<path d="M488.474 442.003H467.05C463.288 442.003 460.239 445.055 460.239 448.82V458.581C460.239 462.346 463.288 465.398 467.05 465.398H488.474C492.236 465.398 495.285 462.346 495.285 458.581V448.82C495.285 445.055 492.236 442.003 488.474 442.003Z" fill="#3F5A9F"/>
<path d="M532.977 327.513H511.553C507.791 327.513 504.742 330.565 504.742 334.329V344.091C504.742 347.855 507.791 350.907 511.553 350.907H532.977C536.739 350.907 539.788 347.855 539.788 344.091V334.329C539.788 330.565 536.739 327.513 532.977 327.513Z" fill="#647CE2"/>
<path d="M532.977 365.665H511.553C507.791 365.665 504.742 368.717 504.742 372.482V382.243C504.742 386.008 507.791 389.06 511.553 389.06H532.977C536.739 389.06 539.788 386.008 539.788 382.243V372.482C539.788 368.717 536.739 365.665 532.977 365.665Z" fill="#647CE2"/>
<path d="M532.977 403.851H511.553C507.791 403.851 504.742 406.903 504.742 410.667V420.429C504.742 424.194 507.791 427.245 511.553 427.245H532.977C536.739 427.245 539.788 424.194 539.788 420.429V410.667C539.788 406.903 536.739 403.851 532.977 403.851Z" fill="#647CE2"/>
<path d="M532.977 442.003H511.553C507.791 442.003 504.742 445.055 504.742 448.82V458.581C504.742 462.346 507.791 465.398 511.553 465.398H532.977C536.739 465.398 539.788 462.346 539.788 458.581V448.82C539.788 445.055 536.739 442.003 532.977 442.003Z" fill="#647CE2"/>
<path d="M577.48 327.513H556.055C552.294 327.513 549.244 330.565 549.244 334.329V344.091C549.244 347.855 552.294 350.907 556.055 350.907H577.48C581.242 350.907 584.291 347.855 584.291 344.091V334.329C584.291 330.565 581.242 327.513 577.48 327.513Z" fill="#647CE2"/>
<path d="M577.48 365.665H556.055C552.294 365.665 549.244 368.717 549.244 372.482V382.243C549.244 386.008 552.294 389.06 556.055 389.06H577.48C581.242 389.06 584.291 386.008 584.291 382.243V372.482C584.291 368.717 581.242 365.665 577.48 365.665Z" fill="#647CE2"/>
<path d="M577.48 403.851H556.055C552.294 403.851 549.244 406.903 549.244 410.667V420.429C549.244 424.194 552.294 427.245 556.055 427.245H577.48C581.242 427.245 584.291 424.194 584.291 420.429V410.667C584.291 406.903 581.242 403.851 577.48 403.851Z" fill="#647CE2"/>
<path d="M577.48 442.003H556.055C552.294 442.003 549.244 445.055 549.244 448.82V458.581C549.244 462.346 552.294 465.398 556.055 465.398H577.48C581.242 465.398 584.291 462.346 584.291 458.581V448.82C584.291 445.055 581.242 442.003 577.48 442.003Z" fill="#3F5A9F"/>
<path d="M494.856 327.513H473.431C469.669 327.513 466.62 330.565 466.62 334.329V344.091C466.62 347.855 469.669 350.907 473.431 350.907H494.856C498.617 350.907 501.667 347.855 501.667 344.091V334.329C501.667 330.565 498.617 327.513 494.856 327.513Z" fill="#6D92F0"/>
<path d="M494.856 365.665H473.431C469.669 365.665 466.62 368.717 466.62 372.482V382.243C466.62 386.008 469.669 389.06 473.431 389.06H494.856C498.617 389.06 501.667 386.008 501.667 382.243V372.482C501.667 368.717 498.617 365.665 494.856 365.665Z" fill="#6D92F0"/>
<path d="M494.856 403.851H473.431C469.669 403.851 466.62 406.903 466.62 410.667V420.429C466.62 424.194 469.669 427.245 473.431 427.245H494.856C498.617 427.245 501.667 424.194 501.667 420.429V410.667C501.667 406.903 498.617 403.851 494.856 403.851Z" fill="#6D92F0"/>
<path d="M494.856 442.003H473.431C469.669 442.003 466.62 445.055 466.62 448.82V458.581C466.62 462.346 469.669 465.398 473.431 465.398H494.856C498.617 465.398 501.667 462.346 501.667 458.581V448.82C501.667 445.055 498.617 442.003 494.856 442.003Z" fill="#3F5A9F"/>
<path d="M539.325 327.513H517.901C514.139 327.513 511.09 330.565 511.09 334.329V344.091C511.09 347.855 514.139 350.907 517.901 350.907H539.325C543.087 350.907 546.136 347.855 546.136 344.091V334.329C546.136 330.565 543.087 327.513 539.325 327.513Z" fill="#6D92F0"/>
<path d="M539.325 365.665H517.901C514.139 365.665 511.09 368.717 511.09 372.482V382.243C511.09 386.008 514.139 389.06 517.901 389.06H539.325C543.087 389.06 546.136 386.008 546.136 382.243V372.482C546.136 368.717 543.087 365.665 539.325 365.665Z" fill="#6D92F0"/>
<path d="M539.325 403.851H517.901C514.139 403.851 511.09 406.903 511.09 410.667V420.429C511.09 424.194 514.139 427.245 517.901 427.245H539.325C543.087 427.245 546.136 424.194 546.136 420.429V410.667C546.136 406.903 543.087 403.851 539.325 403.851Z" fill="#6D92F0"/>
<path d="M539.325 442.003H517.901C514.139 442.003 511.09 445.055 511.09 448.82V458.581C511.09 462.346 514.139 465.398 517.901 465.398H539.325C543.087 465.398 546.136 462.346 546.136 458.581V448.82C546.136 445.055 543.087 442.003 539.325 442.003Z" fill="#6D92F0"/>
<path d="M583.828 327.513H562.404C558.642 327.513 555.592 330.565 555.592 334.329V344.091C555.592 347.855 558.642 350.907 562.404 350.907H583.828C587.59 350.907 590.639 347.855 590.639 344.091V334.329C590.639 330.565 587.59 327.513 583.828 327.513Z" fill="#6D92F0"/>
<path d="M583.828 365.665H562.404C558.642 365.665 555.592 368.717 555.592 372.482V382.243C555.592 386.008 558.642 389.06 562.404 389.06H583.828C587.59 389.06 590.639 386.008 590.639 382.243V372.482C590.639 368.717 587.59 365.665 583.828 365.665Z" fill="#6D92F0"/>
<path d="M583.828 403.851H562.404C558.642 403.851 555.592 406.903 555.592 410.667V420.429C555.592 424.194 558.642 427.245 562.404 427.245H583.828C587.59 427.245 590.639 424.194 590.639 420.429V410.667C590.639 406.903 587.59 403.851 583.828 403.851Z" fill="#6D92F0"/>
<path d="M583.828 442.003H562.404C558.642 442.003 555.592 445.055 555.592 448.82V458.581C555.592 462.346 558.642 465.398 562.404 465.398H583.828C587.59 465.398 590.639 462.346 590.639 458.581V448.82C590.639 445.055 587.59 442.003 583.828 442.003Z" fill="#3F5A9F"/>
<path d="M494.856 351.536H473.431C471.455 351.536 469.559 350.753 468.159 349.357C466.758 347.962 465.967 346.068 465.958 344.091V334.329C465.967 332.352 466.758 330.458 468.159 329.063C469.559 327.667 471.455 326.884 473.431 326.884H494.856C496.829 326.884 498.721 327.669 500.116 329.065C501.511 330.461 502.295 332.355 502.295 334.329V344.091C502.295 346.065 501.511 347.959 500.116 349.355C498.721 350.752 496.829 351.536 494.856 351.536ZM473.431 328.142C471.791 328.142 470.218 328.793 469.059 329.954C467.899 331.114 467.248 332.688 467.248 334.329V344.091C467.248 345.732 467.899 347.306 469.059 348.466C470.218 349.627 471.791 350.279 473.431 350.279H494.856C496.495 350.279 498.068 349.627 499.228 348.466C500.387 347.306 501.038 345.732 501.038 344.091V334.329C501.038 332.688 500.387 331.114 499.228 329.954C498.068 328.793 496.495 328.142 494.856 328.142H473.431Z" fill="white"/>
<path d="M494.856 389.622H473.431C471.455 389.622 469.559 388.839 468.159 387.444C466.758 386.048 465.967 384.155 465.958 382.177V372.449C465.958 370.465 466.746 368.563 468.147 367.161C469.548 365.758 471.449 364.97 473.431 364.97H494.856C496.832 364.979 498.724 365.771 500.118 367.172C501.512 368.574 502.295 370.471 502.295 372.449V382.177C502.295 384.152 501.511 386.045 500.116 387.442C498.721 388.838 496.829 389.622 494.856 389.622V389.622ZM473.431 366.46C471.791 366.46 470.218 367.111 469.059 368.272C467.899 369.432 467.248 371.006 467.248 372.647V382.376C467.248 384.017 467.899 385.591 469.059 386.751C470.218 387.912 471.791 388.563 473.431 388.563H494.856C496.495 388.563 498.068 387.912 499.228 386.751C500.387 385.591 501.038 384.017 501.038 382.376V372.647C501.038 371.006 500.387 369.432 499.228 368.272C498.068 367.111 496.495 366.46 494.856 366.46H473.431Z" fill="white"/>
<path d="M494.856 427.874H473.431C471.449 427.874 469.548 427.086 468.147 425.684C466.746 424.281 465.958 422.379 465.958 420.396V410.667C465.967 408.69 466.758 406.796 468.159 405.401C469.559 404.006 471.455 403.222 473.431 403.222H494.856C496.829 403.222 498.721 404.007 500.116 405.403C501.511 406.799 502.295 408.693 502.295 410.667V420.396C502.295 422.374 501.512 424.271 500.118 425.672C498.724 427.074 496.832 427.865 494.856 427.874V427.874ZM473.431 404.48C471.791 404.48 470.218 405.132 469.059 406.292C467.899 407.452 467.248 409.026 467.248 410.667V420.396C467.248 422.037 467.899 423.611 469.059 424.771C470.218 425.932 471.791 426.584 473.431 426.584H494.856C496.495 426.584 498.068 425.932 499.228 424.771C500.387 423.611 501.038 422.037 501.038 420.396V410.667C501.038 409.026 500.387 407.452 499.228 406.292C498.068 405.132 496.495 404.48 494.856 404.48H473.431Z" fill="white"/>
<path d="M494.856 466.027H473.431C471.455 466.027 469.559 465.243 468.159 463.848C466.758 462.453 465.967 460.559 465.958 458.581V448.655C465.967 446.677 466.758 444.783 468.159 443.388C469.559 441.993 471.455 441.209 473.431 441.209H494.856C496.829 441.209 498.721 441.994 500.116 443.39C501.511 444.786 502.295 446.68 502.295 448.655V458.581C502.295 460.556 501.511 462.45 500.116 463.846C498.721 465.242 496.829 466.027 494.856 466.027ZM473.431 442.566C471.791 442.566 470.218 443.218 469.059 444.378C467.899 445.539 467.248 447.113 467.248 448.754V458.681C467.248 460.322 467.899 461.896 469.059 463.056C470.218 464.217 471.791 464.869 473.431 464.869H494.856C496.495 464.869 498.068 464.217 499.228 463.056C500.387 461.896 501.038 460.322 501.038 458.681V448.754C501.038 447.113 500.387 445.539 499.228 444.378C498.068 443.218 496.495 442.566 494.856 442.566H473.431Z" fill="white"/>
<path d="M539.325 351.536H517.901C515.928 351.536 514.035 350.752 512.64 349.355C511.245 347.959 510.461 346.065 510.461 344.091V334.329C510.461 332.355 511.245 330.461 512.64 329.065C514.035 327.669 515.928 326.884 517.901 326.884H539.325C541.302 326.884 543.197 327.667 544.598 329.063C545.998 330.458 546.789 332.352 546.798 334.329V344.091C546.789 346.068 545.998 347.962 544.598 349.357C543.197 350.753 541.302 351.536 539.325 351.536V351.536ZM517.901 328.142C516.267 328.15 514.702 328.806 513.55 329.966C512.398 331.125 511.751 332.694 511.751 334.329V344.091C511.751 345.726 512.398 347.295 513.55 348.455C514.702 349.614 516.267 350.27 517.901 350.279H539.325C540.965 350.279 542.538 349.627 543.697 348.466C544.857 347.306 545.508 345.732 545.508 344.091V334.329C545.508 332.688 544.857 331.114 543.697 329.954C542.538 328.793 540.965 328.142 539.325 328.142H517.901Z" fill="white"/>
<path d="M539.325 389.622H517.901C515.928 389.622 514.035 388.838 512.64 387.442C511.245 386.045 510.461 384.152 510.461 382.177V372.449C510.461 370.471 511.244 368.574 512.638 367.172C514.032 365.771 515.925 364.979 517.901 364.97H539.325C541.307 364.97 543.208 365.758 544.609 367.161C546.011 368.563 546.798 370.465 546.798 372.449V382.177C546.789 384.155 545.998 386.048 544.598 387.444C543.197 388.839 541.302 389.622 539.325 389.622V389.622ZM517.901 366.46C517.09 366.459 516.288 366.62 515.54 366.931C514.791 367.243 514.112 367.699 513.54 368.274C512.969 368.849 512.517 369.531 512.209 370.282C511.902 371.032 511.746 371.836 511.751 372.647V382.376C511.751 384.011 512.398 385.58 513.55 386.739C514.702 387.899 516.267 388.555 517.901 388.563H539.325C540.965 388.563 542.538 387.912 543.697 386.751C544.857 385.591 545.508 384.017 545.508 382.376V372.647C545.508 371.006 544.857 369.432 543.697 368.272C542.538 367.111 540.965 366.46 539.325 366.46H517.901Z" fill="white"/>
<path d="M539.325 427.874H517.901C515.925 427.865 514.032 427.074 512.638 425.672C511.244 424.271 510.461 422.374 510.461 420.396V410.667C510.461 408.693 511.245 406.799 512.64 405.403C514.035 404.007 515.928 403.222 517.901 403.222H539.325C541.302 403.222 543.197 404.006 544.598 405.401C545.998 406.796 546.789 408.69 546.798 410.667V420.396C546.798 422.379 546.011 424.281 544.609 425.684C543.208 427.086 541.307 427.874 539.325 427.874ZM517.901 404.48C516.267 404.488 514.702 405.144 513.55 406.304C512.398 407.463 511.751 409.032 511.751 410.667V420.396C511.751 422.031 512.398 423.6 513.55 424.76C514.702 425.919 516.267 426.575 517.901 426.584H539.325C540.14 426.588 540.948 426.431 541.702 426.122C542.456 425.813 543.141 425.358 543.719 424.783C544.296 424.208 544.755 423.524 545.068 422.772C545.38 422.019 545.541 421.211 545.541 420.396V410.667C545.541 409.026 544.89 407.452 543.73 406.292C542.571 405.132 540.998 404.48 539.359 404.48H517.901Z" fill="white"/>
<path d="M539.325 466.027H517.901C515.928 466.027 514.035 465.242 512.64 463.846C511.245 462.45 510.461 460.556 510.461 458.581V448.655C510.461 446.68 511.245 444.786 512.64 443.39C514.035 441.994 515.928 441.209 517.901 441.209H539.325C541.302 441.209 543.197 441.993 544.598 443.388C545.998 444.783 546.789 446.677 546.798 448.655V458.581C546.789 460.559 545.998 462.453 544.598 463.848C543.197 465.243 541.302 466.027 539.325 466.027V466.027ZM517.901 442.566C516.267 442.575 514.702 443.231 513.55 444.39C512.398 445.55 511.751 447.118 511.751 448.754V458.681C511.751 460.316 512.398 461.885 513.55 463.045C514.702 464.204 516.267 464.86 517.901 464.869H539.325C540.965 464.869 542.538 464.217 543.697 463.056C544.857 461.896 545.508 460.322 545.508 458.681V448.754C545.508 447.113 544.857 445.539 543.697 444.378C542.538 443.218 540.965 442.566 539.325 442.566H517.901Z" fill="white"/>
<path d="M583.828 351.536H562.404C560.431 351.536 558.538 350.752 557.143 349.355C555.748 347.959 554.964 346.065 554.964 344.091V334.329C554.947 333.34 555.126 332.358 555.492 331.439C555.858 330.521 556.403 329.684 557.096 328.979C557.788 328.274 558.614 327.713 559.526 327.331C560.437 326.948 561.415 326.752 562.404 326.752H583.828C585.801 326.752 587.694 327.536 589.089 328.932C590.484 330.329 591.268 332.222 591.268 334.197V343.958C591.285 344.947 591.106 345.93 590.74 346.848C590.374 347.767 589.829 348.603 589.136 349.309C588.444 350.014 587.617 350.574 586.706 350.957C585.795 351.339 584.817 351.536 583.828 351.536V351.536ZM562.404 328.141C560.764 328.141 559.191 328.793 558.032 329.954C556.872 331.114 556.221 332.688 556.221 334.329V344.091C556.221 345.732 556.872 347.306 558.032 348.466C559.191 349.627 560.764 350.279 562.404 350.279H583.828C585.468 350.279 587.041 349.627 588.2 348.466C589.36 347.306 590.011 345.732 590.011 344.091V334.329C590.011 332.688 589.36 331.114 588.2 329.954C587.041 328.793 585.468 328.141 583.828 328.141H562.404Z" fill="white"/>
<path d="M583.828 389.622H562.404C560.431 389.622 558.538 388.838 557.143 387.442C555.748 386.045 554.964 384.152 554.964 382.177V372.449C554.964 370.471 555.747 368.574 557.141 367.172C558.535 365.771 560.428 364.979 562.404 364.97H583.828C585.804 364.979 587.697 365.771 589.091 367.172C590.485 368.574 591.268 370.471 591.268 372.449V382.177C591.268 384.152 590.484 386.045 589.089 387.442C587.694 388.838 585.801 389.622 583.828 389.622V389.622ZM562.404 366.46C560.764 366.46 559.191 367.111 558.032 368.272C556.872 369.432 556.221 371.006 556.221 372.647V382.376C556.221 384.017 556.872 385.591 558.032 386.751C559.191 387.912 560.764 388.563 562.404 388.563H583.828C585.468 388.563 587.041 387.912 588.2 386.751C589.36 385.591 590.011 384.017 590.011 382.376V372.647C590.011 371.006 589.36 369.432 588.2 368.272C587.041 367.111 585.468 366.46 583.828 366.46H562.404Z" fill="white"/>
<path d="M583.828 427.874H562.404C560.428 427.865 558.535 427.074 557.141 425.672C555.747 424.271 554.964 422.374 554.964 420.396V410.667C554.964 408.693 555.748 406.799 557.143 405.403C558.538 404.007 560.431 403.222 562.404 403.222H583.828C585.801 403.222 587.694 404.007 589.089 405.403C590.484 406.799 591.268 408.693 591.268 410.667V420.396C591.268 422.374 590.485 424.271 589.091 425.672C587.697 427.074 585.804 427.865 583.828 427.874ZM562.404 404.48C560.764 404.48 559.191 405.132 558.032 406.292C556.872 407.452 556.221 409.026 556.221 410.667V420.396C556.221 422.037 556.872 423.611 558.032 424.771C559.191 425.932 560.764 426.584 562.404 426.584H583.828C585.468 426.584 587.041 425.932 588.2 424.771C589.36 423.611 590.011 422.037 590.011 420.396V410.667C590.011 409.026 589.36 407.452 588.2 406.292C587.041 405.132 585.468 404.48 583.828 404.48H562.404Z" fill="white"/>
<path d="M583.828 466.027H562.404C560.431 466.027 558.538 465.242 557.143 463.846C555.748 462.45 554.964 460.556 554.964 458.581V448.655C554.964 446.68 555.748 444.786 557.143 443.39C558.538 441.994 560.431 441.209 562.404 441.209H583.828C585.801 441.209 587.694 441.994 589.089 443.39C590.484 444.786 591.268 446.68 591.268 448.655V458.581C591.268 460.556 590.484 462.45 589.089 463.846C587.694 465.242 585.801 466.027 583.828 466.027ZM562.404 442.566C560.764 442.566 559.191 443.218 558.032 444.378C556.872 445.539 556.221 447.113 556.221 448.754V458.681C556.221 460.322 556.872 461.896 558.032 463.056C559.191 464.217 560.764 464.869 562.404 464.869H583.828C585.468 464.869 587.041 464.217 588.2 463.056C589.36 461.896 590.011 460.322 590.011 458.681V448.754C590.011 447.113 589.36 445.539 588.2 444.378C587.041 443.218 585.468 442.566 583.828 442.566H562.404Z" fill="white"/>
<path d="M580.191 504.378H452.403C441.393 504.378 428.233 495.774 427.771 484.524L418.05 160.641C417.93 157.887 418.373 155.137 419.351 152.56C420.328 149.983 421.821 147.632 423.737 145.651C425.693 143.609 428.045 141.986 430.649 140.883C433.252 139.779 436.053 139.217 438.88 139.232H607.502C610.329 139.219 613.129 139.782 615.732 140.885C618.335 141.989 620.687 143.61 622.645 145.651C624.55 147.638 626.033 149.991 627.005 152.567C627.976 155.143 628.417 157.89 628.298 160.641L627.769 178.311H626.083L626.612 160.608C626.75 158.092 626.375 155.575 625.511 153.209C624.647 150.843 623.312 148.677 621.587 146.843C619.797 144.96 617.643 143.464 615.255 142.445C612.867 141.427 610.296 140.908 607.7 140.92H439.078C436.482 140.908 433.911 141.427 431.523 142.445C429.135 143.464 426.981 144.96 425.192 146.843C423.416 148.646 422.03 150.796 421.12 153.158C420.21 155.521 419.795 158.045 419.902 160.575L429.622 484.59C430.019 494.782 442.285 502.657 452.535 502.657H580.324L580.191 504.378Z" fill="#3F5A9F"/>
<path d="M624.639 228.049L619.019 416.445L620.738 416.496L626.358 228.101L624.639 228.049Z" fill="#3F5A9F"/>
<path d="M586.242 100.153V170.27H459.247V100.153C458.941 95.4611 456.846 91.0662 453.394 87.8766C449.924 84.6524 445.367 82.8564 440.632 82.8469H567.627C572.362 82.8564 576.92 84.6524 580.39 87.8766C583.841 91.0662 585.937 95.4611 586.242 100.153V100.153Z" fill="white"/>
<path d="M459.247 100.153H421.984C422.289 95.4537 424.398 91.0545 427.87 87.8766C431.334 84.6434 435.895 82.8455 440.632 82.8455C445.369 82.8455 449.93 84.6434 453.394 87.8766C456.846 91.0662 458.941 95.4611 459.247 100.153V100.153Z" fill="#2E4882"/>
<path d="M586.804 170.833H458.685V100.153C458.363 95.6172 456.316 91.3776 452.965 88.3067C449.612 85.1647 445.192 83.4143 440.599 83.4095V82.2844H567.594C572.5 82.2486 577.233 84.096 580.82 87.4464C584.397 90.7296 586.566 95.2715 586.87 100.12V100.12L586.804 170.833ZM459.809 169.708H585.68V100.219C585.382 95.6747 583.345 91.4201 579.993 88.3398C576.64 85.1978 572.221 83.4474 567.627 83.4426H447.146C449.598 84.3315 451.846 85.7043 453.758 87.4795C457.33 90.7668 459.497 95.3064 459.809 100.153V169.708Z" fill="#2E4882"/>
<path d="M594.078 170.833H451.278C450.379 170.878 449.487 170.647 448.721 170.172C447.956 169.696 447.354 168.999 446.994 168.172C446.635 167.345 446.536 166.429 446.711 165.544C446.886 164.66 447.326 163.85 447.972 163.222C448.398 162.78 448.913 162.433 449.483 162.204C450.053 161.976 450.665 161.872 451.278 161.898H459.081V163.057H451.278C450.843 163.054 450.412 163.138 450.009 163.302C449.606 163.467 449.24 163.71 448.931 164.016C448.453 164.477 448.125 165.071 447.989 165.721C447.853 166.372 447.916 167.048 448.169 167.662C448.422 168.276 448.854 168.799 449.409 169.164C449.963 169.529 450.615 169.718 451.278 169.708H594.078C594.955 169.708 595.796 169.359 596.416 168.738C597.036 168.118 597.384 167.276 597.384 166.399C597.384 165.521 597.036 164.679 596.416 164.059C595.796 163.438 594.955 163.09 594.078 163.09H586.275V161.932H594.078C595.242 161.966 596.347 162.45 597.161 163.284C597.975 164.117 598.434 165.233 598.442 166.399C598.469 167.013 598.365 167.625 598.137 168.195C597.909 168.766 597.562 169.281 597.12 169.708C596.284 170.454 595.198 170.856 594.078 170.833V170.833Z" fill="#2E4882"/>
<path d="M599.5 508.448C599.5 511.757 622.645 514.172 651.112 514.172C679.579 514.172 702.757 511.624 702.757 508.448V492.995H599.533V508.415C599.522 508.425 599.511 508.436 599.5 508.448V508.448Z" fill="#F49B51"/>
<path d="M651.112 498.719C679.616 498.719 702.723 496.156 702.723 492.995C702.723 489.833 679.616 487.27 651.112 487.27C622.608 487.27 599.5 489.833 599.5 492.995C599.5 496.156 622.608 498.719 651.112 498.719Z" fill="#FCC659"/>
<path d="M587.3 489.818C587.3 492.962 610.444 495.543 638.912 495.543C667.379 495.543 690.556 492.962 690.556 489.818C690.556 489.818 690.556 489.818 690.556 489.653V474.2H587.333V489.62C587.307 489.682 587.295 489.75 587.3 489.818V489.818Z" fill="#F49B51"/>
<path d="M638.912 480.09C667.416 480.09 690.523 477.527 690.523 474.365C690.523 471.204 667.416 468.641 638.912 468.641C610.407 468.641 587.3 471.204 587.3 474.365C587.3 477.527 610.407 480.09 638.912 480.09Z" fill="#FCC659"/>
<path d="M599.5 471.189C599.5 474.332 622.644 476.913 651.112 476.913C679.579 476.913 702.756 474.332 702.756 471.189C702.756 471.189 702.756 471.189 702.756 471.023V455.57H599.533V470.99C599.507 471.053 599.496 471.121 599.5 471.189V471.189Z" fill="#F49B51"/>
<path d="M651.112 461.427C679.616 461.427 702.723 458.864 702.723 455.703C702.723 452.541 679.616 449.978 651.112 449.978C622.608 449.978 599.5 452.541 599.5 455.703C599.5 458.864 622.608 461.427 651.112 461.427Z" fill="#FCC659"/>
<path d="M651.112 514.768C672.107 514.768 703.352 513.08 703.352 508.448H702.128C702.128 510.235 684.605 513.544 651.112 513.544H647.475V514.768H651.112Z" fill="#2E4882"/>
<path d="M630.646 514.305V513.08C625.422 512.849 620.727 512.485 616.396 512.088V513.279C620.595 513.709 625.389 514.073 630.646 514.305Z" fill="#2E4882"/>
<path d="M671.479 494.782C690.887 492.995 690.887 490.546 690.887 489.752H689.663C689.663 490.348 686.357 492.201 671.38 493.557L671.479 494.782Z" fill="#2E4882"/>
<path d="M638.647 496.072C644.466 496.072 650.153 496.072 655.608 495.774V494.55C645.888 494.914 635.175 494.947 625.157 494.55V495.774C629.489 496.006 634.051 496.072 638.647 496.072Z" fill="#2E4882"/>
<path d="M612.23 495.278V494.054C606.708 493.69 601.914 493.226 597.946 492.664V493.855C601.749 494.451 606.708 494.914 612.23 495.278Z" fill="#2E4882"/>
<path d="M685.828 460.567C703.021 458.813 703.021 456.596 703.021 455.769H701.831C701.831 455.769 701.368 457.754 685.696 459.376L685.828 460.567Z" fill="#2E4882"/>
<path d="M650.814 462.089C656.733 462.089 662.552 462.089 668.04 461.758V460.567C662.552 460.765 656.766 460.865 650.847 460.865C640.234 460.865 630.051 460.534 621.421 459.872V461.063C629.985 461.758 640.168 462.089 650.814 462.089Z" fill="#2E4882"/>
<path d="M581.183 452.493C581.183 455.636 604.328 458.217 632.828 458.217C661.328 458.217 684.406 455.802 684.406 452.493C684.422 452.439 684.422 452.382 684.406 452.327V436.941H581.216V452.493H581.183Z" fill="#F49B51"/>
<path d="M632.828 442.798C661.332 442.798 684.44 440.235 684.44 437.073C684.44 433.912 661.332 431.349 632.828 431.349C604.324 431.349 581.216 433.912 581.216 437.073C581.216 440.235 604.324 442.798 632.828 442.798Z" fill="#FCC659"/>
<path d="M590.772 437.073C590.772 439.191 609.585 440.912 632.828 440.912C656.071 440.912 674.884 439.191 674.884 437.073C674.884 434.955 656.038 433.235 632.828 433.235C609.618 433.235 590.772 434.955 590.772 437.073Z" fill="#F49B51"/>
<path d="M572.686 113.687H545.078V117.095H572.686V113.687Z" fill="#E1EAFF"/>
<path d="M532.283 113.687H476.803V117.095H532.283V113.687Z" fill="#E1EAFF"/>
<path d="M572.653 128.478H508.742V131.886H572.653V128.478Z" fill="#E1EAFF"/>
<path d="M500.906 128.478H476.803V131.886H500.906V128.478Z" fill="#E1EAFF"/>
<path d="M560.75 144.427H534.597V147.835H560.75V144.427Z" fill="#E1EAFF"/>
<path d="M523.587 144.427H476.803V147.835H523.587V144.427Z" fill="#E1EAFF"/>
<path d="M521.637 289.162H487.02V290.882H521.637V289.162Z" fill="#3F5A9F"/>
<path d="M592.491 290.849H535.06V289.162H592.491C593.547 289.162 594.562 288.752 595.321 288.017C596.08 287.282 596.523 286.28 596.558 285.224L599.566 206.305H601.253L598.244 285.257C598.201 286.755 597.576 288.178 596.502 289.222C595.427 290.266 593.989 290.85 592.491 290.849V290.849Z" fill="#3F5A9F"/>
<path d="M272.407 170.336C265.623 168.992 258.592 169.69 252.204 172.343C245.816 174.996 240.357 179.485 236.517 185.242C232.678 190.999 230.629 197.766 230.631 204.688C230.633 211.609 232.685 218.375 236.528 224.13C240.37 229.885 245.832 234.371 252.221 237.021C258.61 239.67 265.641 240.365 272.425 239.017C279.209 237.669 285.441 234.338 290.334 229.447C295.227 224.555 298.561 218.321 299.916 211.533C301.725 202.419 299.843 192.96 294.685 185.234C289.526 177.509 281.513 172.15 272.407 170.336ZM293.204 210.21C292.123 215.647 289.465 220.644 285.562 224.578C281.658 228.511 276.683 231.205 271.257 232.323C265.832 233.441 260.198 232.934 255.059 230.865C249.92 228.795 245.505 225.255 242.366 220.688C239.227 216.121 237.503 210.728 237.409 205.185C237.316 199.643 238.857 194.195 241.841 189.525C244.825 184.854 249.118 181.167 254.184 178.925C259.25 176.684 264.864 175.987 270.324 176.921H271.084C278.278 178.359 284.627 182.548 288.782 188.597C292.938 194.647 294.571 202.08 293.336 209.316C293.314 209.617 293.27 209.915 293.204 210.21Z" fill="#FCC659"/>
<path d="M293.336 209.448C293.352 209.702 293.352 209.956 293.336 210.21C292.25 215.644 289.587 220.637 285.681 224.565C281.775 228.493 276.798 231.182 271.374 232.296C265.949 233.409 260.317 232.898 255.181 230.826C250.045 228.754 245.633 225.213 242.497 220.645C239.361 216.078 237.64 210.686 237.548 205.145C237.456 199.604 238.998 194.159 241.981 189.49C244.965 184.821 249.257 181.135 254.321 178.894C259.386 176.653 264.998 175.955 270.456 176.888H271.217C278.419 178.355 284.764 182.58 288.897 188.664C293.029 194.747 294.622 202.206 293.336 209.448V209.448Z" fill="#F49B51"/>
<path d="M293.402 202.301V201.606C292.97 197.648 291.696 193.828 289.665 190.403C287.635 186.979 284.896 184.029 281.632 181.752L282.061 181.124C285.408 183.445 288.219 186.456 290.306 189.955C292.393 193.453 293.708 197.358 294.163 201.408V202.169L293.402 202.301Z" fill="#2E4882"/>
<path d="M281.532 181.818C276.22 178.131 269.79 176.411 263.348 176.954V176.193C269.939 175.644 276.518 177.398 281.962 181.157L281.532 181.818Z" fill="#2E4882"/>
<path d="M287.649 223.081L287.087 222.585C289.443 219.794 291.229 216.568 292.344 213.088L293.071 213.32C291.914 216.895 290.072 220.211 287.649 223.081V223.081Z" fill="#2E4882"/>
<path d="M292.41 182.877C290.127 180.063 287.403 177.638 284.343 175.697L284.806 175.002C287.87 177.028 290.612 179.504 292.939 182.348L292.41 182.877Z" fill="#2E4882"/>
<path d="M280.078 237.012L279.747 236.284C287.991 232.596 294.469 225.829 297.799 217.428C301.128 209.027 301.045 199.656 297.568 191.315L298.229 191.084C300.976 197.59 301.702 204.773 300.312 211.699C299.184 217.221 296.762 222.395 293.244 226.796C289.726 231.197 285.213 234.699 280.078 237.012V237.012Z" fill="#2E4882"/>
<path d="M266.92 219L271.693 189.909H274.534L269.761 219H266.92ZM253.682 210.932L254.136 208.091H275.841L275.386 210.932H253.682ZM256.693 219L261.466 189.909H264.307L259.534 219H256.693ZM255.386 200.818L255.841 197.977H277.545L277.091 200.818H255.386Z" fill="#FCC659"/>
<path d="M551.956 247.336C550.342 253.555 546.924 259.156 542.133 263.433C537.342 267.71 531.393 270.471 525.036 271.368C518.679 272.265 512.199 271.258 506.413 268.474C500.628 265.689 495.796 261.252 492.527 255.723C489.257 250.193 487.698 243.818 488.045 237.403C488.391 230.987 490.629 224.818 494.475 219.673C498.321 214.529 503.603 210.64 509.655 208.496C515.707 206.352 522.258 206.05 528.481 207.629C532.634 208.682 536.538 210.546 539.969 213.115C543.399 215.684 546.288 218.906 548.47 222.596C550.652 226.286 552.083 230.372 552.681 234.618C553.279 238.864 553.033 243.186 551.956 247.336Z" fill="#6D92F0"/>
<path d="M519.223 256.006L504.345 240.685L505.965 239.097L518.595 252.101L534.862 218.383L536.912 219.375L519.223 256.006Z" fill="white"/>
<path d="M242.882 185.591C245.939 187.153 248.376 189.708 249.792 192.837C251.193 189.701 253.618 187.134 256.669 185.558C253.629 183.998 251.206 181.456 249.792 178.344C248.367 181.468 245.933 184.02 242.882 185.591Z" fill="#FFE6A6"/>
<path d="M270.886 230.13C272.648 231.048 274.056 232.526 274.887 234.332V234.332C275.741 232.531 277.156 231.056 278.92 230.13C277.141 229.224 275.72 227.743 274.887 225.927V225.927C274.075 227.746 272.663 229.23 270.886 230.13V230.13Z" fill="#FFE6A6"/>
</svg>
