<svg width="88" height="38" viewBox="0 0 88 38" fill="none" xmlns="http://www.w3.org/2000/svg">
<path d="M14.344 15.082H15.863L20.182 21.998H20.077V15.082H21.407V24H19.993L15.464 16.776H15.674V24H14.344V15.082ZM26.5554 24.182C25.9767 24.182 25.4541 24.0327 24.9874 23.734C24.5207 23.4353 24.1497 23.02 23.8744 22.488C23.6037 21.956 23.4684 21.34 23.4684 20.64C23.4684 19.898 23.6037 19.2633 23.8744 18.736C24.1451 18.204 24.5137 17.7957 24.9804 17.511C25.4471 17.2263 25.9721 17.084 26.5554 17.084C27.0781 17.084 27.5261 17.1913 27.8994 17.406C28.2727 17.616 28.5737 17.9007 28.8024 18.26C29.0311 18.6147 29.1874 19.0183 29.2714 19.471C29.3601 19.9237 29.3764 20.3903 29.3204 20.871H24.5324V20.101H28.4104L28.0884 20.311C28.1024 20.059 28.0884 19.807 28.0464 19.555C28.0091 19.303 27.9344 19.072 27.8224 18.862C27.7104 18.6473 27.5517 18.477 27.3464 18.351C27.1457 18.2203 26.8891 18.155 26.5764 18.155C26.1844 18.155 25.8554 18.253 25.5894 18.449C25.3281 18.645 25.1297 18.9087 24.9944 19.24C24.8591 19.5667 24.7914 19.926 24.7914 20.318V20.857C24.7914 21.291 24.8567 21.676 24.9874 22.012C25.1181 22.348 25.3117 22.614 25.5684 22.81C25.8297 23.0013 26.1587 23.097 26.5554 23.097C26.9427 23.097 27.2624 23.006 27.5144 22.824C27.7711 22.642 27.9297 22.369 27.9904 22.005H29.3484C29.2784 22.4437 29.1174 22.8263 28.8654 23.153C28.6134 23.4797 28.2891 23.734 27.8924 23.916C27.5004 24.0933 27.0547 24.182 26.5554 24.182ZM30.3635 24L32.9465 20.64L30.3635 17.245H31.9945L33.8075 19.632L35.5365 17.245H37.1605L34.5775 20.64L37.1535 24H35.5295L33.7095 21.606L31.9945 24H30.3635ZM41.0007 24.182C40.618 24.182 40.2727 24.1097 39.9647 23.965C39.6567 23.8203 39.4117 23.6033 39.2297 23.314C39.0523 23.02 38.9637 22.6513 38.9637 22.208V15.432H40.2867V22.166C40.2867 22.8007 40.583 23.118 41.1757 23.118C41.3577 23.118 41.535 23.0993 41.7077 23.062C41.8803 23.02 42.0763 22.9593 42.2957 22.88L42.4847 23.825C42.2373 23.9277 41.9923 24.0117 41.7497 24.077C41.5117 24.147 41.262 24.182 41.0007 24.182ZM37.9347 18.169V17.266H42.2817V18.169H37.9347Z" fill="#1B59F8"/>
<path d="M70.75 19.2744L55.75 19.2744" stroke="#1B59F8" stroke-width="2" stroke-linecap="round" stroke-linejoin="round"/>
<path d="M64.7002 25.2988L70.7502 19.2748L64.7002 13.2498" stroke="#1B59F8" stroke-width="2" stroke-linecap="round" stroke-linejoin="round"/>
<rect x="0.5" y="0.5" width="87" height="37" rx="3.5" stroke="#1B59F8"/>
</svg>
