<svg width="13" height="15" viewBox="0 0 13 15" fill="none" xmlns="http://www.w3.org/2000/svg">
<path d="M1.92641 15H11.0703C11.7254 15 12.258 14.4673 12.258 13.8122V7.25816C12.258 6.60306 11.7254 6.07041 11.0703 6.07041H11.0397V4.50306C11.0397 2.02041 9.01926 0 6.53661 0C4.05396 0 2.03355 2.02041 2.03355 4.50306V6.07041H1.92947C1.27437 6.07041 0.741712 6.60306 0.741712 7.25816V13.8122C0.738651 14.4673 1.2713 15 1.92641 15ZM4.00192 4.50306C4.00192 3.10714 5.13763 1.96837 6.53661 1.96837C7.93253 1.96837 9.0713 3.10408 9.0713 4.50306V6.07041H4.00192V4.50306Z" fill="#1B59F8"/>
</svg>
