<svg width="19" height="19" viewBox="0 0 19 19" fill="none" xmlns="http://www.w3.org/2000/svg">
<path d="M10.1255 1.0752C10.1255 0.859707 10.0399 0.653045 9.88751 0.500671C9.73514 0.348298 9.52848 0.262695 9.31299 0.262695C9.0975 0.262695 8.89084 0.348298 8.73846 0.500671C8.58609 0.653045 8.50049 0.859707 8.50049 1.0752V8.3877H1.18799C0.9725 8.3877 0.765837 8.4733 0.613464 8.62567C0.461091 8.77804 0.375488 8.98471 0.375488 9.2002C0.375488 9.41568 0.461091 9.62235 0.613464 9.77472C0.765837 9.92709 0.9725 10.0127 1.18799 10.0127H8.50049V17.3252C8.50049 17.5407 8.58609 17.7473 8.73846 17.8997C8.89084 18.0521 9.0975 18.1377 9.31299 18.1377C9.52848 18.1377 9.73514 18.0521 9.88751 17.8997C10.0399 17.7473 10.1255 17.5407 10.1255 17.3252V10.0127H17.438C17.6535 10.0127 17.8601 9.92709 18.0125 9.77472C18.1649 9.62235 18.2505 9.41568 18.2505 9.2002C18.2505 8.98471 18.1649 8.77804 18.0125 8.62567C17.8601 8.4733 17.6535 8.3877 17.438 8.3877H10.1255V1.0752Z" fill="#BBBBBB"/>
</svg>
