<svg width="16" height="16" viewBox="0 0 16 16" fill="none" xmlns="http://www.w3.org/2000/svg">
<g clip-path="url(#clip0_1_4093)">
<path d="M13.9583 5.64706C13.1533 5.64706 12.5 6.14855 12.5 6.76646V14.5277C12.5 15.1456 13.1533 15.6471 13.9583 15.6471H14.5417C15.3467 15.6471 16 15.1456 16 14.5277V6.76646C16 6.14795 15.3467 5.64706 14.5417 5.64706H13.9583ZM7.25 9.45303C7.25 8.83452 7.90333 8.33362 8.70833 8.33362H9.29167C10.0974 8.33362 10.75 8.83512 10.75 9.45303V14.5277C10.75 15.1456 10.0967 15.6471 9.29167 15.6471H8.70833C8.32156 15.6471 7.95063 15.5291 7.67714 15.3192C7.40365 15.1093 7.25 14.8245 7.25 14.5277V9.45303ZM2 12.1396C2 11.5211 2.65333 11.0202 3.45833 11.0202H4.04167C4.84744 11.0202 5.5 11.5217 5.5 12.1396V14.5277C5.5 15.1456 4.84667 15.6471 4.04167 15.6471H3.45833C3.07156 15.6471 2.70063 15.5291 2.42714 15.3192C2.15365 15.1093 2 14.8245 2 14.5277V12.1396Z" fill="#8791A3"/>
<path fill-rule="evenodd" clip-rule="evenodd" d="M3.93952 4.91995L1.00534 8.48245L0.391113 8.01745L3.3253 4.45495L3.93952 4.91995ZM8.79032 5.98082L4.09562 4.48082L4.34288 3.76907L9.03758 5.26907L8.79032 5.98082Z" fill="#8791A3"/>
<path fill-rule="evenodd" clip-rule="evenodd" d="M13.1269 1.36507L9.21469 5.86507L8.61377 5.38507L12.526 0.885071L13.1269 1.36507Z" fill="#8791A3"/>
<path d="M5.39325 4.12469C5.39325 4.42306 5.26959 4.70921 5.04949 4.92019C4.82938 5.13117 4.53085 5.24969 4.21957 5.24969C3.9083 5.24969 3.60977 5.13117 3.38966 4.92019C3.16955 4.70921 3.0459 4.42306 3.0459 4.12469C3.0459 3.82633 3.16955 3.54018 3.38966 3.3292C3.60977 3.11822 3.9083 2.99969 4.21957 2.99969C4.53085 2.99969 4.82938 3.11822 5.04949 3.3292C5.26959 3.54018 5.39325 3.82633 5.39325 4.12469Z" fill="#8791A3"/>
<path fill-rule="evenodd" clip-rule="evenodd" d="M4.21957 4.49969C4.32333 4.49969 4.42284 4.46019 4.49621 4.38986C4.56958 4.31953 4.6108 4.22415 4.6108 4.12469C4.6108 4.02524 4.56958 3.92986 4.49621 3.85953C4.42284 3.7892 4.32333 3.74969 4.21957 3.74969C4.11581 3.74969 4.0163 3.7892 3.94294 3.85953C3.86957 3.92986 3.82835 4.02524 3.82835 4.12469C3.82835 4.22415 3.86957 4.31953 3.94294 4.38986C4.0163 4.46019 4.11581 4.49969 4.21957 4.49969V4.49969ZM4.21957 5.24969C4.53085 5.24969 4.82938 5.13117 5.04949 4.92019C5.26959 4.70921 5.39325 4.42306 5.39325 4.12469C5.39325 3.82633 5.26959 3.54018 5.04949 3.3292C4.82938 3.11822 4.53085 2.99969 4.21957 2.99969C3.9083 2.99969 3.60977 3.11822 3.38966 3.3292C3.16955 3.54018 3.0459 3.82633 3.0459 4.12469C3.0459 4.42306 3.16955 4.70921 3.38966 4.92019C3.60977 5.13117 3.9083 5.24969 4.21957 5.24969V5.24969Z" fill="#8791A3"/>
<path d="M10.0876 5.6248C10.0876 5.92317 9.96393 6.20932 9.74382 6.4203C9.52372 6.63128 9.22519 6.7498 8.91391 6.7498C8.60263 6.7498 8.3041 6.63128 8.084 6.4203C7.86389 6.20932 7.74023 5.92317 7.74023 5.6248C7.74023 5.32643 7.86389 5.04028 8.084 4.82931C8.3041 4.61833 8.60263 4.4998 8.91391 4.4998C9.22519 4.4998 9.52372 4.61833 9.74382 4.82931C9.96393 5.04028 10.0876 5.32643 10.0876 5.6248V5.6248Z" fill="#8791A3"/>
<path fill-rule="evenodd" clip-rule="evenodd" d="M8.91391 5.9998C9.01767 5.9998 9.11718 5.96029 9.19055 5.88997C9.26392 5.81964 9.30513 5.72426 9.30513 5.6248C9.30513 5.52535 9.26392 5.42996 9.19055 5.35964C9.11718 5.28931 9.01767 5.2498 8.91391 5.2498C8.81015 5.2498 8.71064 5.28931 8.63727 5.35964C8.5639 5.42996 8.52268 5.52535 8.52268 5.6248C8.52268 5.72426 8.5639 5.81964 8.63727 5.88997C8.71064 5.96029 8.81015 5.9998 8.91391 5.9998ZM8.91391 6.7498C9.22519 6.7498 9.52372 6.63128 9.74382 6.4203C9.96393 6.20932 10.0876 5.92317 10.0876 5.6248C10.0876 5.32643 9.96393 5.04028 9.74382 4.82931C9.52372 4.61833 9.22519 4.4998 8.91391 4.4998C8.60263 4.4998 8.3041 4.61833 8.084 4.82931C7.86389 5.04028 7.74023 5.32643 7.74023 5.6248C7.74023 5.92317 7.86389 6.20932 8.084 6.4203C8.3041 6.63128 8.60263 6.7498 8.91391 6.7498V6.7498Z" fill="#8791A3"/>
<path d="M14.0002 1.125C14.0002 1.42337 13.8765 1.70952 13.6564 1.9205C13.4363 2.13147 13.1378 2.25 12.8265 2.25C12.5152 2.25 12.2167 2.13147 11.9966 1.9205C11.7765 1.70952 11.6528 1.42337 11.6528 1.125C11.6528 0.826631 11.7765 0.540483 11.9966 0.329505C12.2167 0.118526 12.5152 0 12.8265 0C13.1378 0 13.4363 0.118526 13.6564 0.329505C13.8765 0.540483 14.0002 0.826631 14.0002 1.125V1.125Z" fill="#8791A3"/>
<path fill-rule="evenodd" clip-rule="evenodd" d="M12.8265 1.5C12.9303 1.5 13.0298 1.46049 13.1031 1.39017C13.1765 1.31984 13.2177 1.22446 13.2177 1.125C13.2177 1.02554 13.1765 0.930161 13.1031 0.859835C13.0298 0.789509 12.9303 0.75 12.8265 0.75C12.7227 0.75 12.6232 0.789509 12.5499 0.859835C12.4765 0.930161 12.4353 1.02554 12.4353 1.125C12.4353 1.22446 12.4765 1.31984 12.5499 1.39017C12.6232 1.46049 12.7227 1.5 12.8265 1.5ZM12.8265 2.25C13.1378 2.25 13.4363 2.13147 13.6564 1.9205C13.8765 1.70952 14.0002 1.42337 14.0002 1.125C14.0002 0.826631 13.8765 0.540483 13.6564 0.329505C13.4363 0.118526 13.1378 0 12.8265 0C12.5152 0 12.2167 0.118526 11.9966 0.329505C11.7765 0.540483 11.6528 0.826631 11.6528 1.125C11.6528 1.42337 11.7765 1.70952 11.9966 1.9205C12.2167 2.13147 12.5152 2.25 12.8265 2.25Z" fill="#8791A3"/>
<path fill-rule="evenodd" clip-rule="evenodd" d="M1.17368 7.86709C1.17368 7.30459 1.09581 7.82813 1.16918 7.7578C1.24255 7.68747 1.17368 7.78679 1.17368 7.68733C1.17368 7.58788 1.24255 7.82813 1.16918 7.7578C1.09581 7.68747 1.17589 7.81086 1.07213 7.81086C0.968372 7.81086 1.24704 7.80451 1.17368 7.87483C1.10031 7.94516 1.16918 7.65834 1.16918 7.7578C1.16918 7.85726 1.06971 7.74054 1.14308 7.81086C1.21645 7.88119 1.06992 7.86709 1.17368 7.86709ZM1.17368 8.99983C1.48495 8.99983 1.78348 8.88131 2.00359 8.67033C2.22369 8.45935 2.34735 8.1732 2.34735 7.87483C2.34735 7.57646 2.22369 7.29032 2.00359 7.07934C1.78348 6.86836 1.48495 6.74983 1.17368 6.74983C0.862397 6.74983 0.563869 6.86836 0.343762 7.07934C0.123655 7.29032 0 7.57646 0 7.87483C0 8.1732 0.123655 8.45935 0.343762 8.67033C0.563869 8.88131 0.862397 8.99983 1.17368 8.99983Z" fill="#8791A3"/>
</g>
<defs>
<clipPath id="clip0_1_4093">
<rect width="16" height="16" fill="white"/>
</clipPath>
</defs>
</svg>
