<svg width="212" height="20" viewBox="0 0 212 20" fill="none" xmlns="http://www.w3.org/2000/svg">
<rect width="212" height="20" fill="#FAFAFA"/>
<path d="M0.5 11.9004C0.632608 11.9004 0.759785 11.9531 0.853553 12.0468C0.947322 12.1406 1 12.2678 1 12.4004V14.9004C1 15.1656 1.10536 15.42 1.29289 15.6075C1.48043 15.795 1.73478 15.9004 2 15.9004H14C14.2652 15.9004 14.5196 15.795 14.7071 15.6075C14.8946 15.42 15 15.1656 15 14.9004V12.4004C15 12.2678 15.0527 12.1406 15.1464 12.0468C15.2402 11.9531 15.3674 11.9004 15.5 11.9004C15.6326 11.9004 15.7598 11.9531 15.8536 12.0468C15.9473 12.1406 16 12.2678 16 12.4004V14.9004C16 15.4308 15.7893 15.9395 15.4142 16.3146C15.0391 16.6897 14.5304 16.9004 14 16.9004H2C1.46957 16.9004 0.960859 16.6897 0.585786 16.3146C0.210714 15.9395 0 15.4308 0 14.9004V12.4004C0 12.2678 0.0526784 12.1406 0.146447 12.0468C0.240215 11.9531 0.367392 11.9004 0.5 11.9004V11.9004Z" fill="#2D3748"/>
<path d="M7.64614 3.14592C7.69259 3.09935 7.74776 3.06241 7.80851 3.0372C7.86925 3.012 7.93438 2.99902 8.00014 2.99902C8.06591 2.99902 8.13103 3.012 8.19178 3.0372C8.25252 3.06241 8.3077 3.09935 8.35414 3.14592L11.3541 6.14592C11.448 6.2398 11.5008 6.36714 11.5008 6.49992C11.5008 6.63269 11.448 6.76003 11.3541 6.85392C11.2603 6.9478 11.1329 7.00055 11.0001 7.00055C10.8674 7.00055 10.74 6.9478 10.6461 6.85392L8.50014 4.70692V13.4999C8.50014 13.6325 8.44747 13.7597 8.3537 13.8535C8.25993 13.9472 8.13275 13.9999 8.00014 13.9999C7.86754 13.9999 7.74036 13.9472 7.64659 13.8535C7.55282 13.7597 7.50014 13.6325 7.50014 13.4999V4.70692L5.35414 6.85392C5.30766 6.90041 5.25247 6.93728 5.19173 6.96244C5.13099 6.9876 5.06589 7.00055 5.00014 7.00055C4.9344 7.00055 4.8693 6.9876 4.80856 6.96244C4.74782 6.93728 4.69263 6.90041 4.64614 6.85392C4.59966 6.80743 4.56278 6.75224 4.53762 6.6915C4.51246 6.63076 4.49951 6.56566 4.49951 6.49992C4.49951 6.43417 4.51246 6.36907 4.53762 6.30833C4.56278 6.24759 4.59966 6.19241 4.64614 6.14592L7.64614 3.14592Z" fill="#2D3748"/>
<path d="M42.197 6.082H43.527V11.717C43.527 12.5103 43.7253 13.082 44.122 13.432C44.5233 13.782 45.0437 13.957 45.683 13.957C46.3223 13.957 46.8403 13.782 47.237 13.432C47.6337 13.082 47.832 12.5103 47.832 11.717V6.082H49.162V11.717C49.162 12.4637 49.022 13.096 48.742 13.614C48.462 14.1273 48.0607 14.517 47.538 14.783C47.02 15.049 46.4017 15.182 45.683 15.182C44.969 15.182 44.3507 15.049 43.828 14.783C43.3053 14.517 42.9017 14.1273 42.617 13.614C42.337 13.096 42.197 12.4637 42.197 11.717V6.082ZM54.9222 15.182C54.4322 15.182 54.0076 15.0723 53.6482 14.853C53.2889 14.629 53.0136 14.3023 52.8222 13.873C52.6356 13.439 52.5422 12.9023 52.5422 12.263H53.0602C53.0602 12.6317 53.1396 12.9443 53.2982 13.201C53.4569 13.453 53.6646 13.6467 53.9212 13.782C54.1826 13.9127 54.4602 13.978 54.7542 13.978C55.0622 13.978 55.3609 13.8917 55.6502 13.719C55.9442 13.5417 56.1846 13.278 56.3712 12.928C56.5579 12.578 56.6512 12.144 56.6512 11.626C56.6512 11.1313 56.5672 10.709 56.3992 10.359C56.2359 10.009 56.0119 9.74067 55.7272 9.554C55.4426 9.36733 55.1229 9.274 54.7682 9.274C54.4696 9.274 54.1896 9.34633 53.9282 9.491C53.6669 9.631 53.4569 9.83867 53.2982 10.114C53.1396 10.3847 53.0602 10.716 53.0602 11.108H52.5422C52.5422 10.4313 52.6496 9.869 52.8642 9.421C53.0836 8.973 53.3776 8.63933 53.7462 8.42C54.1149 8.196 54.5232 8.084 54.9712 8.084C55.4986 8.084 55.9932 8.22633 56.4552 8.511C56.9172 8.791 57.2906 9.19467 57.5752 9.722C57.8646 10.2493 58.0092 10.884 58.0092 11.626C58.0092 12.368 57.8646 13.005 57.5752 13.537C57.2859 14.069 56.9056 14.4773 56.4342 14.762C55.9676 15.042 55.4636 15.182 54.9222 15.182ZM51.7302 18.304V8.266H52.8292L53.0602 9.883V18.304H51.7302ZM60.0701 15V5.431H61.4001V15H60.0701ZM66.6646 15.182C66.0533 15.182 65.505 15.049 65.0196 14.783C64.539 14.517 64.1586 14.1203 63.8786 13.593C63.5986 13.0657 63.4586 12.4147 63.4586 11.64C63.4586 10.8513 63.5986 10.1957 63.8786 9.673C64.1586 9.14567 64.539 8.749 65.0196 8.483C65.505 8.217 66.0533 8.084 66.6646 8.084C67.2666 8.084 67.808 8.217 68.2886 8.483C68.7693 8.749 69.1473 9.14567 69.4226 9.673C69.7026 10.1957 69.8426 10.8513 69.8426 11.64C69.8426 12.4147 69.7026 13.0657 69.4226 13.593C69.1473 14.1203 68.7693 14.517 68.2886 14.783C67.808 15.049 67.2666 15.182 66.6646 15.182ZM66.6226 14.02C67.01 14.02 67.3436 13.9267 67.6236 13.74C67.9083 13.5533 68.1253 13.2827 68.2746 12.928C68.4286 12.5687 68.5056 12.1393 68.5056 11.64C68.5056 10.8747 68.3493 10.282 68.0366 9.862C67.7286 9.442 67.283 9.232 66.6996 9.232C66.3076 9.232 65.9693 9.32767 65.6846 9.519C65.4046 9.70567 65.1876 9.97867 65.0336 10.338C64.8843 10.6927 64.8096 11.1267 64.8096 11.64C64.8096 12.3913 64.966 12.977 65.2786 13.397C65.5913 13.8123 66.0393 14.02 66.6226 14.02ZM76.1173 15L75.9493 13.453V10.646C75.9493 10.0953 75.8349 9.69633 75.6063 9.449C75.3776 9.197 75.0159 9.071 74.5213 9.071C74.2413 9.071 73.9916 9.113 73.7723 9.197C73.5576 9.27633 73.3873 9.39767 73.2613 9.561C73.1399 9.72433 73.0793 9.92967 73.0793 10.177H71.6093C71.6093 9.68233 71.7306 9.281 71.9733 8.973C72.2159 8.665 72.5543 8.441 72.9883 8.301C73.4269 8.15633 73.9379 8.084 74.5213 8.084C75.0673 8.084 75.5479 8.175 75.9633 8.357C76.3786 8.53433 76.7006 8.81433 76.9293 9.197C77.1626 9.57967 77.2793 10.0743 77.2793 10.681V15H76.1173ZM73.8633 15.182C73.2986 15.182 72.8296 15.084 72.4563 14.888C72.0829 14.6873 71.8029 14.426 71.6163 14.104C71.4343 13.782 71.3433 13.439 71.3433 13.075C71.3433 12.6317 71.4553 12.2677 71.6793 11.983C71.9079 11.6937 72.2229 11.479 72.6243 11.339C73.0256 11.199 73.4876 11.129 74.0103 11.129C74.3696 11.129 74.7196 11.1617 75.0603 11.227C75.4009 11.2923 75.7369 11.3787 76.0683 11.486V12.291C75.7976 12.193 75.4966 12.116 75.1653 12.06C74.8386 11.9993 74.5329 11.969 74.2483 11.969C73.8236 11.969 73.4689 12.053 73.1843 12.221C72.8996 12.389 72.7573 12.6737 72.7573 13.075C72.7573 13.369 72.8693 13.6233 73.0933 13.838C73.3173 14.048 73.6719 14.153 74.1573 14.153C74.5119 14.153 74.8246 14.0737 75.0953 13.915C75.3659 13.7517 75.5759 13.5487 75.7253 13.306C75.8746 13.0633 75.9493 12.8207 75.9493 12.578H76.2713C76.2713 13.0447 76.1756 13.4763 75.9843 13.873C75.7976 14.265 75.5246 14.5823 75.1653 14.825C74.8059 15.063 74.3719 15.182 73.8633 15.182ZM82.2553 15.182C81.7046 15.182 81.1983 15.035 80.7363 14.741C80.2743 14.4423 79.9056 14.027 79.6303 13.495C79.3596 12.9583 79.2243 12.3283 79.2243 11.605C79.2243 10.8863 79.3573 10.2633 79.6233 9.736C79.8939 9.20867 80.2509 8.80267 80.6943 8.518C81.1376 8.22867 81.6299 8.084 82.1713 8.084C82.6659 8.084 83.0976 8.20533 83.4663 8.448C83.8349 8.686 84.1196 9.03367 84.3203 9.491C84.5256 9.94833 84.6283 10.506 84.6283 11.164H84.1663C84.1663 10.758 84.0846 10.415 83.9213 10.135C83.7579 9.85033 83.5456 9.63567 83.2843 9.491C83.0229 9.34633 82.7429 9.274 82.4443 9.274C82.0943 9.274 81.7769 9.36967 81.4923 9.561C81.2123 9.74767 80.9883 10.016 80.8203 10.366C80.6569 10.7113 80.5753 11.1243 80.5753 11.605C80.5753 12.0903 80.6569 12.5127 80.8203 12.872C80.9883 13.2267 81.2123 13.4997 81.4923 13.691C81.7769 13.8823 82.0919 13.978 82.4373 13.978C82.7219 13.978 82.9949 13.9033 83.2563 13.754C83.5223 13.6 83.7393 13.3807 83.9073 13.096C84.0799 12.8113 84.1663 12.473 84.1663 12.081H84.6283C84.6283 12.753 84.5209 13.32 84.3063 13.782C84.0963 14.244 83.8116 14.594 83.4523 14.832C83.0929 15.0653 82.6939 15.182 82.2553 15.182ZM84.3973 15L84.1663 13.383V5.431H85.5033V15H84.3973ZM91.6521 6.082H93.5631L96.3911 11.941H96.2651L99.0931 6.082H100.941V15H99.5971V7.545H99.8141L96.7621 13.943H95.8871L92.8491 7.58H92.9821V15H91.6521V6.082ZM108.206 8.245H109.543V15H108.206V8.245ZM103.502 8.245H104.832V12.417C104.832 12.9257 104.955 13.3107 105.203 13.572C105.455 13.8333 105.807 13.964 106.26 13.964C106.642 13.964 106.978 13.8637 107.268 13.663C107.562 13.4623 107.79 13.1777 107.954 12.809C108.122 12.4403 108.206 12.004 108.206 11.5H108.633C108.633 12.2887 108.525 12.9513 108.311 13.488C108.096 14.0247 107.795 14.433 107.408 14.713C107.02 14.9883 106.568 15.126 106.05 15.126C105.555 15.126 105.114 15.035 104.727 14.853C104.344 14.671 104.043 14.391 103.824 14.013C103.609 13.6303 103.502 13.138 103.502 12.536V8.245ZM112.269 15V5.431H113.599V15H112.269ZM118.493 15.182C118.11 15.182 117.765 15.1097 117.457 14.965C117.149 14.8203 116.904 14.6033 116.722 14.314C116.545 14.02 116.456 13.6513 116.456 13.208V6.432H117.779V13.166C117.779 13.8007 118.075 14.118 118.668 14.118C118.85 14.118 119.027 14.0993 119.2 14.062C119.373 14.02 119.569 13.9593 119.788 13.88L119.977 14.825C119.73 14.9277 119.485 15.0117 119.242 15.077C119.004 15.147 118.754 15.182 118.493 15.182ZM115.427 9.169V8.266H119.774V9.169H115.427ZM122.473 6.831C122.207 6.831 121.997 6.75867 121.843 6.614C121.694 6.46467 121.619 6.264 121.619 6.012C121.619 5.76933 121.694 5.578 121.843 5.438C121.997 5.29333 122.207 5.221 122.473 5.221C122.734 5.221 122.94 5.29333 123.089 5.438C123.243 5.578 123.32 5.76933 123.32 6.012C123.32 6.264 123.243 6.46467 123.089 6.614C122.94 6.75867 122.734 6.831 122.473 6.831ZM121.808 15V8.245H123.138V15H121.808ZM129.243 15.182C128.753 15.182 128.328 15.0723 127.969 14.853C127.609 14.629 127.334 14.3023 127.143 13.873C126.956 13.439 126.863 12.9023 126.863 12.263H127.381C127.381 12.6317 127.46 12.9443 127.619 13.201C127.777 13.453 127.985 13.6467 128.242 13.782C128.503 13.9127 128.781 13.978 129.075 13.978C129.383 13.978 129.681 13.8917 129.971 13.719C130.265 13.5417 130.505 13.278 130.692 12.928C130.878 12.578 130.972 12.144 130.972 11.626C130.972 11.1313 130.888 10.709 130.72 10.359C130.556 10.009 130.332 9.74067 130.048 9.554C129.763 9.36733 129.443 9.274 129.089 9.274C128.79 9.274 128.51 9.34633 128.249 9.491C127.987 9.631 127.777 9.83867 127.619 10.114C127.46 10.3847 127.381 10.716 127.381 11.108H126.863C126.863 10.4313 126.97 9.869 127.185 9.421C127.404 8.973 127.698 8.63933 128.067 8.42C128.435 8.196 128.844 8.084 129.292 8.084C129.819 8.084 130.314 8.22633 130.776 8.511C131.238 8.791 131.611 9.19467 131.896 9.722C132.185 10.2493 132.33 10.884 132.33 11.626C132.33 12.368 132.185 13.005 131.896 13.537C131.606 14.069 131.226 14.4773 130.755 14.762C130.288 15.042 129.784 15.182 129.243 15.182ZM126.051 18.304V8.266H127.15L127.381 9.883V18.304H126.051ZM134.39 15V5.431H135.72V15H134.39ZM140.866 15.182C140.287 15.182 139.765 15.0327 139.298 14.734C138.831 14.4353 138.46 14.02 138.185 13.488C137.914 12.956 137.779 12.34 137.779 11.64C137.779 10.898 137.914 10.2633 138.185 9.736C138.456 9.204 138.824 8.79567 139.291 8.511C139.758 8.22633 140.283 8.084 140.866 8.084C141.389 8.084 141.837 8.19133 142.21 8.406C142.583 8.616 142.884 8.90067 143.113 9.26C143.342 9.61467 143.498 10.0183 143.582 10.471C143.671 10.9237 143.687 11.3903 143.631 11.871H138.843V11.101H142.721L142.399 11.311C142.413 11.059 142.399 10.807 142.357 10.555C142.32 10.303 142.245 10.072 142.133 9.862C142.021 9.64733 141.862 9.477 141.657 9.351C141.456 9.22033 141.2 9.155 140.887 9.155C140.495 9.155 140.166 9.253 139.9 9.449C139.639 9.645 139.44 9.90867 139.305 10.24C139.17 10.5667 139.102 10.926 139.102 11.318V11.857C139.102 12.291 139.167 12.676 139.298 13.012C139.429 13.348 139.622 13.614 139.879 13.81C140.14 14.0013 140.469 14.097 140.866 14.097C141.253 14.097 141.573 14.006 141.825 13.824C142.082 13.642 142.24 13.369 142.301 13.005H143.659C143.589 13.4437 143.428 13.8263 143.176 14.153C142.924 14.4797 142.6 14.734 142.203 14.916C141.811 15.0933 141.365 15.182 140.866 15.182ZM148.134 15L151.186 6.082H152.831L155.792 15H154.392L153.699 12.872H150.255L149.534 15H148.134ZM150.591 11.85H153.37L151.984 7.685L150.591 11.85ZM159.974 18.472C159.246 18.472 158.618 18.3717 158.091 18.171C157.568 17.9703 157.165 17.702 156.88 17.366C156.595 17.03 156.453 16.6637 156.453 16.267C156.453 15.763 156.637 15.3757 157.006 15.105C157.375 14.839 157.844 14.706 158.413 14.706L159.274 15.112C158.789 15.112 158.413 15.21 158.147 15.406C157.886 15.602 157.755 15.868 157.755 16.204C157.755 16.554 157.946 16.841 158.329 17.065C158.712 17.2937 159.26 17.408 159.974 17.408C160.492 17.408 160.947 17.331 161.339 17.177C161.731 17.0277 162.034 16.8293 162.249 16.582C162.464 16.3393 162.571 16.078 162.571 15.798C162.571 15.6067 162.501 15.4433 162.361 15.308C162.226 15.1773 162.018 15.112 161.738 15.112H159.274C158.817 15.112 158.413 15.042 158.063 14.902C157.718 14.7573 157.447 14.5683 157.251 14.335C157.055 14.1017 156.957 13.8427 156.957 13.558C156.957 13.278 157.036 13.0377 157.195 12.837C157.354 12.6317 157.564 12.4777 157.825 12.375C158.086 12.2677 158.373 12.214 158.686 12.214L158.987 12.676C158.852 12.676 158.716 12.7063 158.581 12.767C158.446 12.823 158.334 12.9093 158.245 13.026C158.156 13.1427 158.112 13.2873 158.112 13.46C158.112 13.6607 158.196 13.8287 158.364 13.964C158.537 14.0947 158.84 14.16 159.274 14.16H161.738C162.41 14.16 162.937 14.293 163.32 14.559C163.703 14.825 163.894 15.2123 163.894 15.721C163.894 16.183 163.735 16.624 163.418 17.044C163.101 17.464 162.648 17.807 162.06 18.073C161.477 18.339 160.781 18.472 159.974 18.472ZM160.121 12.977C159.598 12.977 159.122 12.8767 158.693 12.676C158.268 12.4707 157.93 12.186 157.678 11.822C157.426 11.4533 157.3 11.024 157.3 10.534C157.3 10.0393 157.426 9.61 157.678 9.246C157.93 8.87733 158.268 8.59267 158.693 8.392C159.122 8.18667 159.598 8.084 160.121 8.084C160.63 8.084 161.094 8.18667 161.514 8.392C161.939 8.59267 162.277 8.87733 162.529 9.246C162.786 9.61 162.914 10.0393 162.914 10.534C162.914 11.024 162.786 11.4533 162.529 11.822C162.277 12.186 161.939 12.4707 161.514 12.676C161.094 12.8767 160.63 12.977 160.121 12.977ZM160.121 12.039C160.602 12.039 160.968 11.8967 161.22 11.612C161.477 11.3227 161.605 10.9633 161.605 10.534C161.605 10.086 161.477 9.72433 161.22 9.449C160.968 9.17367 160.602 9.036 160.121 9.036C159.65 9.036 159.281 9.17367 159.015 9.449C158.754 9.72433 158.623 10.086 158.623 10.534C158.623 10.9633 158.754 11.3227 159.015 11.612C159.281 11.8967 159.65 12.039 160.121 12.039ZM162.41 9.162L161.787 8.861C161.787 8.45967 161.871 8.10967 162.039 7.811C162.207 7.51233 162.44 7.279 162.739 7.111C163.038 6.943 163.381 6.859 163.768 6.859L163.684 8.154C163.269 8.154 162.951 8.23567 162.732 8.399C162.517 8.56233 162.41 8.81667 162.41 9.162ZM167.923 15.182C167.344 15.182 166.821 15.0327 166.355 14.734C165.888 14.4353 165.517 14.02 165.242 13.488C164.971 12.956 164.836 12.34 164.836 11.64C164.836 10.898 164.971 10.2633 165.242 9.736C165.512 9.204 165.881 8.79567 166.348 8.511C166.814 8.22633 167.339 8.084 167.923 8.084C168.445 8.084 168.893 8.19133 169.267 8.406C169.64 8.616 169.941 8.90067 170.17 9.26C170.398 9.61467 170.555 10.0183 170.639 10.471C170.727 10.9237 170.744 11.3903 170.688 11.871H165.9V11.101H169.778L169.456 11.311C169.47 11.059 169.456 10.807 169.414 10.555C169.376 10.303 169.302 10.072 169.19 9.862C169.078 9.64733 168.919 9.477 168.714 9.351C168.513 9.22033 168.256 9.155 167.944 9.155C167.552 9.155 167.223 9.253 166.957 9.449C166.695 9.645 166.497 9.90867 166.362 10.24C166.226 10.5667 166.159 10.926 166.159 11.318V11.857C166.159 12.291 166.224 12.676 166.355 13.012C166.485 13.348 166.679 13.614 166.936 13.81C167.197 14.0013 167.526 14.097 167.923 14.097C168.31 14.097 168.63 14.006 168.882 13.824C169.138 13.642 169.297 13.369 169.358 13.005H170.716C170.646 13.4437 170.485 13.8263 170.233 14.153C169.981 14.4797 169.656 14.734 169.26 14.916C168.868 15.0933 168.422 15.182 167.923 15.182ZM177.513 15V11.052C177.513 10.4687 177.373 10.0277 177.093 9.729C176.817 9.42567 176.444 9.274 175.973 9.274C175.599 9.274 175.273 9.37667 174.993 9.582C174.717 9.78267 174.503 10.079 174.349 10.471C174.199 10.8583 174.125 11.332 174.125 11.892H173.649C173.649 11.066 173.754 10.3707 173.964 9.806C174.178 9.24133 174.484 8.81433 174.881 8.525C175.277 8.231 175.753 8.084 176.309 8.084C176.85 8.084 177.307 8.20533 177.681 8.448C178.059 8.69067 178.346 9.036 178.542 9.484C178.738 9.92733 178.836 10.45 178.836 11.052V15H177.513ZM172.795 15V8.266H173.95L174.125 9.722V15H172.795ZM183.53 15.182C183.147 15.182 182.802 15.1097 182.494 14.965C182.186 14.8203 181.941 14.6033 181.759 14.314C181.582 14.02 181.493 13.6513 181.493 13.208V6.432H182.816V13.166C182.816 13.8007 183.112 14.118 183.705 14.118C183.887 14.118 184.064 14.0993 184.237 14.062C184.41 14.02 184.606 13.9593 184.825 13.88L185.014 14.825C184.767 14.9277 184.522 15.0117 184.279 15.077C184.041 15.147 183.791 15.182 183.53 15.182ZM180.464 9.169V8.266H184.811V9.169H180.464ZM190.158 15V6.082H195.667V7.23H191.488V9.932H195.352V11.073H191.488V15H190.158ZM198.393 6.831C198.127 6.831 197.917 6.75867 197.763 6.614C197.613 6.46467 197.539 6.264 197.539 6.012C197.539 5.76933 197.613 5.578 197.763 5.438C197.917 5.29333 198.127 5.221 198.393 5.221C198.654 5.221 198.859 5.29333 199.009 5.438C199.163 5.578 199.24 5.76933 199.24 6.012C199.24 6.264 199.163 6.46467 199.009 6.614C198.859 6.75867 198.654 6.831 198.393 6.831ZM197.728 15V8.245H199.058V15H197.728ZM201.97 15V5.431H203.3V15H201.97ZM208.446 15.182C207.867 15.182 207.345 15.0327 206.878 14.734C206.411 14.4353 206.04 14.02 205.765 13.488C205.494 12.956 205.359 12.34 205.359 11.64C205.359 10.898 205.494 10.2633 205.765 9.736C206.036 9.204 206.404 8.79567 206.871 8.511C207.338 8.22633 207.863 8.084 208.446 8.084C208.969 8.084 209.417 8.19133 209.79 8.406C210.163 8.616 210.464 8.90067 210.693 9.26C210.922 9.61467 211.078 10.0183 211.162 10.471C211.251 10.9237 211.267 11.3903 211.211 11.871H206.423V11.101H210.301L209.979 11.311C209.993 11.059 209.979 10.807 209.937 10.555C209.9 10.303 209.825 10.072 209.713 9.862C209.601 9.64733 209.442 9.477 209.237 9.351C209.036 9.22033 208.78 9.155 208.467 9.155C208.075 9.155 207.746 9.253 207.48 9.449C207.219 9.645 207.02 9.90867 206.885 10.24C206.75 10.5667 206.682 10.926 206.682 11.318V11.857C206.682 12.291 206.747 12.676 206.878 13.012C207.009 13.348 207.202 13.614 207.459 13.81C207.72 14.0013 208.049 14.097 208.446 14.097C208.833 14.097 209.153 14.006 209.405 13.824C209.662 13.642 209.82 13.369 209.881 13.005H211.239C211.169 13.4437 211.008 13.8263 210.756 14.153C210.504 14.4797 210.18 14.734 209.783 14.916C209.391 15.0933 208.945 15.182 208.446 15.182Z" fill="#2D3748"/>
</svg>
