<svg width="16" height="16" viewBox="0 0 16 16" fill="none" xmlns="http://www.w3.org/2000/svg">
<path d="M6.00016 1.33334C4.2535 1.33334 2.8335 2.75334 2.8335 4.50001C2.8335 6.21334 4.1735 7.60001 5.92016 7.66001C5.9735 7.65334 6.02683 7.65334 6.06683 7.66001C6.08016 7.66001 6.08683 7.66001 6.10016 7.66001C6.10683 7.66001 6.10683 7.66001 6.1135 7.66001C7.82016 7.60001 9.16016 6.21334 9.16683 4.50001C9.16683 2.75334 7.74683 1.33334 6.00016 1.33334Z" fill="#8791A3"/>
<path d="M9.38664 9.43327C7.52664 8.19327 4.49331 8.19327 2.61997 9.43327C1.77331 9.99993 1.30664 10.7666 1.30664 11.5866C1.30664 12.4066 1.77331 13.1666 2.61331 13.7266C3.54664 14.3533 4.77331 14.6666 5.99997 14.6666C7.22664 14.6666 8.45331 14.3533 9.38664 13.7266C10.2266 13.1599 10.6933 12.3999 10.6933 11.5733C10.6866 10.7533 10.2266 9.99327 9.38664 9.43327Z" fill="#8791A3"/>
<path d="M13.3267 4.89341C13.4334 6.18674 12.5134 7.32008 11.2401 7.47341C11.2334 7.47341 11.2334 7.47341 11.2267 7.47341H11.2067C11.1667 7.47341 11.1267 7.47341 11.0934 7.48674C10.4467 7.52008 9.8534 7.31341 9.40674 6.93341C10.0934 6.32008 10.4867 5.40008 10.4067 4.40008C10.3601 3.86008 10.1734 3.36674 9.89341 2.94674C10.1467 2.82008 10.4401 2.74008 10.7401 2.71341C12.0467 2.60008 13.2134 3.57341 13.3267 4.89341Z" fill="#8791A3"/>
<path d="M14.66 11.0598C14.6067 11.7065 14.1933 12.2665 13.5 12.6465C12.8333 13.0131 11.9933 13.1865 11.16 13.1665C11.64 12.7332 11.92 12.1932 11.9733 11.6198C12.04 10.7932 11.6467 9.99982 10.86 9.36648C10.4133 9.01315 9.89333 8.73315 9.32666 8.52648C10.8 8.09982 12.6533 8.38648 13.7933 9.30648C14.4067 9.79982 14.72 10.4198 14.66 11.0598Z" fill="#8791A3"/>
</svg>
