<svg width="24" height="24" viewBox="0 0 24 24" fill="none" xmlns="http://www.w3.org/2000/svg">
<path d="M0.369104 11.8127C0.527597 11.9348 0.722685 11.9998 0.922754 11.9972C1.06601 11.9972 1.20729 11.9639 1.33542 11.8998C1.46355 11.8357 1.575 11.7427 1.66095 11.6281C2.21896 10.8847 2.94211 10.2812 3.77333 9.86517C4.60455 9.44914 5.52109 9.232 6.45061 9.23088C7.38013 9.22976 8.29719 9.4447 9.12941 9.85872C9.96163 10.2728 10.6862 10.8745 11.246 11.6166L11.3152 11.6973H11.3268L11.3844 11.755H11.4075L11.4421 11.7896H11.4536C11.4855 11.8166 11.5203 11.8398 11.5575 11.8588L11.5921 11.8819L11.6959 11.928H12.2149L12.2957 11.9049H12.3072L12.3995 11.8703H12.4225L12.4802 11.8357L12.5148 11.8127L12.5494 11.7896C12.5525 11.7896 12.5554 11.7884 12.5576 11.7862C12.5597 11.7841 12.5609 11.7811 12.5609 11.7781L12.5955 11.7435C12.616 11.7342 12.6324 11.7178 12.6417 11.6973H12.6648L12.7224 11.6281H12.734C13.2926 10.8832 14.0171 10.2786 14.8499 9.86218C15.6828 9.44576 16.6011 9.22897 17.5323 9.22897C18.4634 9.22897 19.3818 9.44576 20.2146 9.86218C21.0474 10.2786 21.7719 10.8832 22.3306 11.6281C22.4792 11.8214 22.6976 11.9488 22.9389 11.9833C23.1803 12.0178 23.4256 11.9566 23.6224 11.8127C23.7194 11.74 23.801 11.6489 23.8628 11.5446C23.9245 11.4403 23.9651 11.3249 23.9822 11.205C23.9994 11.085 23.9927 10.9628 23.9626 10.8455C23.9326 10.7281 23.8797 10.6178 23.807 10.5208C22.9903 9.42463 21.9007 8.56163 20.6465 8.01786C21.3327 7.39012 21.8131 6.56968 22.0249 5.66412C22.2366 4.75856 22.1697 3.81016 21.833 2.94327C21.4963 2.07639 20.9054 1.33149 20.138 0.806267C19.3705 0.28104 18.4622 0 17.5323 0C16.6023 0 15.694 0.28104 14.9265 0.806267C14.1591 1.33149 13.5683 2.07639 13.2315 2.94327C12.8948 3.81016 12.8279 4.75856 13.0397 5.66412C13.2514 6.56968 13.7318 7.39012 14.418 8.01786C13.5143 8.41085 12.6925 8.97039 11.9958 9.66728C11.299 8.97039 10.4773 8.41085 9.57354 8.01786C10.2597 7.39012 10.7401 6.56968 10.9519 5.66412C11.1636 4.75856 11.0967 3.81016 10.76 2.94327C10.4233 2.07639 9.83244 1.33149 9.06498 0.806267C8.29751 0.28104 7.38924 0 6.45926 0C5.52928 0 4.621 0.28104 3.85354 0.806267C3.08608 1.33149 2.49525 2.07639 2.15853 2.94327C1.82182 3.81016 1.75494 4.75856 1.96666 5.66412C2.17838 6.56968 2.65882 7.39012 3.34497 8.01786C2.09086 8.56163 1.00117 9.42463 0.184554 10.5208C0.111847 10.6178 0.058947 10.7281 0.0288731 10.8455C-0.00120077 10.9628 -0.00785918 11.085 0.00927788 11.205C0.0264149 11.3249 0.067012 11.4403 0.128751 11.5446C0.19049 11.6489 0.272162 11.74 0.369104 11.8127ZM14.764 4.61522C14.764 4.06771 14.9264 3.5325 15.2305 3.07726C15.5347 2.62202 15.9671 2.26721 16.4729 2.05769C16.9787 1.84817 17.5353 1.79334 18.0723 1.90016C18.6093 2.00697 19.1026 2.27062 19.4897 2.65777C19.8769 3.04492 20.1405 3.53817 20.2473 4.07516C20.3541 4.61215 20.2993 5.16875 20.0898 5.67458C19.8803 6.18041 19.5255 6.61276 19.0702 6.91693C18.615 7.22111 18.0798 7.38347 17.5323 7.38347C16.799 7.38043 16.0967 7.0878 15.5782 6.56931C15.0597 6.05082 14.767 5.34847 14.764 4.61522ZM3.69101 4.61522C3.69101 4.06771 3.85336 3.5325 4.15754 3.07726C4.46172 2.62202 4.89406 2.26721 5.39989 2.05769C5.90573 1.84817 6.46233 1.79334 6.99932 1.90016C7.5363 2.00697 8.02956 2.27062 8.41671 2.65777C8.80385 3.04492 9.0675 3.53817 9.17432 4.07516C9.28113 4.61215 9.22631 5.16875 9.01679 5.67458C8.80727 6.18041 8.45245 6.61276 7.99722 6.91693C7.54198 7.22111 7.00677 7.38347 6.45926 7.38347C5.72601 7.38043 5.02365 7.0878 4.50516 6.56931C3.98667 6.05082 3.69404 5.34847 3.69101 4.61522ZM20.6465 20.0136C21.3327 19.3859 21.8131 18.5654 22.0249 17.6599C22.2366 16.7543 22.1697 15.8059 21.833 14.939C21.4963 14.0721 20.9054 13.3273 20.138 12.802C19.3705 12.2768 18.4622 11.9958 17.5323 11.9958C16.6023 11.9958 15.694 12.2768 14.9265 12.802C14.1591 13.3273 13.5683 14.0721 13.2315 14.939C12.8948 15.8059 12.8279 16.7543 13.0397 17.6599C13.2514 18.5654 13.7318 19.3859 14.418 20.0136C13.5143 20.4066 12.6925 20.9661 11.9958 21.663C11.299 20.9661 10.4773 20.4066 9.57354 20.0136C10.2597 19.3859 10.7401 18.5654 10.9519 17.6599C11.1636 16.7543 11.0967 15.8059 10.76 14.939C10.4233 14.0721 9.83244 13.3273 9.06498 12.802C8.29751 12.2768 7.38924 11.9958 6.45926 11.9958C5.52928 11.9958 4.621 12.2768 3.85354 12.802C3.08608 13.3273 2.49525 14.0721 2.15853 14.939C1.82182 15.8059 1.75494 16.7543 1.96666 17.6599C2.17838 18.5654 2.65882 19.3859 3.34497 20.0136C2.09086 20.5574 1.00117 21.4204 0.184554 22.5166C0.0377167 22.7124 -0.025332 22.9585 0.00927788 23.2007C0.0438877 23.443 0.173321 23.6616 0.369104 23.8084C0.527597 23.9305 0.722685 23.9956 0.922754 23.993C1.06601 23.993 1.20729 23.9596 1.33542 23.8956C1.46355 23.8315 1.575 23.7385 1.66095 23.6239C2.21896 22.8805 2.94211 22.277 3.77333 21.8609C4.60455 21.4449 5.52109 21.2278 6.45061 21.2266C7.38013 21.2255 8.29719 21.4404 9.12941 21.8545C9.96163 22.2685 10.6862 22.8703 11.246 23.6123L11.3152 23.6931H11.3268L11.3844 23.7508H11.4075L11.4421 23.7854H11.4536L11.5575 23.8546L11.5921 23.8776L11.6959 23.9238H12.2149L12.2957 23.9007H12.3072L12.3995 23.8661H12.4225L12.4802 23.8315L12.5148 23.8084L12.5494 23.7854H12.5609L12.5955 23.7508C12.616 23.7415 12.6324 23.7251 12.6417 23.7046H12.6648L12.7224 23.6354H12.734C13.2926 22.8905 14.0171 22.2859 14.8499 21.8695C15.6828 21.4531 16.6011 21.2363 17.5323 21.2363C18.4634 21.2363 19.3818 21.4531 20.2146 21.8695C21.0474 22.2859 21.7719 22.8905 22.3306 23.6354C22.4792 23.8287 22.6976 23.9561 22.9389 23.9906C23.1803 24.0251 23.4256 23.9638 23.6224 23.82C23.7194 23.7473 23.801 23.6562 23.8628 23.5519C23.9245 23.4476 23.9651 23.3322 23.9822 23.2123C23.9994 23.0923 23.9927 22.9701 23.9626 22.8528C23.9326 22.7354 23.8797 22.6251 23.807 22.5281C22.9918 21.4277 21.902 20.5606 20.6465 20.0136ZM3.69101 16.611C3.69101 16.0635 3.85336 15.5283 4.15754 15.073C4.46172 14.6178 4.89406 14.263 5.39989 14.0534C5.90573 13.8439 6.46233 13.7891 6.99932 13.8959C7.5363 14.0027 8.02956 14.2664 8.41671 14.6535C8.80385 15.0407 9.0675 15.5339 9.17432 16.0709C9.28113 16.6079 9.22631 17.1645 9.01679 17.6703C8.80727 18.1762 8.45245 18.6085 7.99722 18.9127C7.54198 19.2169 7.00677 19.3792 6.45926 19.3792C5.72601 19.3762 5.02365 19.0836 4.50516 18.5651C3.98667 18.0466 3.69404 17.3442 3.69101 16.611ZM14.764 16.611C14.764 16.0635 14.9264 15.5283 15.2305 15.073C15.5347 14.6178 15.9671 14.263 16.4729 14.0534C16.9787 13.8439 17.5353 13.7891 18.0723 13.8959C18.6093 14.0027 19.1026 14.2664 19.4897 14.6535C19.8769 15.0407 20.1405 15.5339 20.2473 16.0709C20.3541 16.6079 20.2993 17.1645 20.0898 17.6703C19.8803 18.1762 19.5255 18.6085 19.0702 18.9127C18.615 19.2169 18.0798 19.3792 17.5323 19.3792C16.799 19.3762 16.0967 19.0836 15.5782 18.5651C15.0597 18.0466 14.767 17.3442 14.764 16.611Z" fill="black"/>
</svg>
