<svg width="28" height="33" viewBox="0 0 28 33" fill="none" xmlns="http://www.w3.org/2000/svg">
<g filter="url(#filter0_d_1_55)">
<path d="M12.2353 11.9048H14.7059L22 4.52381L19.5294 2.02381L12.2353 9.40476V11.9048ZM22.8235 3.69048L23.6471 2.85714C23.8824 2.61905 24 2.34127 24 2.02381C24 1.70635 23.8824 1.42857 23.6471 1.19048L22.8235 0.357143C22.5882 0.119048 22.3137 0 22 0C21.6863 0 21.4118 0.119048 21.1765 0.357143L20.3529 1.19048L22.8235 3.69048ZM13.4118 25C10.2549 22.2817 7.89725 19.7567 6.33882 17.425C4.77961 15.094 4 12.9365 4 10.9524C4 7.97619 4.94627 5.60516 6.83882 3.83929C8.73059 2.07341 10.9216 1.19048 13.4118 1.19048C13.9412 1.19048 14.4659 1.23492 14.9859 1.32381C15.5051 1.41349 16.0098 1.5377 16.5 1.69643L14.5882 3.66071C14.3922 3.62103 14.2008 3.59603 14.0141 3.58571C13.8282 3.57619 13.6275 3.57143 13.4118 3.57143C11.4314 3.57143 9.75961 4.26071 8.39647 5.63929C7.03412 7.01865 6.35294 8.78968 6.35294 10.9524C6.35294 12.3611 6.93137 13.973 8.08824 15.7881C9.2451 17.604 11.0196 19.623 13.4118 21.8452C15.8039 19.623 17.5784 17.604 18.7353 15.7881C19.8922 13.973 20.4706 12.3611 20.4706 10.9524C20.4706 10.7143 20.4608 10.481 20.4412 10.2524C20.4216 10.0246 20.3922 9.80159 20.3529 9.58333L22.2941 7.61905C22.4706 8.13492 22.6031 8.67064 22.6918 9.22619C22.7796 9.78175 22.8235 10.3571 22.8235 10.9524C22.8235 12.9365 22.0443 15.094 20.4859 17.425C18.9267 19.7567 16.5686 22.2817 13.4118 25Z" fill="#F06704"/>
</g>
<defs>
<filter id="filter0_d_1_55" x="0" y="0" width="28" height="33" filterUnits="userSpaceOnUse" color-interpolation-filters="sRGB">
<feFlood flood-opacity="0" result="BackgroundImageFix"/>
<feColorMatrix in="SourceAlpha" type="matrix" values="0 0 0 0 0 0 0 0 0 0 0 0 0 0 0 0 0 0 127 0" result="hardAlpha"/>
<feOffset dy="4"/>
<feGaussianBlur stdDeviation="2"/>
<feComposite in2="hardAlpha" operator="out"/>
<feColorMatrix type="matrix" values="0 0 0 0 0 0 0 0 0 0 0 0 0 0 0 0 0 0 0.25 0"/>
<feBlend mode="normal" in2="BackgroundImageFix" result="effect1_dropShadow_1_55"/>
<feBlend mode="normal" in="SourceGraphic" in2="effect1_dropShadow_1_55" result="shape"/>
</filter>
</defs>
</svg>
