<svg width="32" height="28" viewBox="0 0 32 28" fill="none" xmlns="http://www.w3.org/2000/svg">
<path d="M10.6667 2C11.7215 2 12.7526 2.29324 13.6297 2.84265C14.5068 3.39206 15.1904 4.17295 15.594 5.08658C15.9977 6.00021 16.1033 7.00555 15.8975 7.97545C15.6917 8.94536 15.1838 9.83627 14.4379 10.5355C13.692 11.2348 12.7417 11.711 11.7071 11.9039C10.6726 12.0969 9.60023 11.9978 8.62569 11.6194C7.65115 11.241 6.8182 10.6001 6.23216 9.77785C5.64613 8.95561 5.33333 7.98891 5.33333 7C5.33333 5.67392 5.89524 4.40215 6.89543 3.46447C7.89563 2.52678 9.25218 2 10.6667 2ZM10.6667 0C9.1899 0 7.7463 0.410543 6.51841 1.17971C5.29052 1.94888 4.3335 3.04213 3.76837 4.32122C3.20323 5.6003 3.05537 7.00776 3.34347 8.36563C3.63157 9.7235 4.3427 10.9708 5.38694 11.9497C6.43117 12.9287 7.7616 13.5954 9.20999 13.8655C10.6584 14.1356 12.1597 13.997 13.524 13.4672C14.8884 12.9373 16.0545 12.0401 16.875 10.889C17.6954 9.73785 18.1333 8.38447 18.1333 7C18.1333 5.14348 17.3467 3.36301 15.9464 2.05025C14.5461 0.737498 12.647 0 10.6667 0ZM21.3333 28H19.2V23C19.2 21.6739 18.6381 20.4021 17.6379 19.4645C16.6377 18.5268 15.2812 18 13.8667 18H7.46667C6.05218 18 4.69562 18.5268 3.69543 19.4645C2.69524 20.4021 2.13333 21.6739 2.13333 23V28H0V23C0 21.1435 0.786664 19.363 2.18694 18.0503C3.58721 16.7375 5.48638 16 7.46667 16H13.8667C15.847 16 17.7461 16.7375 19.1464 18.0503C20.5467 19.363 21.3333 21.1435 21.3333 23V28ZM24.5333 14.18L21.7707 11.59L20.2667 13L24.5333 17L32 10L30.496 8.59L24.5333 14.18Z" fill="#F06704"/>
</svg>
