<svg width="24" height="24" viewBox="0 0 24 24" fill="none" xmlns="http://www.w3.org/2000/svg">
<path d="M12.1008 0C12.0756 0 12.0403 4.28265e-08 12.0101 0.00610419C11.7782 0.0493419 11.5008 0.265531 11.3193 0.759458C11.1277 1.25288 11.0874 1.95638 11.2538 2.70974C11.4252 3.45393 11.7782 4.09538 12.1714 4.48706C12.5546 4.87874 12.9025 4.98557 13.1345 4.94487C13.3765 4.90926 13.6437 4.68545 13.8252 4.19711C14.0168 3.70675 14.0672 2.99358 13.8958 2.24633C13.7193 1.49348 13.3714 0.858142 12.9782 0.469002C12.6454 0.1231 12.3378 0 12.1008 0ZM17.9193 6.58791C17.3647 6.60317 16.6639 6.75068 15.9832 7.04063C15.1966 7.38653 14.5916 7.84943 14.2588 8.2869C13.9261 8.7091 13.8958 9.02957 14.0017 9.21778C14.1126 9.40599 14.4202 9.58403 15.0101 9.60946C15.6 9.64507 16.3966 9.49755 17.1782 9.16182C17.9597 8.82101 18.5748 8.35302 18.9076 7.92573C19.2403 7.50353 19.2655 7.17289 19.1597 6.98468C19.0538 6.79138 18.7412 6.62351 18.1513 6.60317C18.0706 6.58791 18 6.58791 17.9193 6.58791ZM11.0471 11.3135C10.7143 11.3186 10.4118 11.3593 10.1395 11.4305C9.54454 11.5831 9.20168 11.8578 9.09076 12.1885C8.96471 12.5191 9.09076 12.9159 9.48403 13.3432C9.89748 13.7603 10.5782 14.1621 11.4252 14.386C12.2672 14.6098 13.079 14.6047 13.684 14.4419C14.2941 14.2842 14.637 14.0044 14.7479 13.6789C14.8639 13.3483 14.7479 12.9566 14.3395 12.5242C13.9412 12.1071 13.2605 11.7052 12.4134 11.4865C11.9345 11.3593 11.4655 11.3085 11.0471 11.3135ZM19.1496 14.269L16.0336 15.7594C16.2454 15.7696 16.7748 15.7848 16.7748 15.7848L17.1076 16.2274L19.8655 14.7776L19.1496 14.269ZM16.4017 14.274L13.5076 15.6577C13.7849 15.6729 14.4403 15.6831 14.7025 15.6984L17.2134 14.4979L16.4017 14.274ZM21.0706 14.8234L17.516 16.7259L18.2471 17.6771L22.0034 15.4084L21.0706 14.8234ZM7.01345 15.2863C6.86077 15.286 6.70855 15.3031 6.55966 15.3372C2.95462 16.1765 0.826891 16.2477 0.196639 16.2477H0V21.716C0 21.716 0.584874 21.6296 1.55798 21.6245C3.43866 21.6245 6.75126 21.95 9.97815 23.8525C10.1496 23.9593 10.5176 24 10.9765 24C12.2017 24 14.0622 23.705 14.4908 23.5422C18.8067 21.9093 24 17.4279 24 17.4279L22.3613 15.9832C22.3613 15.9832 18.3378 18.5724 17.8286 18.8216C13.2353 21.0954 9.51429 19.6762 9.51429 19.6762C9.51429 19.6762 15.5597 19.8288 17.5008 18.2875L16.3613 16.558C16.3613 16.558 12.1866 16.441 10.6992 16.2426C9.92269 16.1409 8.2437 15.2863 7.01345 15.2863Z" fill="#F06704"/>
</svg>
