<svg width="17" height="16" viewBox="0 0 17 16" fill="none" xmlns="http://www.w3.org/2000/svg">
<path fill-rule="evenodd" clip-rule="evenodd" d="M11.1821 11.7458C10.1658 12.5361 8.88866 13.0067 7.50167 13.0067C4.18704 13.0067 1.5 10.3189 1.5 7.00335C1.5 3.68779 4.18704 1 7.50167 1C10.8163 1 13.5033 3.68779 13.5033 7.00335C13.5033 8.39059 13.033 9.66794 12.243 10.6845L15.2799 13.7186C15.5731 14.0115 15.5734 14.4867 15.2806 14.7799C14.9878 15.0731 14.5128 15.0734 14.2196 14.7805L11.1821 11.7458ZM12.0029 7.00335C12.0029 9.49002 9.98765 11.5059 7.50167 11.5059C5.0157 11.5059 3.00042 9.49002 3.00042 7.00335C3.00042 4.51668 5.0157 2.50084 7.50167 2.50084C9.98765 2.50084 12.0029 4.51668 12.0029 7.00335Z" fill="#868FA0"/>
</svg>
